<?xml version="1.0" encoding="UTF-8" standalone="no"?>
<!-- Created with Inkscape (http://www.inkscape.org/) -->

<svg
   xmlns:dc="http://purl.org/dc/elements/1.1/"
   xmlns:cc="http://creativecommons.org/ns#"
   xmlns:rdf="http://www.w3.org/1999/02/22-rdf-syntax-ns#"
   xmlns:svg="http://www.w3.org/2000/svg"
   xmlns="http://www.w3.org/2000/svg"
   xmlns:sodipodi="http://sodipodi.sourceforge.net/DTD/sodipodi-0.dtd"
   xmlns:inkscape="http://www.inkscape.org/namespaces/inkscape"
   width="522.12585mm"
   height="174.17142mm"
   viewBox="0 0 1850.0523 617.14282"
   id="svg2"
   version="1.1"
   inkscape:version="0.92.2 (5c3e80d, 2017-08-06)"
   sodipodi:docname="logo-lg.svg">
  <defs
     id="defs4" />
  <sodipodi:namedview
     id="base"
     pagecolor="#ffffff"
     bordercolor="#666666"
     borderopacity="1.0"
     inkscape:pageopacity="0.0"
     inkscape:pageshadow="2"
     inkscape:zoom="0.47852574"
     inkscape:cx="798.58093"
     inkscape:cy="391.74781"
     inkscape:document-units="px"
     inkscape:current-layer="layer5"
     showgrid="false"
     fit-margin-top="0"
     fit-margin-left="0"
     fit-margin-right="0"
     fit-margin-bottom="0"
     inkscape:window-width="1920"
     inkscape:window-height="1001"
     inkscape:window-x="2391"
     inkscape:window-y="919"
     inkscape:window-maximized="1" />
  <metadata
     id="metadata7">
    <rdf:RDF>
      <cc:Work
         rdf:about="">
        <dc:format>image/svg+xml</dc:format>
        <dc:type
           rdf:resource="http://purl.org/dc/dcmitype/StillImage" />
        <dc:title />
      </cc:Work>
    </rdf:RDF>
  </metadata>
  <g
     inkscape:groupmode="layer"
     id="layer4"
     inkscape:label="background"
     transform="translate(1730.8515,7.6377869)">
    <path
       transform="matrix(-0.9961914,0.08719342,-0.08719342,-0.9961914,0,0)"
       style="opacity:1;fill:none;fill-opacity:1;stroke:#ccac55;stroke-width:15.00026131;stroke-miterlimit:4;stroke-dasharray:none;stroke-opacity:1"
       d="M 824.00818,-111.80784 A 917.52594,119.07111 0 0 1 -88.449951,-230.87714"
       id="path4145" />
    <path
       transform="matrix(0.9961914,-0.08719342,-0.08719342,-0.9961914,0,0)"
       style="opacity:1;fill:none;fill-opacity:1;stroke:#ccac55;stroke-width:15;stroke-miterlimit:4;stroke-dasharray:none;stroke-opacity:1"
       d="m -1349.6189,-132.55223 a 917.51929,119.06459 0 0 1 -396.9832,-98.04858"
       id="path4148" />
    <path
       transform="matrix(0.1110334,0.21444579,-0.24587108,0.14654766,-680.42409,345.79112)"
       style="opacity:1;fill:none;fill-opacity:1;stroke:#ccac55;stroke-width:15;stroke-miterlimit:4;stroke-dasharray:none;stroke-opacity:1"
       inkscape:transform-center-x="1.4865084"
       inkscape:transform-center-y="1.9701909"
       d="m -842.70701,147.14746 -40.74262,0.0131 20.36,-35.29067 z"
       id="path4153" />
  </g>
  <g
     inkscape:groupmode="layer"
     id="layer2"
     inkscape:label="body layer"
     transform="translate(1730.8515,7.6377869)">
    <path
       style="opacity:1;fill:#cccccc;fill-opacity:1;stroke:none;stroke-width:1;stroke-miterlimit:4;stroke-dasharray:none;stroke-opacity:1"
       d="m -1165.5714,1.7678018 a 308.57144,308.57144 0 0 0 -223.562,374.7699782 308.57144,308.57144 0 0 0 374.7681,223.56243 308.57144,308.57144 0 0 0 173.5432,-117.57412 277.36728,277.36728 0 0 1 -132.12412,77.03213 277.36728,277.36728 0 0 1 -336.87098,-200.95544 277.36728,277.36728 0 0 1 200.9555,-336.870933 277.36728,277.36728 0 0 1 175.56058,13.641928 308.57144,308.57144 0 0 0 -232.27028,-33.6059732 z"
       id="path4140"
       inkscape:connector-curvature="0" />
  </g>
  <g
     inkscape:groupmode="layer"
     id="layer5"
     inkscape:label="foreground"
     transform="translate(1730.8515,7.6377869)">
    <g
       aria-label="FLIGHT CLUB"
       style="font-style:normal;font-weight:normal;line-height:0%;font-family:sans-serif;letter-spacing:0px;word-spacing:0px;fill:#cccccc;fill-opacity:1;stroke:none;stroke-width:1px;stroke-linecap:butt;stroke-linejoin:miter;stroke-opacity:1"
       id="text4205">
      <path
         d="m -1283.9758,216.00212 h 67.8319 V 229.442 h -51.8621 v 34.78557 h 46.8024 v 13.43988 h -46.8024 v 56.36844 h -15.9698 z"
         style="font-style:normal;font-variant:normal;font-weight:normal;font-stretch:normal;font-size:161.911026px;line-height:125%;font-family:'Brandon Grotesque';-inkscape-font-specification:'Brandon Grotesque, Normal';text-align:start;writing-mode:lr-tb;text-anchor:start;fill:#cccccc;fill-opacity:1"
         id="path3733" />
      <path
         d="m -1190.6872,216.00212 h 15.9697 v 104.59389 h 57.4753 v 13.43988 h -73.445 z"
         style="font-style:normal;font-variant:normal;font-weight:normal;font-stretch:normal;font-size:161.911026px;line-height:125%;font-family:'Brandon Grotesque';-inkscape-font-specification:'Brandon Grotesque, Normal';text-align:start;writing-mode:lr-tb;text-anchor:start;fill:#cccccc;fill-opacity:1"
         id="path3735" />
      <path
         d="m -1100.5609,216.00212 h 15.9697 v 118.03377 h -15.9697 z"
         style="font-style:normal;font-variant:normal;font-weight:normal;font-stretch:normal;font-size:161.911026px;line-height:125%;font-family:'Brandon Grotesque';-inkscape-font-specification:'Brandon Grotesque, Normal';text-align:start;writing-mode:lr-tb;text-anchor:start;fill:#cccccc;fill-opacity:1"
         id="path3737" />
      <path
         d="M -972.32867,317.19651 V 285.4942 h -26.08918 v -13.12364 h 41.9008 v 50.67625 q -9.2498,6.56182 -20.39699,9.96132 -11.1472,3.32044 -23.79646,3.32044 -27.6704,0 -43.3239,-16.12785 -15.5744,-16.20692 -15.5744,-45.06313 0,-28.93527 15.5744,-45.06313 15.6535,-16.20691 43.3239,-16.20691 11.54245,0 21.89906,2.84609 10.43568,2.84609 19.21113,8.38016 v 16.9975 q -8.85451,-7.51052 -18.81583,-11.30531 -9.96133,-3.79479 -20.95041,-3.79479 -21.66195,0 -32.57195,12.09589 -10.831,12.09589 -10.831,36.0505 0,23.87555 10.831,35.97144 10.91,12.0959 32.57195,12.0959 8.45922,0 15.1001,-1.42305 6.64089,-1.5021 11.93778,-4.58537 z"
         style="font-style:normal;font-variant:normal;font-weight:normal;font-stretch:normal;font-size:161.911026px;line-height:125%;font-family:'Brandon Grotesque';-inkscape-font-specification:'Brandon Grotesque, Normal';text-align:start;writing-mode:lr-tb;text-anchor:start;fill:#cccccc;fill-opacity:1"
         id="path3739" />
      <path
         d="m -927.26554,216.00212 h 15.96974 v 48.38357 h 58.02866 v -48.38357 h 15.96974 v 118.03377 h -15.96974 v -56.21032 h -58.02866 v 56.21032 h -15.96974 z"
         style="font-style:normal;font-variant:normal;font-weight:normal;font-stretch:normal;font-size:161.911026px;line-height:125%;font-family:'Brandon Grotesque';-inkscape-font-specification:'Brandon Grotesque, Normal';text-align:start;writing-mode:lr-tb;text-anchor:start;fill:#cccccc;fill-opacity:1"
         id="path3741" />
      <path
         d="m -821.88109,216.00212 h 99.85041 V 229.442 h -41.90081 v 104.59389 h -16.04879 V 229.442 h -41.90081 z"
         style="font-style:normal;font-variant:normal;font-weight:normal;font-stretch:normal;font-size:161.911026px;line-height:125%;font-family:'Brandon Grotesque';-inkscape-font-specification:'Brandon Grotesque, Normal';text-align:start;writing-mode:lr-tb;text-anchor:start;fill:#cccccc;fill-opacity:1"
         id="path3743" />
      <path
         d="m -566.60241,225.0938 v 16.83938 q -8.06393,-7.51052 -17.23467,-11.22625 -9.09168,-3.71573 -19.36924,-3.71573 -20.23888,0 -30.99078,12.41212 -10.7519,12.33307 -10.7519,35.73427 0,23.32215 10.7519,35.73427 10.7519,12.33307 30.99078,12.33307 10.27756,0 19.36924,-3.71574 9.17074,-3.71573 17.23467,-11.22625 v 16.68127 q -8.38016,5.69218 -17.78807,8.53827 -9.32886,2.84609 -19.76453,2.84609 -26.80071,0 -42.21704,-16.36503 -15.41633,-16.44408 -15.41633,-44.82595 0,-28.46092 15.41633,-44.82595 15.41633,-16.44409 42.21704,-16.44409 10.59378,0 19.92264,2.84609 9.40792,2.76704 17.62996,8.38016 z"
         style="font-style:normal;font-variant:normal;font-weight:normal;font-stretch:normal;font-size:161.911026px;line-height:125%;font-family:'Brandon Grotesque';-inkscape-font-specification:'Brandon Grotesque, Normal';text-align:start;writing-mode:lr-tb;text-anchor:start;fill:#cccccc;fill-opacity:1"
         id="path3745" />
      <path
         d="m -541.77814,216.00212 h 15.96974 v 104.59389 h 57.47525 v 13.43988 h -73.44499 z"
         style="font-style:normal;font-variant:normal;font-weight:normal;font-stretch:normal;font-size:161.911026px;line-height:125%;font-family:'Brandon Grotesque';-inkscape-font-specification:'Brandon Grotesque, Normal';text-align:start;writing-mode:lr-tb;text-anchor:start;fill:#cccccc;fill-opacity:1"
         id="path3747" />
      <path
         d="m -461.37602,216.00212 h 16.0488 v 71.70571 q 0,18.97395 6.87806,27.35411 6.87805,8.3011 22.29438,8.3011 15.33728,0 22.21534,-8.3011 6.87805,-8.38016 6.87805,-27.35411 v -71.70571 h 16.0488 v 73.68216 q 0,23.08497 -11.46343,34.86463 -11.38437,11.77966 -33.67876,11.77966 -22.37344,0 -33.83687,-11.77966 -11.38437,-11.77966 -11.38437,-34.86463 z"
         style="font-style:normal;font-variant:normal;font-weight:normal;font-stretch:normal;font-size:161.911026px;line-height:125%;font-family:'Brandon Grotesque';-inkscape-font-specification:'Brandon Grotesque, Normal';text-align:start;writing-mode:lr-tb;text-anchor:start;fill:#cccccc;fill-opacity:1"
         id="path3749" />
      <path
         d="m -325.00078,277.66745 v 43.24479 h 25.61483 q 12.88647,0 19.053,-5.29689 6.24559,-5.37595 6.24559,-16.36503 0,-11.06814 -6.24559,-16.28598 -6.16653,-5.29689 -19.053,-5.29689 z m 0,-48.54168 v 35.57615 h 23.63837 q 11.7006,0 17.39279,-4.3482 5.77124,-4.42725 5.77124,-13.43988 0,-8.93356 -5.77124,-13.36082 -5.69219,-4.42725 -17.39279,-4.42725 z m -15.96974,-13.12365 h 40.79398 q 18.26243,0 28.14469,7.58958 9.88227,7.58958 9.88227,21.58286 0,10.83097 -5.05972,17.23467 -5.05972,6.40371 -14.86293,7.98487 11.77966,2.52986 18.26243,10.59379 6.56182,7.98487 6.56182,20.00171 0,15.81162 -10.7519,24.42895 -10.75191,8.61734 -30.59549,8.61734 h -42.37515 z"
         style="font-style:normal;font-variant:normal;font-weight:normal;font-stretch:normal;font-size:161.911026px;line-height:125%;font-family:'Brandon Grotesque';-inkscape-font-specification:'Brandon Grotesque, Normal';text-align:start;writing-mode:lr-tb;text-anchor:start;fill:#cccccc;fill-opacity:1"
         id="path3751" />
    </g>
    <g
       aria-label=" "
       style="font-style:normal;font-variant:normal;font-weight:normal;font-stretch:normal;line-height:0%;font-family:'Brandon Grotesque';-inkscape-font-specification:'Brandon Grotesque, Normal';text-align:start;letter-spacing:0px;word-spacing:0px;writing-mode:lr-tb;text-anchor:start;fill:#000000;fill-opacity:1;stroke:none;stroke-width:1px;stroke-linecap:butt;stroke-linejoin:miter;stroke-opacity:1"
       id="text4209" />
    <path
       transform="matrix(0.9961914,-0.08719342,0.08719342,0.9961914,0,0)"
       style="opacity:1;fill:none;fill-opacity:1;stroke:#ccac55;stroke-width:15.00000095;stroke-miterlimit:4;stroke-dasharray:none;stroke-opacity:1"
       d="m 88.450317,230.29639 a 917.52594,119.07092 0 0 1 -458.762977,103.11844 917.52594,119.07092 0 0 1 -917.52594,0 917.52594,119.07092 0 0 1 -458.763,-103.11845"
       id="path4174" />
  </g>
</svg>
