<svg xmlns="http://www.w3.org/2000/svg" viewBox="0 0 23.9572 23.9485"><path fill="#fff" stroke="#000" stroke-width=".1" d="M2.5464 15.003l.0104.002.0095-.0038.0085-.0114h.003l.0017.0066.003.0038.0037.001.0038.0095.001.018v.0095l.0122.02.002.0046-.0124-.0028-.0076.002-.0076.0056-.0095.001-.001-.0047.005-.009v-.005l-.005-.002-.002-.006.003-.008-.004-.011-.026-.018-.009-.015.002-.014h.005l.004.011.01.011zm-.365.0067l.0076.0047.0094-.0038v.021l.002.0188.0066.0152.0132.0057.0067.0028.004.005.005.004h.009l.019-.014.007-.002-.01.026-.016.01-.019-.002-.018-.01-.01-.01-.002-.006v-.009l-.004-.015-.007-.01-.022-.022-.01-.02v-.017l.031-.074.007-.006.009-.005.025-.007v.015l-.034.019-.01.02-.002.011-.008.021-.002.012.002.014.004.011zm.1848-.127l.003.0095-.0058.017-.0038.0085-.0047.0028-.002.0047.004.0313-.006.018-.012.0114-.013.002-.01-.007-.005-.019.001-.019.004-.019.003-.019.002-.012.007-.006.013-.002h.01l.005-.002.003-.003.003.001zm1.3652-.2636l-.015.007-.0286-.01-.0227-.019-.016-.019-.005-.019.01-.012.01-.006.006-.005.002-.006-.001-.005.003-.002.02.001.012.004.011.014.01.024.006.029.002.013v.016zm-1.6704-.675l-.0095.007-.0142-.011-.0086-.02-.0265-.076v-.016h.017l.0247.015.011.01.005.012.009.024.002.019-.012.038zm11.2126-8.408l.0133.023.022-.008.049-.048.013-.003.083.036.114.016.074.043.017.015.047.067.016.012.046.006.022.008.08.055.009.001.009-.01.019-.032.012-.009.051-.019.005-.005.002-.007v-.01l.002-.008.006-.016.023-.038.011-.004.046.019.013-.001.013-.004.012-.007.011-.012.024-.017.032-.003.032.007.025.012-.01.013-.01.016-.003.017.005.016.097.129.01.029v.032l-.001.029-.01.045.01.028-.005.013-.007.012-.004.017-.001.019.004.015.021.025.004.014-.002.028.008.033.024.026.028.016.024.006h.025l.012.003.009.009.02.032.008.021v.023l-.008.014-.012.008-.03.01-.018.017-.004.028.004.071v.006l-.001.006v.004l.012.013.002.012-.003.033.002.007.004.003.009.003.003.005-.001.038-.004.043-.032.007h-.01l-.011-.004-.022-.013-.012-.005h-.021l-.013.008-.006.019.004.035.036.003.007.005.003.015v.024l-.004.023-.004.015.022.013.01.009.009.014.018.036.009.012h.012l.021-.014.016-.019.028-.053.015-.011.017.003.019.009.017.004h.018l.006.003.006.01.003.014.006.049.012-.002.028-.015.015-.002.005.003.012.012.006.004.009.003.009-.002.019-.01.016-.014.005-.013-.003-.044.002-.019.006-.019.01-.013.012-.005.114.011.014.005.011.006.009.01.033.067.013.016.017.006.016-.003.013-.007.008-.016-.002-.027-.009-.017-.016-.01-.018-.003-.015-.007-.009-.009-.002-.005v-.02l.002-.009.002-.012.004-.011.012-.026.002-.01-.005-.01-.014-.012-.019-.012-.007-.01-.001-.015.009-.007.063.01.019.012.022.024.018.03.009.03.007.009.026.009.008.017-.003.013-.019.044.051.021.055.021v.003l-.004.009-.006.013-.008.003-.008-.002h-.01l-.002.003-.005.013-.002.002h-.006l-.017-.007-.006.003-.001.011.002.013.002.009.011.015.013.012.008.014-.007.023-.014.035-.006.02v.016l.01.012.019.005.019-.002.011-.009.024-.028.015-.029.007-.006h.009l.059.027.016-.008-.003-.035-.012-.029-.011-.021-.014-.011h-.02l-.051.01-.004-.007.004-.017.005-.019.005-.012.026-.028.029-.006.078.009.074.008.033-.004.008.005.007.013.002.017.002.038.027.014.008.014.005.028.011.013.075.017.097.023.008-.002.002-.008.003-.021.005-.003.019.001.005.002.008.007.013.016.008.002.013-.005.007-.005.002-.012-.001-.024.005-.018.034-.01.009-.015-.002-.012-.005-.01-.002-.009.008-.004.03-.008.009.003v.004l.003.02.006.004.032-.009-.026.155-.007.026-.012.014-.016.003-.087-.017-.017.001-.014.009-.012.015-.012.022.028.019-.052.021-.01.012-.014.088-.026.005-.01.006-.009.013-.005.019.003.013.019.022-.016.033.093.05-.024.06.037.029.007-.003.057-.058.013-.014.006-.008.004-.01.006-.026.004-.006.01-.004.004-.001.014.003.005-.003.002-.015.004-.015v-.01l.001-.005.004-.003.044.002.01.003.019.012.009-.003.041-.032.019-.007h.019l.061.01.009.005.002.016v.035l.008.007.018.001.006-.004.011-.023.006-.004.038.001.006.003.008.012.003.015.006.009.012.005-.005.022.004.015.022.022.03.025.017.004.013-.016.028-.089v-.01l-.008-.008-.01-.009-.004-.0073.005-.049.006-.019.008-.0116.095.004.006-.007.009-.046.007-.014.005-.006.007-.002.029-.002.005-.006.004-.014.007-.029.004-.014.006-.007.019-.007.048.001.022.005.044.024.016-.001.145-.108.09-.068-.042-.072.04-.03.02-.01.021-.002.06.008.021-.005.232-.112.083-.039-.007-.023-.001-.016.004-.015.01-.019.012-.016.012-.006.116.032.025-.007.037-.028.012-.005h.009l.017.002.01-.002.009-.009.003-.018v-.02l.004-.019.012-.014.017-.004.032.003.014-.002.041-.022.012-.004h.015l.008.01-.004.023-.01.009-.048.012-.01.008-.015.012-.007.013.008.013.028.009.012.01.004.024-.002.025-.009.019-.013.017-.01.019-.008.029-.005.009-.007.009-.014.014-.006.01-.03.036h-.035l-.074-.029-.037-.003-.011.005-.01.007-.001.007.059.104.004.013.008.038.017.029.551.445.08.064.099.112.047.054.063.1.227.4.062.11.329.611.186.352.062.117.234.503.03.066.017.047.007.014.013.021.018.019.019.013h.019l-.032-.051-.009-.029.02-.012.011.005.02.023.01.007.013-.002.008-.01.008-.03.008-.014.008-.007.022-.009.004-.006.008-.011.006-.004.007-.001.024.003.023-.005.026-.014.021-.022.012-.032.002-.014.001-.016v-.02l-.003-.014-.006-.013-.016-.017-.008-.012-.002-.012v-.02l.004-.03.004-.018.008-.011.009-.006.014-.002.049.007.023-.006.008-.023V9.52l.005-.014.006-.012.008-.009.01-.011.011-.001.077.038.015.003.008-.007.005-.009.011-.009.014.002.004.013.001.032.005.018.007.01.024.014.027.013.013.004.014.002.017-.018.008-.005.011.002.011.007.004.012-.002.016-.004.019-.039.098-.015.057-.002.013.004.008.012.007.015.003.032-.001.068-.022.072.004v.033l.008.031.013.027.016.024-.013.019-.011.023-.004.024.007.02.017.01.1235-.005.014-.009.016-.026.0114-.01.01.001.022.015.012.002.043-.007.029.005.026.009.013.009.035.031.012.008.03.006.015-.002.015-.005.009-.009.012-.014.011-.01.01.002.009.005.007-.003.0072-.006.008-.004.007.002.005.004.007.004.027-.006.013.007.027.026.074-.051.04-.019.015-.019.001-.065.015-.018.022-.005.047.014.076.01.026-.0093.021-.024.016-.032.012-.038.011-.002h.007l.014.007.01.001.009-.001.0093-.004.066-.0094.064.0095.016.025.009.0106.012.007.065.012.014.007.034.03.013.009.011.002h.026l.013.004.012.007.01.01.018.032.007.009.023.01.017.019v.057l.015.03.066.048.0065.005.019.026.005.017.002.014.004.012.019.023.0068.015.001.017-.012.049.0095.029.015.029.012.03.002.021-.001.02v.019l.005.017.007.006.018.005.006.004.004.0063.0078.015.004.006.022.001.021-.017.021-.013.02.016.017.02.018.012.019.005.022-.002.021.003.015.013.013.017.018.013.01.001.021-.003.01.006.006.008.014.034.008.005.009-.004.011-.006.007-.004.013.002.038.018.007.006.019.031.005.012-.002.014-.009.006-.027.006-.005.001-.002.052.002.024.012.011.033.007.013.011.0097.021.002.033.004.012.009.016.038.044.013.026.006.071.017.026.023.013.023-.008.01-.0072.013-.009.013-.005.012-.002.013.006.026.019.015.005.022-.002.01-.004.011-.005.018-.017.01-.005.01.002.009.01.008.026.007.011.01.004.01-.002.022-.009h.012l.009.006.01.01.008.013.008.005.01-.004.019-.015.012-.005h.011l.023.002.001.008-.005.038v.014l.008.011.01.0026.01-.004.028-.03.025-.01.024.006.014.024.023.027.021-.029.019-.048.014-.03.033-.024.036-.013.038-.037.0105-.004.004-.006v-.008l-.001-.009-.004-.01.026-.017.01-.011.005-.003h.0117l.011-.016.007-.019.008-.012.019.001.024.014h.01l.018-.004h.009l.007.004v.01l-.009.021-.003.008.001.012.006.01.014.015-.011.012-.011.008-.013.005-.028.002-.011.009-.021.03-.008.016-.002.014.004.012.011.013.014.009h.012l.027-.006.013.003.04.026.013.011-.001.015-.005.018v.02l.008.015.014.01.029.015.016.012-.001.009-.01.01-.005.015.005.013.012.012.038.031.008.008.002.007v.013l.005.008.006.006.008.003.014.002.049-.004.017.004.016.007.032.022.01.019.012.061.01.025-.072-.021-.023-.012-.027-.006-.082.033-.017-.002-.034-.011-.016.001-.012.009-.012.032-.01.014-.024.019-.01.012-.009.015-.0077.019-.002.013v.015l.004.022.014.029.019.018.009.017-.015.028-.011.013-.004.008v.01l.007.038v.012l-.004.01-.043.062-.029.027-.009.011-.006.014-.011.03-.006.012-.01.009-.067.027-.057-.004-.014.006-.013.011-.023.029-.031.016-.108-.009-.129.018-.021.016-.016.027-.077.19-.014.096-.01.033-.009.023-.006.019-.002.02.047.256v.029l-.01.057.002.027.009.026.041.067.004.018-.003.017-.004.016.002.014.005.016v.014l-.005.029-.003.017-.002.013-.007.006-.026.004-.014.004-.013.01-.006.014-.001.016-.004.013-.004.012-.007.011-.005.015-.002.017-.004.01h-.03l-.076.011-.033-.004-.011.003-.012.007-.0075.01-.014.025-.012.014-.04.03-.017.019-.006.005-.027.007-.0087.004-.009.009-.013.026-.011.009-.045.01-.041.018-.017.003-.011-.005-.003-.012.005-.013.008-.013.006-.013v-.03l-.01-.025-.019-.019-.021-.011-.028-.002-.055.013-.027-.005-.031-.015h-.01l-.071-.006-.062.006-.038.022-.013.003-.041-.008h-.055l-.221-.079-.099-.0664-.022-.011-.053-.0116-.013-.007-.03-.026-.014-.004-.017-.002h-.015l-.015.004-.014.007-.005.009v.0444l-.008.019-.001.01v.006l.003.017v.009l-.01.032-.002.017.001.016.004.015-.001.014-.004.014-.085.178-.053.202-.023.05-.004.014-.007.045-.009.026-.038.064-.023.049-.016.055-.015.115-.016.075-.008.024-.016.04-.044.076-.021.083-.019.0428-.004.024-.004.018.022.033.019.009.088.013.06.025.009.016.002.0305-.001.033-.012.075-.017.059-.027.043-.037.006-.029-.018-.049-.055-.027-.019-.029-.004-.031.009-.111.057-.029.007-.024-.011-.012-.0126-.01-.007-.038-.007-.01-.006-.002-.01v-.019l-.005-.028-.01-.035-.014-.025-.02-.002-.024-.007-.025.011-.046.034-.231.073-.048.027-.024.008h-.027l-.071.029-.015.001-.048-.015h-.028l-.093.035-.039-.004-.013.002-.011.009-.011.029-.01.01-.015.003-.043-.003-.042.016-.042-.007-.025.002-.024.011-.022.021-.057.05-.029.014-.011.01-.009.024.015.02.071.045.028.003.104-.023.015.002.01.005.029.024.095.036.009.007.002.011-.002.011-.01.006-.038.01-.019.01-.013.014-.001.01.003.007.009.014.005.01-.003.01-.009.018-.015.062-.005.033.002.028.022.119v.032l-.015.058-.005.03.004.015.01.011.019.019.005.014.003.013.001.015v.016l.007.017.009.019.021.031.07.18.069.181-.002.027-.01.024-.028.055.009.013.022.005.022.011.007.012.004.014.002.015v.015l.004.015.013.025.003.014-.003.017-.009.012-.011.007-.013.003-.011-.003-.029-.023h-.02l-.025.012-.046.034-.0506.022-.0243.016-.008.022.011.02.019.016.04.019.027.005.013.007.007.014-.003.016-.013.008-.029.004-.044.017-.01.009-.029.01-.009.002-.021-.005-.01-.001-.01.005-.012.02-.013.047-.01.024-.022.032-.005.013-.002.017.003.012.004.013.005.032.006.011.015.023.006.014V17l-.009.026v.009l.014.062.004.012.006.012.009.0116.01.057-.005.017-.007.01-.022.011-.026-.015-.018-.024-.015-.027-.019-.026-.038-.034-.022-.033-.007-.009-.025-.016-.128-.028h-.025l-.046.008-.052-.002-.03-.012-.017-.021-.027-.063-.019-.019-.045-.022-.02-.021-.01-.014-.005-.016-.004-.016v-.018l.003-.03-.005-.008-.014-.005-.023.0044-.046.023h-.021l-.023-.01-.038-.003-.048-.019-.069-.007-.01-.006-.021-.017-.024-.013-.057-.021-.038-.004-.026.002-.013.004-.021.014-.01.004h-.013l-.023-.009-.012-.002-.027.004-.026-.001-.062.006-.027-.005-.033-.019-.013-.006-.013-.001-.014.002-.016.008-.014.0068-.008-.005-.01-.014-.039-.009-.038-.002-.012.003-.031.014h-.008l-.012-.006-.009-.008-.011-.006h-.023l-.016-.006h-.009l-.01.002-.024.012-.019.0055-.057-.0097h-.02l-.01-.003-.01-.007-.016-.024-.007-.006-.019-.007-.066-.0107-.012-.005-.011.002-.022.009h-.025l-.012.002-.011.008-.012.014-.004.003h-.004l-.01-.002-.004.001-.002.003v.004l-.003.003-.021.012-.012.003-.025-.001-.023.009-.012.004-.015-.003-.03-.013-.015-.002-.011.005-.018.017-.01.003-.006-.003-.006-.012-.005-.004h-.008l-.011.006h-.006l-.05-.014h-.052l-.043-.01h-.015l-.038.012h-.013l-.045-.015-.023-.003-.03.002-.006.001-.008.002-.007.007-.019.051-.006.011-.014.014-.016.013-.017.008H17l-.037-.015-.011-.002-.0223.003-.131-.017h-.038l-.016-.004-.0358-.02-.013-.011-.017-.009-.035-.01-.016-.008-.017-.014-.05-.025-.067-.012-.02-.008-.059-.047-.008-.01-.015-.026-.008-.01-.012-.006-.024-.006-.02-.014-.025-.002-.012-.007-.029-.025-.017-.01-.019-.004-.016-.007-.03-.028-.017-.01.016.023.005.013-.002.012-.009.005-.091.01-.011-.003-.021-.021-.012-.004-.017.014-.019.055-.021.012h-.025l-.01.002-.1.04-.029.016-.009.009-.007.012-.022.064-.012.021-.005.012-.003.014.002.013.007.026.002.015-.002.012-.047.103-.006.029-.001.028.004.026.009.025.042.082v.013l-.016.004-.035-.014-.052-.009-.008-.009V17l.002-.0246-.009-.01-.014-.006-.042-.003-.009-.003-.01-.006-.012-.009-.022-.0088h-.026l-.074.011h-.02l-.019-.006-.02-.0094-.015-.0133-.02-.038-.014-.015-.018-.009-.083-.021h-.04l-.02-.003-.068-.048-.038-.015-.076-.003-.008.002-.016.008-.009.001-.019-.006-.067-.038-.036-.009-.009-.004-.01-.006-.008-.005-.009.002-.019.007-.041.002-.019.006-.063.04-.009.002-.008-.003-.024-.019-.006-.004-.005.001-.009.004-.029-.01h-.014l-.01.009-.007.011-.008.011-.009.009-.01.004-.012-.002-.014-.006-.013-.004-.009.005-.012.023-.007.009-.009.006-.021.008-.005.008-.002.017.001.031-.002.011-.009.01-.049.008-.022.014.006.029.006.008.02.018.006.009-.002.009-.006.008-.007.005h-.009l-.027-.018-.009.009-.008.013-.007.015-.004.015.001.01.003.005.001.005-.004.01-.019.023-.02.02-.007.012.003.011.023.023.011.006.017.003-.019.016-.02.016-.011.005-.01.006-.012.001-.011.002-.014-.004-.014-.004h-.014l-.004.007-.004.006-.003.007-.002.007-.004.005-.003.006-.008.01-.008.01-.007.013-.007.013-.006.014-.005.015-.006.012-.006.011-.01.004-.009.004-.007-.001h-.007l-.006-.004-.006-.002-.004-.005-.004-.004-.006-.019-.002-.006-.005-.005-.005-.005-.006-.004-.005-.003h-.004l-.004-.002-.028.012-.029.013-.012.01-.012.011-.008.016-.007.016-.002.007-.003.007-.003.004-.004.004-.014.006-.005.002-.005.003-.005.003-.005.005-.004.004-.019.034-.021.034-.007.009-.008.009-.025.018-.024.017-.016.007-.016.006-.005.004-.004.004-.004.006-.004.005-.01.011-.008.01-.012.006-.013.005-.032.001-.032.002-.039.011-.04.011-.005.004-.004.004-.009.01-.007.01-.029.024-.03.023-.016.006-.017.006-.008.005-.008.006-.003.01-.004.01.002.005v.004l.005.009.005.009v.008l-.003.002-.004.002-.017-.003-.017-.004-.005.001-.003.002-.012.007-.011.007h-.002l-.005.001-.009-.002-.008-.003-.005.002-.015.009-.016.011-.008.007-.0068.007-.0028.007-.003.009-.006-.003-.006-.002-.005.002-.006.002-.029.015-.003.002-.002.003-.001.003v.003l.001.003.01.011v.002l.003.015v.006l-.005.036-.004.038-.003.004-.002.004-.006.006-.005.005-.01.007-.01.007-.011.006-.009.004-.013.002h-.012l-.006.002-.007.003-.004.005-.004.005-.007.012-.008.013-.019.008-.021.009-.008.009-.009.01-.01.03-.013.029-.006.007-.006.007-.024.01-.012.007-.008.006-.008.005-.003.009-.004.01-.009-.005v-.001.033l-.002.004-.002.005-.006.005-.001.002-.002.005v.005l.003.033.002.032.002.007.002.008.002.002.002.003.003.002.003.002.006.002.007.002v.014l.002.005.006.013.003.005v.002l-.001.003-.008.011-.007.013.006.003.004.003-.001.005-.002.004-.007.004-.006.004-.008-.001-.008-.001-.012-.005-.011-.006h-.005l-.002.001-.003.002-.005.009-.003.003h-.008l-.008.009v.002l-.114-.06-.024-.012-.019-.016-.019-.015-.028-.026-.026-.027-.009-.005-.01-.005-.01-.002-.012-.002-.002-.001-.002-.002.001-.003.001-.003.002-.002.003-.003.009-.004.01-.005.005-.004.005-.004.013-.014.003-.006.004-.009.005-.009.004-.013.005-.013.003-.013.003-.012v-.023l-.003-.004-.002-.005-.001-.002-.002-.002-.002-.001-.003-.002.011-.007.006-.005-.004-.003-.003-.001v-.004l.001-.004-.001-.009-.001-.008-.007.001h-.005l-.005.01-.004.009-.003-.004-.003-.005h-.008l-.012.006-.003.003-.004-.007-.004-.006-.003-.016-.002-.016-.002-.006-.003-.007-.014-.017-.012-.017-.002-.008h-.001V18l-.003-.01-.032.021-.016.011-.006.001-.006-.002-.0067-.003-.0117-.01-.012-.008-.005-.001-.006-.002-.474.028-.067.004-.034-.009-.014-.004-.013-.015-.012-.016-.026-.114-.025-.114-.019-.096-.018-.095-.01-.099-.011-.098h-.002l-.001-.001-.007-.002h-.273l-.001-.002-.003-.002v-.005l-.001-.004.003-.281v-.024l.002-.006.001-.005.007-.003.007-.003.002-.007.003-.007.016-.237.012-.196-.085.045-.084.046h-.005l-.006-.001-.112-.231-.05-.102-.011-.01-.011-.011-.06-.038-.06-.038-.029-.03-.0287-.03-.064-.082-.062-.082-.01-.011-.011-.008-.009-.002-.01-.002-.009.004-.012.004-.17.095-.058.0326-.009.003-.011.0028-.619-.057-.088-.008-.369.061-.053.008-.261.048h.002l-.011-.0066-.012-.005-.307-.3545-.041-.047-.05-.078-.067-.072-.034-.055-.006-.019-.004-.0415-.004-.019-.011-.0217-.015-.017-1.379-.925-.045-.03-.015-.007-.015-.002-.253.074-.034.009-.251.078-.073.022-.871.28v2.92l-.04-.004-.019.002-.052.024-.054.008-.034.013-.073.004-.018-.006-.016-.01-.01-.009-.01-.013-.017-.039-.007-.013-.01-.01-.036-.026-.021-.019-.017-.021-.038-.067-.037-.067-.027-.036-.059-.082-.007-.014-.003-.016v-.016l.002-.014v-.012l-.005-.016-.014-.017-.098-.091-.315-.212-.043-.015-.044-.006-.33.06-.038.009-.128.051-.033.019-.09.032-.125.104-.166.166-.024.025-.001-.016.005-.018.022-.057.006-.028-.004-.031-.006-.016-.007-.013-.012-.01-.004-.007-.002-.01.004-.028V17.3l-.004-.007-.017-.019.007-.011.005-.015.004-.015.001-.015.004-.0134.009-.006.009-.005.009-.007.028-.055.032-.042.004-.007.003-.008v-.035l.003-.006.017-.017.005-.007.002-.006.001-.013.002-.0066.01-.0318.006-.028V16.9l-.008-.0304-.015-.034-.012-.018-.025-.0163-.007-.017v-.017l.006-.0057.005.0085.004.016.006.017.012.008.005.002.021.014.003.006.002.01.003.001.008.029.005.015.005.007.006-.007.006-.016.004-.019.003-.015-.006-.035-.013-.023-.021-.013-.029-.002-.002-.019-.028-.019-.061-.023-.057-.005h-.01l-.013.006-.007.005-.003.005-.007.014-.003.004-.015-.006-.038-.053-.022-.017-.014-.001-.05.008-.039.015-.021.015-.014.005-.012-.007-.035-.04-.008-.013-.012-.026-.01-.014-.005-.012-.006-.028-.005-.016-.028-.031-.007-.016-.016-.004-.004-.003-.003-.01.002-.007.003-.005.001-.01-.002-.015-.007-.016-.009-.01-.023.011-.029-.001-.013.003-.012.014-.006.002-.006-.002-.013-.007L3 16.434l-.054.012H2.9l-.008-.007.002-.019.02-.064.006-.034.004-.105-.003-.017-.0184-.036-.002-.008-.002-.026-.002-.007-.008-.011-.022-.017-.005-.013-.002-.011-.0044-.002-.007.003-.007.002-.007-.002-.004-.001-.009-.008-.015-.022-.053-.111-.0044-.014-.003-.015-.001-.008-.008-.013-.0015-.004v-.007l.001-.017-.001-.007-.005-.01-.017-.016-.004-.007-.0044-.014-.01-.014-.007-.015-.006-.007-.006-.004-.013-.004-.005-.004-.004-.011v-.007l.003-.006.001-.012-.002-.066-.003-.017-.003-.013-.015-.021-.023-.017-.05-.023-.204-.038-.026-.012-.013-.008-.014-.012-.01-.015-.005-.017.004-.037V15.4l-.004-.016.004-.006-.006-.014-.003-.0265.001-.028.007-.015.009.024.008-.011.006-.022.002-.012.007-.005.001-.0098v-.011l.003-.0084.007-.0055.005.002.005.005.007.004.091.018.028-.002.027-.0094h.014l.006.012.01.003h.05l.01.009.006.003.007-.004.005-.015.003-.004h.037l.016.004.012.006.021.019.017.023.006.003.014-.002.006.002.004.007-.001.005-.004.004-.006.001.009.014.015.01.047.023.016.004.017-.001.017-.004.014-.007.031-.032.004-.008.004-.003.004-.001h.024l.015-.006h.009l-.005.027.016.005.04-.008.039.019.013-.002.008-.0102-.003-.012-.008-.01-.009-.009-.034-.019-.024-.022-.014-.002-.027.0095-.028.004-.016-.015-.02-.061-.013-.025-.019-.017-.047-.032-.01-.012-.005-.004-.021-.003-.006-.002-.003-.0054-.007-.007-.037-.024-.005-.013-.001-.019.003-.016.009-.008.005-.003.002-.007V15l-.001-.0054-.007-.0044H2.72l-.006-.003-.003-.0095.005-.0122.0135-.009.015-.0035.012-.002.015.002.007-.002.008-.0055.01-.017.006-.006.0246-.017.014-.0077.013-.003.009.0066.011.014.012.0113.012.002.005-.0105-.004-.016-.008-.016-.007-.0115-.002-.01.003-.01.004-.0093.002-.0078-.001-.0058-.004-.0133-.002-.0034.004-.011.007-.014.018-.027.003-.013.005-.013.052-.062.004-.012.003-.019.003-.016.009.008.015.029.022.01h.029l.028-.007.021-.013.018-.02.006-.003h.012l.006-.002.01-.015.005-.016.008-.014.012-.009.006.01.007.01.005.013.002.012.049.009.01.004.016.016.011.004.009-.003.019-.015.011-.003.013.002.024.007.012.002.18-.024.024.007.043-.006.028.006.096.043.058.01.029.015.015.005.054-.006.016.003.031.013.015.002.012-.005.025-.014.013-.003.004-.002.007-.009.004-.002.014.004.001.001.005-.003.005-.005.004-.007-.001-.008-.011-.007-.061-.012-.007-.004-.007-.011-.006-.004-.018-.002-.027-.008-.073-.037-.014-.003-.005-.003-.009-.015-.005-.005-.005-.002-.021-.003-.028-.012-.009-.007.002-.011-.003-.008-.003-.006.002-.007.005-.008v-.005l-.002-.007v-.027l.004-.015.007-.009.011-.004.009-.006.007-.015.009-.03.023-.039.009-.012.006-.004.014-.006.005-.005.02-.029.007-.014.011-.032.01-.016.016-.019.006-.006.003-.008.005-.019.004-.008.012-.023.003-.012-.003-.015v.004l-.003-.013.004-.011.013-.019.005-.011.003-.015.005-.057.017-.076v-.057l-.015-.045-.027-.034-.028-.03.012.001.017.016.011.006v-.007l-.011-.007-.006-.014v-.015l.004-.015-.01.005-.014.013-.013.009-.013-.005v-.02l.006-.023.018-.035v.015l.007.009h.011l.01-.008.005-.012.003-.031.004-.015.004.017.004-.004.005-.014.005-.01.006-.003.013.003h.005l.007-.005.003-.003.002-.011.002-.033-.012-.019-.018-.01-.018-.003-.011-.005-.004-.011.002-.028-.011-.059-.01-.023-.003-.01-.005-.005-.024.004H3.9l-.0116-.013-.022-.034-.0094-.007H3.83l-.054.011-.0314-.005H3.678l-.013-.004-.0115-.007-.02-.023-.0094-.004-.038-.006-.01.002-.005.007-.002.01v.022l-.003.008-.026.035-.009.008-.055.019-.016.002-.019-.014-.008.001-.004.008.002.012.004.003.016.006.005.002.008.013.003.01.001.01-.003.003-.073-.005-.015-.006-.005-.005-.004-.002-.002-.006-.001-.012-.002.002-.007-.005-.019-.021-.005-.004-.004-.005-.002-.009.004-.006.007-.006.004-.008-.002-.009-.011-.003-.009.015-.012.032-.011.005-.019-.001-.019-.005-.013-.007.019-.024.006-.005-.012-.004-.014.007-.026.016H3.2l-.0125-.006-.0115-.01-.0095-.011-.0217-.018-.0088-.014.0123-.037-.001-.017-.0085-.013-.014-.002-.011.009-.005.016-.0028.019-.0057.015-.0114.002-.011-.015-.016-.03-.011-.012-.015-.008-.038-.007-.031-.013-.075-.016-.024-.015-.015.003-.026.019-.023.013-.076.018-.011.006-.017.023-.01.006-.01-.002-.013-.013-.007-.003-.007.003-.003.006-.001.007.003.003-.004.007-.047.08-.01.009-.007-.015.002-.009.011-.017.003-.012-.003-.006-.008.005-.021.022-.015.009-.016.004-.011-.005-.01-.002-.003.018-.002.041-.005.013-.008.012-.01.007-.011-.005.01-.014.007-.013-.002-.009-.013-.003-.019.007-.005.002-.007.007-.005-.002-.005-.005-.019-.016-.011-.005-.01.012-.018.055-.01.009.003-.011.002-.029-.009.006-.004.01-.004.01-.004.008-.005.002-.01.001-.005.003-.005.004-.002.004-.026.047-.011.014-.011-.002v-.01l.004-.009.002-.009-.006-.005-.007.003-.019.012-.051.055-.016.028-.01.014-.012.005-.022-.002-.008.003-.006.005-.01.013-.005.006-.021.01-.005.012h-.01l-.017-.005-.01.008v.016l-.003.01-.015-.005-.007-.013-.005-.005-.006.003v.018l-.002.009-.006-.004-.01-.019-.008-.005-.007.001-.001.006.002.022-.001.007-.038-.049-.009-.004v.016l.002.038-.01-.007-.006.005-.005.01-.006.01-.004-.019-.008-.012-.034-.015-.009-.007-.008-.01v-.018.027l.002.014.009.01.006.022.004.009-.011-.005-.006-.002-.005-.002v-.006l.002-.006v-.005l-.014-.015-.005-.004-.004.004v.005l-.001.004-.019-.004-.02-.009-.019-.012-.01-.016.005.022.038.044.009.026-.013-.003-.021-.001h-.002l-.009-.01-.005-.013-.008-.009-.012-.002v.006l.009.009.002.018.004.017.015.008.022.023.002.008.001.01v.009l-.003.008-.025-.019-.01-.01-.01-.012-.008-.014-.007-.008-.009-.005-.015-.001.006.005.005.006.003.007.002.013.001.008.021.024-.003.001-.006.004-.008-.006-.046-.015-.003.004.001.01.004.005.006.003h.006l.01.008.004.016.001.016.001.012-.112-.065-.043-.033-.025-.025-.012-.007h-.014l-.015.003h-.01l-.035-.029-.016-.019-.016-.013-.024-.006h-.053l-.019-.01.013-.019-.01-.007-.003-.012-.0018-.012-.005-.008-.0218-.013-.0106-.005-.011-.001.014-.019.015-.042.03-.025.036-.008.033.01.013.011.01.013.015.032.015.007.088-.016.019-.015.033-.042-.179-.281-.087-.23-.007-.02-.005-.014-.01-.011-.021-.003-.02-.006-.015-.0145-.028-.041-.109-.189-.036-.03-.039-.019-.229.005-.123-.059-.014-.001-.009.008-.004.012v.052l-.004.04-.004.017-.008.002-.107-.075-.019-.019-.012-.008-.003-.009.004-.011.008-.015.01-.011.002-.007-.002-.005-.019-.033-.042-.051-.003-.01.009-.006.045-.029.024-.022.009-.017-.011-.01-.031-.004-.009-.011v-.016l.004-.014.003-.015-.004-.018-.004-.005-.013-.014-.003-.008.004-.006.006-.005.004-.004.009-.017v-.007L.49 12.2l-.013-.009-.057-.015-.291-.101.083-.228.078-.215.013-.019.021-.016.044-.0235.014-.01.011-.009.028-.038.024-.045.012-.048-.006-.045-.028-.038-.086-.0665-.033-.012.072-.436.014-.037.021-.02.127-.057.039-.041.037-.047.011-.0254v-.032l-.032-.044-.005-.026.007-.012.021-.02.006-.014-.003-.014-.008-.01-.004-.012.006-.018.009-.0083.041-.017.009-.0098.019-.044.018-.026.023-.022.026-.014H.78l.0145.0103.038.05.026.015.0077.01.01.021.006.007.012.005.006.004.027.032.0118.017.023.02.0226.035.021.017.003.011.003.012.004.012.0076.0094.0284.0245.013.024.005.025.0036.025.007.0254.005.01.006.017.004.009.007.008.023.019.012.021.005.02.007.013.02.002.017-.004.006.003.028.027.033.02.008.002.007-.005.014-.019.008-.007.119-.047.058-.033.046-.054.01-.015.004-.009v-.009l-.006-.035-.0045-.015-.008-.009-.041-.014v-.024l.002-.029-.009-.035-.0256-.049-.015-.063-.016-.131.003-.063-.003-.028-.015-.02-.029-.007-.016-.008-.002-.019.009-.011.014.002.076.046.027.006.026-.005.105-.079.052-.068.024-.022.081-.021.049-.021.023-.019.009-.031-.012-.028-.019-.025-.014-.022.007-.027.014-.024.005-.013.006-.03.005-.017.008-.015.008-.009.014-.004.046.014h.14l.009-.006.028-.038.084-.074.024-.012.104-.021.068-.035.009-.009.004-.009v-.02l-.005-.016-.002-.018.006-.009.01-.006.008-.009-.007-.009-.002-.004.004-.006.007-.002.034-.002.01-.003.009-.008.005-.016.013-.002.009-.003.005-.009.003-.021-.006-.054.002-.014.01-.012.011-.003.009-.007.001-.024.001-.021h.012l.023.019h.026l.005.004-.01.016-.01.017.007.007.016.001.013-.002.026-.009.015-.019.002-.025-.028-.078-.001-.031.013-.017.031.007.01.006.012.009.01.012.007.016.01.017.014.007.142.009.012-.005.012-.006.013-.004.01.007.015.024.008.009.011.006h.026l.012.006.006.019v.021l-.005.014-.008.01-.012.006-.057.012-.003.006.021.041.019.019.043.005.048-.008.032-.016.01-.015.008-.014.01-.01h.013l.014.006.006.009.001.012.001.022.013.028.027-.003.029-.019.023-.018v-.03l-.01-.031-.002-.028.032-.038.018-.027.009-.01.017-.006.016.001.016.006.015.009.015.006.017.002h.019l.015-.006.011-.01.013-.03.009-.013.014-.009.033.003.016-.001.012-.011.007-.029.01-.009.016.011.01.031.008.038.007.027.038.075.017.06.004.01.007.011.01.012.009.011.013.008.004.002.013-.009.052.004.003.009.007-.004.011-.017.006-.005.007-.003.015-.002.004-.003.003-.007.004-.008.01-.002.006.003.012.013.006.003.032-.003.011.005-.008.017.011.002.015.009.009.002.008-.003.015-.016.008-.007.022-.01.069.003L4 9.281l.003-.008.007-.001h.01l.005.002.0087.014.005.003.008-.005.003-.001.043.007.009-.001.013-.007.012.009h.001l.023.01.007.007.0116.023.0084.009.059.024.0248.017.008.008.004.015-.005.008-.02.01.011.013v.015l-.003.016.004.015.019.02.01.011.004.017.014.0166.1064.032.029-.004.016.004.022.019.011.012.015.031.012.008.03.005.011.009.005.013.006.036.006.012.003.008.002.01-.002.015.018.023.01.009.023.013.008.011.008.012.01.012.013.01.047.008.006.005.011.011.006.004.025.006.009.004.004.007.001.01-.001.009-.003.008-.033.043-.005.019v.041l-.003.017-.013.042-.004.019.003.017.009.019.02.028.013.012.013.01.011.002.03-.008.024-.009.032-.028.017-.026-.002-.029-.02-.067V10l.007-.035v-.019L4.87 9.94l-.009-.0095-.002-.0074.002-.007.009-.016.004-.008-.0087-.036-.031-.019-.033-.009-.013-.011.006-.008.0114-.006.0065-.009L4.8 9.76l.005-.012.011-.006.05-.016h.014l.013.004.012.008.023.021.038.019.0117.012.018.024.019.019.089.027.0098.02-.002.036.0132.024.128.122.0144.009.01.003.011-.001.029-.008h.017l.015.005.014.01.008.014.005.015.006.013.026.012.009.009.018.026.025.018.02-.009.041-.043.097-.054.085-.072.012-.021.022-.111.005-.022.007-.012.009-.002.049.023.018.004.015-.004.012-.01.004-.015.004-.033.01-.01.028-.004.009-.012v-.02l-.008-.027V9.72l.007-.0116.01-.0093.018-.016.017.007.051.076.012.005.042.01.011-.002.001-.009-.004-.016-.011-.029-.002-.018.008-.012.012-.008.012-.004.014-.003.009.005.022.017.013.005h.015l.015-.006.015-.006.015-.003.048.005.028-.006.038-.025.01-.003.009.006.008.019.004.035.004.016.01.006.014.001.01.003.01.009.009.014.005.015.006.033.006.014.01.015.009.009.038.023.015.004h.01l.013-.008.009-.013.007-.014.008-.012.014-.009.022.004.054.017.019-.01.01-.028V9.78l-.007-.061.003-.034.01-.022.009-.02.016-.0037.026.016.009.002h.032l.007.004.005.005.01.0135.005.002.017-.009.008-.002.044-.008.005.001.002.005.001.0114v.003l.014.0095.015.0088.016.001.013-.0096.006-.016.006-.02.006-.017.012-.007.013-.004.023-.014.008.007.017.019.008.012.003.025.004.01.012.006.071.002.025.011.019.023.003.039-.004.017-.007.014-.008.01-.01.01-.004.013.003.017.005.016.007.01.01.003.03-.002.005.01-.004.035.002.012.009.009.015.002.017-.005.016-.001.012.011.01.03.006.01.01.011.044.033.023.01.157.015.013.004.01.012.007.013.007.009.009.004h.01l.056-.013h.029l.023.014.012.013.031.013.007.006-.002.024-.014.006-.033-.006-.015.014v.013l.008.013.032.03.019-.01.019-.019.02-.017.029-.005.031.002.028-.006.025-.027.025-.055.008-.013.019-.022.005-.012.003-.016-.003-.03v-.02l.003-.015.024-.062.004-.007.006-.006.025-.009.036-.003.031.011.01.034v.033l.013.027.019.021.021.016.032.016.243.029.057-.01.161-.054.161-.055.018-.019.014-.027.008-.038.009-.084.032-.18.011-.043.019-.026.026-.014.031-.009-.041-.018-.018-.016-.014-.026-.023-.072-.012-.019-.002-.005-.022-.006-.027-.016-.022-.01-.008.002-.014.003H8.72l-.008-.001-.019-.012-.015-.003-.04.003-.0132-.002L8.602 9.3H8.59l-.019.001h-.008l-.005-.003-.0037-.003-.0076-.0095-.003-.0047-.019-.0142-.007-.008-.0092-.018-.004-.0113-.001-.0084v-.03l.001-.013h-.009l-.235-.006-.0058-.002-.003-.007-.001-.01-.002-.009-.0056-.004-.064-.011-.012-.009v-.019l.01-.013.028-.014.012-.01.002-.007v-.016l.004-.004.012-.009.006-.006.003-.008-.016-.02-.103-.026-.059-.045-.019-.009-.006.009-.006.014-.014.009H8l-.0114-.011-.027-.061-.006-.016.001-.015.009-.023h.116l.084-.091.046-.038.046-.021.032.001.032.007.031-.002.029-.024.0236-.038.0095-.01.057-.025.0104-.009.029-.033.011-.01.025-.014.018-.019-.036-.05-.009-.013-.003-.017-.003-.04-.004-.017-.005-.01-.007-.004-.054-.019-.009-.009-.003-.015.003-.045v-.02l-.004-.014-.002-.007-.006-.001-.03.003h-.01l-.008-.006-.003-.008-.001-.007-.002-.005-.013-.011-.003-.009v-.02l.015-.039.024-.014.029-.008.023-.012.008-.013.015-.027.011-.013.101-.093-.047-.046H8.53l.045-.001.021-.007.019-.014.018-.017.021-.003.02.006.019.013.017.007.019.003.017-.003.016-.007.028-.025.015-.004.017.009.021.019.035.035.018.008.018-.012.0105-.011.0113-.002.025.004.06-.009.021.007.038.031.022.003.0433-.017.022-.016.013-.022.012-.047.001-.023-.005-.023-.014-.024-.019-.011-.125-.025-.041-.017-.034-.034-.024-.034-.012-.005-.056.031-.019.003-.021-.007-.057-.046-.021-.008H8.69l-.026-.006-.024-.021-.011-.023-.006-.025.002-.025.011-.022.025-.038.0057-.013.003-.012.0018-.029.01-.01.015-.005.015.003.0115.01.012.022.015.021.016.013h.018l.014-.009.0296-.033.015-.012.023-.013-.015-.065-.008-.013-.0074-.003H8.77l-.017.006-.026.037-.021.003-.0815-.02-.01-.008-.004-.005-.006-.016L8.6 7.278l-.0284-.009-.081-.0045-.016-.019.014-.0237.06.021.0204-.018V7.19l.005-.0113.0093-.0056.0224-.003.0044-.01.007-.023.014-.017.016-.016.012-.015.002-.022-.015-.012-.02-.009-.016-.01-.011-.019-.007-.004-.011-.004h-.04l-.011-.004-.004-.009-.001-.011.001-.011.004-.011.01-.014.013-.008.028-.006.019-.001.029.006.003.005.007.016.007.012.009.01.01-.001.009-.018.003-.017-.004-.017-.013-.038-.005-.019.032-.002.015-.008.009-.017.011-.013.015-.004.046.008.009.008.016.036.01.008.044.01.002.033.004.009.011.003.012-.002.006-.009.003-.014.003-.019h.055l.007.008.008.004.007-.001.013-.017H9l.0096.003.0075.005.005.019.001.013.004.01.012.009.021.006.065.005v-.09l.237-.009.013.002.008.011-.001.022-.026.018-.007.013.003.019.01.017.029.015.012.014.006.009.007.008.008.005.008.001.01-.005.002-.006-.005-.031-.003-.006v-.01l.007-.013.026-.025-.01-.019-.005-.003-.007-.034.017-.026.028-.017.024-.006.05-.003.032-.014.011.003.025.013.016.001.047-.014.058.008.016-.007.01-.017-.002-.014-.006-.014-.002-.019.008-.015.019-.006.035.002.067.016h.022l.016-.009.03-.025.016-.008.04-.002.095-.043.02.002.017.01.048.037.017.004.008.004.006-.013.019-.008.021-.004.018-.009.01-.026-.018-.026-.008-.015v-.01l.006-.004.004-.007.006-.005.011.013.007.004.007.001.007-.001.006-.004.009-.012.005-.004h.01l.025.008.014-.004.029-.013.017-.005.013-.005.004-.004.007-.004.009.001.015.008.057-.007.007-.003.01-.014.004-.004.019.005.007.002.015-.004.024-.017.008.007.035.031.019.011.021.002.037-.019.036-.03.037-.019.038.016.047.063.008.01.009.006.009.002h.01l.005-.004.007-.007.005-.002.017.008h.005L11 6.561l-.019-.106.012-.023-.002-.02v-.03l.01-.012.074-.033.016-.001.033.01.012-.0032.005-.021-.0067-.037.003-.013.016-.004.057.007.079.029.018-.004.015-.016.016-.032.016-.023.019-.013.043-.017.0112.009.005.066.009.016.07-.025.202-.074.038-.006.073.003.037-.006.012-.008.022-.024.013-.008.114-.005.018-.004.034-.02.018-.005h.044l.023-.004.015-.016.012-.024.013-.016.016-.006.038.011.038-.008.104.002.044-.013.034-.03.023-.039.013-.015.017-.012.02-.006h.019l.055.028.091-.013.009-.012.005-.026.013-.006.005-.01.002-.013.006-.019.01-.007.017-.001.012-.006.003-.021-.048-.029-.021-.025.0094-.028-.013-.014-.004-.003.037-.021.012-.003.008.003.008.005.009.003h.011l.028-.014h.015l.044.013.039-.014.013-.001.015.004.008-.002.006-.01.001-.01-.003-.02V5.65l.009-.012.028-.019.004-.015-.001-.022v-.02l.005-.017.006-.017.012.008.058.01.014.007.012.012.021.036.011.014.014.007.014-.01.006-.012.002-.017-.004-.039-.014-.009-.011-.005-.01-.009-.006-.035-.003-.007V5.47l.006-.009.01-.006.009-.001.104.038.014.019.01.032z"/><path fill="none" stroke="red" stroke-width=".2" d="M11.185 14.422c0 .7044-.5432 1.275-1.2135 1.275s-1.2135-.5706-1.2135-1.274c0-.7035.5432-1.2743 1.2135-1.2743s1.2135.5717 1.2135 1.2752z" stroke-linecap="round" stroke-linejoin="bevel"/><path fill="none" stroke="red" stroke-width=".2" d="M10.6712 14.385c0 .4067-.3148.7357-.7035.7357-.3877 0-.7015-.329-.7015-.7357 0-.4058.3138-.7357.7015-.7357.3887 0 .7035.33.7035.7357z" stroke-linecap="round" stroke-linejoin="bevel"/></svg>