<?xml version="1.0" encoding="UTF-8" standalone="no"?>
<svg
   xmlns:dc="http://purl.org/dc/elements/1.1/"
   xmlns:cc="http://creativecommons.org/ns#"
   xmlns:rdf="http://www.w3.org/1999/02/22-rdf-syntax-ns#"
   xmlns:svg="http://www.w3.org/2000/svg"
   xmlns="http://www.w3.org/2000/svg"
   xmlns:sodipodi="http://sodipodi.sourceforge.net/DTD/sodipodi-0.dtd"
   xmlns:inkscape="http://www.inkscape.org/namespaces/inkscape"
   width="23.9442"
   height="23.8664"
   version="1"
   id="svg2"
   inkscape:version="0.91 r13725"
   sodipodi:docname="BLST.svg">
  <metadata
     id="metadata18">
    <rdf:RDF>
      <cc:Work
         rdf:about="">
        <dc:format>image/svg+xml</dc:format>
        <dc:type
           rdf:resource="http://purl.org/dc/dcmitype/StillImage" />
        <dc:title></dc:title>
      </cc:Work>
    </rdf:RDF>
  </metadata>
  <defs
     id="defs16" />
  <sodipodi:namedview
     pagecolor="#ffffff"
     bordercolor="#666666"
     borderopacity="1"
     objecttolerance="10"
     gridtolerance="10"
     guidetolerance="10"
     inkscape:pageopacity="0"
     inkscape:pageshadow="2"
     inkscape:window-width="640"
     inkscape:window-height="480"
     id="namedview14"
     showgrid="false"
     inkscape:zoom="9.8883787"
     inkscape:cx="11.9721"
     inkscape:cy="11.9332"
     inkscape:window-x="0"
     inkscape:window-y="0"
     inkscape:window-maximized="0"
     inkscape:current-layer="svg2" />
  <g
     fill="#fff"
     stroke="#000"
     stroke-width=".0621"
     id="g4">
    <path
       d="M.8014 16.1484c-.0375-.0225-.0725-.0535-.0778-.069-.0176-.052-.0875-.117-.1502-.14-.066-.024-.302-.0592-.3985-.0592-.086 0-.144-.052-.144-.1287 0-.0337.005-.0665.011-.073.006-.0064.009-.0365.007-.067-.005-.0488.002-.0598.061-.0967.075-.0476.14-.0532.182-.0157.016.015.06.033.098.042.116.026.249-.017.364-.119.018-.016.05-.043.073-.06.036-.028.038-.035.018-.072-.027-.052-.012-.077.046-.077.025 0 .058-.014.073-.031.015-.017.078-.047.14-.067.109-.036.113-.036.187-.008.057.022.086.047.123.105.064.103.062.153-.011.228-.033.034-.086.116-.119.182-.048.096-.069.123-.1.127-.059.008-.097.05-.097.104 0 .026-.013.071-.028.1-.015.029-.026.077-.024.107.008.13-.102.172-.237.091zm11.709-.455c-.0174-.013-.052-.024-.077-.0243-.0248 0-.0705-.011-.1013-.024-.033-.013-.06-.017-.065-.008-.018.03-.076.015-.119-.03-.024-.025-.072-.063-.107-.084-.035-.021-.106-.074-.158-.117-.052-.043-.104-.078-.116-.078-.043 0-.138-.108-.205-.234-.038-.07-.086-.152-.108-.181-.035-.046-.039-.067-.037-.181.002-.071-.003-.145-.009-.166-.008-.025-.002-.052.018-.081.016-.024.033-.076.038-.115.01-.078.026-.093.119-.107.041-.006.082-.03.122-.07.033-.033.086-.072.118-.087.032-.014.086-.053.121-.085.049-.045.061-.067.053-.096-.008-.032-.002-.063.035-.175.012-.035.01-.085-.004-.117-.024-.058-.003-.086.08-.101.057-.01.089-.009.112.005.025.016.049.014.121-.008l.089-.028.065.063.065.064h.141c.087 0 .162-.009.194-.023.045-.02.058-.02.1053.004.03.015.1038.047.164.071.0937.038.1166.042.152.026.031-.014.039-.027.03-.047-.034-.08-.028-.112.03-.148.1006-.062.207-.035.207.054 0 .02-.0185.079-.041.13-.038.086-.039.096-.016.14.02.039.0214.069.009.158-.018.126-.003.166.0805.209.027.014.049.033.049.043 0 .0093.014.037.03.0604.0167.023.039.066.051.095.019.046.0176.057-.013.0953-.048.061-.043.108.0155.151.0372.028.048.0476.0443.0805-.004.038-.012.044-.058.0438-.041 0-.0556.008-.06.033-.022.107-.024.1537-.009.163.019.012.022.105.0032.134-.007.011-.045.037-.085.058-.063.0336-.074.047-.0817.1026-.005.035-.018.08-.029.1-.021.038-.024.039-.2065.071-.0627.011-.137.033-.1647.05-.028.016-.061.03-.0736.03s-.052.014-.088.031-.0853.039-.11.048c-.031.012-.0447.029-.0447.055 0 .021-.0082.047-.019.0576-.0282.028-.2113.025-.25-.005zm-5.3378-1.2997c-.0305-.0305-.0403-.057-.0396-.1075.001-.0727-.0238-.1156-.0668-.1156-.0428 0-.0664-.034-.0664-.096 0-.0475-.0138-.07-.0832-.1352-.0458-.043-.089-.0782-.0958-.0782-.0172 0-.138-.1895-.1688-.2645-.0138-.0336-.032-.061-.0406-.061-.02 0-.0862-.1164-.1235-.2173-.019-.0506-.026-.0998-.02-.1377.008-.0512.002-.0656-.043-.11-.029-.0283-.093-.104-.142-.1686-.049-.064-.112-.128-.139-.143-.027-.014-.055-.034-.061-.043-.04-.06.022-.14.109-.14.035 0 .108-.027.195-.073.076-.04.154-.073.173-.073.019 0 .056.019.083.041.048.041.076.046.249.045.035 0 .098-.012.138-.026s.089-.026.11-.026.051-.007.069-.016l.064-.032c.036-.018.162-.019.285-.002.088.012.189-.015.29-.077.041-.025.079-.033.15-.032.088.002.098-.001.137-.049.028-.033.057-.051.085-.051.031 0 .044-.009.048-.036.002-.02.021-.044.042-.052.02-.009.04-.027.045-.041.005-.013.032-.039.06-.057.031-.02.069-.067.095-.122.052-.107.155-.196.249-.213.113-.02.188-.053.188-.081 0-.014.014-.039.032-.055.03-.027.038-.027.11-.004.054.018.086.02.108.009.031-.016.1-.011.245.02.057.012.098.012.139-.0003.094-.029.186-.069.217-.095.024-.02.036-.021.061-.005.017.0103.0416.019.054.019.039 0 .108.066.134.127.021.05.0215.07.0036.1306-.0138.046-.0337.076-.056.085-.0196.007-.04.021-.046.03-.006.01-.025.0174-.0425.0174-.017 0-.103.0364-.191.081-.087.045-.17.0815-.184.0815-.03 0-.0824.057-.109.1184-.01.025-.032.05-.048.056-.0153.0057-.081.06-.146.121-.065.061-.138.116-.163.122-.0695.016-.1734.109-.192.171-.012.039-.011.071.003.112.037.106.018.189-.054.236-.0215.014-.038.041-.038.0617s-.012.054-.0265.074c-.055.079-.1655.291-.176.338-.0057.027-.011.0917-.0117.143-.001.065-.009.1-.027.113-.046.036-.297.289-.297.301 0 .0067-.051.055-.113.109-.062.053-.1168.1135-.122.134-.011.043-.0793.0667-.113.039-.0414-.0346-.2405.0126-.3343.079-.023.016-.0783.034-.123.039-.045.0055-.116.014-.158.02-.067.009-.0815.005-.117-.03zm-2.729-.0877c-.0225-.0044-.0554-.021-.0733-.0367-.018-.0158-.0436-.0336-.057-.0395-.094-.0417-.1714-.1054-.176-.1448-.003-.0246-.018-.0472-.0353-.0527-.0477-.015-.118-.1176-.1062-.1548.0056-.0176.01-.079.01-.1364 0-.064.009-.115.023-.134.0126-.016.0233-.045.0237-.063.0005-.018.021-.064.0453-.103.0355-.056.0627-.077.134-.104.1333-.05.2223-.055.2745-.017.0293.022.082.035.1652.042.1093.009.1268.015.1666.06.025.028.057.05.072.05.015 0 .052.019.082.042.03.023.088.057.128.074.079.035.125.108.144.226.005.032.014.073.02.092.008.027-.005.051-.058.102-.037.037-.076.067-.085.067-.009 0-.062.04-.118.09-.056.049-.109.09-.117.09-.008 0-.036.01-.062.023-.049.024-.325.045-.397.031zm16.8616-3.6944c-.0188.0006-.0432.0108-.0738.031-.0764.0506-.0575.06-.0032.1176.0746.0795.1396.0542.1294-.067-.0048-.0562-.021-.0826-.0524-.0816zm-.3532.0466c-.0095 0-.019.001-.03.003-.0318.0057-.0875.0124-.1233.0144-.067.0038-.0824.0087-.196.0612-.0364.0168-.0764.031-.0893.031-.0128 0-.0718.0246-.13.0543-.1053.054-.1057.054-.1106.13-.0027.042.0037.091.0136.11.0147.028.0078.052-.035.135l-.067.131c-.008.017-.012.059-.0096.094.0036.049-.0055.077-.0378.118-.0232.029-.092.151-.1533.27-.0687.134-.131.233-.163.259-.0286.024-.082.068-.1174.096-.069.056-.0943.117-.134.315-.0192.097-.0296.114-.1144.196-.083.08-.097.103-.122.2-.015.06-.023.122-.018.137.005.015.006.079 0 .142-.011.113-.013.117-.095.192-.212.194-.553.403-.751.461-.105.031-.318.04-.425.019-.082-.016-.121.014-.121.094 0 .033-.012.065-.032.083-.04.036-.042.063-.007.091.022.019.034.017.074-.006.064-.037.156-.035.269.006.097.035.178.054.37.089.21.038.2.042.361-.117.079-.079.172-.181.207-.228.035-.047.071-.086.078-.086.007 0 .031-.029.055-.065s.055-.065.069-.066c.015 0 .041-.011.058-.024.017-.013.06-.024.097-.024.036 0 .103-.012.147-.026.097-.031.155-.044.391-.086.27-.048.314-.059.383-.105.051-.034.083-.0413.162-.0413.095 0 .101-.003.171-.073.04-.04.073-.0842.073-.098 0-.014.019-.041.042-.061.032-.028.0404-.0502.0375-.094-.005-.074.013-.127.061-.185.0212-.025.039-.059.039-.075 0-.026.051-.136.122-.261.029-.0516.0285-.111-.001-.163-.013-.0225-.023-.076-.0236-.1194 0-.043-.009-.093-.019-.112-.016-.0293-.012-.04.028-.0744.048-.041.105-.147.105-.196 0-.015.009-.037.0205-.048.031-.031.0384-.381.0105-.4785-.008-.0292-.0145-.106-.0145-.172 0-.167-.038-.273-.109-.3064-.03-.014-.054-.036-.054-.0475s-.027-.037-.06-.0566c-.0346-.02-.06-.0284-.0887-.028zm-19.4445 1.487c-.0568-.0567-.0925-.156-.0925-.2572 0-.0735-.091-.2452-.175-.3305-.047-.0476-.0692-.0843-.0692-.114 0-.0507-.037-.1228-.1038-.2025-.0594-.071-.1567-.2728-.1567-.3253 0-.0232-.028-.0732-.066-.1182-.0508-.0604-.068-.0963-.0752-.158-.008-.0753-.006-.0822.046-.1264.03-.025.073-.067.096-.093.089-.101.174-.174.223-.19.029-.009.056-.027.061-.04.013-.033.13-.031.159.004.055.067.228.094.356.055.072-.021.189-.022.228-.001.039.021.104.133.145.251.018.052.059.123.091.159.041.046.058.079.058.117 0 .062-.048.149-.096.175-.061.033-.109.181-.07.219.031.031.052.168.037.238-.008.041-.019.107-.024.148-.007.058-.025.093-.082.157-.04.046-.072.091-.072.099 0 .009-.033.061-.073.115-.04.055-.084.127-.098.16-.037.089-.07.12-.132.12-.039 0-.068-.014-.109-.055zM22.8042 7.431c-.0345-.0007-.0692.0095-.098.032-.0343.027-.0427.0484-.0427.104 0 .038.0047.0735.0107.0795.0235.0235.1425.0102.195-.0223.0767-.0474.089-.1072.032-.1562-.0276-.024-.0624-.0362-.097-.037zm-.128.6744c.0512 0 .0492-.014.06-.0582.011-.0442-.0132-.0765-.0562-.0786-.006-.0003-.0135 0-.0203.001-.032.0045-.037.0152-.037.0708 0 .0627.0023.0652.0535.065z"
       id="path6" />
    <path
       d="M22.747 8.0685c-.0278.0274-.0225.0476-.028.0612-.0058.0135-.0145.0396-.0196.0572-.0167.058-.0466.105-.0902.139-.0526.041-.056.086-.0078.12.0428.03.18-.026.2-.06l.0527-.089c.016-.026.099-.028.117-.045.059-.054.03-.156-.044-.158-.015-.001-.042-.011-.059-.025-.038-.029-.092-.031-.12-.004zm.11.342c-.015.0146-.0974.1208-.1042.143-.0067.0226-.0227.0553-.035.073-.012.0176-.0222.0553-.0222.0844 0 .054-.0806.167-.1194.167-.0104 0-.0466-.019-.0795-.041-.072-.049-.1525-.053-.2368-.011-.041.02-.084.028-.13.023-.065-.007-.075-.003-.147.069-.098.097-.112.102-.354.149-.027.005-.064.021-.082.036-.018.015-.054.037-.08.05-.079.039-.212.17-.25.247-.031.062-.036.099-.036.249v.176l-.081.076c-.044.042-.096.081-.114.087-.045.014-.052.052-.028.143.026.102.047.121.104.1.03-.012.057-.012.081-.001s.048.01.073-.001c.023-.011.047-.012.061-.003.012.008.04.015.06.015.024 0 .042.014.052.04.009.025.028.041.048.041.044 0 .212-.181.237-.255.01-.031.022-.059.025-.062.003-.003.051-.021.107-.04.066-.022.142-.034.22-.034.074 0 .131-.008.151-.022.017-.012.055-.027.083-.033.028-.006.068-.029.088-.05.038-.041.096-.059.198-.064.042-.002.099-.03.197-.096.075-.051.145-.093.154-.093.008 0 .045-.0357.082-.0795.057-.0685.067-.09.066-.153-.001-.047.013-.107.04-.167.053-.116.054-.1607.003-.228l-.041-.053.062-.054c.034-.03.075-.062.091-.071.032-.019.057-.114.058-.22 0-.0676-.006-.079-.072-.135-.04-.033-.086-.06-.103-.06s-.045-.014-.061-.032c-.04-.044-.131.032-.172.085z"
       id="path8" />
  </g>
  <ellipse
     cx="22.608"
     cy="11.0267"
     fill="none"
     stroke="red"
     stroke-width=".2"
     ry="1.2533"
     rx="1.2309"
     id="ellipse10" />
  <ellipse
     cx="22.5745"
     cy="11.0027"
     fill="none"
     stroke="red"
     stroke-width=".2"
     rx=".7351"
     ry=".7224"
     id="ellipse12" />
</svg>
