<?xml version="1.0" encoding="UTF-8" standalone="no"?>
<svg
   xmlns:dc="http://purl.org/dc/elements/1.1/"
   xmlns:cc="http://creativecommons.org/ns#"
   xmlns:rdf="http://www.w3.org/1999/02/22-rdf-syntax-ns#"
   xmlns:svg="http://www.w3.org/2000/svg"
   xmlns="http://www.w3.org/2000/svg"
   xmlns:sodipodi="http://sodipodi.sourceforge.net/DTD/sodipodi-0.dtd"
   xmlns:inkscape="http://www.inkscape.org/namespaces/inkscape"
   width="24.067923"
   height="24.001209"
   viewBox="0 0 24.067931 24.00121"
   id="svg9001"
   version="1.1"
   inkscape:version="0.91 r"
   sodipodi:docname="BOWT.svg">
  <metadata
     id="metadata9019">
    <rdf:RDF>
      <cc:Work
         rdf:about="">
        <dc:format>image/svg+xml</dc:format>
        <dc:type
           rdf:resource="http://purl.org/dc/dcmitype/StillImage" />
        <dc:title></dc:title>
      </cc:Work>
    </rdf:RDF>
  </metadata>
  <defs
     id="defs9017" />
  <sodipodi:namedview
     pagecolor="#ffffff"
     bordercolor="#666666"
     borderopacity="1"
     objecttolerance="10"
     gridtolerance="10"
     guidetolerance="10"
     inkscape:pageopacity="0"
     inkscape:pageshadow="2"
     inkscape:window-width="1366"
     inkscape:window-height="747"
     id="namedview9015"
     showgrid="false"
     fit-margin-top="2.225"
     fit-margin-left="0"
     fit-margin-right="0"
     fit-margin-bottom="2.225"
     inkscape:zoom="31.631648"
     inkscape:cx="17.044767"
     inkscape:cy="9.5100065"
     inkscape:window-x="0"
     inkscape:window-y="21"
     inkscape:window-maximized="1"
     inkscape:current-layer="svg9001" />
  <desc
     id="desc9003">world98</desc>
  <g
     id="g9005"
     style="fill:#ffffff;stroke:#000000;stroke-width:2.50158738;stroke-miterlimit:4;stroke-dasharray:none"
     transform="matrix(0.03997463,0,0,0.03997463,-0.02091088,2.1883063)">
    <path
       d="m 426.214,464.513 0.202,0.14 2.216,5.356 -0.038,1.49 0.09,2.37 0.468,1.76 2.482,6.29 0.545,0.2 0.27,-0.05 1.05,-0.45 0.21,-0.13 0.87,-0.7 0.29,-0.41 0.07,-0.23 0.05,-0.28 -0.04,-0.29 0.07,-1.19 0.05,-0.29 0.14,-0.26 0.21,-0.11 0.2,0.06 0.26,0.39 0.37,1.18 0.2,1.05 0.23,1.56 0.01,0.3 0.01,0.45 -0.92,-0.04 -4.76,1.19 -2.28,0.96 -1.5,1 0.13,0.45 0.11,1.02 -0.05,0.32 -0.26,0.45 -0.58,0.39 -0.23,0.04 -2.05,-0.13 -0.31,-0.07 -0.31,-0.08 -3.9,-2.19 -0.26,-0.35 -0.1,-0.2 -1.85,-2.08 -2.51,-2.46 -1.54,-1.11 -1.26,-0.35 -0.3,-0.08 -5.53,-0.87 -1.85,-0.25 -6.07,0.2 -0.26,0.05 -2.32,0.47 -0.94,0.38 -0.57,0.05 -6.09,-1.1 -3.93,-1.61 -0.87,-0.52 -2.56,-2.03 -1.22,-1.74 -2.14,-1.32 -0.45,-0.25 -6.09,-1.37 -1.21,-0.03 -4.11,-1.39 -0.08,-0.23 -1.54,-1.02 -2.47,-1.57 -6.43,-1.94 -2.29,-0.66 -5.89,-1.33 -1.27,-4.19 -3.11,-8.55 -1.79,-4.07 -0.62,-1.24 -0.67,-1.22 -0.14,-0.17 -0.28,-0.09 -1.7,-0.24 -0.31,-0.07 -0.27,-0.1 -6.01,-7.96 0.7,-9.62 -1.34,-9.84 -0.04,-0.26 -1.33,-3.94 -0.1,-0.2 -0.87,-1.08 -0.3,-0.35 -0.61,-0.41 -2.13,-1.28 -0.6,-0.14 -0.36,-0.04 -0.27,0.06 -3.58,-0.71 -0.8,-0.55 -0.38,-0.59 -0.3,-0.36 -0.34,-0.61 -0.07,-0.23 -0.33,-0.61 -0.2,-0.15 -0.24,-0.11 -0.34,-0.05 -0.62,-0.07 -0.19,-0.15 -0.27,-0.38 -0.08,-0.23 -0.42,-0.84 -0.14,-0.18 -0.32,-0.14 -1.08,-0.07 -0.24,-0.08 -1.01,-1.04 -0.23,-0.41 -0.12,-0.48 -0.3,-1.74 -0.37,-2.09 -0.07,-0.23 -2.43,-2.52 -1.24,-1.05 -4.04,-6.01 -0.94,-1.58 -0.38,-0.31 -0.51,-0.21 -0.67,-0.1 -0.27,-0.09 -3.42,-1.4 -2.46,-2.06 -1.77,-1.58 -0.15,-0.18 -0.12,-0.2 -2.09,-4.99 -0.04,-0.47 0.09,-0.62 0.01,-0.57 -0.98,-2.87 -0.38,-1.08 -1.82,-2.41 -2.03,-2.52 -1.47,-1.95 -0.34,-0.61 -0.38,-0.86 -0.04,-0.25 0.1,-0.48 0.03,-0.09 -0.04,-0.26 -0.22,-0.69 -1.34,-3.55 -0.19,-0.43 -1.59,-1.65 -1.19,-1.42 -1.44,-1.76 -0.53,-1.04 -0.07,-0.23 0.32,-1.44 0.01,-0.28 -1.61,-4.82 -0.23,-0.39 -5.71,-6.56 -0.19,-0.14 -5.96,-3.94 -0.78,-0.31 -3.63,-3.85 -0.4,-0.7 -0.13,-0.19 -0.14,-0.2 -0.23,-0.21 -0.47,-0.24 -0.28,-0.1 -1.88,-0.38 -0.36,-0.04 -1.18,-0.32 -0.24,-0.12 -3.51,-2.21 -4.21,-3.42 -2.05,-2.06 -0.54,-0.995 -0.08,-0.25 0.05,-0.305 -0.17,-0.452 -1.51,-3.1 -2.35,0.02 -3.76,0.05 -3.93,0.21 -3.71,-0.53 -1.75,-0.49 -1.35,-0.36 -2.33,-0.36 -3.03,-0.06 -4.5,0.01 -2.32,0.305 -0.594,0.07 -1,-0.04 -0.95,-0.19 -1.116,-0.36 -4.825,-1.68 -1.43,-0.87 -0.19,-0.14 -1.32,-0.79 -0.26,-0.09 -0.36,-0.04 -0.24,0.1 -2.02,1.67 -6.26,3.146 -3.11,0.63 -4.99,1.14 -6.13,12.25 -2.116,5.55 -2.04,4.47 -2.7,3.24 -4.42,4.05 -4.67,5.14 -0.55,-0.17 -0.62,-0.125 -5.05,-0.39 -0.09,-0.01 -0.32,-0.06 -3.43,-1.17 -1.19,-0.58 -2.77,-1.67 -1.05,-0.72 -2.12,-1.7 -9.32,-3.33 -6.99,-3.95 -3.917,-0.91 -2.22,-0.7 -0.99,-0.44 -0.83,-0.53 -0.78,-0.58 -4.05,-3.08 -1.18,-1.16 -0.32,-0.34 -0.11,-0.2 0.03,-0.876 -1.07,-0.68 -1.117,-0.64 -1.36,-0.75 -0.24,-0.12 -0.56,-0.16 -0.67,-0.1 -0.29,0.04 -0.45,0.22 -0.19,0.14 -0.25,-0.05 -3.577,-2 -1.56,-1.2 -3.95,-3.43 -0.16,-0.17 -6.03,-11.93 -0.2,-0.42 -0.67,-2.71 -0.38,-2 -0.01,-0.28 0.21,-0.5 0.72,-1.3 0.2,-0.48 0.06,-0.28 0.11,-2.58 -0.33,-0.9 -1.06,-2.09 -3.26,-3.86 -2.06,-3.103 -1.95,-3.66 -0.68,-2.68 -0.58,-1.58 -0.37,-0.6 -1.46,-1.52 -0.2,-0.14 -2.45,-1.04 -3.24,-2.82 -2.87,-2.53 -2.03,-1.32 -1.73,-1.05 -0.57,-0.16 -0.36,-0.04 -0.33,0.01 -0.33,0.34 -0.23,0.1 -0.65,-0.05 -6.01,-3.13 -4.27,-3.52 -0.37,-0.3 -2.13,-2.13 -1.62,-2.49 -0.345,-0.62 -0.6,-0.69 -0.21,-0.14 -4.92,-2.78 -2.55,-1.32 -0.2,-0.14 -0.16,-0.165 -0.12,-0.2 -0.34,-0.9 -0.26,-0.39 -1.72,-1.91 -0.66,-0.67 -0.73,-0.61 -5.23,-3.97 -1.64,-1.126 -0.28,-0.08 -1.77,-0.16 -0.85,-0.25 -3.25,-1.21 -2.81,-1.7 -0.42,-0.28 -2.5,-3.64 -0.25,-0.39 -0.64,-1.54 -0.65,-1.828 -1.34,-2.18 -0.14,-0.19 -2.51,-2.52 -0.454,-0.25 -0.57,-0.16 -0.29,-0.01 -0.88,0.112 -0.95,0.066 -1.46,-0.14 -0.41,-0.34 -1.01,-0.91 -2.88,-1.88 -0.61,-0.445 -1.3,-2.48 -1.45,-4.18 -0.18,-0.72 2.14,-0.28 24.33,0.01 72.195,-0.02 26.53,0.016 26.63,0.01 12.26,-0.02 -0.024,-9.87 0.01,-35.7 0.1,-6.18 0.11,-4.46 0.27,-11.45 0.32,-11.13 0.32,-12.39 -0.02,-9.88 0.026,-41.04 -0.01,-63.08 6.07,0.02 13.7,-0.02 51.68,0.03 42.53,-0.02 22.04,-0.01 2.67,0.02 -0.01,10.64 -0.02,7.6 0.11,69.39 0.05,0.037 0.49,0.22 0.23,0.06 0.42,0.02 0.49,-0.02 0.264,-0.1 0.78,-0.11 0.75,0.03 0.35,0.064 0.76,0.213 0.95,0.4 0.42,0.28 2.65,2.15 1.71,1.56 0.49,0.467 0.46,0.41 2.734,2.3 0.53,0.37 0.73,0.38 0.27,0.09 1.03,0.23 0.57,0.06 8.2,-0.1 2.41,-1.81 2.26,-0.8 3.76,1.54 0.11,0.09 2.6,2.88 0.12,0.28 0.11,0.357 -0.27,2.17 0.04,1.15 0.12,0.47 0.18,0.37 0.19,0.31 0.215,0.25 0.35,0.28 0.34,0.1 6.59,0.68 7.31,1.65 0.52,0.166 0.8,0.16 4.32,0.782 1.09,0.08 0.77,-0.15 0.54,-0.14 0.96,-0.366 0.73,-0.22 1.1,-0.26 0.64,-0.01 0.84,0.13 0.49,0.19 0.15,0.123 0.48,0.42 0.33,0.32 0.42,0.62 0.63,0.64 0.47,0.38 0.76,0.53 1.27,0.74 0.55,0.17 0.52,0.06 0.69,-0.05 0.76,-0.17 0.53,-0.18 0.46,-0.24 0.13,-0.126 0.11,-0.127 5.47,-2.09 5.27,0.2 3.37,1.67 -0.04,0.56 -0.01,0.43 0.02,0.34 0.03,0.19 0.25,1.12 0.05,0.13 0.22,0.35 0.152,0.19 0.27,0.23 0.56,0.28 0.306,0.1 0.48,0.07 0.88,0.03 1.56,0.16 0.76,0.11 0.52,0.13 0.51,0.33 0.19,0.15 0.027,0.15 0.05,1.433 0.01,0.41 -0.08,0.25 -0.51,0.71 -0.16,0.37 -0.05,0.47 0.023,0.46 0.25,0.36 0.15,0.13 0.42,0.19 3.19,0.77 0.52,-0.05 0.32,-0.09 2.83,-1.08 0.46,-0.24 0.2,-0.15 1.29,-1.34 1.6,-1.6 0.77,-0.54 0.884,-0.44 0.65,-0.24 0.69,-0.08 0.5,0.04 1.99,0.72 3.73,3.13 2.48,2.46 0.31,0.62 0.593,0.52 0.48,0.16 0.99,-0.01 0.87,-0.1 0.91,-0.29 0.51,-0.2 5.19,-2.68 2.37,2.39 -0.43,0.49 -0.17,0.41 -0.03,0.75 0.1,0.49 0.28,0.7 0.46,0.88 0.18,0.28 0.74,0.71 0.33,0.28 0.74,0.27 0.55,0.075 2.15,-1.407 1.61,-4.28 2.96,-4.44 0.19,-0.15 0.51,-0.2 0.91,-0.16 1.33,-0.12 0.35,0.05 0.51,0.208 0.19,0.15 0.29,0.38 0.22,0.44 0.1,0.81 0.14,0.51 0.1,0.22 0.11,0.23 0.28,0.38 0.56,0.48 0.44,0.26 0.3,0.07 4.72,1 0.72,0.05 0.62,-0.1 5.11,-0.14 5.56,3.19 6.31,3.59 0.51,0.11 0.26,-0.027 0.46,-0.14 5.23,-2.7 0.43,-0.224 0.48,-0.46 0.2,-0.39 0.14,-0.34 0.05,-0.34 0.34,-0.65 0.28,-0.29 0.3,-0.24 1.81,-0.63 0.493,-0.14 6.01,-1.28 3.94,0.67 4.76,-0.54 1.346,-1.08 6.113,-2.316 0.5,-0.11 0.28,0.02 0.52,0.11 0.55,0.17 0.44,0.18 0.47,0.41 0.06,0.13 0.12,0.66 -0.05,0.19 -0.03,0.49 0.024,0.27 0.06,0.19 0.217,0.14 4.75,0.58 2.85,-0.163 1.76,-0.39 1.23,-0.4 2.09,-0.75 0.13,-0.15 -0.03,-0.28 -0.28,-0.42 -0.05,-0.23 0.09,-0.37 0.697,-0.88 0.2,-0.18 0.55,-0.25 0.27,-0.03 0.27,0.04 2.88,0.81 0.17,0.06 7.03,4.13 2.08,1.68 4.53,3.09 6.32,2.59 7.78,1.974 1.39,0.08 1.31,0.02 1.48,1.926 2.71,2.15 0.61,0.15 0.25,0.05 2.43,-0.166 0.21,-0.08 0.19,-0.3 0.11,-0.21 -0.01,-0.44 0.1,-0.33 0.206,-0.155 0.15,-0.05 0.28,-0.017 4.49,0.06 0.33,0.05 4.29,0.687 0.29,0.05 1.91,0.9 0.074,0.94 0.01,0.76 -0.01,22.04 0.01,0.75 0.08,0.25 -0.08,4.31 -0.03,29.65 0.02,12.21 0,0.04 0.01,0.18 0.06,0.122 3.06,2.94 0.39,0.24 1.05,0.41 0.49,0.24 0.39,0.264 0.72,0.64 0.79,0.86 0.26,0.395 2.05,3.14 0.172,0.44 1,3.09 0.08,0.352 -0.28,0.67 -0.11,0.5 -0.58,2.81 -0.07,0.58 0.05,0.25 0.32,0.58 0.27,0.4 0.44,0.52 1.03,1 1.84,2.44 3.56,4.9 0.47,0.93 1.69,4.33 0.71,1.69 2.06,1.65 0.98,0.28 0.21,0.14 0.06,0.19 -1.14,15.56 -0.14,0.8 -2.56,5.62 -0.67,0.71 -1.08,0.66 -0.55,0.47 -0.41,0.57 -1.71,2.78 -0.13,0.21 -0.57,1.31 -0.05,0.22 -1.09,7.93 0.05,1.42 0.05,0.22 0.18,0.42 0.53,0.79 1.1,2.73 0.72,4.28 0.06,0.53 -0.94,3.22 -0.18,0.43 -0.15,0.17 -1.78,1.9 -1.47,1.17 -2.21,0.28 -0.27,0.08 -0.214,0.15 -4.6,6.863 -0.12,0.65 -0.01,0.25 0.04,0.44 0.15,0.44 0.21,0.265 0.21,0.14 0.34,0.2 1.073,0.66 0.97,1 0.26,0.29 1.28,1.74 0.264,0.39 0.05,0.25 -0.027,0.26 -0.19,0.15 -0.41,0.12 -0.58,0.1 -0.32,0.016 -0.47,-0.06 -0.26,-0.1 -0.44,-0.25 -0.28,-0.07 -0.37,-0.02 -5.04,0.14 -1.46,0.23 -2.64,0.8 -0.75,0.28 -7.98,3.02 -6.447,2.58 -7.34,2.99 -1.22,0.504 -0.63,0.34 -1.05,0.643 -0.95,0.73 -0.33,0.33 -0.75,0.91 -0.52,0.47 -0.414,0.27 -0.51,0.17 -0.58,0.1 -0.46,-0.12 -0.21,-0.14 -0.127,-0.14 -0.06,-0.19 0.05,-0.22 0.24,-0.56 0.36,-0.33 3.775,-2.97 0.22,-0.12 3.53,-1.17 3.53,-1.08 0.86,0.1 0.354,0.016 0.23,-0.05 1.26,-1.64 0.05,-0.28 -0.07,-0.12 -0.22,-0.08 -3.725,-0.49 -0.33,-0.02 -0.58,0.1 -4.26,0.89 -4.12,-0.7 1.56,-1.94 0.11,-0.217 0.2,-0.46 0.24,-0.77 0.1,-0.51 0.43,-2.27 0.05,-0.28 0.03,-0.32 -0.12,-1.57 -0.06,-0.25 -0.12,-0.19 -1.45,-1.08 -0.42,-0.18 -0.52,0.167 -2.5,0.91 -0.42,0.21 -0.53,0.48 -5.156,2.485 -0.18,-0.1 -1.99,-0.85 -0.54,-0.09 -1.75,-0.17 -0.19,0.01 -0.18,0.09 -0.12,0.09 -0.08,0.19 0.05,0.19 2.13,6.52 5.16,6.24 0.17,0.19 0.19,0.42 0.37,0.93 -0.05,0.89 -0.24,1.59 -0.05,0.28 -0.38,0.92 -8.08,5.85 -0.633,0.38 -2.14,5.48 -0.71,0.57 -6.39,4.96 -0.62,0.42 -1,0.65 -1.27,0.76 -11.58,6.31 -0.43,0.2 -2.9,0.64 -0.305,0.1 -1.82,0.13 -0.35,-0.055 -0.44,-0.19 -0.34,-0.05 -1.78,0.16 -5.84,1.88 -0.25,0.09 -0.44,0.24 -0.17,0.15 -0.12,0.15 -0.355,2.28 0.01,0.22 0.21,0.14 0.28,0.01 0.5,-0.05 0.75,-0.26 0.91,-0.43 0.92,-0.47 1.01,-0.6 0.558,-0.44 0.695,-0.33 0.86,-0.05 1.56,-0.52 0.15,-0.05 0.25,-0.03 0.09,0.04 -0.05,0.11 -2.9,1.96 -1.4,0.59 -1.71,0.63 -1.54,0.51 -1.01,0.3 -0.99,0.15 -0.52,0.17 -0.72,0.29 -1.63,0.76 -1.06,0.58 -0.22,0.15 -3.056,1.62 -1.15,0.52 -2.36,1.05 -0.21,0.09 -0.07,-0.13 0.08,-0.13 0.38,-0.52 0.268,-0.24 0.41,-0.308 1.96,-1.09 3.15,-1.52 0.47,-0.2 0.97,-0.38 0.94,-0.34 1.21,-0.48 0.22,-0.13 0.52,-0.48 0.14,-0.725 -0.02,-0.21 -0.17,-0.42 -0.09,-0.16 -0.18,-0.09 -0.18,-0.04 -1.65,0.32 -1.34,0.48 -1.01,0.54 -1.16,0.48 -0.96,0.38 -0.504,0.16 -3.03,0.94 -0.51,0.07 -0.28,-0.075 -0.09,-0.48 0.28,-0.49 0.37,-0.2 0.32,0.04 0.34,0.14 0.47,-0.02 0.24,-0.076 1.17,-0.53 0.43,-0.24 0.33,-0.264 0.035,-0.09 -0.03,-0.16 -2.17,-2.75 -0.1,-0.13 -0.29,-0.1 -0.31,-0.01 -2.91,0.52 -0.24,0.09 -5.34,-2.19 -0.63,-0.36 -1.87,-1.07 -0.09,0.3 0.283,1.42 0.98,3.88 0.08,0.17 0.16,0.1 0.8,0.28 0.25,0.03 0.49,-0.01 0.21,0.07 0.1,0.17 -0.11,0.24 -0.23,0.13 -1.13,0.55 -0.85,0.15 -0.33,0.03 -0.36,-0.02 -2.73,-0.91 -2.51,-1.11 -0.213,-0.13 -0.1,-0.16 -0.24,-0.95 0.01,-0.28 0.14,-0.693 -0.09,-0.21 -0.15,-0.14 -0.71,-0.64 -0.18,-0.13 -0.26,-0.1 -0.28,-0.05 -2.09,0.04 -0.28,0.71 -0.17,0.53 -0.04,0.26 0.06,0.256 3.05,5.22 4.28,2.62 3.7,2.23 0.51,0.52 0.08,0.17 0.01,0.22 -0.11,0.22 -0.18,0.15 -10.14,4.95 -1.19,0.362 -0.28,0.06 -0.36,-0.01 -1.15,-0.51 -0.17,-0.1 -0.317,-0.35 -0.15,-0.44 0.07,-1.11 -0.067,-1.04 -0.1,-0.19 -0.16,-0.16 -1.71,-1.7 -1.81,-1.65 -0.13,-0.1 -0.21,-0.08 -0.25,0.13 -0.18,0.09 -0.42,0.52 -1.46,1.99 -0.05,0.25 0.06,0.47 0.265,0.35 0.62,0.56 1.58,1.08 0.306,0.36 0.1,0.2 0.07,0.24 -0.04,4.53 -4.647,4.61 -1.86,0.52 -0.67,0.17 -1.91,0.23 -0.27,-0.076 -1.353,-0.63 -0.54,-2.31 -6.11,0.81 -0.18,0.09 -0.3,0.31 -0.22,0.37 -1.8,3.38 -0.05,0.35 0.23,0.29 0.28,0.07 0.96,0.05 0.24,0.08 1.48,0.82 0.1,0.13 0.06,0.48 2,-1.84 0.2,-0.12 2.27,-0.93 0.924,0.6 0.18,2.08 -0.05,0.12 -7.37,9.24 -0.29,0.24 -0.23,0.12 -0.46,0.09 -0.48,-0.02 -0.47,-0.11 -0.19,-0.09 -5.21,-1.37 -6.71,-1.17 -0.99,0.35 -0.29,0.18 0.03,0.17 0.27,0.32 1.09,1.19 0.06,0.06 0.35,0.227 4.014,1.83 3.52,3.09 1.63,2.71 -4.89,11.9 -0.99,2.87 -0.112,0.21 -0.23,0.126 -3.03,0.92 -0.68,-0.16 -1.27,-3.15 -4.38,1.84 -0.31,-0.73 -0.46,-0.83 -1.76,-0.66 -2.11,-2.13 -1.85,-1.43 -0.28,0.063 -0.18,0.15 -0.01,0.26 0.07,0.25 0.1,0.21 0.26,0.39 1.89,1.77 2.1,3.27 0.12,0.25 -0.01,0.15 -0.23,0.185 0.88,1.56 0.99,1 0.48,0.2 3.96,0.75 0.3,-0.026 0.25,-0.09 2.39,-0.98 1.24,-0.44 0.74,-0.11 0.44,0.114 -0.04,0.53 -0.836,5.56 -0.12,0.53 -1.33,4.17 -3.45,0.9 -0.21,0.11 -0.18,0.15 -0.25,0.38 -0.04,0.28 0.19,6.51 0.09,0.54 0.36,0.61 0.35,0.32 0.24,0.1 0.594,-0.07 0.306,0.04 0.72,0.31 0.2,0.126 0.14,0.19 0.16,0.48 0.66,2.32 2.48,8.84 0.47,6.09 0.49,1.94 z"
       id="path9007"
       inkscape:connector-curvature="0"
       style="stroke-width:2.50158738;stroke-miterlimit:4;stroke-dasharray:none" />
    <path
       d="m 541.563,332.234 -0.697,0.595 -0.582,0.4 -0.418,0.26 -10.387,6.39 -0.19,0.09 -0.12,0.02 -0.03,-0.04 0.05,-0.28 0.58,-0.72 0.4,-0.42 6.16,-4.94 6.14,-4.6 1.67,1.39 -2.61,1.76 z m -69.726,39.476 0.038,-0.026 0.114,-0.28 0.15,-0.176 1.1,-0.85 0.21,-0.113 0.48,-0.456 0.11,-0.16 0.43,-0.37 0.69,-0.21 0.83,-0.51 0.6,-0.32 1.33,-0.46 0.15,-0.03 0.16,0.12 -0.12,0.21 -0.43,0.14 -0.37,0.18 0.07,-0.01 0.18,-0.07 -0.4,0.2 -0.37,0.24 -0.15,0.18 -0.74,0.61 -0.22,0.11 -0.59,0.42 -0.25,0.09 -1.05,0.53 -0.41,0.27 -0.33,0.3 -0.41,0.27 -0.18,0.09 -0.24,0.03 -0.14,0.06 z m -18.38,9.61 0.81,-0.138 1.863,-0.38 0.418,-0.152 1.862,-1.355 0.178,-0.152 0.304,-0.368 0.253,-0.405 0.152,-0.177 0.215,-0.152 6.118,-3.26 3.47,-1.8 0.04,-0.21 0.164,-0.4 0.14,-0.19 0.366,-0.18 0.216,-0.02 0.1,0.04 0.178,0.17 0.19,1.14 0.038,0.76 -0.278,0.58 -0.114,0.16 -0.507,0.43 -1.367,0.65 -0.938,0.34 -0.747,0.25 -1.91,0.83 -1.07,0.6 -6.41,3.82 -0.64,0.42 -1.38,0.9 -0.76,0.58 -2.37,1.88 -0.36,0.34 -0.17,-0.8 0.23,-2.31 0.16,-0.4 0.24,-0.41 0.43,-0.49 0.54,-0.14 0.28,0.02 z m -3.394,4.902 -1.786,2.432 -6.27,7.345 -0.48,-0.27 0.468,-1.47 0.152,-0.38 4.573,-7.93 2.23,-2.04 0.24,-0.03 1,0.63 0.28,0.25 0.176,0.23 -0.05,0.15 -0.102,0.04 z m -19.075,26.178 -1.254,2.393 -0.645,1.494 -0.96,2.368 -0.38,1 -0.32,1.103 -0.52,2.406 -0.55,1.57 -0.22,0.47 -0.19,0.303 -0.24,0.152 -0.38,-0.17 -0.08,-0.32 0.25,-2.05 0.03,-0.28 0.51,-2.85 0.2,-0.89 1.52,-4.03 0.21,-0.5 0.68,-1.56 0.37,-0.6 0.23,-0.37 1.04,-1.56 5.4,-7.96 0.43,-0.56 3.53,-4.35 0.18,-0.22 0.2,-0.12 0.4,-0.16 0.59,-0.01 0.1,0.06 0.08,0.06 -0.03,0.41 -0.04,0.12 -0.37,0.43 -1.13,1.25 -1.21,1.23 -0.7,0.86 -2.24,3 -0.35,0.55 -3.23,5.48 -0.06,0.16 z m -4.528,32.285 -0.89,-1.67 -0.674,-8.327 -0.025,-1.443 0.06,-3.09 0.03,-0.672 0.09,-0.658 0.38,-2.166 0.16,-0.37 0.1,-0.1 0.26,-0.03 0.09,0.16 -0.07,0.31 -0.09,0.85 -0.16,1.97 -0.15,3.82 0.04,1.86 0.09,0.66 1.15,7.15 0.11,0.6 0.06,0.27 0.57,2.07 0.8,3.58 1.63,4.54 1.28,3.38 0.59,1.87 0.94,3.22 0.98,3.76 0.33,1.85 0.89,5.58 0.34,2.16 0.05,0.72 -0.12,0.5 -0.18,0.27 -0.49,-0.55 -0.31,-1.09 -0.17,-0.89 -0.31,-4.16 -0.84,-5.12 -2.42,-7.33 -1.22,-3.3 -1.9,-4.91 -0.55,-1.04 z"
       id="path9009"
       inkscape:connector-curvature="0"
       style="stroke-width:2.50158738;stroke-miterlimit:4;stroke-dasharray:none" />
  </g>
  <path
     d="M 18.521124,21.512446"
     id="path9011"
     inkscape:connector-curvature="0"
     style="fill:none;stroke:#ff0000;stroke-width:0.27982244;stroke-linecap:round;stroke-linejoin:bevel" />
  <path
     d="M 17.970597,21.477705"
     id="path9013"
     inkscape:connector-curvature="0"
     style="fill:none;stroke:#ff0000;stroke-width:0.27981544;stroke-linecap:round;stroke-linejoin:bevel" />
  <path
     d="m 4.8293673,11.676202 c 0,0.806022 -0.6194789,1.459418 -1.3836034,1.459418 -0.7641243,0 -1.382606,-0.653396 -1.382606,-1.459418 0,-0.805024 0.6184817,-1.45842 1.382606,-1.45842 0.7641245,0 1.3836034,0.653396 1.3836034,1.459417 z"
     id="path5410"
     inkscape:connector-curvature="0"
     style="fill:none;stroke:#ff0000;stroke-width:0.20000006;stroke-linecap:round;stroke-linejoin:bevel;stroke-miterlimit:4;stroke-dasharray:none" />
  <path
     d="m 4.2438048,11.634304 c 0,0.464859 -0.3591183,0.841935 -0.8020312,0.841935 -0.4429129,0 -0.8010336,-0.377076 -0.8010336,-0.841935 0,-0.464858 0.3591188,-0.841933 0.8010336,-0.841933 0.4429129,0 0.8020312,0.377075 0.8020312,0.841933 z"
     id="path5412"
     inkscape:connector-curvature="0"
     style="fill:none;stroke:#ff0000;stroke-width:0.20000006;stroke-linecap:round;stroke-linejoin:bevel;stroke-miterlimit:4;stroke-dasharray:none" />
</svg>
