<svg xmlns="http://www.w3.org/2000/svg" version="1" viewBox="0 0 24.002 24.012"><g fill="#fff" stroke="#000"><path stroke-width=".1" d="M13.188 23.96c0-.006-.01-.007-.017-.005-.01.007-.06-.01-.06-.02 0-.004 0-.01-.01-.01s-.01.002-.01.01c0 .02-.02.027-.05.02-.04-.006-.03-.04 0-.04.01 0 .02-.003.01-.006-.01-.01.03-.06.04-.06.01 0 .02.01.04.02.02.02.02.02.02.04-.01.01-.01.01 0 .01.03-.01.07-.01.08.01.01.01.01.02 0 .02h-.02zm-.334-.104c-.03-.026-.08-.04-.167-.045-.023 0-.03 0-.033-.01 0-.02-.024-.04-.04-.04-.01 0-.028 0-.045-.01-.05-.02-.06 0 0 .03l.04.04c0 .01-.03.01-.06.02-.05 0-.06 0-.07-.01-.01-.01-.02-.01-.03-.01-.01.01-.02 0-.04-.01l-.03-.02.02-.01c.02 0 .02 0-.02-.01s-.06 0-.03.01c.01.01.04.05.03.05-.02 0-.06-.02-.07-.03 0-.01-.02-.01-.02-.01-.02 0-.02-.04 0-.05.01 0 .01-.01.01-.02s-.02-.03-.03-.02c0 .01-.01.01-.02.01s-.01.01-.01.02c.01.03.01.04-.02.03-.02-.01-.02-.01-.03 0-.01.02-.03.02-.05 0-.01-.01-.04-.01-.06-.02-.04 0-.08-.02-.09-.03-.02-.02-.09-.03-.09-.01 0 .02-.02.01-.04-.01-.02-.03-.02-.04.03-.04.04 0 .04 0 .03-.02 0-.01-.01-.01-.02 0s-.02.01-.03 0c-.02-.01-.04-.01-.08-.01-.06 0-.09.01-.09.03 0 .02-.02.02-.05-.01-.02-.01-.03-.03-.02-.03.01 0 .01 0 0-.02-.02-.02-.04-.03-.06-.02-.03.02-.04.01-.04-.01s.01-.02-.03-.01c-.02.01-.04.01-.06-.01-.01-.01-.01-.02 0-.02.01-.01.01-.02 0-.02s-.02-.01-.03-.02l-.02-.02h.02c.01 0 .02 0 .01-.01v-.02c0-.01-.03 0-.06.01-.04.02-.1.02-.11 0 0-.01.01-.02.02-.02v-.01c-.01-.01-.01-.02 0-.02.01-.01.01-.02-.01-.02-.01 0-.03.01-.04.03-.02.02-.02.03-.01.04.01.02-.01.03-.05.01-.03-.01-.04-.02-.03-.03 0 0 0-.02-.02-.04-.02-.04-.03-.04-.07-.02-.01.01-.02 0-.02-.01 0-.02 0-.02-.02-.01l-.03.01.02-.03.01-.02-.02-.01c-.01 0-.03 0-.03.01-.02.01-.04.01-.05-.01-.01-.01-.01-.01.01-.03l.03-.02c.02 0 .01-.01-.02-.03-.02-.01-.04-.02-.05-.02 0 0-.01 0-.02-.01-.01 0-.03-.01-.06-.01-.04-.01-.07-.02-.21-.1-.06-.03-.07-.04-.05-.04.04-.01.07-.01.13.03.04.02.07.03.08.03.02 0 .16.04.18.05.02.02.07.03.08.03 0 0-.01-.01-.03-.02-.02-.01-.03-.02-.04-.03 0-.01-.01-.01-.01-.01s-.01 0-.02-.01c-.01 0-.03-.01-.04-.01-.04 0-.04-.03 0-.03.01 0 .02-.01.03-.02.01-.02.01-.02 0-.04-.01-.01-.02-.01-.02.01-.01.02-.06.05-.07.04 0 0 0-.01.01-.02s.01-.02 0-.02c-.02-.01-.02-.01-.02.01s-.02.03-.04.02c-.02-.01-.06-.08-.05-.1.01-.02-.01-.03-.03-.01-.01.01-.02.01-.03.01-.02 0-.06-.03-.06-.05-.01-.03-.02-.03-.06-.02-.02 0-.03.01-.03.02 0 .02-.03.02-.06.01-.03-.02-.04-.05-.02-.05s-.01-.01-.03-.01-.06-.04-.06-.06c0 0-.01-.01-.02-.01-.02 0-.03-.01-.03-.05 0-.02 0-.03.02-.03.01 0 .02 0 .02-.01.01-.01.05 0 .07.03l.02.03c.01 0 .02.01.02.02.01.02.02.02.04.02.04 0 .04.01.01.04-.02.03-.02.05 0 .06.01.01.02.01.04-.02.01-.01.03-.03.05-.03.02 0 .02 0 .01-.02-.01-.01-.01-.01-.02 0s-.16-.08-.15-.09c.01-.01.03-.01.07 0 .03.01.03.01.03 0-.01-.03-.02-.07-.02-.08 0 0 .02 0 .03.02l.03.02-.02-.03c-.02-.05-.02-.05-.04-.02l-.02.02-.03-.02c-.02-.01-.03-.03-.04-.04-.01-.01 0-.01.01-.01s.02-.01.03-.01c0-.01-.01 0-.04.01h-.09l.01.02c.02.03.02.03 0 .04l-.03.02-.04.01c-.02.01-.04 0-.04-.03v.02c0 .03-.01.05-.02.06-.03.03-.06-.01-.06-.09 0-.03 0-.03.02-.03.01 0 .02 0 .03.01.01 0 .01 0 .04-.02.01-.01.03-.02.04-.02.01 0 .02-.01.01-.01 0-.01-.02-.01-.03-.01s-.02 0-.02-.01c-.01-.01-.02-.01-.02.01s-.01.03-.03.02c-.01 0-.01-.02 0-.03.01 0 0-.01-.01-.02s-.03-.03-.03-.04c-.01-.02-.01-.02-.02-.02-.01.01-.05-.03-.05-.06 0-.01 0-.02.02-.01s.03.01.05.01c.01 0 .03.01.04.02.02.01.04.02.04.01 0 0-.01-.01-.02-.03-.02-.02-.03-.02-.07-.02-.02 0-.02-.02-.02-.03l.02-.02.02-.01-.04-.02-.04-.02.02-.02.02-.02-.04-.01c-.03 0-.04 0-.04.01s.01.01.02.01c.02-.01.04.01.02.03-.02.02-.03.04-.02.05.02.01.02.06 0 .08-.01.01-.01.02-.01.03.03.04-.01.07-.05.03-.01-.02-.03-.02-.05-.02l.02-.02.02-.02-.02-.01-.02-.01.02-.02c.02-.03.02-.04 0-.04s-.04-.02-.05-.06c0-.02-.01-.04-.03-.05v-.03h.1c.03 0 .07.01.08.01.01 0 .02 0 .02-.03 0-.01 0-.03-.01-.03-.02-.01-.03-.01-.03.01s0 .02-.05.02c-.03 0-.05 0-.07-.01-.01-.01-.03-.02-.03-.02-.03.01-.08-.05-.07-.08 0 0 0-.01-.01-.01s-.01-.01 0-.02.01-.02 0-.05c-.01-.01-.01-.03-.01-.02 0 .02-.03.01-.04 0-.01-.01-.01-.02-.01-.03 0-.02 0-.02-.02-.03-.03-.01-.04-.02-.02-.03.01 0 .01-.01 0-.02-.02-.02-.03-.04-.02-.05.01 0 0-.01-.01-.02-.02-.01-.02-.02-.01-.03.01-.01.01-.01-.01-.02-.01 0-.02-.02-.02-.03-.01-.01-.01-.02.01-.02.01-.01.01-.01 0-.02l-.02-.01.02-.004c.02-.01.02-.01.01-.03-.01-.02-.03-.04-.04-.05-.04-.03-.04-.03-.01-.05.01-.01.02-.01.05 0l.02.01v-.03c0-.024.01-.034.03-.034.01 0 .02-.01.03-.02.01-.01.01-.02.02-.02s.07.066.07.08v.017c0 .01.01 0 .01-.014.01-.01.02-.03.03-.03h.01l-.01-.01c-.01 0-.01-.01-.01-.01 0-.01-.02-.02-.03-.02-.02-.01-.07-.03-.07-.04 0 0 .01-.01.02-.01.02 0 .02 0 .01-.02s0-.03.03-.03c.01 0 .01 0 0-.01-.02-.01-.02-.06.01-.086.01-.015.01-.02.01-.03V21l-.02.02c-.02.033-.06.01-.04-.03.01-.015.06-.02.06-.005 0 .01.01.01.02 0l.02-.003-.03-.016-.06-.03-.04-.02.02.023c.02.03.02.03-.07 0-.11-.03-.15-.07-.15-.12 0-.01-.01-.01-.05.01-.05.02-.05.02-.03.04.01.01.02.03.02.04.02.04-.02.06-.07.03-.04-.03-.06-.06-.05-.11 0-.05.02-.08.06-.1.01-.01.02-.03.03-.04.01-.02.01-.02.02-.02s.02 0 .02-.01-.01-.01-.02-.01-.02-.01-.03-.02l-.04-.05c-.01-.01-.02-.03-.02-.04 0-.02 0-.02.03-.02s.08-.01.07-.02c0-.01-.01-.01-.01-.01s-.02 0-.02-.01c-.02-.01-.01-.04.01-.04.01 0 .02-.01.04-.04 0-.01.01-.02.01-.02s.01 0 .02-.01l.02-.01c.02 0 .05.01.05.02h.01v-.03c0-.01-.01-.02-.03-.04l-.03-.02v.02c0 .01 0 .02-.02.02H9.5c-.015-.01-.016-.01-.01-.02.01-.01.01-.02 0-.04-.01-.01-.01-.03-.01-.04 0-.01 0-.02.02-.01.024 0 .02-.01 0-.02s-.03-.03-.01-.05c.01-.01.02-.02.02-.03 0-.01-.03 0-.04.01-.01.01-.02.01-.04 0s-.03-.02-.03-.03c0-.01-.02-.01-.04-.01-.016 0-.03 0-.03-.01s0 0-.01 0-.03-.02-.046-.05c-.01-.01-.01-.01.01-.01.01.01.03.02.04.03.02.01.02.02.04 0l.03-.01-.02-.01c-.01-.01-.02-.02-.02-.04-.01-.02-.01-.03.01-.02.03.01.05.01.07 0 .01-.01.02-.02.023-.01.01.01.01.01.01 0 0 0 .01-.01.01 0 .01 0 0-.01-.01-.02-.03-.03-.03-.04 0-.04.01 0 .02-.01.02-.02v-.02c.01-.01.05.02.05.04 0 .01.01.02.02.03.01 0 .02.01.02.02s0 .02.01.02c.01.01.01.03-.01.04-.01 0-.02.02-.02.02s.01.01.03.01c.02.01.02.01.03 0 .01-.01.03-.01.05 0 .02.02.03.04.04.08 0 .03 0 .03-.02.03-.03 0-.03.03 0 .05.01.01.03.03.03.05.01.02.01.03 0 .03s-.01.01 0 .02.01.01 0 .02-.01.03 0 .03.02 0 .03-.01c.02-.01.03-.01.04 0 .01.01.01 0 .03-.01l.02-.02H9.8c0 .01-.01.01-.02.01-.03.01-.03-.02 0-.04l.02-.02-.02-.02c-.01-.01-.01-.02-.01-.04s0-.03-.01-.04c-.01-.02-.03-.03-.05-.08l-.02-.03h.02c.02 0 .02-.01.02-.03V20c0-.01.01-.013.02-.01.03.02.03 0-.01-.02-.05-.03-.06-.05-.06-.074 0-.01 0-.02-.01-.02 0 0-.02-.01-.02-.02-.02-.03-.01-.04.03-.03.02.01.03 0 .03-.01.01-.01 0-.01-.01-.01-.01-.01-.02-.02-.02-.03 0-.02-.02-.04-.04-.06-.02-.03-.03-.037-.02-.07 0-.02.01-.06.01-.08 0-.03 0-.047.01-.05.01-.01.01-.01-.01-.03-.01-.017-.02-.04-.02-.05 0-.02-.01-.04-.02-.06-.01-.02-.01-.03 0-.04s.01-.013-.016-.05c-.017-.02-.026-.04-.02-.05l.04-.003h.03l-.03-.01-.03-.01.03-.01.03-.016H9.6c-.04.01-.07-.01-.08-.04-.01-.02.02-.064.03-.064 0 0 .01 0 .01-.01s-.1-.06-.12-.06c-.01 0-.01.01-.01.03 0 .023 0 .03.02.04.02.01.02.02.02.03 0 .02-.02.02-.04 0-.01-.015-.01-.016-.02-.01-.01.01-.03.01-.05.01-.02 0-.03.003-.03.01 0 .01.04.08.07.11l.03.03-.02.02c-.01.01-.03.02-.04.025-.01.01-.01.01.01.01.03 0 .06.03.06.04 0 .01-.02.03-.03.02-.01 0-.01 0-.01.02s.01.03.04.05c.02.01.04.03.04.04 0 .01.01.02.02.02s.01.01.01.02-.014.01-.02.01c-.01 0-.01 0-.01.01s0 .03-.01.03c-.01.01-.01.03-.01.06v.04l-.03.01c-.04 0-.14-.03-.17-.05-.02-.02-.02-.03-.02-.07 0-.05-.03-.22-.06-.28-.01-.03-.01-.05-.01-.08 0-.06 0-.07-.02-.09l-.02-.02h.02c.01 0 .04.005.06.016.04.028.05.03.05.01 0-.01 0-.02-.01-.022-.01-.01-.02-.02-.02-.03 0-.01 0-.02-.01-.02-.02 0-.07-.054-.09-.09-.03-.07-.05-.14-.09-.385-.01-.07 0-.11.02-.14.02-.02.023-.02.024-.09 0-.1-.01-.13-.12-.29-.07-.11-.09-.15-.1-.23 0-.03-.015-.05-.036-.07-.05-.06-.07-.09-.07-.12 0-.02-.01-.05-.01-.07-.01-.02-.01-.05-.01-.07v-.04l.03.02c.07.035.1 0 .07-.086-.02-.07-.02-.1 0-.1.03 0 .04-.09.03-.16-.01-.05-.01-.06.01-.09.014-.04.015-.04 0-.08-.01-.04-.01-.04.02-.12.04-.11.04-.13.02-.27s-.02-.18.02-.25c.02-.03.03-.06.03-.08 0-.01-.01-.05-.03-.08-.02-.04-.03-.07-.03-.08 0-.01.01-.04.02-.07.02-.05.02-.06.01-.1-.01-.03-.01-.06-.01-.08 0-.02-.01-.04-.01-.05-.03-.03-.04-.06-.06-.14-.01-.04-.05-.13-.08-.21-.06-.15-.096-.26-.097-.32 0-.04 0-.04.03-.07.03-.02.03-.03.03-.06 0-.02 0-.05.01-.05.02-.03-.02-.15-.08-.22-.02-.02-.03-.05-.04-.07-.01-.03-.01-.04 0-.07.05-.13.06-.17.04-.3 0-.02 0-.05.01-.08.01-.04.01-.06.01-.09-.01-.11-.01-.18 0-.25.02-.11.02-.16-.01-.26-.01-.04-.02-.1-.03-.12 0-.04 0-.05.03-.08.02-.02.03-.04.03-.05 0-.01-.01-.04-.02-.07l-.04-.1c-.02-.06-.04-.3-.02-.4l.01-.04-.02-.01c-.03-.01-.06-.04-.06-.07 0-.01 0-.05.01-.08.01-.06.01-.06.02-.05.02.01.03.01.04-.01 0-.01.01-.11.01-.23.01-.25 0-.34-.03-.43-.03-.09-.04-.15-.05-.28-.01-.15-.02-.22-.05-.31-.04-.1-.06-.2-.06-.27s-.01-.09-.06-.12c-.01 0-.04-.03-.07-.05-.02-.02-.07-.05-.1-.07-.06-.04-.09-.07-.13-.14-.04-.07-.05-.08-.12-.12-.03-.01-.08-.05-.12-.08-.08-.06-.12-.08-.18-.1-.06-.02-.09-.03-.16-.07-.02-.01-.07-.04-.11-.05-.08-.03-.11-.05-.19-.11-.04-.03-.12-.08-.19-.11-.12-.07-.14-.09-.21-.17-.02-.03-.06-.07-.09-.09-.09-.07-.12-.1-.16-.15-.01-.03-.04-.07-.06-.09-.03-.03-.04-.04-.04-.07 0-.03-.01-.04-.02-.04-.02 0-.02 0-.01-.04.01-.03.01-.03.02-.02.02.02.02-.07 0-.11-.01-.02-.03-.07-.06-.12l-.1-.17c-.03-.04-.07-.1-.1-.13-.05-.05-.05-.06-.05-.09 0-.07-.06-.17-.13-.21-.04-.02-.05-.04-.05-.07.01-.03-.02-.1-.09-.21-.05-.09-.06-.11-.12-.25-.01-.04-.05-.11-.07-.16-.06-.1-.08-.15-.1-.21-.03-.07-.06-.13-.14-.25-.06-.07-.1-.14-.14-.22-.03-.06-.07-.13-.09-.16-.08-.11-.22-.21-.37-.27-.05-.02-.07-.04-.06-.09.01-.04.02-.06.05-.06.06 0 .06-.03-.01-.13-.05-.07-.07-.12-.05-.15.02-.01.01-.01-.01-.04-.06-.06-.06-.12-.01-.22.04-.09.13-.2.2-.25.03-.02.05-.05.05-.05 0-.01.01-.02.03-.03l.05-.02c.03-.01.04-.04.06-.12l.02-.07-.03.02c-.02.01-.03.03-.03.03s-.01.02-.01.03c-.03.05-.07.02-.07-.05 0-.03 0-.03-.06-.08-.03-.03-.07-.06-.1-.07-.07-.04-.09-.07-.05-.09.02-.01.03-.02.03-.02.01-.02 0-.09-.01-.13-.02-.04-.02-.04 0-.08.01-.04.01-.06-.01-.12-.01-.03-.02-.04-.01-.06.01-.01.02-.02.05-.03.05-.01.05-.01.06-.05 0-.01.02-.03.02-.04.01 0 .01-.01 0-.03-.02-.04-.01-.08.05-.14.07-.08.09-.13.07-.21-.02-.07-.01-.11 0-.13.03-.02.09-.05.11-.05.02 0 .03-.01.04-.01.02-.02.14-.07.17-.07.02 0 .03-.01.04-.04l.02-.04h-.01c-.01-.01-.02-.02-.03-.02-.03 0-.01-.06.03-.09.02-.01.04-.01.06-.01.05 0 .05 0 .02-.07-.01-.04-.01-.045 0-.08.02-.04.05-.07.1-.08.04-.01.04-.01.04-.03 0-.016 0-.02.01-.02s.03.008.04.017c.02.01.02.01.03 0 .01-.01.01-.02.01-.03 0-.02 0-.02.02-.01h.03l.02-.04.02-.04-.02-.01c-.01-.01-.01-.02-.01-.02.01 0 .02-.01.03-.02.01-.02.02-.02.03-.02.01 0 .02-.01.03-.05.02-.04.04-.07.06-.09.04-.05.04-.07.01-.09 0-.03-.01-.04-.01-.05 0-.01-.01-.02-.01-.02-.01-.01-.04-.06-.04-.08 0-.02.02-.05.03-.06.01 0 .02-.03.03-.07.01-.06.01-.08 0-.16 0-.05-.01-.11-.02-.14-.02-.07-.02-.08.02-.11.04-.04.05-.05.01-.11-.02-.03-.03-.06-.03-.07 0-.01.01-.02.02-.04.02-.02.03-.03.02-.05 0-.02-.01-.05-.02-.06s-.03-.06-.04-.09-.04-.07-.05-.09l-.03-.04.02-.04c.01-.02.02-.05.02-.06 0-.02.01-.05.02-.06.01 0 .01.01.02.03l.01.02.05-.02c.03-.03.07-.1.07-.13 0-.01-.02-.04-.03-.08-.03-.03-.03-.04-.01-.09.02-.04.02-.04.08.06.05.08.09.13.09.11 0-.01 0-.04-.01-.08V1.5l.03-.03c.02-.01.06-.05.1-.07.06-.04.08-.05.1-.1.04-.06.07-.09.12-.1.02 0 .05-.01.05-.01.01-.02.01-.02 0-.05s-.02-.04 0-.09l.01-.1c.01-.01.01-.02 0-.02-.01-.01 0-.03.02-.04.01-.01.02-.02.02-.05 0-.05.01-.06.05-.09.02-.01.04-.04.06-.06.01-.02.04-.06.07-.08.05-.04.06-.05.14-.01.06.03.07.03.09-.02.01-.03.03-.05.04-.06C7.09.5 7.1.5 7.2.51c.13 0 .14 0 .24-.08.05-.04.11-.08.16-.1.11-.05.13-.08.11-.14 0-.01 0-.02.03-.02.02-.01.04-.01.04-.01s.02 0 .03-.02c.05-.06.18-.05.23.02.04.04.03.07-.01.12-.02.02-.04.04-.05.06-.01.02-.04.03-.1.04-.05.01-.08.02-.08.06 0 .03.03.1.06.12.02.01.02.01.02.03-.01.02 0 .05.02.06.01 0 .03-.01.05-.03.07-.06.15-.1.24-.12.09-.03.18-.07.18-.09h-.02c-.02 0-.02 0-.02-.09 0-.08.01-.1.02-.12.02-.03.06-.04.09-.03.04.02.05.05.06.12.01.13.01.13.11.13.07 0 .09 0 .15.02.08.03.13.07.16.11.01.02.01.04.01.11 0 .09.01.1.053.11.043.01.12 0 .255-.03.06-.01.15-.02.19-.03.1-.01.14 0 .19.06.05.05.08.07.188.1.05.01.09.02.1.03.02.01.05.01.1-.03.02-.02.06-.04.08-.04.02-.01.05-.03.06-.04.01-.02.03-.03.03-.03s0-.01-.02-.03c-.04-.04-.03-.04.03-.04.03 0 .06-.01.08-.02.02-.01.03-.01.07 0 .03.01.05.01.09 0 .02-.01.14-.01.25-.02.11 0 .21-.01.22-.01h.03l-.02.02c-.02.03-.026.04-.186.08-.02.01-.04.01-.06.005h-.04l.03.05.04.08c.01.01.02.03.02.04s.01.03.02.04c.01.03.01.03.01.01 0-.02 0-.03.01-.04.01-.03.08-.01.12.03.02.02.04.03.06 0 .01-.01.02-.01.04 0s.03.03.04.04c.01.02.03.03.07.04.09.03.14.09.1.13-.01.01-.01.01.01.02h.04c.02-.01.02 0-.01.02-.02.02-.03.03-.04.03-.014 0-.01.03 0 .03.01.01.01.01-.01.03-.01.01-.02.03-.02.03.01 0 .01.01 0 .02-.01.02-.01.02.02.04l.06.03c.03 0 .03 0 .05-.01.04-.03.08-.02.13.01.02.01.06.04.08.05.1.04.17.1.25.2l.09.09c.03.02.04.04.05.07.02.05.01.1-.01.15l-.02.04.02-.01c.02-.01.06-.01.12.02.07.037.12.08.15.12.02.037.03.04.04.04.04 0 .07.04.09.12l.01.03.03-.02c.02-.013.03-.02.09-.01.15.046.3.01.46.01.01.01.02.01.02 0 0 0 0-.01.01-.01.02-.02.09-.02.2.01.1.02.13.04.14.07 0 .01.01.01.02.01.03-.02.06-.01.11.02.04.02.073.03.12.04.034.01.073.02.09.03.01.01.05.05.08.09.06.08.09.1.12.1s.03.01.02.02c-.01 0 0 .01.01.02.015 0 .035.02.05.04.02.02.024.02.033.02.02-.02.03 0 .05.04.02.03.02.05.02.09 0 .03 0 .05.01.04 0 0 .01-.01.01-.02s.01-.02.01-.03l.02-.01.02.02c.04.02.07.07.08.12.01.03.02.04.02.032.02-.02.02-.01.02.07 0 .14.02.22.09.4.02.05.03.08.03.11s0 .05.02.06c.02.02.027.01.01-.01-.013-.02 0-.04.03-.03.02 0 .03 0 .03.01 0 0 .01.02.016.04.02.025.02.035.01.05-.01.02-.01.02.03.03.09.02.14.106.09.186l-.01.03.02.01.02.02-.02.01c-.01.01-.01.02-.01.04s0 .03-.02.03c-.01 0-.01.01-.01.02 0 .02-.04.05-.06.05-.03-.01-.06.02-.05.04.01.01.01.01.03-.01.01-.01.02-.02.04-.02.05 0 .06.04.02.08l-.02.03.02.01h.06c.06-.01.09.027.05.07l-.02.02h.04c.03 0 .04.01.06.02.04.04.02.06-.04.07l-.04.01h.03c.02 0 .04 0 .05-.01s.03-.02.06-.02c.05 0 .23.03.24.05.013.01.02.07 0 .1 0 .01-.018.05-.027.09-.01.05-.04.11-.07.17-.04.09-.05.13-.02.09.02-.02.05-.02.07 0 .01.01.01 0 .01-.01s.01-.03.03-.05c.02-.03.02-.03.01-.04-.01 0-.01-.01-.01-.03 0-.03.02-.04.04-.03.01.004.01 0 .01-.03s.01-.04.04-.06c.02-.02.03-.03.05-.02.01 0 .024 0 .044-.016.01-.01.03-.02.03-.02.01 0 .01-.01.01-.03V4.6l.02.03c.01.02.02.03.03.04.017 0 .02 0 .02-.01s0-.03.01-.03c.01-.02.01-.02.04-.01.02.004.04.02.05.03.01.01.02.015.03.013.01 0 .01 0 .01.01s.01.01.02.01.02.01.02.01c0 .01.01.01.01 0 .01-.02.03-.02.03 0s.01.024.04.02c.01 0 .02 0 .02.01s.01.02.02.01c.02 0 .02 0 .03.02.01.02.01.02.02.005s.01-.01.01.01c0 .026 0 .027.01.01.01-.02.03-.01.03.01s.03.04.04.03c.01 0 .02 0 .03.02l.03.02.02-.014c.01-.02.02-.02.02-.01s.01.02.01.03c0 .02.01.03.03.01.01-.01.01-.01.02.01 0 .01.01.02.01.02l.02.004s.02.01.04 0l.03-.01-.02.03c-.02.02-.02.04-.02.05V5l.01-.02c.01-.02.05-.04.08-.03.01 0 .02 0 .02-.003V5c0 .003-.01 0-.02-.006-.01-.014-.02-.037 0-.037 0 0 .01-.01.02-.026.01-.02.01-.02.02-.01.01.02.01.06 0 .07-.01.01-.01.01.01 0 .03-.01.03-.01.02.02-.02.03-.02.04 0 .04s.06.02.06.03c0 .01-.01.01-.02.02-.02.01-.02.02 0 .02.01 0 .03.01.04.02.02.03.02.04 0 .1-.01.03-.01.03 0 .03.02-.01.05.01.06.04.01.03.01.04-.023.08-.026.03-.05.08-.05.09 0 .01.01.01.02 0s.02-.02.03-.04c.01-.03.05-.06.09-.06.03 0 .04.01.04.04 0 .02 0 .02.02.02.01 0 .03-.01.04-.02.014-.01.034-.02.06-.02.02 0 .03 0 .04-.02.01-.01.013-.02.06-.01.04.01.063.02.18.07.07.04.134.07.14.08 0 .01.023.01.044.01.04 0 .04 0 .04-.02 0-.01 0-.01.02-.01.01 0 .04.02.06.03.02.02.06.03.08.04l.05.02.02-.01c.01-.01.03-.02.08-.02.03 0 .09-.01.13-.01.14-.02.26.03.5.22.05.04.117.09.14.1.04.02.06.04.097.09.06.08.19.21.25.25.03.02.06.04.07.05.02.02.04.03.07.04.02.01.05.02.07.04.03.02.04.02.23.02h.1c.05.02.11.06.14.11.04.06.07.18.07.24 0 .04.01.06.02.07.02.03.06.15.07.2 0 .03.01.06.01.06l.02.07c.01.06.01.07 0 .09-.01.02-.01.03 0 .04 0 0 .01.01 0 .03v.03c.01.01.01.02 0 .03 0 .01-.01.03-.01.05s-.01.04-.02.06c-.01.02-.02.05-.02.08 0 .02-.01.05-.01.07-.01.02-.02.07-.04.11-.04.11-.04.12-.1.2-.03.04-.06.07-.06.08 0 .01-.01.02-.02.02s-.03.03-.05.07c-.04.08-.1.16-.14.2-.01.01-.04.03-.06.05-.055.03-.135.11-.135.13 0 .01-.01.03-.02.05-.01.02-.02.04-.03.05-.01.01-.02.03-.036.03-.02.02-.03.03-.01.03.02-.01.02-.01-.01.03l-.07.17c-.06.16-.1.24-.14.29-.03.05-.09.08-.12.07-.02 0-.03 0-.04.02-.01.02-.02.03-.04.03s-.02.01-.03.02c-.02.03-.02.04 0 .06.01.02.01.06-.01.07-.01.01-.01.02-.01.06 0 .05 0 .06.01.06.02.01.02.02 0 .17-.02.13-.01.18.03.35.03.12.03.13.03.22 0 .06-.01.12-.03.18-.04.16-.04.21-.03.31.01.1.01.12-.04.18-.09.1-.11.23-.08.41.02.08.02.14 0 .17 0 .01-.02.04-.04.06-.04.03-.04.04-.05.1-.016.06-.03.11-.05.11-.01 0-.01.01 0 .02.01.04-.01.08-.074.13-.04.04-.05.06-.06.08 0 .02-.02.06-.03.1-.02.08-.02.12-.01.19.01.05.01.06 0 .08-.02.03-.05.06-.12.08-.06.02-.12.07-.14.11-.01.02-.01.04-.01.07.01.03 0 .04-.01.07-.01.03-.01.03-.03.02-.03-.01-.12-.01-.17 0-.07.02-.1.02-.12 0-.01-.01-.02-.01-.033.01l-.03.02c-.01 0-.057 0-.11.01-.09.01-.117.01-.117-.01 0-.01.04-.02.06-.02.02 0 .02 0 .02-.01-.01-.01-.06-.01-.08.01-.01.01-.04.01-.08.01-.07 0-.11.01-.11.04l.04.02c.02.01.03.02.03.03 0 .02-.04.03-.08.04-.04 0-.05.01-.07.02-.01.01-.04.03-.06.04-.03.01-.04.02-.04.03 0 .01.01.02.02.02.03 0 .03 0 .03.04 0 .05 0 .05-.06.05-.03 0-.04 0-.04-.01s0-.01-.02-.01c-.01 0-.03-.01-.05-.02-.06-.02-.07-.01-.11.03-.04.05-.06.06-.07.03 0-.01-.01-.01-.02.01-.01.01-.03.03-.05.04-.03.01-.05.03-.09.07-.06.08-.07.09-.14.12-.04.03-.06.05-.09.08-.03.04-.04.05-.03.06.01.01.01.01-.02.05-.02.02-.04.05-.05.08l-.03.04c-.01 0-.04.04-.05.09-.01.06-.01.1 0 .12.01.01.02.03.02.04 0 .03-.02.08-.02.07-.01-.01 0 .06.02.11.02.03.03.06.03.08 0 .02.01.04.02.05.01.01.01.02 0 .04-.01.01-.01.03 0 .04 0 .02.01.02.02.01.02-.01.02-.01.03 0 .02.02.017.08 0 .12-.01.01-.01.05-.01.08s-.01.08-.02.11-.02.06-.01.07c0 .02-.02.04-.13.13-.09.08-.14.18-.2.43-.05.17-.08.26-.15.37-.06.1-.115.17-.23.28-.12.11-.13.14-.15.26-.01.06-.02.1-.03.14-.03.07-.13.2-.15.21-.02.01-.02.02-.03.06-.02.1-.14.29-.18.29-.01 0-.02.01-.03.02-.01.01-.04.03-.07.04-.07.03-.12.03-.21.01-.1-.02-.13-.02-.18 0-.05.02-.09.02-.12-.01-.03-.02-.03-.03-.11-.04-.05-.01-.08-.02-.13-.05-.03-.05-.09-.02-.14-.04-.11 0-.106.01-.15-.03l-.09-.08-.05-.04v.03c0 .02 0 .04-.01.05-.01.01-.01.02.02.05.034.05.08.07.23.15.12.06.18.1.204.16.02.04.02.06.01.12-.01.04-.01.05 0 .08.01.05.06.11.1.13.02.01.03.01.06.01.05 0 .06.01.09.09.03.09.03.15-.01.24l-.06.12c-.05.07-.06.11-.06.15 0 .08-.04.12-.16.18-.1.05-.16.07-.39.12-.28.06-.33.07-.49.07-.12 0-.14 0-.14.01s.01.02.02.02c.02.01.04.04.02.05-.02.01-.03.01-.06-.01-.04-.02-.04-.03-.03-.04.01 0 0-.01-.01-.01-.02-.01-.02-.02 0-.03l.03-.01-.03-.01-.05-.02c-.02-.01-.02-.01-.01.01.01.01.01.03.01.05 0 .02 0 .03.04.06.04.04.08.11.08.16 0 .04-.01.07-.03.07-.01 0-.01.01-.01.05 0 .03 0 .06-.01.07-.01.02-.01.02.04.07.023.02.04.05.04.05h.02c.02-.01.02-.01.02.02-.02.09-.09.15-.227.18-.12.02-.19.01-.35-.06-.05-.02-.1-.04-.13-.04s-.04-.01-.04-.02c0-.02-.01-.02-.03 0-.03.04-.02.09.02.15.05.07.07.11.08.16.02.12.04.14.11.16.07.02.09.03.1.06l.02.03h.05c.03 0 .06-.01.05-.01 0-.01-.01-.02-.04-.02l-.03-.02c0-.02.1-.07.13-.07.04 0 .08.04.12.13.01.04.03.08.03.09 0 .04-.06.075-.13.075-.03 0-.06-.02-.07-.05-.02-.04-.04-.06-.07-.07-.04-.01-.09.02-.1.05 0 .04.09.08.16.08.04-.01.04-.01.03.01-.01.03-.03.055-.09.08-.04.03-.05.03-.07.08-.03.08-.03.1.01.16.03.03.035.06.03.08 0 .01.01.04.02.05.02.03.02.08.01.1 0 0-.02.01-.03.02-.036.015-.036.03 0 .07.06.06.04.074-.09.08-.05 0-.1.01-.11.01-.02.01-.02.02-.01.05 0 .01 0 .01-.02.01-.07-.01-.11.03-.14.144-.02.09-.02.16.02.21.01.02.05.055.08.08l.12.09c.1.08.11.08.23.09.1.005.1.01.14.03.05.04.08.09.08.16 0 .03 0 .06-.01.06-.01.01 0 .02.03.05l.04.04-.02.01c-.01.01-.02.01-.01.02.01.02.01.02-.02.02-.02 0-.035.016-.116.1-.054.05-.11.12-.14.15-.04.05-.04.06-.04.1 0 .03 0 .04.01.04s.02.03.03.09c.02.09.02.123 0 .16-.01.02-.07.05-.1.05-.01 0-.02 0-.02.01l-.05.04c-.02.01-.04.03-.05.043 0 .01-.01.05 0 .1.01.07.01.07.03.08.03.01.07.05.1.11.03.05.03.07.02.09-.01.01 0 .01.01.01.02 0 .03.01.07.03.02.02.07.06.1.088.06.047.11.11.11.13 0 .01-.03.02-.04.01 0-.004-.02-.01-.03-.01-.01 0-.05-.01-.09-.02-.1-.023-.11-.023-.12 0-.01.05-.01.05.01.04.01 0 .04.01.07.03l.05.037.04-.01c.02-.01.04-.01.05-.01.02 0 .15.09.2.14.03.03.03.04.02.04-.01.01-.01.01-.02.01-.01-.01-.02-.01-.02 0-.02.02.01.03.06.04.05.01.04 0 .12.1.01.01.044.04.08.06.03.01.074.04.09.05.054.05.12.08.29.15.22.1.24.1.354.1.08 0 .09 0 .1.02.01.02.01.04 0 .08l-.01.03h-.09c-.06 0-.11 0-.13.01-.06.02-.1.03-.13.02-.03-.01-.03-.01-.03.01 0 .01-.01.01-.02.01-.02 0-.02.01-.02.03-.01.05-.06.07-.09.04-.02-.01-.03-.02-.03-.01-.01.01-.07.006-.12-.01h-.02s0 .01-.01.02c-.02.005-.02.01.01.02.03.02.1.085.1.1 0 .004-.01.01-.03.01-.02 0-.04-.01-.06-.03zm-.065-.158c-.02-.037-.04-.043-.05-.023-.03.023-.03.03.01.03.01 0 .02.004.03.008l.02.007s0-.01-.01-.02zm-.5-.08c.07-.017.07-.017.06-.027-.02 0-.03 0-.06.01-.02.01-.05.01-.07.01-.02 0-.03.01-.04.02-.01.02 0 .02.01.03.02.01.02.01.04-.01.01-.01.02-.02.03-.02zm.44.007c.01-.008 0-.013-.02-.02-.03-.008-.04-.01-.04-.002-.01.006 0 .01.01.02.03.014.03.014.04.002zm-.68-.008c0-.01-.02-.012-.02-.005 0 .005 0 .008.01.008s.01 0 .01-.003zm.11-.017c0-.003-.01-.003-.02 0-.01 0 0 .003 0 .004.01 0 .01-.002.01-.004zm-.14-.02l.01-.016-.03.01-.04.017c-.01.01 0 .01.01.01s.02 0 .03-.01zm-.31-.115c0-.004.01-.007.01-.007.01 0 .02-.003.03-.005.01-.004.01-.004 0-.023-.01-.01-.03-.02-.03-.02s-.02-.008-.03-.02l-.03-.02.01.024c.01.03-.01.05-.03.05-.03-.002-.02.02.02.023l.04.005s.01-.002.01-.007zm.68 0v-.007l-.02-.005c-.01-.004-.01-.002-.01.007.01.014.01.016.02.004zm-.48-.027c0-.01.01-.022.01-.023 0-.008-.03-.003-.07.015-.05.02-.05.024.02.026.02 0 .03-.002.03-.02zm-.35-.018c-.02-.016-.02-.03 0-.037.01-.007.04.02.03.03 0 .005 0 .01.01.01.02 0 .01-.023-.02-.04l-.03-.016-.02.02-.02.017.02.013c.03.017.03.017.01 0zm.72.006c0-.004 0-.008-.01-.008s-.02-.002-.03-.005l-.02-.005.02.01c.02.015.04.016.04.005zm-.49-.008c0-.004 0-.008-.01-.008 0 0-.01.003 0 .007 0 .004.01.008.01.008zm.35-.017c.06.02.08.01.02-.01-.14-.04-.21-.13-.14-.18.01 0 .03-.02.06-.03.05-.02.06-.03.05-.05-.01-.02-.04-.02-.11-.01-.13.03-.18.02-.22-.04-.03-.04-.03-.07-.02-.1.02-.03.01-.03-.02-.04-.02 0-.02 0 0-.02.01-.01.01-.01-.01-.01l-.06.01c-.03.01-.03.01-.03.02s.01.05.02.09c.01.06.02.09.05.13.02.03.04.07.04.08.01.03-.01.06-.04.07-.02.01-.12 0-.17-.01-.02-.01-.02 0-.01.01s.02.02.03.01c.01 0 .02 0 .02.01s.03.01.06.01c.04.01.06.01.06.02.02.03.02.04.03.02.01 0 .02 0 .03.01.04.03.05.02.02-.02l-.03-.04s.01-.01.02-.01c.02 0 .02-.01.02-.02-.01-.02-.01-.04.01-.05.02-.02.07.01.1.07.01.02.02.04.03.05l.02.01-.02.02c-.02.01-.02.02-.02.02s.01 0 .02-.01c.02-.02.04-.01.05.01 0 .01.01.02.02.03.01.01.02.02.02.03 0 .02 0 .02.01 0s.02-.02.05-.01zm-.65-.1s0-.01-.01-.01l-.01.01s0 .01.01.01h.01zm.06-.02c.02-.01.02-.01-.02-.02l-.05-.01s0 .01.01.02.01.01.02.01.01 0 .01.01c0 .02 0 .02.03 0zm-.13-.06s-.01-.01-.02-.01c-.02-.01-.02-.01 0 0 .01.01.01.02.02.02 0 0 .01 0 0 0zm-.29-.08v-.01c.01 0 0-.01-.02 0-.03 0-.03 0-.02.02 0 .01.01.01.02.01h.01zm.2-.04c0-.02-.01-.02-.02 0 0 .01 0 .02.01.02.01.01.01.01.01-.01zm.14-.03c.02.02.02.02.03 0 0-.01.01-.02.03-.03.03-.01.04-.02.04-.05 0-.02 0-.03-.03-.04-.02 0-.04-.01-.04 0l-.02.02-.05.05c-.04.03-.06.04-.08.04h-.03l.02.01.04.03c.02.01.03.01.04 0 .02-.02.02-.02.04 0zm-.3-.03c-.02-.01-.03-.01-.04 0-.01.01-.02.01-.02.01-.02 0 .02.01.06.01h.03l-.03-.01zm.68-.05l-.02-.02c-.02-.01-.02 0-.01.02s.02.02.02.01zm.07-.07s0-.02.01-.04v-.03l-.03.01c-.01.01-.03.01-.05.01-.01 0-.03.01-.05.02l-.03.02.04.02c.06.02.07.02.08.01zm-.67-.02l.03-.03.06.01c.04.01.06.01.04 0-.03-.01-.13-.01-.15 0l-.03.03c0 .01-.01.02-.02.02s-.04-.02-.05-.03l-.02-.01c-.02 0-.02 0 0 .01l.03.03c.03.03.04.03.08 0zm-.41-.1l-.05-.05c-.01 0 .01.03.04.06.01.01.02.03.02.04.01.02.01.02.01.01s-.01-.03-.03-.05zm.27-.01v-.01l-.01.01v.02s.01 0 .01-.01zm-.41-.06s-.01-.01-.03-.01l-.02-.01.02.02.02.01zm.22-.02c0-.01-.02 0-.02.01s0 .01.01 0 .01 0 .01-.01zm.04-.02c0-.01-.01-.01-.01 0v.02c.01.01.01 0 .01-.01zm-.2-.01v-.01s-.01 0-.01.01 0 .02.01.01zm.26-.03c-.01-.01-.08-.02-.08 0 0 .01.01.01.03.02.01.01.03.01.03.02.01.01.02 0 .01-.02zm-.3-.01c-.01-.01-.01-.02-.01-.02s-.01 0-.02.01c-.02.01-.01.02.01.03h.02s0-.01-.01-.02zm-.1 0s0-.01-.01 0v.02c.01.01.01.01.01 0zm.3 0s-.01-.01-.02-.01c-.02-.01-.02-.01-.02 0s0 .01.01.01c.01.01.03.01.03 0zm-.5-.32c.02-.01.01-.02-.01 0-.01.01-.02.01-.03 0-.02-.01-.02 0-.01.01s.03.01.05-.01zm-.11-.15c-.01-.01-.03-.02-.03-.01-.01 0-.02 0-.03-.01h-.01v.02c0 .01 0 .01.03.01.02 0 .04 0 .04.01h.01s0-.01-.01-.02zm-.21 0c-.02-.01-.03-.01-.02 0 0 .01.01.01.02.01s.01 0 0 0zm.11-.17c.01-.02 0-.06-.02-.07-.01 0-.01 0 0 .02 0 .01.01.04.01.05 0 .03.01.03.01.01zm-.19-.11c-.01 0-.01-.01-.01-.01v.01c0 .01.01.02.01.02.01 0 .01 0 0-.01zm-.14-.01c-.01-.01-.02-.01-.02-.01-.01.01-.01.02.01.02l.02.01s0-.01-.01-.01zm.32-.02h-.01s-.01.01 0 .01h.01s.01 0 0-.01zm0-.09c-.01-.01-.01-.01-.01.01s0 .02.01.02.01-.02 0-.03zm-.34-.02v-.02c0-.01-.02.02-.02.03h.02s.01 0 .01-.01zm-.09-.12c0-.01 0-.01.01-.01s.02-.01.02-.01c0-.02-.02-.01-.04 0-.02.02-.02.02-.01.02.02.01.02.01.02 0zm.09-.02c-.01 0-.01 0-.01.01 0 .02.01.03.02.01 0 0 0-.01-.01-.01zm.15-.02c-.02-.02-.03-.01-.01.02.01.01.01.01.02 0s0-.01-.01-.02zm-.02-.07l-.03-.03c-.02-.01-.03-.02-.03-.02-.01 0 .01.03.02.04.01 0 .01.02.02.03l.01.02.01-.01c.01-.02.01-.02 0-.03zm-.17-.14c0-.01-.01-.01-.02-.01-.01.01-.01.02 0 .02.02.02.02.01.01-.01zm.3-.01c0-.01-.01-.01-.01-.01-.01 0-.02 0-.02.01h.01s.01 0 .01-.01zm-.06-.02c-.02-.02-.03-.03-.04-.01 0 0 .01.01.02.01.03.02.04.02.02-.01zm.02-.06s-.01-.01-.02-.01c-.02-.01-.02.02 0 .02.01.01.02 0 .02 0zm-.22-.5c.01-.02.01-.03 0-.02-.01.01-.01.03-.02.04-.01.02-.01.03 0 .02.01-.01.02-.03.02-.04zm-.1-.05v-.02c0-.01-.01-.01-.02 0-.02.01-.02.02 0 .02h.02zm.06-.1s0-.01-.01-.01c0 0-.01.01 0 .01 0 .01.01.01.01.01zm-.25-.05c-.01 0-.02-.01-.02-.02s-.01-.01-.01 0 .02.03.03.02c0 0 0-.01-.01-.01zm.2 0c.01 0 .02 0 .02-.01s-.01 0-.02 0c-.03 0-.05-.01-.05-.03 0-.01 0-.01-.01 0v.04c.01.02.01.02.02.02s.02-.01.03 0zm-.11-.03l-.01-.01v.01c.01.01.01.01.01-.01zm-.02-.04l-.01-.01c-.01.01-.01.02.01.02l.02.01s0-.01-.01-.01zm-.05-.31h-.01s-.01 0-.01.01 0 .01.01.01l.01-.01zm.3-.08c0-.01-.01-.02-.01-.02-.01 0-.01.01 0 .02s.01.04 0 .05c0 0-.01.01 0 .02s.02-.03.02-.06zm-.42.02s0-.01-.01-.02l-.01-.01-.01.02c0 .01-.01.02-.02.03-.01 0-.01 0-.01.01 0 0 .02 0 .03-.01l.03-.01zm.17-.81c-.01-.01-.02-.01-.02 0 0 0 .01.01.02.01v-.01zm4.94-3.58c0-.01 0-.01-.01-.01s-.01.01-.01.02 0 .01.01.01.01-.01.01-.01zm-.01-.05c0-.02 0-.02.04-.01s.04.01.12-.08l.04-.04c.02-.01.02-.02.02-.06 0-.03 0-.04.02-.06.01-.01.02-.03.03-.04.01-.01.02-.03.03-.05.02-.02.02-.03.01-.09 0-.05 0-.06.01-.07.01 0 .02-.03.01-.03l-.04.02c-.02.02-.03.03-.03.04 0 .01 0 .02-.01.02l-.04-.03c-.02-.02-.03-.03-.02-.01.02.03.02.04 0 .04-.01.01-.01.01-.01.07 0 .03 0 .06-.01.06 0 0-.01 0-.01.01s-.01.02-.02.03c-.01.01-.02.02-.02.03 0 .03-.03.07-.08.1-.04.03-.04.04-.04.08 0 .02-.02.06-.03.08-.02.04-.02.05 0 .05.01 0 .01-.01.01-.02zm.8-2.24c0-.01 0-.03-.01-.03h-.02c-.01 0-.02 0-.02.01s-.01.02-.02.03c-.02.03-.02.03 0 .03.04.01.05.01.05-.03zm1.46-.94v.02zM18 9c0-.02 0-.02.01-.016s.02.02.024.02c.01.01.015.02.02.02.012 0 0-.026-.02-.05l-.02-.02-.014.02c-.01.017-.01.025 0 .036.013.02.016.017.01-.006zm-1.76-3.58c.01-.017.01-.017 0-.008-.01.006-.012.013-.012.017 0 .01.01 0 .018-.01zM5.075 5.41c.01-.006.02-.01.03-.01.015 0 .015 0 0-.015-.01-.01-.012-.02-.01-.03.01-.025 0-.02-.02.012-.034.05-.035.068 0 .044zm.097.006c0-.003-.01-.01-.017-.014-.01-.005-.02-.006-.02-.003s.01 0 .018.01c.024.01.023.01.023 0zm9.525-.306c.01-.003.015-.012.015-.035-.002-.025-.002-.03-.014-.025-.01.003-.033.006-.06.007-.048.002-.053.004-.084.033-.02.017-.026.03-.02.026.01-.003.02-.013.03-.022.014-.016.084-.033.094-.024 0 .002 0 .02-.01.04s-.013.037-.013.038c0 .002.01-.006.023-.017.013-.01.03-.02.036-.02zm-.325.01c.024-.01.026-.013.01-.014-.01 0-.028.004-.04.01-.013.007-.027.012-.033.012-.01 0-.01.003-.01.007 0 .007.02.002.07-.018zm.126.006c.02-.01.018-.01-.017-.014-.03-.003-.03-.002-.02.01.02.016.02.016.04.003zM13.738 5l.016-.02-.02.016c-.012.008-.02.017-.017.02 0 .004 0 .006.01.005 0 0 .01-.01.017-.02zm-.08.007c0-.01-.01-.01-.024 0-.01.006-.01.007.01.007.01 0 .018-.004.018-.008zm.327-.1c0-.002-.01.002-.018.01-.013.013-.013.013 0 .004.01 0 .016-.01.014-.01zm.18-.117c0-.004 0-.008-.01-.008 0 0-.01.003-.01.007h.01l.01-.01zm.01-.03v-.01s-.01.003-.01.008v.007s.01-.003.01-.007zm-.086-.083c-.03-.012-.03-.01-.02.015.01.02.01.02.02.007.01-.02.01-.02 0-.03zm.09-.01c0-.013-.01-.015-.02-.008-.01.01-.01.02.01.02.01 0 .01-.01.01-.02zm-.21-.014c.01-.013.01-.013 0-.003-.02.01-.02.016-.01.016 0 0 .01-.006.01-.014zm.08-.017c0-.022 0-.022-.02-.01-.02.01-.02.013-.01.022.02.013.01.014.02-.012zm.19-.112c.02-.017.03-.02.08-.02.02 0 .07.007.1.015.03 0 .05.01.05 0-.01-.01-.01-.02-.01-.03 0-.02 0-.02-.02-.01s-.05.01-.06 0c0-.01-.02-.01-.04-.01-.02-.01-.04-.01-.05-.02-.01-.01-.02 0-.03.01-.01.01-.02.01-.02.01-.01 0-.03.01-.05.03s-.05.04-.06.05c-.02.01-.02.01 0 .01h.02l.02-.02c.01-.02.02-.04.04-.05zm-.15.024c0-.01 0-.02.01-.026 0-.004.01-.02.01-.032.01-.022.01-.024-.01-.018-.03.015-.04.035-.04.064.01.03.01.04.01.01zm.11-.117c0-.01.01-.02.01-.02.01 0 .01-.02.02-.04l.01-.03-.02.03c-.01.02-.03.04-.05.06l-.03.04h.02c.02.02.02.01.02-.01zm.12-.06h-.01l-.02.02s.01.01.01 0c.01 0 .01-.01.01-.01zm.05-.22v-.01l-.01.01v.01h.01zM7.9 1.26c.053-.04.076-.097.075-.178 0-.047 0-.058-.036-.117C7.92.93 7.89.877 7.88.848L7.85.796s-.01.01-.017.025c-.01.02-.035.05-.063.08-.027.04-.054.07-.058.08-.02.06.01.15.052.19.022.02.025.03.027.07 0 .04.01.05.02.05.03.01.06 0 .09-.02zm-.918-.6C7 .63 6.992.63 6.968.655c-.02.023-.023.027-.01.027.01 0 .016-.01.023-.024zM8.397.427c-.01-.02-.03-.034-.047-.025-.01.005-.01.01.016.026.032.022.037.022.03-.002zm4.588 23.426c-.01-.02 0-.037.02-.04.033-.003.043.01.028.032-.014.02-.042.026-.048.008zm.13-.09l-.02-.01.025-.02c.024-.023.038-.027.038-.013 0 .005 0 .007.01.005.01-.005.032.027.032.04 0 .013-.062.01-.084 0zm.098-.03c-.015-.02-.015-.02 0-.03.032-.016.06 0 .052.034-.01.025-.033.023-.052-.003zm.442-.117c-.01-.014-.055-.037-.064-.032-.01.004-.01-.02-.01-.025.01-.01.07-.02.11-.02.05 0 .18.02.2.03.02.01-.02.02-.11.03l-.09.01c-.01 0-.02 0-.02-.01zM10.9 23.1c0-.03.01-.043.026-.043.023 0 .03.022.014.036-.033.026-.04.027-.04.007zm-1.17-1.865c-.022-.01-.022-.02 0-.046.013-.02.02-.02.052-.02.033 0 .037 0 .037.02s0 .02-.02.02c-.01 0-.03 0-.03.01-.01.01-.02.01-.04 0zm-.407-1.017l-.022-.022.03-.005c.03 0 .05.01.05.03 0 .03-.02.03-.05 0zm.144-.19c-.017-.006-.013-.033.01-.033.018 0 .024.01.018.026-.01.02-.01.02-.024.01zm-.014-.063c0-.004-.016-.01-.03-.012l-.024-.005.02-.01c.03-.02.07-.01.07.02 0 .014-.03.02-.04.007zm.148-.032c-.01-.02-.02-.028-.03-.022 0 .01-.01.01-.05 0-.03-.01-.06-.01-.07-.01-.01 0-.01 0-.01-.01.02-.02.04-.03.08-.03.03 0 .04 0 .04.01s0 .02-.01.02c-.01.01-.01.01 0 .01.08.01.11.03.11.06s-.02.03-.05-.01zm-.37-.15l-.02-.017.02-.012c.02-.015.04-.016.07-.004.03.01.03.016.01.033-.02.02-.04.02-.06.002zm7.33-7.146c-.01-.01 0-.048.03-.057.03-.008.06 0 .06.014s-.04.05-.06.05c-.01 0-.02-.002-.02-.006zm-.21-7.347c0-.024.03-.04.06-.03l.02.008-.01.02c-.02.03-.05.03-.05.003zM10.15.664c-.015-.006-.04-.017-.053-.025-.06-.04-.016-.09.042-.06l.03.01.03-.04c.02-.02.04-.03.04-.03.01 0 .01.03.01.07 0 .01-.01.03-.03.04-.04.02-.04.02-.08.01zM9.76.66c-.02-.004-.01-.028.024-.044.022-.01.023-.01.03.007.018.036-.01.05-.056.038zm1.42-.093c-.016-.01.01-.052.046-.07.04-.02.047-.02.047.006 0 .022-.02.046-.052.062-.02.01-.02.01-.04.002zM8.723.254C8.668.23 8.62.17 8.62.124c0-.026.086.03.128.086.022.03.024.035.015.045-.013.013-.01.013-.04 0zm.18.003C8.893.253 8.89.24 8.89.227c0-.014-.01-.025-.017-.03C8.863.19 8.857.18 8.857.16c0-.013 0-.025.01-.025 0 0 .022.014.042.032.03.034.04.06.02.086C8.92.27 8.92.27 8.9.26zM8.398.122C8.378.105 8.35.067 8.35.054c0-.01.052-.004.06.007.01.01.014.03.02.05.013.04 0 .05-.033.02z"/><path fill="none" stroke="red" stroke-width=".2" d="M15.267 3.085c0 .705-.543 1.275-1.213 1.275s-1.214-.57-1.214-1.274c0-.703.543-1.274 1.214-1.274s1.213.57 1.213 1.275z" stroke-linecap="round" stroke-linejoin="bevel"/><path fill="none" stroke="red" stroke-width=".2" d="M14.753 3.048c0 .407-.314.736-.703.736-.388 0-.702-.33-.702-.736 0-.405.314-.735.7-.735.39 0 .704.33.704.736z" stroke-linecap="round" stroke-linejoin="bevel"/></g></svg>