<?xml version="1.0" encoding="UTF-8" standalone="no"?>
<svg
   xmlns:dc="http://purl.org/dc/elements/1.1/"
   xmlns:cc="http://creativecommons.org/ns#"
   xmlns:rdf="http://www.w3.org/1999/02/22-rdf-syntax-ns#"
   xmlns:svg="http://www.w3.org/2000/svg"
   xmlns="http://www.w3.org/2000/svg"
   xmlns:sodipodi="http://sodipodi.sourceforge.net/DTD/sodipodi-0.dtd"
   xmlns:inkscape="http://www.inkscape.org/namespaces/inkscape"
   width="24.031527"
   height="24.001278"
   viewBox="0 0 24.031502 24.001294"
   id="svg5093"
   version="1.1"
   inkscape:version="0.91 r"
   sodipodi:docname="LC4E.svg">
  <metadata
     id="metadata5113">
    <rdf:RDF>
      <cc:Work
         rdf:about="">
        <dc:format>image/svg+xml</dc:format>
        <dc:type
           rdf:resource="http://purl.org/dc/dcmitype/StillImage" />
        <dc:title />
      </cc:Work>
    </rdf:RDF>
  </metadata>
  <defs
     id="defs5111" />
  <sodipodi:namedview
     pagecolor="#ffffff"
     bordercolor="#666666"
     borderopacity="1"
     objecttolerance="10"
     gridtolerance="10"
     guidetolerance="10"
     inkscape:pageopacity="0"
     inkscape:pageshadow="2"
     inkscape:window-width="1366"
     inkscape:window-height="747"
     id="namedview5109"
     showgrid="false"
     fit-margin-top="1.01"
     fit-margin-left="0"
     fit-margin-right="0"
     fit-margin-bottom="1.01"
     inkscape:zoom="29.27212"
     inkscape:cx="9.4707602"
     inkscape:cy="8.3698563"
     inkscape:window-x="0"
     inkscape:window-y="21"
     inkscape:window-maximized="1"
     inkscape:current-layer="g5099" />
  <desc
     id="desc5095">world98</desc>
  <g
     id="g5099"
     transform="matrix(0.21187892,0,0,0.21000564,-0.70214036,0.30756918)"
     style="fill:#ffffff;stroke:#000000;stroke-width:4">
    <path
       d="m 45.082937,84.253401 0.03087,-0.04896 0.05161,-0.112864 0.06753,-0.183286 -0.0031,-0.134331 -0.05064,-1.591699 -0.05064,-0.115762 -0.270107,-0.317617 0.09165,-1.270464 0.05788,-0.177258 0.130229,-0.668757 -0.0024,-0.143494 -0.01688,-0.06125 -0.147112,-0.326784 -0.08924,-0.07958 -0.641504,-0.308209 -0.253226,-0.106836 -0.15917,-0.01832 -0.07234,0.01447 -0.041,0.04339 -0.03617,0.125407 -0.04582,0.02892 -0.082,-0.0096 -0.969491,-0.499214 -0.21705,-0.125407 -0.04341,-0.04581 -0.0627,-0.09406 -0.09888,-0.219463 -0.0072,-0.06752 0.0048,-0.149526 0.02653,-0.135053 0.08682,-0.233932 0.197758,-0.523333 -0.868201,-1.029779 -0.559506,-0.159171 -0.137465,-0.05788 -0.110937,-0.05788 -0.135054,-0.115757 -0.424453,-0.402749 -0.07958,-0.08441 -1.268536,-1.321594 -1.092485,-0.477509 -0.0627,-0.166404 -0.236344,-0.573979 -0.02412,-0.05546 -0.03617,-0.05065 -0.229108,-0.245991 -0.04582,-0.0386 -0.489569,-0.366571 -0.66562,-0.588448 -0.06994,-0.09164 -0.02412,-0.05065 -0.02171,-0.127816 -0.03135,-0.188112 0.0024,-0.07476 -0.17364,-0.448568 -0.07717,-0.159171 -0.06029,-0.09646 -0.04582,-0.04824 -2.025801,-1.956341 -0.156758,-0.110938 -0.877847,-0.426867 -0.127818,-0.05547 -0.299046,-0.06993 -0.108526,-0.06029 -0.694078,-0.709032 -0.03617,-0.04581 -0.02895,-0.05184 0.01206,-0.06753 0.05547,-0.176053 -0.0072,-0.07476 -0.09164,-0.487154 -0.01447,-0.06753 -0.116725,-0.407572 -0.127818,-0.342457 -0.02653,-0.05065 -0.250813,-0.530564 -0.27493,-0.682501 0.01447,-0.140601 0.02171,-0.05788 0.06029,-0.103703 0.316893,-0.352103 0.04824,-0.03618 0.09526,0.0038 0.06512,0.02414 0.147112,0.115762 0.07236,0.082 0.10129,0.08561 0.06342,0.01447 0.07717,-0.01204 0.06753,-0.02172 0.11576,-0.05547 0.127818,-0.13023 0.06994,-0.09405 0.09164,-0.149526 0.05305,-0.110455 0.02171,-0.05788 0.260461,-0.974314 0.118172,-0.586998 -0.356927,-0.735559 -0.06029,-0.101289 -0.504039,-0.641503 -0.07356,-0.082 -0.183286,-0.155311 -0.176052,-0.08682 -0.139878,-0.04339 -0.08609,-0.0097 -0.171229,0.01204 -0.605328,0.118171 -0.393102,0.13988 -0.132642,0.03376 -0.08441,0.0023 -0.161582,-0.02414 -0.149523,-0.04339 -0.185699,-0.06994 -0.684913,-0.303869 -0.121306,-0.0627 -0.246955,-0.17123 -0.09405,-0.07525 -2.119856,-1.917274 -0.05185,-0.09743 -0.05547,-0.121789 -0.04341,-0.103702 -0.03377,-0.121548 -0.01447,-0.139875 0.0024,-0.06994 0.02412,-0.13023 0.0861,-0.248404 0.103702,-0.296634 0.02412,-0.135052 0.0048,-0.07236 -0.05209,-0.397442 -0.01929,-0.06198 -0.477511,-1.10213 -0.082,-0.149526 -0.07234,-0.09164 -0.04582,-0.04581 -0.04581,-0.03135 -0.07669,-0.01809 -0.173641,0.01204 -0.154346,-0.03376 -0.04582,-0.04004 -0.02894,-0.05137 -0.02412,-0.12782 -0.06174,-0.395512 -0.03859,-0.262874 0.09646,-1.78463 0.02894,-0.294224 0.02412,-0.132644 0.03955,-0.04581 0.279754,-0.143014 0.06994,-0.02172 0.07597,-0.01204 0.616663,-0.06029 0.07717,0.01447 0.04583,0.04004 0.137465,0.188592 0.07234,0.163994 0.05788,0.525743 -0.05064,0.453394 -0.01205,0.05788 -0.09767,0.306283 -0.02171,0.06029 0.103702,0.366571 0.02412,0.05546 3.079699,1.661637 0.06753,0.02414 0.171228,0.02892 0.277341,0.01204 0.144701,-0.03376 0.118171,-0.130229 -0.262872,-0.08924 -0.542624,-0.320752 -0.03617,-0.03618 -0.453394,-0.906791 -0.05064,-0.183285 -0.02171,-0.134327 -0.01206,-0.195345 -0.05161,-0.180876 -0.05064,-0.103703 -0.180876,-0.306283 -0.192933,-0.219459 -0.747616,-0.569157 -0.629445,-0.655972 -0.998431,-1.38912 -0.02894,-0.05547 -0.01447,-0.05788 0.462076,-0.306282 1.234773,-0.750028 0.127818,-0.05546 0.142289,-0.02653 0.576388,0.210779 0.392379,0.135054 1.229949,-0.340045 0.289401,0.0048 0.812731,0.125407 0.641503,0.12203 0.220668,0.06343 0.07717,0.01205 1.456647,0.207404 0.08561,0.0024 0.156758,-0.02412 0.243579,-0.212227 -0.0072,-0.03617 0.0024,-0.168817 0.07958,-0.214638 0.02895,-0.02653 0.03738,-0.01206 0.424455,-0.265283 0.07476,-0.01688 0.09888,0.0024 0.07717,0.01857 0.897864,0.601228 0.643914,0.436512 0.113349,0.06512 0.08682,0.0083 0.03087,-0.05209 -0.01447,-0.06029 -0.03617,-0.04581 -0.082,-0.07597 -0.04582,-0.04052 -0.390691,-0.30387 -0.880258,-0.592788 -0.05788,-0.03377 -0.229109,-0.04341 -0.183288,0.0048 -0.663207,0.132642 -0.05788,0.02653 -0.09165,0.07958 -0.02171,0.06512 -0.110937,0.129265 0.01688,0.03135 -0.0072,0.041 -0.02412,0.02653 -0.03135,0.02171 -0.178464,0.07958 -0.07476,0.03135 -0.161582,0.106113 -0.07621,0.01205 -0.08682,-0.0039 -0.908716,-0.400337 -0.952608,0.166405 -0.79585,-0.342457 -0.450017,-0.559506 -0.344868,0.431688 -0.65718,0.520921 -1.697814,-0.534667 -0.226697,-0.139877 -0.161581,-0.09164 -0.132642,-0.05547 -0.591582,-0.212225 -0.282165,0.08924 -0.928491,0.296635 -0.06753,0.0217 0.0072,1.965509 0.01688,0.06752 0.395514,0.294224 0.255636,0.178463 0.0072,0.06753 -0.01206,0.06753 -0.342456,0.463761 -0.10949,0.06391 -0.325575,0.03014 -0.161581,-0.02892 -0.06753,-0.03135 -1.589289,-0.85373 -1.270949,-0.900516 -0.07645,-0.082 -0.05546,-0.04028 -0.103703,-0.06029 -0.258049,-0.120583 -0.875434,-0.37622 -0.243579,-0.207404 -0.103703,0.21705 -0.212226,0.59327 -0.545036,-0.05957 0.446881,-0.581212 0.323163,-1.148917 -0.412395,-0.851319 0.212227,0.171228 0.195345,0.171228 0.299047,0.255637 0.663208,0.85373 0.40516,0.284577 -0.0068,-0.06753 -0.09164,-0.151936 -0.204991,-0.282165 -1.408415,-1.733988 -0.499214,-0.323164 -0.409984,0.05064 -0.06029,-0.06753 0.04269,-0.511275 -0.682503,-1.081873 -0.05547,-0.03617 -0.11576,-0.05547 -0.190521,-0.07717 -0.373809,-0.171228 -0.721089,-0.339322 -0.323163,-0.197757 -0.467864,-0.320751 -0.08682,-0.08682 -0.395514,-0.513684 -0.996018,-1.162424 -0.08441,-0.082 -0.930904,-0.641503 -0.922463,-0.711441 -0.873023,-0.742794 -0.04582,-0.04581 -0.122994,-0.267695 -0.01688,-0.0627 0.01929,-0.06753 0.03858,-0.03617 0.118172,-0.05788 0.246713,-0.253225 0.06994,-0.09405 0.05137,-0.113348 -0.0048,-0.139878 -0.171228,-0.906786 -0.07476,-0.166406 -0.224285,-0.482333 -0.05788,-0.103702 -0.429276,-0.841672 -0.4413354,-0.967078 -0.026527,-0.127819 0.00242,-0.221874 0.021705,-0.139876 0.1953444,-1.053898 0.06029,-0.187386 0.09164,-0.15676 0.272518,-0.311104 0.02171,-0.06029 -0.358373,-1.639934 -0.07621,-0.163994 L 9.7086477,27.927972 9.1901393,27.076653 8.5028145,26.184336 7.0789663,24.645693 7.0386909,24.604697 6.8519873,24.445509 6.753109,24.3693 6.6421722,24.301773 6.1892614,24.042278 6.131381,24.015747 6.0300913,24.010942 5.902273,23.957889 5.5178533,23.716724 4.4736015,23.014928 4.2107298,22.834054 l -0.079585,-0.082 -0.040275,-0.04583 -0.019294,-0.06029 0.013023,-0.142289 0.079585,-0.238755 0.033764,-0.13023 0.00965,-0.1447 -0.037381,-0.119377 -0.2881941,-0.762569 -0.05788,-0.103703 -0.1977567,-0.231519 -0.019294,-0.05185 0.00965,-0.0668 0.2435783,-0.85373 0.021705,-0.06029 0.2122267,-0.513685 0.6125634,-1.21548 0.02894,-0.05547 0.1037015,-0.14711 0.1085249,-0.1447 0.084409,-0.08924 0.1905217,-0.161582 0.3303983,0.0096 0.6197984,-0.730735 0.4847449,-1.977567 0.045824,-0.352104 -0.019292,-0.13023 -0.016882,-0.05788 L 6.5565674,14.02924 6.5064044,13.98824 6.4002947,12.888548 6.7234582,11.932081 6.7620448,11.813185 7.0707289,10.838878 7.2419573,10.284677 7.3070721,9.9542786 7.2612485,9.6190631 7.2033673,9.4405996 7.0466088,8.9582661 6.4412806,7.113341 5.7515438,6.3319609 l -0.37622,-0.7249471 0.17364,-0.253225 0.053057,-0.108525 0.053057,-0.1784634 0.1639934,-0.8532477 -0.098878,-0.5201966 -0.019293,-0.05788 2.5877189,-0.00483 13.1942289,0.00651 6.595427,-0.00411 9.345209,0.00651 10.776052,-0.00241 3.152046,-0.00483 0.366575,0.00724 -0.0038,32.8999609 1.994449,1.367416 3.344983,2.307965 5.526819,3.873136 1.462674,1.039429 5.551658,3.967189 1.808749,1.307125 3.506565,2.553955 1.613404,1.181718 1.876277,1.381887 1.690579,1.251651 1.685755,1.254071 1.767753,1.324002 1.762926,1.326417 1.582053,1.193774 1.664051,1.264919 1.748462,1.33124 3.219572,2.464242 1.902805,1.471841 1.811163,1.408413 1.203423,0.942965 2.141563,1.680207 3.3264,2.632575 1.44507,1.151573 1.43856,1.152777 3.70529,2.988054 0.37864,0.325574 -0.0149,1.116604 0.012,0.0627 0.0613,0.09888 0.66272,0.653562 0.69336,0.641504 0.40757,0.655971 0.40999,0.73556 0.4365,0.863376 0.0217,0.05547 0.082,0.212226 0.009,0.0627 -0.009,0.06753 0.3714,0.586033 0.61981,0.479923 0.14951,0.103703 0.38587,0.231523 0.33281,0.190521 0.24358,0.113348 0.07,0.02172 0.0507,0.03376 0.0483,0.03861 0.123,0.125407 0.18811,0.214635 0.15675,0.217051 0.0579,0.17123 0.002,0.0627 -0.0386,0.05065 -1.07801,0.848907 -0.1447,0.10129 -0.93573,0.494391 -0.38345,0.200168 -0.1857,0.06512 -0.11576,0.04339 -0.14952,0.10129 -0.17122,0.163989 -0.0265,0.05788 -0.10372,0.576389 -0.0217,0.06752 -0.0337,0.04824 -0.28699,0.224282 -0.14469,0.108526 -0.14953,0.101289 -0.30387,0.197754 -0.0603,0.03135 -0.0916,0.06752 -0.0603,0.110938 -0.009,0.06752 0.14712,0.827202 0.17364,0.945373 0.11334,0.672855 -0.46786,1.762929 -0.0241,0.05305 -1.10213,1.422887 -0.0868,0.082 -0.0579,0.02414 -0.13746,0.0193 -0.78139,0.185694 -0.005,0.882672 0.24358,0.421561 0.22187,0.376217 0.17365,0.337638 -0.009,0.14229 -0.0337,0.38828 -0.0386,0.13505 -0.0241,0.0579 -0.16881,0.2472 -0.0289,0.0579 -0.0434,0.13506 -0.009,0.0723 0.0169,0.123 0.0193,0.0555 0.18811,0.28095 0.15918,0.17364 0.0395,0.0386 0.59327,0.13023 0.0892,0.007 0.21464,-0.0241 0.20499,-0.0434 0.25806,0.0193 0.0796,0.0145 0.13989,0.041 0.0916,0.0675 0.0395,0.0434 0.44857,0.5161 0.0796,1.08766 0.002,0.0603 -0.012,0.0772 -0.0531,0.1213 -0.73315,1.22513 -0.0337,0.0482 -0.0531,0.0387 -0.0483,0.0265 -0.13747,0.0241 -0.42204,-0.0155 -0.21946,-0.0516 -0.27735,-0.0844 -0.15916,-0.0361 -0.0892,-0.009 -0.32679,0.003 -0.12299,0.041 -0.19776,0.22911 -0.11817,0.007 -1.55624,0.10853 -1.70023,0.11817 -1.9414,0.13747 -2.21752,0.16157 -2.2156,0.16641 -3.323274,0.25081 -3.682618,0.28699 -2.845764,0.22187 -0.150247,0.012 -2.177738,0.17508 -2.211498,0.18088 -1.992034,0.17123 -0.299047,0.0145 -0.120583,-0.33523 -0.236347,-0.43337 -0.294223,-0.57639 -0.221873,-0.18811 -0.120584,-0.094 0.01447,-0.15434 0.127816,-0.0133 0.279755,0.25467 0.238756,0.59568 0.115756,0.0555 0.2267,0.0313 0.07476,-0.0169 0.02172,-0.12058 -0.0096,-0.0676 -0.03376,-0.11937 -0.17364,-0.30147 -0.103703,-0.13022 -0.03954,-0.0361 -0.494391,-0.40999 -0.106837,-0.0603 -0.05788,-0.0217 -0.07234,-0.005 -0.10129,0.0579 -0.04824,0.041 -0.06416,0.094 -0.05305,0.10372 -0.04102,0.11963 -0.0072,0.0651 -0.0023,0.0772 -0.0193,0.19053 -0.135053,0.0475 -0.154348,-0.32317 0.02892,-0.23152 0.09164,-0.67768 -0.247196,-0.65115 0.203302,-0.20499 0.106117,-0.13144 0.02414,-0.0521 0.01591,-0.0651 -0.01688,-0.20982 -0.195345,-0.87061 -0.04581,-0.17846 -0.525742,-1.31918 -0.107562,-0.20982 -0.119617,-0.18811 -0.759674,-1.126253 -0.783793,-0.916432 -0.156757,-0.161585 -1.504879,-1.105748 -0.446159,-0.30387 -1.121426,-0.75726 -0.921255,-0.593271 -0.122515,-0.05306 -0.06993,-0.0193 -0.180876,-0.01832 -0.204991,-0.05788 -0.277342,-0.151935 -0.208608,-0.135057 -0.204995,-0.142285 -0.188834,-0.147112 -0.09164,-0.07958 -0.245991,-0.250813 -0.125402,-0.110934 -0.137467,-0.113348 -0.415529,-0.332811 -0.189559,-0.147112 -0.17364,-0.08682 -0.20499,-0.06342 -0.925119,-0.197759 -0.07404,0.01204 -0.320751,0.115761 -0.122998,0.04581 -0.04824,0.03376 -0.0072,0.07549 0.0193,0.09646 0.0048,0.02414 0.01204,0.195345 -0.02414,0.05788 -0.04098,0.04339 -0.04823,0.03376 -0.137466,0.03135 -0.163995,-0.02414 -0.14108,-0.03981 -0.800675,-0.2484 -0.103702,-0.06752 -0.0072,-0.0055 -0.07717,-0.07476 -0.06753,-0.08537 -0.0299,-0.04896 -0.04581,-0.10611 0.01521,-0.06753 0.03135,-0.05137 0.200168,-0.204994 0.133848,-0.195345 0.02172,-0.14108 -0.02892,-0.122998 -0.348968,-0.735555 -0.05426,-0.10129 -0.09719,-0.146144 -0.241164,-0.313514 -0.183285,-0.219465 -0.417222,-0.475099 -0.180872,-0.153381 -0.103702,-0.06512 -0.134091,-0.05305 -0.166402,-0.0023 -1.024962,0.06994 -0.470272,0.03618 -0.600508,0.06993 -0.221872,0.03377 -0.07404,0.0193 -0.05064,0.02651 -0.04824,0.04293 -0.528151,-0.02172 -1.097313,-0.273729 -0.277821,-0.07476 -0.217049,-0.05788 -1.627878,-0.508864 -0.470272,-0.229105 -0.05185,-0.03135 -0.412395,-0.253223 -0.05065,-0.03377 -0.04195,-0.04581 -0.352102,-0.588447 -0.02414,-0.04581 -0.610153,-0.637402 -1.138303,-0.812734 -0.337634,-0.17364 -1.044252,-0.448568 -0.39069,-0.06994 -0.2484,-0.03376 -0.274933,-0.01204 -1.912451,-0.01758 -2.177734,-0.441336 -0.156761,-0.02892 -1.237184,-0.106111 -0.163994,0.0023 -1.172069,0.05547 -1.210657,0.0861 -0.759675,0.106111 -0.250813,0.02651 -0.04582,-0.04581 -0.311105,-0.485471 -0.05546,-0.168818 -0.05788,-0.101289 -0.05209,-0.04102 -0.04582,-0.03135 -0.516096,-0.265283 -0.118172,-0.06029 -0.06029,-0.01688 -0.08441,-0.0096 -0.08682,0.0023 -0.13023,0.05065 -0.1447,0.02414 -0.07234,-0.01855 -0.122995,-0.125408 -0.07236,-0.159171 -0.01447,-0.06125 0.04824,-0.552275 z"
       id="path5101"
       inkscape:connector-curvature="0"
       style="stroke-width:0.47406832;stroke-miterlimit:4;stroke-dasharray:none" />
    <path
       d="m 53.795224,84.952695 c 0,3.856122 -2.937472,6.982061 -6.560833,6.982061 -3.623358,0 -6.556103,-3.125939 -6.556103,-6.982061 0,-3.851351 2.932745,-6.97729 6.556103,-6.97729 3.623361,0 6.560833,3.125939 6.560833,6.982061 z"
       id="path5410"
       inkscape:connector-curvature="0"
       style="fill:none;stroke:#ff0000;stroke-width:0.94813663;stroke-linecap:round;stroke-linejoin:bevel;stroke-miterlimit:4;stroke-dasharray:none" />
    <path
       d="m 51.01858,84.752252 c 0,2.223954 -1.702885,4.02793 -3.803109,4.02793 -2.100225,0 -3.798378,-1.803976 -3.798378,-4.02793 0,-2.223952 1.702885,-4.027929 3.798378,-4.027929 2.100224,0 3.803109,1.803977 3.803109,4.027929 z"
       id="path5412"
       inkscape:connector-curvature="0"
       style="fill:none;stroke:#ff0000;stroke-width:0.94813663;stroke-linecap:round;stroke-linejoin:bevel;stroke-miterlimit:4;stroke-dasharray:none" />
  </g>
</svg>
