<?xml version="1.0" encoding="UTF-8" standalone="no"?>
<svg
   xmlns:dc="http://purl.org/dc/elements/1.1/"
   xmlns:cc="http://creativecommons.org/ns#"
   xmlns:rdf="http://www.w3.org/1999/02/22-rdf-syntax-ns#"
   xmlns:svg="http://www.w3.org/2000/svg"
   xmlns="http://www.w3.org/2000/svg"
   xmlns:sodipodi="http://sodipodi.sourceforge.net/DTD/sodipodi-0.dtd"
   xmlns:inkscape="http://www.inkscape.org/namespaces/inkscape"
   width="23.956686"
   height="24.014509"
   viewBox="0 0 23.956703 24.014529"
   id="svg7635"
   version="1.1"
   inkscape:version="0.91 r"
   sodipodi:docname="LC40.svg">
  <metadata
     id="metadata7653">
    <rdf:RDF>
      <cc:Work
         rdf:about="">
        <dc:format>image/svg+xml</dc:format>
        <dc:type
           rdf:resource="http://purl.org/dc/dcmitype/StillImage" />
        <dc:title></dc:title>
      </cc:Work>
    </rdf:RDF>
  </metadata>
  <defs
     id="defs7651" />
  <sodipodi:namedview
     pagecolor="#ffffff"
     bordercolor="#666666"
     borderopacity="1"
     objecttolerance="10"
     gridtolerance="10"
     guidetolerance="10"
     inkscape:pageopacity="0"
     inkscape:pageshadow="2"
     inkscape:window-width="1366"
     inkscape:window-height="747"
     id="namedview7649"
     showgrid="false"
     fit-margin-top="1.79"
     fit-margin-left="0"
     fit-margin-right="0"
     fit-margin-bottom="1.79"
     inkscape:zoom="24.155762"
     inkscape:cx="14.948339"
     inkscape:cy="9.4739273"
     inkscape:window-x="0"
     inkscape:window-y="21"
     inkscape:window-maximized="1"
     inkscape:current-layer="svg7635" />
  <desc
     id="desc7637">world98</desc>
  <g
     id="g7639"
     transform="matrix(0.06853972,0,0,0.06853972,-0.00267699,1.7893301)"
     style="fill:#ffffff;stroke:#000000;stroke-width:1.45900913;stroke-miterlimit:4;stroke-dasharray:none">
    <path
       d="m 228.666,163.195 2.42,-1.38 0.202,-0.127 0.582,-2.115 -0.722,-0.507 -1.114,0.1 3.128,-3.962 0.583,-0.735 2.964,-3.32 0.35,-0.32 0.9,-0.4 1.54,-1.42 0.3,-0.42 0.55,-1.29 0.06,-0.31 -0.02,-0.23 -0.88,-2.52 -0.69,-1.69 -0.15,-0.18 -0.8,-0.43 -11.14,-4.62 -0.25,0.21 -1.19,4.37 0.08,0.28 0.59,0.38 3.04,1.53 1.55,0.48 0.33,1.71 0.09,0.46 -0.01,0.54 -1.28,4.14 -0.39,1.01 -0.47,0.38 -3.56,1.54 -0.13,0.05 -0.36,-0.15 -0.65,-0.88 -4.13,-6.15 -0.4,-0.84 -0.43,-1.03 -0.08,-0.31 -0.05,-0.81 0.11,-0.56 0.17,-0.55 0.61,-1.22 0.4,-0.57 0.17,-0.17 -0.55,1.42 -0.2,0.82 0.05,0.47 0.19,0.09 0.19,-0.19 0.96,-2.16 0.54,-1.51 1.07,-4.59 1.1,-7.31 1.53,-3.42 2.33,-5.85 0.09,-0.28 0.97,-4.53 0.59,-7.16 -0.32,-2.49 -0.11,-0.14 -0.73,-0.63 -0.76,-0.82 -0.25,-0.33 -0.2,-0.42 0.07,-0.21 0.22,-0.19 1.52,-0.67 0.3,-0.4 0.29,-0.57 0.05,-0.24 0.03,-0.57 -0.06,-0.52 -0.17,-0.407 -0.14,-0.19 -0.23,-0.16 -0.5,-0.205 -4.596,-5.03 -0.85,-2.874 -1.52,-3.85 -1.33,-0.404 -4.61,-0.86 -1.207,-0.164 -0.29,0.01 -0.734,0.24 -0.16,0.1 -3.93,-2.09 -1.303,-2.28 -5.573,-6.76 -5.91,-3.76 -1.01,-0.41 -0.93,-0.3 -0.15,-0.18 -0.08,-0.15 -0.35,-2.18 -0.93,-4.22 -1.77,-0.55 -3.07,-1.84 -0.22,-0.16 -1.697,-1.53 -0.1,-0.2 -0.04,-0.2 0.036,-0.53 -0.05,-0.71 -0.11,-0.454 -0.15,-0.34 -1.85,-2.63 -0.15,-0.18 -0.31,-0.3 -1.52,-1.19 -3.12,-2.12 -1.69,-0.95 -0.73,-0.14 -0.128,0.14 -1.4,-0.51 -2.63,-1.3 -0.65,-0.42 -1.876,-1.29 -3.08,-2.04 -0.55,-0.213 -0.67,-0.06 -7.84,-0.2 -0.18,0.01 -2.34,0.36 -0.49,0.127 -2.71,1.1 -5.61,2.8 -0.35,0.5 -0.07,0.24 -0.03,0.29 0.94,1.24 0.38,0.15 0.6,0.05 0.697,-0.02 0.85,-0.11 1.95,0.53 0.28,0.1 0.15,0.18 0.06,0.24 -0.01,0.25 -0.21,0.86 -0.167,0.48 -0.14,0.17 -0.38,0.26 -0.96,0.22 -0.27,-0.1 0.08,-0.217 0.43,-0.17 0.18,-0.163 -0.01,-0.09 -0.09,-0.11 -0.18,-0.15 -0.24,-0.13 -0.63,-0.15 -0.927,-0.14 -1.65,-0.18 -0.32,-0.01 -2.87,0.29 -1.593,0.7 -1.09,0.57 -3.52,1.873 -3.23,2.05 -1.12,0.8 -0.436,0.19 -3.305,1.292 -1.62,0.62 -0.9,-0.44 1.05,-1.52 0.11,-0.24 0.09,-0.28 0.01,-0.25 -0.11,-0.18 -0.26,-0.1 -0.31,0.025 -0.24,0.1 -1.7,0.96 -2.86,2.1 -3.75,0.62 -6.79,0.94 -3.94,0.48 -2.114,0.57 -0.57,-0.01 -0.266,-0.1 -0.43,-0.3 -0.44,-0.507 -0.2,-0.32 -0.28,-0.67 -0.5,-1.52 -0.49,-1.54 -0.08,-0.776 -0.01,-0.53 0.07,-1.52 0.2,-0.696 0.11,-0.24 0.18,-0.16 0.21,-0.07 0.23,0.14 0.04,0.19 -0.02,0.27 -0.26,0.99 -0.15,0.86 -0.01,0.25 0.16,1 0.41,2.026 0.19,0.56 0.52,0.96 0.6,0.93 0.15,0.18 0.22,0.13 0.24,0.06 1.43,-0.44 0.39,-0.23 0.1,-0.11 0.05,-1.9 -0.1,-2.67 -0.05,-0.5 -0.18,-0.44 -2.27,-3.22 -0.34,-0.34 -1.495,-1.24 -0.586,-0.43 -6.12,-4.36 -2.88,-1.5 -0.38,-0.304 -0.53,-1.055 -0.12,-0.1 -0.08,-0.104 -0.02,-0.15 0.06,-0.11 0.22,-0.14 0.22,0.01 1.03,0.31 0.16,0.05 1.7,0.84 0.35,0.26 0.34,0.34 0.01,0.16 0.95,0.21 0.19,0.15 1.73,1.37 0.43,0.28 0.5,0.23 0.42,0.11 0.24,0.01 0.47,-0.08 0.18,-0.06 0.24,-0.1 1.33,-0.67 0.2,-0.13 0.09,-0.28 -0.03,-0.25 -0.52,-0.17 -0.87,-0.21 -0.9,0.17 -9.28,-4.15 -0.14,-0.07 -1.86,-1.83 0.13,-0.33 1.1,-2.35 -3.8,-2.33 -3.924,0.28 -0.266,0.06 -0.11,0.24 -0.24,0.97 -0.06,0.6 0.14,0.45 0.11,0.22 0.26,0.31 0.14,0.07 0.31,0.02 0.22,-0.13 0.35,-0.34 0.34,-0.26 0.48,-0.04 0.98,0.065 0.59,0.05 0.13,0.07 0.93,1.84 0.73,1.5 0.05,0.12 -0.03,0.163 -0.13,1.55 -2.48,-1.68 -2.294,-1.49 -1.91,-0.97 -1.38,-0.7 -1.25,-0.57 -4.6,-1.79 -2.5,-0.9 -3.6,-1.19 -3.73,-1.2 -0.832,-0.22 -2.18,-0.54 -0.99,-0.18 -0.29,-0.74 8.12,0.07 2.49,0.73 0.15,-0.05 0.13,-0.14 -0.01,-0.32 -0.82,-1.62 -0.23,-0.4 -3.29,-1.94 -2.7,-1 -0.3,-0.08 -7.98,0.03 -2.3,1.07 -0.39,0.23 -4.28,2.35 -0.63,0.08 -0.61,-0.04 -2.1,-0.1 -2.01,-0.09 -3.26,0.12 -6.673,0.79 -2.02,0.264 -4.23,0.61 -0.782,0.13 -0.8,0.19 -1.27,0.41 -2.93,0.44 0.48,-0.42 0.03,-0.19 0.45,-0.4 2.16,-0.76 0.53,-0.123 0.73,-0.16 0.84,-0.13 2.75,-0.18 0.53,-0.124 0.47,-0.2 0.65,-0.35 L 33,27.1 32.21,26.15 29.525,23.91 25.448,23.6 l -2.76,0.316 0.157,0.18 0.25,0.66 0.04,0.253 -0.01,0.57 -0.126,0.52 -0.14,0.24 -0.95,1.6 -3.909,3.671 -1.64,0.258 -0.21,1.1 -1.252,0.305 -5.422,1.1 -2.568,0.51 -0.737,0.1 -0.14,-0.075 0.09,-0.125 0.9,-0.875 0.17,-0.1 0.52,-0.076 0.96,-0.014 0.52,-0.04 0.34,-0.112 1.369,-1.166 0.354,-0.402 3.32,-3.94 0.05,-0.494 -0.266,-0.44 -0.315,-0.29 -0.343,-0.167 -2.727,-0.97 -0.92,-1.666 -0.112,-0.48 -0.01,-0.38 0.13,-0.58 0.17,-0.39 0.56,-0.76 0.51,-0.88 0.3,-0.7 0.39,-1.15 0.06,-0.3 0.01,-0.57 -0.12,-0.41 -0.38,-0.52 -0.57,-0.42 -1.17,-0.63 -0.48,-0.24 -0.96,-0.43 -0.67,-0.36 -0.44,-0.27 -1.03,-0.71 -0.36,-0.41 -4.13,-4.85 -0.19,-0.43 0.02,-0.29 0.99,-5.77 1.78,-0.03 102.57,0.03 13.69,-0.03 0.58,-0.08 -0.22,0.29 0.04,0.22 0.11,0.27 1.84,2.81 0.11,0.14 1.83,5.13 0.07,0.61 0.26,1.42 0.14,0.43 0.14,0.22 0.27,0.23 1.74,1.16 17.62,0.89 1.83,0.07 9.84,0.52 22.83,1.25 15.67,0.9 15.68,0.95 5.46,0.34 15.67,1.01 5.09,0.34 5.46,0.37 4.73,0.36 1.37,3.63 0.1,0.37 -0.02,0.28 -0.06,0.31 -0.24,0.61 -0.13,0.55 -0.04,0.51 0.13,0.41 0.67,1.67 0.26,0.42 0.18,0.15 0.47,0.27 0.46,0.05 3.75,0.05 1.76,-0.45 0.06,-0.07 0.05,-0.25 1.29,-6.96 0.28,-1.6 -0.04,-0.96 -0.08,-0.24 -0.19,-0.32 -0.91,-1.06 -0.2,-0.42 -0.16,-0.44 -0.07,-0.33 -0.05,-0.61 0.31,-3.36 0.17,-0.41 1.05,-1.84 0.13,-0.14 2.17,-1.363 0.29,-0.11 0.29,-0.02 1.72,-0.09 0.49,0.14 4.23,1.6 0.28,0.11 0.416,0.317 0.95,0.52 2.26,0.95 7.383,1.75 0.33,0.02 2.21,-0.38 1.58,0.98 1.71,2.39 -0.403,3.03 -0.4,2.95 1.8,1.77 0.1,0.22 0.924,3.53 0.04,0.21 -0.11,1.13 0.03,3.04 0.12,0.744 0.15,0.63 1.14,3.23 1.43,5.28 1.17,4.58 0.777,3.19 1.46,4.89 0.33,0.91 2.86,7.16 1.19,2.8 6.62,14.37 2.18,4.1 6.22,9.72 5.8,8.77 0.6,0.9 0.32,0.45 0.275,0.37 1.61,1.67 0.24,0.33 2.22,3.42 0.81,1.3 0.32,0.67 0.46,1.02 0.876,2.443 0.164,0.67 -0.03,0.25 -0.12,0.207 -0.18,0.15 -0.17,0.1 -0.71,0.28 -0.34,0.23 -1.52,1.26 -0.04,2.88 0.1,5.15 0.22,1.43 0.18,0.96 0.27,1.43 0.36,1.42 0.53,1.44 1,1.886 0.23,0.393 1.72,2.76 0.99,1.51 0.49,0.8 0.53,1 0.29,0.69 0.06,0.24 -0.023,0.38 -0.07,0.14 -2.788,-4.12 -2.28,-3.8 -0.33,-0.595 -1.21,-2.7 -0.15,-0.413 -0.28,-0.82 -0.29,-1.08 -0.56,-2.29 -0.08,-0.59 -0.02,-4.73 0.17,-3.27 0.1,-0.28 0.38,-0.59 0.203,-0.54 0.52,-1.736 0.29,-1.17 0.09,-0.66 0.02,-1.18 -0.04,-0.46 -0.11,-0.61 -0.73,-2.252 -0.08,-0.1 -2.17,-0.2 -0.33,0.024 -0.14,0.14 -0.12,0.71 -0.162,0.2 -0.23,0.09 -0.23,0.01 -3.02,-0.54 -0.27,-0.05 -0.47,-0.22 -0.21,-0.16 -0.542,-0.61 -0.177,-0.352 -0.21,-0.62 0.26,-1.62 0.1,-0.27 0.2,-0.11 0.08,-0.02 0.206,0.04 0.166,-0.04 0.65,-0.58 0.18,-0.163 0.13,-0.23 0.01,-0.22 -0.14,-0.47 -0.14,-0.19 -0.33,-0.28 -2.6,-1.63 -1.42,-0.86 0.05,0.88 0.91,5.46 2.93,10.31 0.15,0.44 1.67,3.57 6.4,13.82 4.09,8.22 0.79,1.39 0.42,0.57 0.18,0.15 0.67,0.94 0.44,0.82 1.61,3.36 0.53,1.23 0.62,1.66 0.58,1.64 0.12,0.38 0.12,0.47 -0.04,0.25 0.06,0.784 0.14,0.71 0.14,0.44 1.48,4.23 0.24,0.61 4.3,10.47 2.85,2.44 0.14,0.16 2.01,3.86 0.93,2.694 0.2,0.62 1.3,5.216 0.57,2.37 0.163,0.71 0.1,0.47 0.21,6.64 -0.01,0.8 -0.12,2.7 -0.1,0.594 -0.1,0.1 -0.14,0.1 -0.32,1.45 -0.2,1.03 -0.76,4.96 -1.24,8.36 -1.88,13.45 -2.44,7.32 -0.14,0.17 -2.88,2.61 -2.47,3.35 -0.13,0.37 -0.08,0.49 0.05,2.26 0.06,0.21 -0.99,1.14 -0.29,0.48 -0.08,0.15 -0.04,0.19 -1.53,7.99 -1.84,2.78 -0.43,0.8 -0.036,0.99 0.23,0.51 0.32,0.29 0.787,0.696 -0.05,0.09 -0.07,-0.014 -0.46,-0.09 -0.29,-0.09 -0.23,-0.14 -0.19,-0.37 -0.92,-1.8 -0.19,-0.108 -0.21,-0.08 -2.04,0.87 -0.05,0.175 0.15,0.12 0.13,0.03 1.046,0.07 -0.71,0.22 -0.72,0.54 -0.72,-0.84 -0.21,-0.4 0.47,-0.17 0.38,-0.138 0.02,-0.38 -0.2,-0.078 -1.42,-0.14 -1.08,0.114 -0.47,0.08 -0.24,0.11 -3.33,2.37 -1.37,1.06 -6.64,0.06 -9.98,1.57 -1.89,0.56 -0.7,-0.5 -1.94,-1.49 -0.074,-0.113 -1.315,-3.05 -0.05,-0.24 -0.03,-0.72 1,-2.73 0.78,-0.23 0.14,-0.28 0.09,-0.11 0.12,-0.08 0.13,0.047 0.9,1.14 0.75,0.74 0.05,0.21 4.01,3.05 0.91,0.45 0.2,0.04 0.25,-0.04 1.86,-0.72 0.32,-0.26 0.31,-0.39 0.18,-0.52 -0.03,-0.39 -0.34,-0.48 -1.45,-1.69 -1.2,-0.97 -0.19,-0.1 -0.32,-0.02 -0.62,0.01 -1.46,-0.2 -0.46,-0.19 -2.06,-1.15 -0.63,-0.33 -0.13,-0.08 -0.64,-0.42 -0.11,-0.09 -0.09,-0.24 -0.74,-0.88 -0.11,-0.63 -1.19,-2.55 -6.9,-14.09 -0.37,-0.74 -0.22,-0.4 -0.14,-0.18 -0.173,-0.16 -1.29,-0.927 -0.44,-0.26 -0.94,-0.47 -7.13,-3.23 -2.723,-0.49 -2.57,0.73 -2.82,-2.05 -2,-5.82 -0.84,-0.51 -0.14,-0.17 -0.42,-1.68 -0.26,-1.22 -1.1,-8.41 -1.59,-4.94 0.05,0.23 -0.01,0.23 -0.19,0.23 -0.15,0.09 -0.37,0.08 -3.543,-1.88 -0.067,-0.09 0.202,-0.99 0.04,-0.08 0.09,-0.05 0.05,-0.01 0.11,0.05 0.07,0.09 0.06,0.22 0.06,0.07 0.13,0.01 0.15,-0.03 1.37,-0.63 -0.18,-0.97 6.18,-7.18 0.38,-0.67 0.05,-0.214 -0.32,-0.023 -0.23,0.09 -4.53,2.16 -0.2,0.13 -0.86,1.13 -0.12,0.17 -0.077,0.14 -0.13,0.305 -0.03,0.28 0.07,0.5 -0.12,0.62 -1.17,2.168 -0.19,0.124 -2.97,0.506 -0.24,0.017 -0.32,-0.1 -1.64,-0.67 -0.1,-0.22 -0.105,-0.53 -0.52,-5.58 0.01,-1.09 1.38,-6.385 1.47,-5.33 -3.79,0.55 -4.18,0.66 1.26,2.91 0.61,2.52 -0.07,1.43 -0.09,0.18 -0.19,0.16 -0.25,0.05 -5.68,-2.256 -0.25,-0.115 -0.41,-0.29 -0.604,-0.66 -2.736,-3.638 -0.254,-0.36 -0.62,-0.94 -0.1,-0.22 -1.23,-2.61 -1.45,-3.14 -3.89,-8.64 0.15,-0.23 0.05,-0.28 -0.01,-0.27 -0.35,-1.02 -1.01,-2.86 -0.39,-0.8 -0.52,-0.44 -3.1,-2.37 z"
       id="path7641"
       inkscape:connector-curvature="0"
       style="stroke-width:1.45900913;stroke-miterlimit:4;stroke-dasharray:none" />
    <path
       d="m 47.377,29.41 -5.865,0.075 -7.283,1.177 -3.75,0.62 -3.39,0.583 -1.03,0.266 -3.93,0.57 -1.57,0.23 -1.71,0.22 -0.27,0.03 -0.18,0.02 -0.6,-0.16 -0.62,-0.25 -0.35,-0.2 -0.05,-0.1 0.06,-0.18 0.17,-0.07 6.48,-0.35 5.62,-1.12 5.97,-0.81 5.18,-0.67 0.63,-0.07 1.3,-0.1 1.5,-0.06 3.2,-0.11 1.93,0.01 0.29,0.04 2.42,0.42 0.18,0.07 0.05,0.06 -0.03,0.13 -0.14,0.2 -0.36,-0.04 -1.06,-0.23 z m 93.423,26.657 -0.062,0.342 -0.14,0.2 -0.14,0.14 -0.53,0.33 -0.684,0.29 -0.734,0.21 -0.71,0.15 -0.975,0.14 -0.28,-0.04 -0.037,-0.04 0.088,-0.27 0.228,-0.1 0.532,-0.05 0.836,-0.21 0.43,-0.19 0.963,-0.43 1.2,-0.72 z m -22.557,9.08 0.71,0.28 0.48,0.138 1.9,-0.24 1.14,-0.228 7.08,-3.33 5.308,-3.117 0.33,-0.05 0.18,0.05 0.01,0.102 -0.05,0.09 -3.56,2.71 -9.19,3.912 -1.49,0.456 -0.26,0.05 -1.56,0.204 -0.39,-0.025 -1.55,-1.08 -0.25,-0.22 -0.05,-0.08 0.05,-0.15 0.19,0.02 0.04,0.05 z m -0.836,-2.407 -0.81,1.445 -0.14,0.14 -0.19,0.075 -0.29,0.025 -0.495,-0.1 -0.722,-0.23 -0.165,-0.113 -1.418,-1.152 -0.873,-0.85 2.912,-0.176 0.735,-0.025 0.52,0.1 0.86,0.21 0.28,0.16 -0.14,0.33 z m 201.416,62.968 -0.063,0.28 0.025,0.202 0.102,0.468 0.164,0.38 0.35,0.735 -0.3,-0.09 -2.76,-6.154 -0.76,-4.53 0.17,-2.13 0.15,-0.48 0.15,-0.33 1.57,-1.47 2.35,-1.03 0.1,-0.02 0.53,0.12 0.24,0.2 0.15,0.16 0.37,0.54 0.16,0.57 0.02,0.2 -0.02,0.44 -0.23,0.66 -0.52,0.97 -0.3,0.54 -0.29,0.62 -0.28,0.62 -0.36,1.19 -0.67,3.24 -0.01,0.23 0.4,2.38 z m 12.033,23.277 0.19,0.43 0.405,0.812 0.93,1.595 1.97,5.547 1.65,5.66 0.51,1.21 1.99,3.57 3.21,7.5 0.1,0.46 0.02,0.26 -0.95,-0.99 -0.12,-0.19 -0.81,-1.6 -3.76,-7.72 -4.61,-13.03 -2.67,-6.84 -0.01,-0.1 0.27,-0.08 0.21,0.01 0.19,0.15 0.1,0.27 z m -102.558,16.337 0.266,0.33 2.648,3.52 0.215,0.38 -0.09,0.215 -0.38,-0.1 -0.353,-0.305 -3.37,-3.862 -0.14,-0.19 -0.036,-0.14 0.037,-0.177 0.165,-0.1 0.342,0.05 0.355,0.165 z m 17.518,28.33 0.29,0.66 0.38,1.064 0.09,0.76 -0.242,0.785 -0.114,0.24 -0.114,0.18 -0.164,0.1 -0.228,-0.07 -0.038,-0.29 -0.443,-3.71 0.063,-0.24 0.19,0.03 0.202,0.27 0.076,0.18 z m 7.84,13.348 -0.316,-1.012 -0.216,-0.684 -1.24,-3.66 -0.305,-0.57 -0.64,-0.684 -0.12,-0.152 -0.53,-0.823 -0.05,-0.114 -0.32,-1.17 0.23,-0.05 0.92,0.15 0.96,0.27 0.61,1.3 0.07,0.18 0.09,0.22 1.28,4.52 0.59,2.69 -0.02,0.22 -0.18,0.17 -0.12,0.08 -0.32,-0.03 -0.24,-0.16 -0.21,-0.55 z m -5.674,-5.09 0.038,0.164 -0.05,0.088 -0.18,-0.063 -0.834,-1.06 -0.063,-0.17 -0.495,-2.02 -0.025,-0.59 0.126,-0.14 0.17,0.06 0.12,0.18 0.14,0.24 z m 2.102,5.952 0.127,0.253 2.16,1.368 1.99,0.05 0.39,-0.024 0.26,-0.18 -0.02,-0.27 0.1,-0.12 0.26,-0.05 0.56,0.19 0.61,0.34 0.24,0.16 0.08,0.11 -0.03,0.09 -2.15,1.16 -0.25,0.05 -0.3,-0.08 -1.77,-0.64 -0.66,-0.34 -1.57,-0.89 -0.23,-0.14 -0.11,-0.31 -0.43,-1.29 -0.54,-1.97 -0.02,-0.27 0.19,-0.07 0.16,0.03 0.3,0.19 0.08,0.1 0.07,0.11 0.24,1.04 z m 23.002,27.064 0.354,0.152 -0.468,1.405 -0.177,0.38 -0.266,0.216 -0.26,0.05 -1.14,-1.56 -0.05,-0.12 -0.04,-0.27 0.09,-0.12 0.17,-0.01 z m 69.017,9.764 -0.063,0.304 -0.113,0.076 -0.23,0.025 -0.138,-0.025 -0.09,-0.05 -0.53,-0.432 -0.08,-0.114 0.1,-1.177 0.86,-0.862 0.26,-0.24 0.1,-0.038 0.21,0.127 -0.07,0.48 z m -1.38,9.41 -0.165,0.418 -1.052,2.19 -0.265,0.406 -0.17,0.19 -0.14,0.1 -0.24,-0.012 -0.03,-0.14 1.75,-3.837 0.17,-0.253 0.17,-0.1 0.19,0.1 0.08,0.114 -0.02,0.228 -0.08,0.215 -0.09,0.07 z m -17.593,23.112 0.253,-0.203 5.167,-5.59 2.065,-2.71 1.036,-1.41 1.31,-1.69 0.79,-1.76 0.47,-1.54 1.9,-2.19 0.27,-0.24 0.24,-0.14 0.43,-0.12 0.22,0.01 0.32,0.15 0.16,0.22 -0.05,0.25 -0.09,0.11 -0.15,0.13 -0.33,0.1 -4.41,7.5 0.03,0.3 -0.21,0.41 -0.15,0.2 -9.08,8.86 -0.27,0.18 -0.22,0.05 -0.44,-0.03 -0.31,-0.13 -0.1,-0.14 z m -2.027,1.658 -0.07,0.19 -0.272,0.394 -0.58,0.43 -0.34,0.165 -0.81,0.32 -0.01,-0.03 0.49,-0.7 0.6,-0.64 0.56,-0.34 0.23,-0.03 0.07,0.08 z m -3.268,2.357 -0.012,0.215 -0.355,0.228 -2,1.165 -0.153,-0.063 0.027,-0.04 0.062,-0.39 0.152,-0.203 1.735,-1.12 0.41,0.04 0.03,0.03 z m -4.332,2.558 -0.152,0.342 -0.21,0.24 -0.29,0.178 -0.28,0.038 -1.82,0.24 -0.3,-0.12 -0.01,-0.01 0.12,-0.24 0.14,-0.14 1.07,-0.568 0.86,-0.355 0.87,0.272 z m -10.55,4.09 0.265,-0.28 2.774,-1.19 0.85,-0.353 0.278,-0.013 0.095,0.07 0.02,0.01 -0.154,0.2 -0.1,0.07 -0.12,0.06 -1.71,0.85 -2.63,1.1 z m -15.466,3.673 -0.405,-0.24 -0.304,-0.254 -2.736,-3.85 0.165,-0.152 0.57,0.102 0.19,0.063 0.14,0.063 0.442,0.304 1.06,1.013 0.66,0.633 1.05,2.145 0.08,0.185 0.06,0.494 -0.1,0.177 -0.59,0.25 -0.28,0.02 -0.09,-0.05 -0.03,-0.16 0.15,-0.71 z m 13.313,-3.33 0.523,0.297 -0.587,0.17 -1.963,0.305 -1.33,0.202 z m -20.216,1.494 0.278,-0.05 0.507,0.2 0.06,0.04 0.47,0.38 0.15,0.278 0.15,0.418 0.04,0.202 0.02,0.14 -0.05,0.278 -0.07,0.317 -0.12,0.203 -0.08,0.05 -1.71,-1.127 -0.13,-0.34 -0.05,-0.43 0.04,-0.31 0.06,-0.01 z m -0.254,3.153 -0.202,0.127 -3.23,1.29 -1.557,0.33 -0.5,-0.037 -0.01,-0.03 3.16,-4.112 0.03,-0.29 0.08,-0.216 0.21,-0.127 0.23,0.05 0.09,0.077 1.13,1.05 0.38,0.356 0.41,0.57 0.08,0.43 -0.04,0.127 -0.17,0.328 z m -6.128,1.9 0.056,0.086 -1.57,0.92 -1.57,0.2 -0.208,-0.19 0.15,-0.92 0.257,-0.82 0.086,-0.03 1.856,0.03 0.65,0.2 0.26,0.53 z m -21.116,-0.532 0.342,0.19 0.14,0.177 0.088,0.24 -0.077,0.317 -0.68,1.14 -0.22,0.025 -0.22,-0.063 -0.79,-1.99 0.05,-0.09 0.13,-0.08 0.14,-0.04 0.87,0.12 z m 15.35,2.115 -1.265,0.29 -0.31,-0.024 -0.11,-0.076 -0.11,-0.15 0.08,-0.154 0.29,-0.47 2.37,-0.568 0.22,-0.025 0.3,0.03 0.36,0.15 0.12,0.09 0.14,0.19 -0.06,0.1 z"
       id="path7643"
       inkscape:connector-curvature="0"
       style="stroke-width:1.45900913;stroke-miterlimit:4;stroke-dasharray:none" />
  </g>
  <path
     d="M 23.467695,9.4649518"
     id="path7645"
     inkscape:connector-curvature="0"
     style="fill:none;stroke:#ff0000;stroke-width:0.27415156;stroke-linecap:round;stroke-linejoin:bevel" />
  <path
     d="M 22.870154,9.4271659"
     id="path7647"
     inkscape:connector-curvature="0"
     style="fill:none;stroke:#ff0000;stroke-width:0.27415478;stroke-linecap:round;stroke-linejoin:bevel" />
  <path
     d="m 23.531046,9.6489153 c 0,0.8060227 -0.619479,1.4594187 -1.383604,1.4594187 -0.764124,0 -1.382607,-0.653396 -1.382607,-1.4594187 0,-0.8050246 0.618483,-1.4584211 1.382607,-1.4584211 0.764125,0 1.383604,0.6533965 1.383604,1.4594181 z"
     id="path5410"
     inkscape:connector-curvature="0"
     style="fill:none;stroke:#ff0000;stroke-width:0.20000006;stroke-linecap:round;stroke-linejoin:bevel;stroke-miterlimit:4;stroke-dasharray:none" />
  <path
     d="m 22.945484,9.6070173 c 0,0.4648597 -0.359119,0.8419357 -0.802032,0.8419357 -0.442913,0 -0.801034,-0.377076 -0.801034,-0.8419357 0,-0.4648584 0.359119,-0.8419337 0.801034,-0.8419337 0.442913,0 0.802032,0.3770753 0.802032,0.8419337 z"
     id="path5412"
     inkscape:connector-curvature="0"
     style="fill:none;stroke:#ff0000;stroke-width:0.20000006;stroke-linecap:round;stroke-linejoin:bevel;stroke-miterlimit:4;stroke-dasharray:none" />
</svg>
