<?xml version="1.0" encoding="UTF-8" standalone="no"?>
<svg
   xmlns:dc="http://purl.org/dc/elements/1.1/"
   xmlns:cc="http://creativecommons.org/ns#"
   xmlns:rdf="http://www.w3.org/1999/02/22-rdf-syntax-ns#"
   xmlns:svg="http://www.w3.org/2000/svg"
   xmlns="http://www.w3.org/2000/svg"
   xmlns:sodipodi="http://sodipodi.sourceforge.net/DTD/sodipodi-0.dtd"
   xmlns:inkscape="http://www.inkscape.org/namespaces/inkscape"
   width="24.005453"
   height="24.004311"
   id="svg5400"
   version="1.1"
   inkscape:version="0.91 r"
   sodipodi:docname="MAHI.svg">
  <metadata
     id="metadata5418">
    <rdf:RDF>
      <cc:Work
         rdf:about="">
        <dc:format>image/svg+xml</dc:format>
        <dc:type
           rdf:resource="http://purl.org/dc/dcmitype/StillImage" />
        <dc:title>New Zealand</dc:title>
      </cc:Work>
    </rdf:RDF>
  </metadata>
  <defs
     id="defs5416" />
  <sodipodi:namedview
     pagecolor="#ffffff"
     bordercolor="#666666"
     borderopacity="1"
     objecttolerance="10"
     gridtolerance="10"
     guidetolerance="10"
     inkscape:pageopacity="0"
     inkscape:pageshadow="2"
     inkscape:window-width="1366"
     inkscape:window-height="747"
     id="namedview5414"
     showgrid="false"
     fit-margin-top="0"
     fit-margin-left="1.19"
     fit-margin-right="1.19"
     fit-margin-bottom="0"
     inkscape:zoom="25.82874"
     inkscape:cx="13.481468"
     inkscape:cy="5.8849594"
     inkscape:window-x="0"
     inkscape:window-y="21"
     inkscape:window-maximized="1"
     inkscape:current-layer="g5404" />
  <title
     id="title5402">New Zealand</title>
  <g
     transform="matrix(4.1557817,0,0,4.1557817,-122.57627,-98.97887)"
     id="g5404"
     style="stroke:#000000;stroke-width:0.12031431;stroke-miterlimit:4;stroke-dasharray:none;stroke-opacity:1">
    <title
       id="title5406">Layer 1</title>
    <path
       d="m 32.199104,23.831284 0,0.01033 0.04875,0 -0.04875,-0.01033 m 0.341555,0.115774 0.03915,0.07398 0.01946,0 c 0.01081,-0.05236 -0.01201,-0.07013 -0.05837,-0.07398 m -0.09776,0.05284 c 0.07205,0.05476 0.252684,0.219056 0.156126,0.305526 0.02522,0.05885 0.07758,0.139313 0.136911,0.158288 l 0.107127,-0.105685 -0.107367,0.158527 c 0.09511,0.07205 0.166454,0.178225 0.23611,0.276944 0.0082,0.01201 0.06365,0.110249 0.07878,0.05765 0.01033,-0.03579 -0.07926,-0.16069 -0.09031,-0.208249 0.06173,0.06005 0.06005,0.163093 0.156126,0.179185 l -0.04876,-0.0843 0.0197,-0.02114 0.04876,0.02114 -0.0096,-0.04227 0.02907,0.0317 0.03915,0 0,0.02114 c -0.03339,0.0026 -0.04804,0.0072 -0.05861,0.04203 l 0.04876,0.01057 0,0.01057 -0.04876,0.06317 0.03891,0.09488 c -0.03579,-0.04539 -0.05909,-0.07999 -0.116975,-0.0843 0.01321,0.05284 0.05381,0.09199 0.08167,0.13691 0.049,0.07926 0.07926,0.277184 0.191675,0.263733 l -0.03915,0.04203 c 0.02041,0.07758 0.02834,0.175102 0.117214,0.158048 -0.0233,0.01826 -0.07134,0.02546 -0.08768,0.04852 -0.02642,0.03796 0.0082,0.06197 0.03891,0.05693 l 0.0096,0.06341 -0.07806,0.01033 c -0.0077,0.100881 -0.02378,0.281507 -0.107367,0.340594 -0.07687,0.05428 -0.304086,0.04156 -0.300723,0.186391 0.0024,0.109528 0.134508,0.110729 0.202963,0.136911 0.05045,0.01921 0.07926,0.07086 0.127303,0.09584 0.05236,0.02762 0.114813,0.02018 0.165734,0.049 0.14772,0.08359 0.149161,0.249802 0.05764,0.382389 -0.05428,0.07831 -0.125622,0.131146 -0.180866,0.205126 -0.0478,0.06389 0.06053,0.06893 0.09392,0.06893 0.01273,0.07855 0.06005,0.01537 0.105925,0.03051 0.03482,0.01129 0.03675,0.06413 0.04059,0.09608 0.228905,-0.0024 0.373741,-0.237312 0.493839,-0.40809 0.06245,-0.08887 0.146518,-0.159248 0.208968,-0.2474 0.03243,-0.04563 0.03219,-0.09656 0.05669,-0.145077 0.02065,-0.04083 0.05764,-0.0663 0.07999,-0.105925 l -0.09752,-0.01057 c -0.01465,-0.224102 0.204886,-0.274782 0.370859,-0.231788 l 0.0096,0.08407 0.0783,-0.09464 c -0.04876,-0.04684 -0.0197,-0.104485 -0.01945,-0.168617 l 0.156126,-0.08455 c -0.02233,-0.138591 0.0281,-0.277183 0.107367,-0.379507 l 0,-0.01033 c -0.110731,-0.08647 -0.265655,-0.104965 -0.377105,-0.0043 -0.04515,0.04083 -0.05909,0.09679 -0.120818,0.120097 -0.153004,0.05765 -0.308409,-0.06966 -0.449163,-0.116254 -0.06821,-0.02258 -0.113131,0.0041 -0.165734,-0.06293 l 0.09752,0.04227 c -0.02257,-0.05237 -0.07086,-0.0843 -0.09224,-0.13691 -0.03219,-0.07926 -2.39e-4,-0.199602 -0.07373,-0.253164 l -0.03891,0.0317 0,-0.01057 0.05837,-0.0317 c -0.0233,-0.04011 -0.05596,-0.04156 -0.09752,-0.04203 -0.01057,-0.07855 -0.06053,-0.09343 -0.126822,-0.09487 0.0064,0.0442 0.04083,0.05669 0.05284,0.09608 0.01057,0.03435 -0.01465,0.06725 -0.0019,0.102322 0.01225,0.03363 0.05236,0.06365 0.03964,0.104966 -0.0076,0.02474 -0.03723,0.03458 -0.05549,0.01658 -0.02594,-0.02522 -0.01105,-0.0711 -0.04227,-0.09535 -0.02569,-0.01994 -0.06173,-0.01129 -0.09055,-0.02354 -0.09104,-0.03843 -0.212812,-0.154685 -0.107367,-0.253885 -0.02065,-0.05764 -0.06725,-0.147719 -0.126822,-0.158047 -4.81e-4,-0.05404 -0.0024,-0.09007 -0.05861,-0.09487 l 0,-0.01057 0.05861,-0.01033 -0.0197,-0.04227 0.04877,-0.01057 c -0.02522,-0.101362 -0.101362,-0.199121 -0.195039,-0.158048 l -0.03915,-0.04227 0,-0.01057 0.03915,0 C 33.033057,24.22136 32.885337,24.19686 32.814,24.179085 l 0,0.03146 -0.05837,0 0.03891,-0.03146 c -0.02498,-0.08815 -0.07326,0.0029 -0.09752,0.04203 -0.01105,-0.06725 -0.211371,-0.335311 -0.253885,-0.221218 m 0.790718,0.56926 0,0.04203 0.04877,0 -0.04877,-0.04227 m 0.41986,0.284629 c 0.0055,-0.03723 -0.0096,-0.180625 -0.07543,-0.145557 -0.07878,0.04155 0.04203,0.131627 0.07543,0.145557 m -0.214733,-0.09487 c 0.01849,0.03555 0.03435,0.03626 0.06822,0.02114 l -0.06822,-0.02114 m -0.03915,0.126583 -0.01946,-0.04227 c -0.04156,0.02594 -0.02258,0.05284 0.01946,0.04227 m 0.331948,0.05284 c 0.01585,0.03098 0.02642,0.03675 0.05861,0.03146 l -0.01946,-0.04203 -0.03915,0.01033 m -0.312253,0.08455 0.06822,0.06317 0.0293,-0.07373 -0.09776,0.01057 m 0.605289,0.379507 -0.0096,0.01033 0,0.02114 0.0096,0.01057 0.0197,0 0.0096,-0.01057 0,-0.02114 -0.0096,-0.01057 -0.0197,0 m 0.214973,0.126581 0.04875,0.01057 -0.04875,-0.01057 m -1.855018,1.212259 0.0096,0.04203 c -0.06413,-0.01009 -0.194798,0.07687 -0.211371,0.147719 -0.01393,0.05813 0.01729,0.122979 -7.21e-4,0.178705 -0.01897,0.05885 -0.09127,0.135709 -0.139313,0.167415 -0.04035,0.02666 -0.08887,0.01753 -0.123459,0.05596 -0.05428,0.06005 -0.05213,0.147239 -0.08167,0.219778 -0.04179,0.102322 -0.114333,0.190954 -0.195037,0.26061 -0.05788,0.04996 -0.141234,0.05837 -0.204886,0.100639 -0.09776,0.06438 -0.184949,0.170057 -0.283429,0.225782 -0.06053,0.03387 -0.133548,0.04035 -0.195038,0.07519 -0.05861,0.03314 -0.11193,0.09175 -0.176062,0.112411 -0.04996,0.01609 -0.106886,-0.0089 -0.155405,0.01177 -0.04756,0.01994 -0.07782,0.08287 -0.127303,0.109529 l 0.0096,0.0317 c -0.08479,0.006 -0.122019,0.08023 -0.18543,0.130185 -0.04347,0.03435 -0.09752,0.04924 -0.107367,0.112171 -0.114813,0.0089 -0.244277,0.184949 -0.06822,0.21089 l 0,0.01033 -0.06845,0 0.01946,0.04227 -0.156127,-0.05284 -0.04876,0.137151 0.126822,-0.02114 0,0.01057 c -0.03867,0.01585 -0.110489,0.05933 -0.0293,0.07373 l 0,0.01057 -0.195278,0.02114 0.0096,0.105445 0.06845,-0.02114 -0.01921,0.05284 0.05837,0 c -0.06774,0.110008 0.145077,0.06918 0.205126,0.08239 0.06389,0.01393 0.098,-0.049 0.156126,-0.03843 0.05956,0.01057 0.05933,0.07902 0.108087,0.09679 0.03675,0.01345 0.07855,-0.01441 0.116254,-0.01345 0.03939,9.61e-4 0.07879,0.02233 0.117215,0.03075 l 0,0.02114 -0.05837,0.02089 0,0.02114 c 0.08863,0.03146 0.164773,0.01297 0.253644,0 0.01753,0.08623 0.126103,0.04948 0.185671,0.03819 0.16213,-0.03075 0.28583,-0.100397 0.407129,-0.222659 0.0245,-0.02474 0.03363,-0.06053 0.06197,-0.08191 0.06197,-0.04683 0.177263,0.0024 0.18495,-0.102562 l -0.06845,0.02114 c 0.05405,-0.133308 0.126103,-0.291356 0.234429,-0.379506 0.0024,-0.0968 0.0041,-0.220258 0.05717,-0.302165 0.03483,-0.05356 0.104244,-0.0735 0.157567,-0.09536 0.09896,-0.04011 0.186151,-0.104004 0.293036,-0.118896 0.0069,-0.126583 0.164534,0.01753 0.224342,0.02089 l 0,-0.06317 0.0096,0 0.0197,0.06317 0.0096,0 c 0.122018,-0.108328 -0.03482,-0.140754 -0.116974,-0.158048 0.0024,-0.03507 -0.0096,-0.07086 -0.0012,-0.105445 0.03075,-0.127784 0.155645,-0.09704 0.229625,-0.175342 0.0502,-0.0526 0.06869,-0.136911 0.115293,-0.193836 0.104245,-0.127544 0.236591,-0.220499 0.320179,-0.368699 l -0.05861,-0.03146 -0.03795,-0.115533 0.145317,-0.137391 -0.0096,-0.01057 -0.244278,0.08407 0,-0.04203 -0.107367,-0.06317 c -0.04516,0.02018 -0.146998,0.119856 -0.193837,0.102082 -0.05284,-0.01994 -0.02762,-0.169817 -0.03075,-0.218097 -0.03555,-0.01009 -0.07446,0.01297 -0.107126,-0.0019 -0.03843,-0.01778 -0.06245,-0.0759 -0.01778,-0.102803 0.02834,-0.01682 0.07446,-0.0012 0.105685,-7.21e-4 l 0,-0.02089 -0.195517,0 m 0.50777,0.189754 c 0.05741,-0.0064 0.09367,-0.03314 0.107366,-0.09487 -0.06894,0.0014 -0.09319,0.02186 -0.107366,0.09487 m -0.03915,0.03146 0,0.02114 c 0.04011,0.01633 0.07158,0.01897 0.09776,-0.02114 l -0.049,-0.02114 -0.04877,0.02114 m 0.07806,0.06341 c 0.06317,0.0944 0.170538,-0.0055 0.224581,-0.05284 -0.06654,-0.04804 -0.169096,0.01009 -0.224581,0.05284 m -2.948141,1.83388 -0.0099,0.05284 0.05861,0.02114 -0.0096,-0.07398 -0.03915,0 m -0.165974,0.284631 0.116973,0 c -0.006,-0.08527 -0.110729,-0.08407 -0.116973,0 z"
       id="path5408"
       inkscape:connector-curvature="0"
       style="fill:#ffffff;stroke:#000000;stroke-width:0.02406286;stroke-miterlimit:4;stroke-dasharray:none;stroke-opacity:1" />
    <path
       d="m 34.963736,26.210166 c 0,0.194076 -0.14916,0.351403 -0.333149,0.351403 -0.183988,0 -0.332909,-0.157327 -0.332909,-0.351403 0,-0.193837 0.148921,-0.351164 0.332909,-0.351164 0.183989,0 0.333149,0.157327 0.333149,0.351403 z"
       id="path5410"
       inkscape:connector-curvature="0"
       style="fill:none;stroke:#ff0000;stroke-width:0.04812572;stroke-linecap:round;stroke-linejoin:bevel;stroke-miterlimit:4;stroke-dasharray:none;stroke-opacity:1" />
    <path
       d="m 34.822742,26.200078 c 0,0.11193 -0.08647,0.202723 -0.193116,0.202723 -0.106646,0 -0.192876,-0.0908 -0.192876,-0.202723 0,-0.111931 0.08647,-0.202724 0.192876,-0.202724 0.106646,0 0.193116,0.0908 0.193116,0.202724 z"
       id="path5412"
       inkscape:connector-curvature="0"
       style="fill:none;stroke:#ff0000;stroke-width:0.04812572;stroke-linecap:round;stroke-linejoin:bevel;stroke-miterlimit:4;stroke-dasharray:none;stroke-opacity:1" />
  </g>
  <path
     style="fill:#00ff00;fill-opacity:1;stroke:#000000;stroke-width:0.5;stroke-miterlimit:4;stroke-dasharray:none;stroke-opacity:1"
     d=""
     id="path6643"
     inkscape:connector-curvature="0" />
</svg>
