<?xml version="1.0" encoding="UTF-8" standalone="no"?>
<!-- Generator: Adobe Illustrator 18.0.0, SVG Export Plug-In . SVG Version: 6.00 Build 0)  -->

<svg
   xmlns:dc="http://purl.org/dc/elements/1.1/"
   xmlns:cc="http://creativecommons.org/ns#"
   xmlns:rdf="http://www.w3.org/1999/02/22-rdf-syntax-ns#"
   xmlns:svg="http://www.w3.org/2000/svg"
   xmlns="http://www.w3.org/2000/svg"
   xmlns:sodipodi="http://sodipodi.sourceforge.net/DTD/sodipodi-0.dtd"
   xmlns:inkscape="http://www.inkscape.org/namespaces/inkscape"
   version="1.1"
   id="Слой_1"
   x="0px"
   y="0px"
   viewBox="0 144 23.925665 23.958996"
   enable-background="new 0 144 1024 469"
   xml:space="preserve"
   inkscape:version="0.91 r"
   sodipodi:docname="MARS.svg"
   width="23.925665"
   height="23.958996"><metadata
     id="metadata9"><rdf:RDF><cc:Work
         rdf:about=""><dc:format>image/svg+xml</dc:format><dc:type
           rdf:resource="http://purl.org/dc/dcmitype/StillImage" /><dc:title></dc:title></cc:Work></rdf:RDF></metadata><defs
     id="defs7" /><sodipodi:namedview
     pagecolor="#ffffff"
     bordercolor="#666666"
     borderopacity="1"
     objecttolerance="10"
     gridtolerance="10"
     guidetolerance="10"
     inkscape:pageopacity="0"
     inkscape:pageshadow="2"
     inkscape:window-width="1366"
     inkscape:window-height="747"
     id="namedview5"
     showgrid="false"
     fit-margin-top="6.75"
     fit-margin-left="0"
     fit-margin-right="0"
     fit-margin-bottom="6.75"
     inkscape:zoom="39.126969"
     inkscape:cx="14.912961"
     inkscape:cy="10.878555"
     inkscape:window-x="0"
     inkscape:window-y="21"
     inkscape:window-maximized="1"
     inkscape:current-layer="Слой_1" /><path
     d="m 21.544189,160.75629 0.07359,0.18166 0,0.14716 -0.06898,-0.009 0,-0.069 0,-0.11728 -0.04599,-0.046 -0.04828,0 0.0092,-0.16785 -0.04828,-0.18165 -0.04828,0.0437 -0.0046,0.21154 -0.06669,0 0.01839,0.25984 0.07818,0.03 0.108071,0.0276 -0.09427,0.0184 -0.117269,-0.009 0,0.0276 -0.09427,-0.005 0,-0.0643 -0.06898,-0.0759 0,0.046 0,0.0782 -4.96671,0.0391 0,-0.0667 -0.11267,-0.0575 0.05979,0.0391 -0.04828,0.0575 -0.331114,0.0184 -0.06669,-0.0184 -0.09658,0.0184 -0.03909,-0.069 -0.04369,0.0575 -0.09198,0.0184 0,-0.0782 -0.05979,-0.0943 -0.06898,-0.0713 -0.223043,0.0299 0.15636,-0.009 0.0161,0.0184 0.03909,0.0414 0,0.0667 0.06898,0.0276 0,0.0598 -0.830085,-0.009 -0.06438,0.0253 c -4.6332982,0.13567 -8.877996,-0.19774 -8.877996,-0.19774 l 0.071281,-0.0437 -0.7611024,0.005 -0.00228,0.0506 -0.1218687,0 0.1264675,-0.18626 -0.096575,0.0506 -0.1172698,0.13567 -0.068981,0 -4.52522529,0 0,-0.10578 0.11726954,-0.0299 0.14486237,-0.0391 0.11726954,-0.0782 0.29202421,0.0184 0.12646716,-0.0874 0.27362887,-0.10807 0.2828267,-0.0782 0.1172696,-0.0391 0.029893,-0.0966 0.018395,-0.10807 0.096575,-0.0966 0.096575,-0.0575 0.165557,0.0299 0.2138444,-0.0966 0.078179,-0.069 0.029893,-0.10807 0.03909,-0.11727 0.018395,-0.0782 0.087377,-0.0966 0.096575,-0.009 0.1264672,-0.0782 0.03909,-0.20464 0.029893,-0.10808 0.1448624,-0.0874 0.3012217,-0.17475 0.1747551,-0.0966 0.262132,-0.0782 0.1563595,-0.0782 0.9243597,-0.81169 0.059785,-0.0553 0.085078,0 0.039092,0.0621 -0.068982,0.0575 -0.07818,0.009 0.0092,0.0782 0.087377,0.0575 0.029893,0.0874 0.039092,0.18395 c 0,0 0.1172691,0.13567 0.1655567,0.16556 0.048285,0.03 0.057484,0.0874 0.057484,0.0874 l 0.087377,0.0575 0.078179,0.0184 0.1839525,0.10808 0.078179,0.0966 0.126467,0.03 0.2529342,-0.03 0.1448627,-0.0874 0.1172692,-0.10807 0.1356649,-0.009 0.048291,-0.0874 0.096575,-0.0966 0.1080719,0.0874 0.1448622,0.13567 0.1563595,0.0966 0.2437368,-0.12646 0.2437363,-0.0391 0.2437368,-0.0483 0.1448628,-0.069 0.096574,-0.0966 -0.029893,-0.10807 0.0092,-0.0782 0.039092,-0.0782 0.1172698,0.0299 0.096574,0.10807 0.07818,0.0299 0.4368866,-0.28282 0.126467,-0.0874 0.087377,-0.0184 0.039092,0.11726 0.048291,0.0782 0.068982,-0.009 c 0,0 0.068982,-0.0391 0.126467,-0.0966 0.057484,-0.0575 0.096574,-0.0782 0.096574,-0.0782 l 0.07818,-0.0575 0.096574,0.0184 0.057484,-0.10807 -0.057484,-0.0483 -0.039092,-0.0483 0.048285,-0.0782 0.1563595,-0.0575 0.048285,-0.0874 -0.018398,-0.069 c 0,0 -0.108072,-0.0782 -0.1356643,-0.0874 -0.029893,-0.009 -0.0069,-0.12648 -0.0069,-0.12648 l 0.085078,-0.0966 0,-0.0874 0.052888,-0.069 0.059784,-0.0184 0.020694,-0.15636 0.204647,-0.23454 0.4092946,-0.45298 0.07818,-0.11957 0.03909,-0.10807 0.06898,-0.069 -0.02989,-0.069 -0.0092,-0.0782 0.05748,-0.0299 0.0092,-0.12646 0.05748,-0.0483 0.135665,-0.16556 0.117269,-0.0483 0.04828,-0.0184 -0.05748,-0.15637 0.02989,-0.0575 0.08278,-0.0966 0.09427,0.0184 0,-0.11497 0.105773,-0.16557 -0.0138,-0.19544 0.05979,-0.0874 0.0207,-0.0874 0.03909,-0.13566 0.03909,-0.0782 0.243737,0.10808 0.108071,0.0966 0.04828,0.15635 0.03909,0.12647 0.370204,0.0966 0.144861,0.03 0.213846,-0.25294 0.02989,-0.16555 c 0,0 0.11727,-0.17476 0.126467,-0.22304 0.0092,-0.0483 0.04828,-0.12647 0.04828,-0.12647 l 0.06898,0.0184 0.08737,-0.12646 -0.0092,-0.0874 0.01839,-0.0966 0.06898,-0.12647 0.04828,-0.12646 0.07818,-0.069 0.07818,-0.12646 0.340312,0.27133 0.05748,-0.10807 0.08737,-0.21385 0.108072,-0.12646 0.126467,-0.15637 0.02989,0.0966 c 0,0 0.108073,-0.11727 0.126468,-0.14486 0.01839,-0.03 0.126467,-0.0966 0.126467,-0.0966 l 0.06898,0.0299 0.135665,-0.16556 -0.04828,-0.0483 0.108072,-0.13567 0.144862,-0.12646 c 0,0 0.07818,-0.0483 0.09658,-0.0782 0.01839,-0.03 0.08737,-0.11728 0.08737,-0.11728 l -0.0092,-0.0782 -0.03909,-0.0966 0.05748,-0.0782 -0.01839,-0.0575 0.0092,-0.069 0.04828,-0.0391 c 0,0 0.06898,-0.10808 0.08737,-0.14487 0.01839,-0.039 0.03909,-0.0575 0.03909,-0.0575 l -0.02989,-0.0782 -0.0092,-0.11727 0.02989,-0.14487 0.02989,-0.14486 1.177294,1.00254 0.156359,0.0874 0.08737,0.0392 0.02989,-0.0782 0.05748,-0.0874 0.03909,-0.11727 0.03909,-0.15635 0.08737,-0.11038 0.09427,-0.0437 0.08968,0 0.117269,0.0437 0.119569,0.0483 0.06438,0 0.09887,0.14027 0.09658,0 0.08737,0.092 -0.05748,0.0851 -0.08737,0.0966 -0.0092,0.14486 0.05748,0.0966 0.117269,0.11728 0.195449,0.0437 0.137964,0.092 0.09427,0 0.108072,0.0575 0.04828,0.0759 0.05289,0.0529 0.121869,0 0.07818,0.0667 0.126467,0.16786 0.183953,0.17475 c 0,0 0.0092,0.14486 -0.03909,0.19315 -0.04828,0.0483 0,0.15637 0,0.15637 l 0.03909,0.13106 -0.02299,0.16095 -0.06898,0 -0.09427,0 -0.04599,0 -0.06898,0 -0.01839,0.12877 0.108072,0.0667 -0.07818,0.0483 -0.144862,-0.023 -0.07358,-0.0782 -0.05289,0 -0.0092,0.11496 -0.01839,0.16556 -0.08737,0.10578 c 0,0 -0.06898,0.19315 -0.08737,0.22304 -0.01839,0.0298 -0.05748,0.12646 -0.05748,0.12646 l 0.08737,0.16096 c 0,0 0.04828,0.0966 0.04828,0.12646 0,0.03 0.108072,0.0966 0.108072,0.0966 0,0 0.144863,0 0.172456,0 0.0276,0 0.09658,-0.10577 0.09658,-0.10577 0,0 0.135665,-0.0276 0.165557,-0.0851 0.02989,-0.0575 0.07818,0.002 0.07818,0.002 l 0.08737,0 0.04828,0.16785 -0.04828,0.10347 0.08737,0.0966 0.11727,0.10577 -0.04828,0.0782 0.08737,0.0874 0.108071,0.0391 0.15636,0.0966 0.174755,-0.0391 0.135665,0.16556 0.06898,-0.0483 0.05748,-0.0575 0.126467,0.039 0.06898,0.0184 0.07818,0.12646 0.09658,0.0782 0.07818,0.12647 0.06898,0.0966 0.126467,0.0874 0.19545,0.15636 0.126467,-0.009 0.195449,0.15637 0.08737,0.10807 -0.02989,0.12647 -0.05748,0.0966 -0.05748,-0.0299 -0.05748,0.0575 0.0046,0.069 -0.0023,0.0943 0,0.14946 -0.0023,0.10807 -0.05289,0.0966 0.02989,0.069 0.08737,0.0184 0.02989,0.069 -0.252934,-0.009 -0.135665,-0.10807 -0.09658,-0.069 0.06898,-0.19545 -0.108071,0.0483 -0.07818,-0.14487 -0.05748,0.0299 0.04828,0.11727 0.04828,0.0966 -0.03909,0.069 -0.06438,0.0782 -0.08048,-0.0943 0,-0.11957 -0.05519,-0.10807 -0.05748,-0.10807 -0.09658,-0.069 0.05979,-0.0575 -0.07818,-0.0483 -0.04369,0.0782 -0.08048,-0.0598 0,-0.0667 -0.103473,0.009 -0.05748,-0.11728 c 0,0 -0.07588,-0.0575 -0.06669,-0.0874 0.0092,-0.0299 -0.135664,-0.12646 -0.135664,-0.12646 l -0.08737,-0.0874 -0.04828,-0.10576 -0.08737,-0.0345 -0.03909,-0.23683 -0.07818,-0.0966 -0.156359,-0.0874 -0.09658,-0.0391 -0.01839,-0.0782 c 0,0 -0.174754,-0.0621 -0.204646,-0.0828 -0.02989,-0.0184 -0.103474,-0.0437 -0.103474,-0.0437 l -0.149461,0 0.05519,0.069 0.06898,0 0.05979,0 0.03448,0.046 0.09198,0 0.108072,0.12187 0.03909,0.10347 0.05748,-0.0598 0.108071,0.0483 0.165558,0.16555 -0.03909,0.12187 0.02989,0.10577 0.06898,0 0,0.0643 0.119569,0.0966 0.137964,0.15635 0.11727,0.22075 0.09198,0.14026 0.07588,0 0.04138,0.0943 0.07588,0 0.108072,0.0667 0.04828,0.13336 -0.04599,0.0805 0.07359,0 -0.01839,0.11037 0.0092,0.0643 0.06898,-0.0643 0.101173,0.12188 0.11727,0 0.103473,0 0.06898,0.0874 0.08508,0.0759 0.06898,0 0.108072,0 0.0092,0.0643 -0.08737,0.0253 -0.108072,0.009 -0.135664,-0.0391 -0.170156,-0.0322 0.0046,0.002 0.11727,0.0851 0.09887,0.0506 0.04599,0 0.08968,0 0.09658,0.0575 0.08737,0.0161 0.06208,-0.0828 0.0138,0.0805 0,0.11727 0.09427,0.10807 -0.0276,0.14487 -0.04829,0.17475 -0.01839,0.069 -0.105773,-0.0966 -0.105772,-0.0966 -0.105772,-0.0874 -0.03909,0.069 -0.05748,-0.0782 -0.0092,-0.12646 -0.06898,0.0391 c 0,0 -0.06898,0.0391 -0.09657,0.0391 -0.0276,0 0.05748,0.069 0.05748,0.069 l 0.05748,0.0874 0.08737,0.0575 0.03909,0.0874 -0.03909,0.069 -0.15636,-0.0874 0.01839,0.046 0.02989,0.069 c 0,0 0.108073,0.0298 0.135665,0.0298 0.0276,0 -0.01839,0.0782 -0.01839,0.0782 l -0.08737,0.009 c -0.01839,-0.0575 -0.09658,0.0575 -0.09658,0.0575 l -0.08737,-0.0782 -0.11727,-0.0874 -0.06898,-0.11727 -0.126467,-0.12647 -0.117269,-0.13566 -0.01839,-0.17476 -0.05748,0.0483 -0.04828,-0.069 -0.09657,-0.11037 -0.09658,-0.0667 -0.05979,0 0.05748,0.0735 0.08737,0.0667 0.04829,0.0966 0.09658,0.13567 0.183951,0.26213 0.27133,0.26903 0.149461,0.12186 0.09427,0 0.108072,0 0.01839,0.0575 0.07818,0.0598 0.11727,0.0966 0.09658,0.11497 -0.135665,0.0874 0.09657,0.0782 0.07818,-0.0782 0.01839,0.0782 -0.04828,0.12647 -0.01839,0.15635 0.07818,0.0943 0.119569,0.11038 0.232239,0 0.174755,0.0874 0.04828,-0.0253 0.08737,-0.0782 0.08737,0.0575 0.03909,0.13567 0.05748,0.21383 0.03909,0.24374 0.08508,0.18396 0.05289,0.15406 z m 1.701559,-4.75056 -0.09427,0.13337 c 0,0 -0.09658,0.069 -0.105772,0.0989 -0.0092,0.0299 -0.07359,0.0414 -0.07359,0.0414 l -0.144861,0 0,-0.023 0,-0.11727 c 0,0 0.163257,-0.15866 0.135665,-0.13336 -0.02989,0.0253 -0.278228,0.046 -0.278228,0.046 l -0.351809,0.009 -0.09427,0.0897 0.05059,0.12875 -0.112671,0 -0.149461,0.0805 -0.06898,0.0828 0.07818,0 0.11727,0 -0.023,0.11497 0,0.0713 -0.09887,0.0759 0.02529,0.0874 -0.08968,0 -0.09427,0 -0.09427,0 0,0.046 0.05519,0.069 -0.103473,0.0966 c 0,0 -0.04369,0.0782 -0.06208,0.11728 -0.01839,0.0391 -0.05289,0.12646 -0.05289,0.12646 l 0,0.0575 0,0.16326 -0.08278,-0.0643 -0.03679,0.0643 -0.06669,0.0713 c 0,0 0.03909,0.0575 0,0.10807 -0.03909,0.0506 -0.06669,0.10808 -0.06669,0.13566 0,0.0276 -0.0092,0.0735 0,0.13337 0.0046,0.0206 0.0046,0.0414 0.0023,0.0896 l -0.07818,0 0,0.0943 0.07128,0 c 0,0 0,0.002 0,0.002 l -0.03909,0.15866 -0.03679,0.11956 -0.110371,0 0,0.11728 0.09427,0 0,0 -0.06898,0.11496 0,0.11728 0.06438,0.17474 0.07128,0.11729 0.02989,0.13106 -0.0276,0.092 0.09427,0 0.02529,-0.0989 -0.02529,-0.18166 0,-0.11726 0.06438,-0.0598 0.03449,-0.0575 -0.0046,0 -0.02529,0.11498 0,0.14026 0.11727,0 -0.06669,0.0804 -0.03909,0.10348 0.105772,-0.0506 0.105774,-0.10807 0.06898,-0.0966 0.05979,-0.10807 0,-0.14717 -0.06438,0.069 -0.07588,0.0874 -0.09198,0.0276 0,-0.069 0.04828,-0.10576 0.04599,-0.11728 -0.05059,-0.11727 0.04828,-0.0966 0,-0.0759 -0.09887,0.14487 -0.103473,0.0782 0.01839,0.20005 -0.06669,0.0414 0.0207,-0.0874 0.02989,-0.15636 0.06898,-0.16556 0.05059,-0.0966 0.105774,-0.069 0.08968,-0.009 -0.06669,-0.0874 0,-0.0966 0.147162,-0.0667 c 0,0 0.02299,-0.0782 0.05059,-0.069 0.02989,0.009 0.11727,0.0299 0.11727,0.0299 l -0.08737,-0.10808 0.06898,-0.10117 0.05748,-0.0735 0.0207,0.15635 0.04828,-0.17476 -0.0092,-0.15635 0.05748,-0.069 c 0,0 0.01839,-0.0874 0.02989,-0.0483 0.0092,0.0391 0.05748,0.11727 0.05748,0.11727 l 0,0.0966 0.06898,-0.21385 0,-0.11267 0,-0.069 0.06898,-0.13797 0,0.11497 0.128767,-0.20235 0.137964,-0.28282 0.108072,-0.0782 0,-0.0896 0,-0.13338 0.07359,0.11038 0.114969,0 -0.04599,0.0644 0,0.0989 0.128767,-0.10807 0.07359,-0.19775 0.07128,-0.14946 0.121868,-0.0989 0,-0.0598 -0.121868,0.0598 z m -1.027833,1.68776 -0.08968,0.0299 0,0.11727 -0.04599,0 -0.0092,0.0161 -0.05289,0.0759 0.05979,0.0368 0,0.10578 -0.05979,0.13565 -0.04829,0.0989 -0.07588,0.069 -0.07358,0 0,0.046 0,0.0943 -0.04599,0.10117 0,0.10807 0.06438,-0.0782 0.07128,-0.16555 0.108072,-0.10807 0.06438,-0.0966 0.09198,-0.17016 0.07818,-0.14256 c 0,0 -0.09657,-0.0782 -0.05748,-0.0874 0.03909,-0.009 0.08737,-0.0874 0.08737,-0.0874 l 0.03679,-0.10808 0.03679,-0.069 0,-0.0782 -0.09427,0 0,-0.046 -0.09427,0.0575 0.101174,0.0667 -0.05289,0.0782 z m -1.020935,-1.48771 -0.04599,0 0,0.11727 0.04599,0 0,-0.11727 z m 0.09427,0.37251 -0.04599,0 0,0.11726 0.04599,0 0,-0.11726 z m 0.278228,0.16325 -0.06898,0 0,0.069 0.06898,0 0,-0.069 z m 0.443785,1.30606 -0.023,0 0,0.069 0.023,0 0,-0.069 z"
     id="path3"
     style="fill:#ffffff;fill-opacity:1;stroke:#000000;stroke-width:0.1;stroke-miterlimit:4;stroke-dasharray:none;stroke-opacity:1"
     inkscape:connector-curvature="0" /><path
     d="m 23.830198,156.74995 c 0,0.67246 -0.518573,1.2173 -1.158483,1.2173 -0.639909,0 -1.158482,-0.54484 -1.158482,-1.2164 0,-0.67155 0.518573,-1.21639 1.158482,-1.21639 0.63991,0 1.158483,0.54575 1.158483,1.2173 z"
     id="path6967"
     inkscape:connector-curvature="0"
     style="fill:none;fill-opacity:1;stroke:#ff0000;stroke-width:0.2;stroke-linecap:round;stroke-linejoin:bevel;stroke-miterlimit:4;stroke-dasharray:none;stroke-opacity:1" /><path
     d="m 23.339597,156.71466 c 0,0.38826 -0.300432,0.70232 -0.671509,0.70232 -0.370123,0 -0.669696,-0.31406 -0.669696,-0.70232 0,-0.38737 0.299573,-0.70233 0.669696,-0.70233 0.371077,0 0.671509,0.31496 0.671509,0.70233 z"
     id="path6969"
     inkscape:connector-curvature="0"
     style="fill:none;fill-opacity:1;stroke:#ff0000;stroke-width:0.2;stroke-linecap:round;stroke-linejoin:bevel;stroke-miterlimit:4;stroke-dasharray:none;stroke-opacity:1" /></svg>