<svg xmlns="http://www.w3.org/2000/svg" viewBox="0 0 23.972 23.974"><path fill="#fff" stroke="#000" stroke-width=".1" d="M21.932 20.24c-.075-.055-.08-.076-.026-.14.034-.04.13-.075.212-.075.16 0 .223-.078.283-.35.02-.077.06-.156.09-.175.04-.02.02-.035-.05-.035-.08 0-.1-.036-.13-.22-.02-.135-.01-.248.02-.3.03-.047.04-.096.01-.11-.02-.013-.04-.106-.04-.205 0-.182 0-.182.19-.182h.19l-.02.188c-.01.103-.05.205-.08.227-.04.03-.05.05-.01.075.03.02.08.15.1.29.04.2.04.276-.01.348-.03.05-.05.14-.03.2.07.27-.13.53-.4.53-.1 0-.22-.03-.26-.066zm.235-.075c-.016-.026-.054-.046-.085-.046-.033 0-.028.01.015.04.09.06.106.06.07 0zm.435-.866c-.014-.02-.04.01-.058.05-.026.06-.02.07.026.02.032-.03.046-.07.032-.09zm.01-.68c0-.03-.023-.05-.05-.05-.028 0-.037.02-.02.04.015.02.037.04.048.04.012 0 .02-.02.02-.05zm-1.546 1.12c-.063-.06-.162-.14-.22-.17-.18-.12-.107-.34.112-.34.128 0 .453.37.43.5-.024.12-.19.12-.322.01zm.21-.09c.015-.03.01-.06-.012-.07-.022-.02-.04 0-.04.04 0 .07.015.08.053.02zm-.207-.31c-.07-.08-.15-.1-.15-.03 0 .02.03.04.07.04.04 0 .07.02.07.05s.01.04.03.02c.01-.02 0-.06-.03-.1zm-1.27-.6c-.11-.11-.18-.23-.16-.26.01-.04-.01-.06-.05-.06-.08 0-.16-.18-.16-.34 0-.09.01-.09.04-.03.03.05.04.04.04-.06 0-.16.12-.17.16-.01.01.06.06.11.09.11s.09.05.11.12c.07.15.06.16-.01.14-.03-.01-.04-.01-.03 0 .02.01.02.04 0 .07-.02.03 0 .02.05-.01.17-.14.42.29.25.45-.1.09-.18.06-.38-.14zm.17.05c-.02-.03-.06-.05-.09-.05-.04 0-.03.02.01.04.09.05.1.05.07 0zm.16-.22c0-.01-.03-.04-.06-.06-.05-.04-.06-.04-.06.01 0 .03.02.06.06.06s.06-.01.06-.01zm-.38-.28c0-.01-.02-.04-.05-.05-.03-.02-.05-.01-.05.02s.02.05.04.05.04-.01.04-.02zm2.59.03c-.15-.11-.21-.45-.12-.69.03-.09.03-.12-.01-.09-.08.05-.01-.43.09-.64.04-.09.13-.19.18-.21.05-.03.1-.08.1-.12 0-.04.02-.1.05-.13.07-.07.19-.08.15-.01-.02.03-.01.04.03.03.03-.01.06-.06.06-.1 0-.05.03-.08.08-.08.06 0 .09.03.09.13 0 .19-.09.28-.29.29-.17.01-.26.08-.1.08.06 0 .06.01 0 .08-.04.04-.08.1-.08.14 0 .03-.02.06-.04.06-.06 0-.03.73.04.98.03.11.04.2.04.21-.04.04-.26.06-.3.03zm.12-1.2c0-.01-.04-.05-.08-.08-.08-.06-.08-.06-.02.02s.1.1.1.06zm-3.36.65c-.05-.07-.11-.12-.14-.12-.04 0-.33-.28-.66-.63-.15-.16-.21-.32-.15-.39.03-.04.07-.07.1-.07s.02.02-.02.04c-.05.03-.03.04.09.04.13 0 .21.05.44.26.16.14.35.29.44.33.1.04.15.08.13.13-.02.04 0 .05.04.04.12-.05.14.11.02.21l-.11.09.11-.02c.09-.03.11-.01.09.06-.03.14-.29.14-.41 0zm-.11-.41l-.12-.08c-.09-.07-.09-.06-.03.01.04.04.09.08.11.08.02 0 .04-.01.03-.01zm-.33-.43c0-.01-.04-.05-.1-.1-.11-.1-.13-.06-.02.04.07.07.11.09.11.05zm-.58-.7c.01-.11.03-.27.05-.35.01-.09 0-.17-.03-.18-.12-.07-.02-.54.11-.54.02 0 .01.03-.03.07-.04.05-.05.07-.01.07.03 0 .05-.02.05-.05s.03-.05.07-.05c.04 0 .07-.02.07-.05 0-.03-.03-.05-.06-.04-.15.02-.18-.01-.18-.17 0-.2.07-.36.15-.32.03.02.04.01.02-.01s-.01-.07.03-.11c.04-.06.04-.07 0-.04-.04.02-.06.01-.06-.04 0-.08.05-.09.12-.02.03.03.06.03.08-.03.01-.05 0-.08-.04-.08-.05 0-.07-.05-.07-.14 0-.19.07-.32.18-.32.05 0 .1-.03.11-.06.01-.04-.01-.06-.06-.06-.05 0-.08.01-.06.03.01.02 0 .04-.03.04s-.06-.02-.06-.05c-.01-.09-.02-.12-.08-.23-.05-.08-.05-.12-.01-.17.08-.09.17-.08.28.03.08.08.08.1.03.14-.04.02-.05.04-.01.04.08 0 .07.48-.01.77-.04.12-.07.3-.07.38 0 .08-.02.15-.05.15-.07 0-.14.2-.08.26.05.05.05.22.01.33-.03.08-.04.07-.07-.01-.03-.08-.04-.08-.04.02-.01.06.01.1.04.1s.05.03.05.07c0 .04-.02.07-.04.07s-.03.07-.02.14c.01.12 0 .14-.09.15-.08 0-.09.01-.03.02s.07.05.05.14c-.05.22-.06.24-.18.24-.11 0-.12-.01-.09-.2zm.19-1.35c-.02-.04-.03-.03-.03.03 0 .05.01.07.02.06.01-.02.01-.06 0-.09zm.17-.16c.01-.04.01-.07-.02-.07-.02 0-.05.03-.07.07-.02.04-.01.07.01.07s.05-.03.07-.07zm.12-.1c0-.04-.02-.07-.05-.07-.03 0-.04.03-.02.07.01.04.03.07.04.07.01 0 .02-.03.02-.07zm-.02-.61c-.02-.02-.06-.02-.09-.01-.04.01-.03.02.03.03.04 0 .07-.01.06-.03zm4.55 2.06c-.05-.06-.06-.16-.03-.42.03-.31.02-.37-.07-.48-.05-.08-.11-.2-.13-.27-.02-.07-.1-.2-.18-.28-.16-.16-.4-.47-.4-.53 0-.02-.07-.12-.16-.23-.13-.16-.16-.24-.18-.5-.01-.17-.01-.26.01-.21.03.09.03.09.06 0 .02-.05.01-.1-.03-.12-.05-.03-.05-.06-.01-.13.03-.06.04-.1.01-.11-.03-.01.01-.14.09-.29.1-.2.14-.34.14-.52 0-.32-.12-.67-.29-.84-.07-.07-.12-.16-.11-.2.01-.04-.01-.06-.07-.06-.05 0-.11-.02-.12-.05-.04-.06.02-.38.06-.35.02.01.03-.03.03-.09s-.01-.1-.03-.09c-.01.01-.02.05-.02.08 0 .08-.12.07-.18-.03-.04-.07-.04-.09.02-.13.14-.09.21-.05.46.26.07.09.11.18.09.26-.01.07 0 .12.03.1.05-.03.15.1.32.44.14.29.14.42.01.37-.05-.02-.07.02-.07.11 0 .08-.02.14-.04.14s-.05.09-.04.2v.2l.05-.2c.03-.11.06-.2.08-.2.02 0 .02-.04.01-.09-.02-.06 0-.09.05-.09.09 0 .16.15.09.17-.03.01-.04.04-.03.08.02.07-.13.64-.24.85-.03.06-.1.12-.14.14-.07.02-.08.05-.06.16.01.08.03.16.03.18 0 .02.02.04.05.04.03 0 .04-.03.02-.08-.07-.17-.08-.24-.03-.24.03 0 .05.01.04.03-.01.02.01.1.02.18.09.36.13.49.17.49.03 0 .09.09.14.2.05.11.17.29.27.41.18.22.3.46.26.5-.01.01-.03 0-.03-.03s-.02-.05-.04-.05-.03.03-.01.07c.01.04.06.07.11.07.1 0 .34.35.3.45-.01.04-.01.06.02.04.05-.03.1.19.06.28-.01.03-.05.06-.09.06-.05 0-.06.03-.04.11.05.2-.17.33-.3.18zm.05-.21c-.02-.05-.04-.09-.05-.07-.03.02.02.17.05.17.01 0 .01-.05-.01-.1zm.17-.49c0-.01-.03-.03-.05-.05-.03-.02-.05-.01-.05.02s.02.05.05.05.04-.01.04-.02zm-.45-.81c-.01-.04-.05-.08-.09-.08-.06-.01-.07 0-.03.04.03.03.04.07.02.08-.02.01 0 .02.04.02s.06-.03.05-.07zm-.19-.25c.01-.02-.01-.03-.05-.02-.04 0-.09.02-.1.04-.02.01 0 .02.04.02.04-.01.08-.03.1-.04zm-.31-.38c-.07-.08-.21-.09-.15-.01.02.03.08.06.12.06.05 0 .06-.02.02-.05zm-.47-3.26c0-.03-.02-.04-.05-.02-.03.01-.05.05-.05.07 0 .02.02.03.05.01.02-.01.04-.05.04-.07zm-.03-.14c.01-.02.01-.06-.01-.07-.02-.02-.04 0-.04.04 0 .08.01.09.05.03zM18.11 13c-.01-.02-.02-.114-.013-.21 0-.105-.02-.184-.05-.2-.08-.03-.08-.072.01-.18.09-.124.27-.03.23.12-.02.073-.02.083.02.037.02-.035.06-.05.09-.032.06.04.07.26 0 .26-.03 0-.05.057-.05.12 0 .094-.03.12-.12.12-.06 0-.12-.02-.13-.04zm.295-.293c0-.022-.02-.043-.048-.043s-.05.02-.05.046.02.05.04.05.04-.025.04-.05zm-.796-.31c-.06-.01-.18-.07-.26-.133-.08-.06-.22-.123-.32-.135-.18-.02-.28-.11-.33-.29-.07-.28.31-.33.58-.08.11.1.22.16.29.16.2 0 .45.26.4.41-.03.1-.1.11-.35.06zm-.3-.386c-.01-.03-.05-.05-.08-.05-.04 0-.03.02.01.05.09.06.11.06.07 0zm-.09-.13c.02-.02 0-.04-.04-.04-.03 0-.05.02-.04.04.01.02.03.04.04.04.01 0 .03-.02.05-.04zm-.89-.13c-.06-.04-.1-.12-.1-.18 0-.1-.01-.11-.11-.09-.16.05-.36-.01-.33-.09.02-.04 0-.05-.04-.04-.04.01-.08-.01-.09-.05s-.06-.07-.1-.07c-.04 0-.1-.03-.13-.08-.09-.11-.34-.24-.48-.24-.07 0-.15-.03-.19-.07-.08-.08-.1-.23-.03-.18.03.01.04 0 .02-.05-.03-.08-.21-.1-.21-.03 0 .03.04.03.08.02.05-.02.07-.01.05.03-.02.03-.08.05-.13.05s-.08-.02-.07-.05c.01-.03-.02-.05-.07-.05s-.1-.02-.12-.05c-.01-.02-.09-.05-.17-.05-.11 0-.13-.02-.11-.07.01-.04 0-.06-.02-.04s-.05.06-.05.1c0 .07-.1.09-.17.02-.03-.03-.05-.03-.05.02 0 .04.02.06.04.05.02-.01.04-.01.04.01s-.08.1-.17.17c-.13.1-.18.12-.21.07-.03-.04-.05-.03-.07.05-.02.05-.05.09-.07.08-.02-.01-.07.01-.1.05-.05.06-.05.06.02.04.16-.06.07.03-.1.1-.12.05-.19.05-.22.02-.03-.03-.03-.05.01-.05s.05-.01.04-.03c-.02-.01-.06 0-.1.03-.06.05-.1.04-.22-.07-.08-.08-.13-.1-.12-.06.037.09-.04.16-.23.2-.073.01-.19.07-.26.12-.127.09-.257.12-.215.06.01-.02-.04-.03-.12-.04-.11 0-.13 0-.06.03.15.06.02.09-.21.06-.17-.02-.21-.04-.2-.12.01-.05 0-.06-.01-.03-.03.06-.11.05-.43-.01-.06-.01-.12-.06-.13-.12-.02-.05-.05-.08-.07-.07-.02.02-.093 0-.16-.03-.14-.06-.145-.19-.01-.21.05-.01.11-.04.14-.07.03-.03 0-.04-.09-.02-.08.02-.15.06-.16.08-.03.08-.26.05-.42-.06-.155-.11-.2-.29-.09-.37.04-.02.03-.03 0-.03s-.08.03-.11.07c-.04.047-.105.06-.18.04-.11-.02-.116-.02-.04.03.05.03.125.05.174.03.05-.01.076 0 .06.03-.05.077-.32.01-.48-.102-.08-.06-.244-.14-.37-.18-.13-.04-.22-.1-.22-.14 0-.04.03-.06.06-.06.05.01.05-.01.01-.08-.03-.06-.09-.09-.174-.09h-.1l.13.02c.07.01.12.047.11.077-.02.08-.36.12-.82.1-.46-.02-.76-.154-1.28-.593-.18-.15-.42-.32-.53-.37-.144-.06-.23-.14-.295-.27-.05-.11-.173-.23-.3-.31-.12-.075-.28-.18-.35-.24-.08-.06-.2-.105-.29-.105-.23 0-.57-.11-1.01-.33-.31-.16-.387-.21-.387-.3 0-.06-.03-.16-.06-.23-.045-.1-.04-.13.02-.19.1-.1.23-.02.36.22.072.13.082.19.04.23-.04.04-.04.053 0 .053.03 0 .06-.02.06-.05 0-.02.04-.04.09-.04s.09.02.07.04c-.01.02.02.03.08.02.07-.02.14.01.18.06.11.15.27.2.58.2.24 0 .33.02.44.11.21.17.43.32.47.32.02 0 .1.064.17.144.08.08.26.225.41.32.15.096.33.25.39.345.07.09.14.17.16.17.03 0 .15.07.29.16.13.09.29.16.35.16s.13.02.15.05c.03.026.3.06.61.075.59.03.98.14.93.26-.02.06.17.18.3.18.04 0 .05.02.04.04-.04.066.22.096.31.04.11-.07.26.01.23.13-.01.08.07.16.16.16.02 0 0-.03-.05-.07-.13-.107.02-.02.19.105.08.06.2.11.27.11.08 0 .13.02.13.07 0 .04.02.06.04.04.03-.01.13.01.22.06.1.05.24.11.31.12s.13.07.13.1c0 .08.07.1.12.03.02-.03.118-.05.22-.05.17 0 .19-.01.19-.12 0-.09.02-.11.07-.09.04.02.07.01.07-.02 0-.02.03-.04.07-.04.04 0 .07-.03.07-.06 0-.04.05-.04.14-.03.07.02.15.01.16-.02.044-.07.17-.05.23.03.095.13.34.04.5-.18.07-.1.13-.16.13-.13 0 .04.03.04.11-.01.06-.04.1-.1.09-.13-.02-.09.09-.133.35-.14.32 0 .66.14.7.3.03.11.05.12.23.12.11 0 .22.03.25.06.09.11.64.36.76.35.09-.01.12.02.16.14.02.09.07.15.14.16.06.01.09.04.09.12-.01.06.01.09.04.06.08-.06.38-.04.36.028-.003.03.02.04.06.03.13-.05.076.15-.08.28-.173.15-.17.15-.305.05zm-.34-.34c0-.03-.01-.05-.02-.05s-.03.02-.05.05 0 .05.02.05c.03 0 .05-.02.05-.04zm.55.02c-.01-.02-.05-.02-.09 0-.03.01-.02.02.03.03s.08-.01.06-.02zm-.64-.33c-.03-.03-.07-.05-.09-.04-.02.01-.09 0-.16-.02-.08-.03-.12-.03-.1 0 .02.03.06.05.09.05.04 0 .09.03.12.07.03.04.09.06.13.04.06-.02.06-.04.02-.09zm-4.76.06c0-.04-.18-.06-.24-.02-.05.03-.02.04.09.04.08 0 .15-.01.15-.02zm.77-.07c.02-.03-.04-.04-.13-.04-.13 0-.14.01-.06.04.13.06.15.06.19 0zm-.82-.11c-.14-.13-.17-.13-.08.01.03.05.09.1.12.1.04 0 .03-.03-.05-.11zm.28.06c0-.03-.03-.05-.05-.05-.03 0-.04.02-.02.05.01.03.04.05.05.05.01 0 .02-.02.02-.05zm-.5-.24c-.03-.02-.09-.03-.14-.01-.08.03-.08.04.02.07.14.04.18.02.11-.05zm1.71-.09c0-.02-.03-.03-.06-.01-.04.02-.06.06-.06.09 0 .05.01.06.06.02.03-.03.06-.07.06-.09zm.35.1c-.02-.02-.07-.04-.11-.04-.06 0-.06.01.02.04.12.05.13.05.09 0zm2.19.01c.03-.04-.14-.04-.19.01-.02.02.01.04.07.04s.11-.01.12-.04zm-1.98-.1c0-.02-.03-.03-.07-.02-.04.01-.06.05-.05.07.03.05.12.01.12-.06zm1.92-.1c-.04-.03-.06-.04-.06-.01 0 .06.05.12.08.09.01-.01 0-.05-.03-.08zm-4.85 0c-.02-.02-.06-.02-.09-.01-.1.04-.09.06.02.05.05 0 .08-.02.07-.04zm4.75-.04c0-.03-.04-.05-.08-.05s-.06.02-.05.05c.02.03.05.05.07.05.02 0 .04-.02.04-.05zm-.7-.22c.06-.08.05-.08-.03-.01-.05.04-.11.08-.12.08-.01.01 0 .01.03.01s.08-.04.12-.08zm-.2-.23c0-.01-.08-.02-.17-.01-.14.01-.16.02-.09.04.08.04.26.02.26-.02zm-5.02-.22c.02-.03.02-.04 0-.02s-.07 0-.1-.03c-.04-.03-.09-.06-.12-.06s0 .05.06.1c.13.11.12.11.16.04zM8 9.84c-.324-.02-.81-.18-1.004-.333-.2-.153-.283-.203-.283-.172 0 .014.134.12.297.236.333.24.532.3.942.3.268 0 .27 0 .047-.02zm.058-.09c-.013-.013-.054-.015-.087 0-.03.014-.02.026.03.03.05 0 .08-.01.06-.027zm-1.536-.66c-.03-.05-.142-.136-.246-.193-.104-.057-.293-.2-.42-.32-.164-.153-.195-.17-.11-.063.068.087.136.19.15.24.016.05.134.137.263.197.13.06.26.14.28.17.08.09.14.07.08-.03zm-1.57-1.02c-.03-.012-.094-.012-.14 0-.045.01-.02.022.058.023.077 0 .114-.01.083-.022zm-.386-.035c0-.012-.02-.034-.047-.05s-.05-.007-.05.02c0 .028.02.05.04.05s.05-.01.05-.02zm.2-.057c-.033-.01-.086-.01-.118 0-.032.015-.006.026.058.026.065 0 .09-.01.06-.023zm-.64-.24c-.014-.022-.073-.055-.132-.07-.103-.026-.103-.024.01.06.117.09.175.095.123.01zm-.53-.31c-.012-.063-.054-.142-.094-.175-.064-.052-.066-.048-.022.034.028.05.062.13.076.174.038.13.065.1.04-.03zm6.026 2.656c.02-.102.156-.117.156-.016 0 .037-.04.076-.086.085-.062.01-.082-.007-.07-.07zm11.494-.036c-.03-.038-.05-.128-.04-.2.01-.104.037-.13.13-.13.13 0 .267.196.22.32-.036.094-.235.1-.31.01zm-.423-.31c-.182-.143-.653-.37-.72-.344-.03.012-.108-.022-.17-.075-.087-.08-.1-.12-.064-.18.1-.16.2-.18.38-.08.3.17.45.24.65.33.13.05.21.12.22.19.06.24-.1.32-.31.15zm-.18-.313c.057-.074.055-.076-.02-.018-.077.06-.102.1-.063.1.01 0 .046-.04.08-.084zM20.2 9.23c.014-.023.01-.054-.013-.067-.023-.014-.04.006-.04.043 0 .08.014.086.052.024zm-.166-.016l-.102-.077c-.072-.055-.08-.053-.054.014.017.05.063.08.103.08.04 0 .07 0 .06-.01zm-1.14-.506c-.206-.195-.346-.364-.332-.4.013-.034-.005-.062-.038-.062-.034 0-.137-.114-.23-.253-.092-.14-.262-.36-.376-.488-.115-.13-.223-.278-.24-.33-.02-.064-.07-.098-.144-.098-.062 0-.113-.023-.113-.052 0-.03-.09-.195-.21-.37-.11-.174-.25-.416-.29-.54-.04-.12-.17-.313-.28-.426-.11-.12-.2-.23-.2-.25 0-.07.16-.06.23.01.04.03.06.03.06.01 0-.03-.05-.08-.11-.12s-.11-.1-.11-.15c0-.05-.01-.09-.03-.08-.12.01-.21-.03-.34-.15-.18-.18-.25-.35-.18-.47s.06-.16-.01-.1c-.03.03-.16.04-.33.02-.23-.03-.27-.04-.25-.12.02-.07 0-.09-.06-.09s-.09-.03-.09-.12c0-.17.08-.29.24-.37.18-.09.29-.09.4.01.05.04.15.12.22.16.15.09.17.26.04.3-.05.01-.08.04-.07.06.01.02.07.01.12-.02.08-.05.11-.04.23.1.08.09.14.2.14.24 0 .04.02.08.04.08s.08.08.12.18.11.19.13.19c.03 0 .03.03.02.07-.02.04 0 .06.04.04.09-.04.21.25.13.3-.04.03-.03.04.04.06.07.02.15.14.26.37.18.39.25.61.17.59-.04-.01-.06.01-.06.09 0 .01.03 0 .07-.03.09-.07.26.03.38.22.05.07.15.21.24.32.09.1.16.2.16.22 0 .02.14.24.31.5.28.42.35.49.7.72.31.2.38.27.37.35-.01.08-.05.1-.19.11-.16.02-.2-.01-.53-.32zm.443.128c0-.01-.06-.054-.13-.097l-.128-.08.11.09c.1.09.14.11.14.08zm-.394-.285c0-.06-.01-.1-.02-.09-.012.01-.047-.01-.078-.05-.032-.04-.08-.06-.113-.04-.042.03-.022.07.07.17.073.08.133.14.136.14.004 0 .007-.05.007-.11zm-.15-.08l-.088-.1.105.09c.1.08.127.12.09.12-.01 0-.057-.04-.106-.1zm-.228-.44c-.052-.04-.087-.09-.08-.12.01-.03-.016-.02-.06.01-.08.07-.063.11.058.13.044.01.088.04.097.07.01.03.03.04.048.02.018-.01-.01-.06-.062-.1zm-.377-.53c.013-.01-.026-.02-.088-.02s-.103.02-.092.04c.022.04.142.03.18-.01zm-.654-.74c.015-.02-.005-.05-.04-.07-.046-.01-.06 0-.043.04.03.08.05.09.09.03zm-.348-.63c-.033-.04-.07-.06-.086-.04-.015.02.005.05.04.07.1.07.113.06.046-.02zM17 5.8c0-.01-.02-.036-.047-.05-.026-.018-.047-.01-.047.02s.02.05.047.05c.026 0 .047-.01.047-.02zm-.808-1.1c.005-.057-.022-.097-.06-.097-.082 0-.086.06-.01.13.03.03.057.06.06.06 0 0 .006-.04.01-.09zm-.61-.626c.016-.014-.002-.03-.044-.03-.04 0-.087.02-.1.04-.03.05.093.04.143-.01zm.157-.144c-.07-.08-.24-.097-.24-.024 0 .026.04.047.09.047.05 0 .1.023.12.05.01.028.04.04.05.025.01-.012 0-.056-.04-.095zM1.99 6.97c-.047-.047-.094-.057-.137-.03-.103.066-.193.05-.37-.06-.09-.055-.22-.095-.292-.088-.13.012-.18-.104-.07-.152.05-.017.05-.024.01-.027-.03-.002-.07.018-.08.043-.01.026-.1.047-.18.047s-.17-.02-.18-.047C.65 6.63.53 6.61.41 6.61c-.19 0-.24-.02-.308-.115-.1-.15-.058-.35.11-.504.1-.09.17-.11.34-.11.185 0 .23.02.292.13.094.16.097.28.006.28-.04 0-.07.02-.07.05 0 .03.04.03.09.02.046-.01.1 0 .12.03.044.08.243.06.274-.02.035-.09.165-.09.2 0 .022.06.06.05.187-.07.13-.11.2-.14.4-.15.37-.01.42-.01.53.03.09.03.11.02.11-.08v-.13L2.3 6c-.21.018-.51.055-.67.08-.23.045-.33.04-.53-.014-.37-.1-.363-.2.01-.16.17.02.537.01.86-.03.417-.05.635-.052.837-.02.2.038.305.035.394-.005.21-.09.52-.13.7-.08.1.03.2.05.22.04l.65-.02c.52-.02.64-.04.82-.13.25-.12.74-.29 1.01-.33.11-.01.36-.08.58-.15l.39-.12.21.18c.12.1.2.19.19.21-.01.02.04.02.12.01.11-.02.13 0 .13.09 0 .08-.02.1-.08.08-.07-.02-.07-.02.01.04.14.11.17.09.14-.07-.03-.14-.03-.14.13-.11.29.07.47.25.37.38-.05.06-.04.07.04.07.11 0 .18.09.12.14-.06.06-.56-.01-.55-.07.01-.03-.03-.04-.08-.03-.05.01-.09 0-.09-.02 0-.15-1.06-.43-1.14-.3-.02.03-.08.05-.15.05-.15 0-.15-.13 0-.16.07-.02.12-.05.12-.08 0-.02-.02-.03-.03-.02-.02.01-.19.05-.38.08-.21.04-.34.08-.34.12 0 .05.04.05.18 0 .24-.09.29-.08.29.02 0 .06-.04.1-.16.12-.09.02-.22.08-.3.14-.14.12-.24.15-.24.06 0-.03-.01-.04-.05 0-.12.09-.57.19-.89.19-.18 0-.39.03-.49.07-.15.07-.21.07-.44.02-.2-.05-.26-.08-.24-.13.02-.05.01-.04-.04.02-.04.06-.11.08-.2.07-.07-.01-.16 0-.19.02s-.11.02-.17.01c-.06-.02-.12-.01-.12.02 0 .09-.42.16-.82.12-.36-.03-.4-.02-.55.08-.09.06-.16.13-.16.15 0 .02.06.08.14.13.11.08.15.09.23.05.06-.02.15-.04.2-.04.06.01.14 0 .19-.02.05-.02.14-.01.2.01.08.04.11.04.09-.01-.01-.03.04-.09.12-.12.21-.09.27-.02.17.2-.1.21-.14.23-.42.24-.13 0-.3.02-.38.04-.1.02-.16.01-.21-.04zM.955 6.627C.94 6.613.9 6.61.865 6.625c-.036.015-.025.026.03.028.05.002.077-.01.06-.024zm.526-.077c0-.08-.01-.09-.04-.036-.02.037-.03.085-.02.105.04.06.07.04.06-.07zm-.94-.015C.52 6.52.48 6.517.45 6.532c-.04.014-.028.026.03.028.05.002.073-.01.06-.025zm.09-.253c0-.113-.19-.113-.26 0-.05.094-.04.1.11.085.1-.01.16-.04.16-.085zm1.51-.075c-.01-.015-.05-.017-.09-.003-.03.015-.02.026.03.03.05 0 .08-.01.06-.026zm2.45-.11c0-.025-.03-.033-.07-.02-.04.016-.07.037-.07.047 0 .01.03.018.07.018.04 0 .07-.02.07-.045zm-4.23-.08c0-.045-.01-.047-.06-.01-.03.03-.06.057-.06.063 0 .006.03.01.07.01s.06-.028.06-.062zm2.74.043c.01-.03-.02-.04-.07-.04s-.09.01-.09.03.03.03.07.03c.04 0 .08-.02.09-.04zm1.28-.1c.05-.08.04-.08-.11-.04-.13.04-.14.05-.08.08.12.04.12.04.18-.05zm.61.05c-.05-.01-.12-.01-.17 0-.04.01-.01.02.08.02s.13-.01.09-.02zM5 5.92c0-.01-.09-.02-.19-.02s-.19.01-.19.03.08.03.184.02c.104-.01.19-.03.19-.04zm-2.96 0c-.05-.02-.13-.02-.19 0-.06.01-.02.02.08.02.102 0 .15-.01.105-.02zm1.65-.01c0-.03-.05-.04-.1-.02-.05.01-.095.03-.095.04 0 .01.05.02.1.02s.09-.02.09-.04zm1.92-.04c.16-.05.27-.11.27-.14 0-.09-.01-.09-.21.03-.11.06-.25.1-.41.1-.185 0-.217.01-.13.033.17.05.18.05.474-.03zm-2.827 0c-.05-.02-.12-.02-.167 0-.044.01-.01.02.08.02s.13-.01.084-.02zm3.19-.02c0-.026-.03-.034-.07-.02-.04.015-.07.035-.07.045 0 .01.03.02.07.02.04 0 .07-.02.07-.046zm-1.16-.03c-.03-.014-.09-.014-.12 0s-.005.023.06.023.09-.01.06-.023zm1.48-.12c0-.03-.03-.018-.063.03s-.08.063-.1.044c-.02-.018-.02-.006 0 .027.03.05.05.05.1.01.036-.03.065-.08.064-.11zm-2.39.09c-.015-.015-.055-.017-.09-.003-.036.015-.025.026.03.03.05 0 .077-.01.06-.026zm4.795-.065c.014-.05.002-.107-.025-.124-.03-.02-.038-.01-.018.02.04.06-.03.07-.092.01-.027-.03-.043-.01-.043.07 0 .14.14.15.176.02zM5.97 5.558c.05-.06.048-.066-.016-.04-.043.015-.077.047-.077.07 0 .06.027.052.094-.03zm1.53-.1c-.044-.012-.117-.012-.162 0-.045.01-.008.02.08.02.092 0 .128-.01.083-.02zm.27-.062c-.016-.026-.064-.046-.108-.046-.068 0-.07.007-.01.046.093.06.155.06.118 0zm-1.133-.03c-.033-.014-.085-.014-.117 0-.032.012-.006.023.058.023s.09-.02.06-.03zm5.282 1.448c-.09-.035-.08-.178.03-.27.19-.173.7-.135.7.052 0 .105-.18.25-.31.25-.12 0-.16-.128-.06-.225.07-.07-.02-.06-.12.02-.06.05-.07.07-.03.09.03.01.04.05.02.08-.04.06-.15.07-.25.03zm.88 0c-.14-.055-.04-.257.18-.402.15-.095.27-.104.35-.025.07.074.07.27 0 .27-.04 0-.09.043-.12.095-.08.118-.22.128-.18.01.03-.077.02-.077-.04 0-.07.085-.1.094-.21.052zm.44-.418c-.02-.016-.06-.017-.09-.003-.04.015-.03.026.02.028.05.01.07 0 .06-.02zM9.97 6.6c-.082-.116-.095-.25-.03-.29.025-.016.067.01.095.055.04.068.045.06.02-.046-.025-.12-.015-.13.09-.13.126 0 .266.15.266.28 0 .1-.14.23-.27.23-.05 0-.13-.05-.17-.11zm.145-.01c0-.038-.018-.057-.04-.044-.022.014-.027.044-.012.068.037.06.052.055.052-.024zm.156-.026c0-.026 0-.047-.02-.047-.01 0-.03.022-.05.047-.01.026 0 .047.02.047.03 0 .05-.02.05-.04zm.8.06c-.23-.043-.31-.218-.16-.343.06-.05.08-.05.12.01.03.05.04.05.05.01 0-.04.07-.05.2-.04.24.02.32.06.32.17 0 .05-.02.11-.06.14-.07.06-.3.1-.45.07zm.08-.088c-.01-.016-.05-.017-.09-.003-.04.015-.02.026.03.028.05.01.08 0 .06-.02zm.19-.094c-.01-.015-.05-.017-.09-.003-.03.01-.02.02.03.02s.08-.01.06-.03zm2.08-.38c.01-.136.04-.22.07-.212.03.006.05-.027.04-.07-.02-.1.1-.264.17-.223.08.048.06.14-.05.288-.09.12-.09.126 0 .053.12-.103.21-.105.21-.006 0 .08-.3.39-.38.39-.02 0-.04-.097-.03-.22zm-4.21.14c-.15-.06-.25-.246-.14-.246.03 0 .04.025.02.054-.02.034-.01.042.02.02.04-.023.04-.058.01-.127-.1-.19.07-.296.29-.18.1.055.13.273.05.424-.05.09-.11.105-.23.055zm4.55-.618c-.07-.122-.02-.366.1-.428.05-.028.16-.04.24-.03.08.013.18.006.22-.015.04-.02.13-.04.19-.06.07-.01.17-.06.22-.12.18-.16.28-.1.2.12-.03.09-.07.12-.12.1-.04-.02-.06.01-.06.07 0 .1-.15.21-.21.15-.02-.01-.05 0-.08.04-.03.06-.05.06-.12 0-.07-.07-.09-.06-.26.11-.21.21-.23.21-.31.09zm1.14-.77c-.12-.092-.09-.334.04-.32.05.006.07 0 .04-.015-.09-.05-.07-.12.03-.12.07 0 .11.05.15.19.05.17.04.2-.03.25-.1.07-.11.07-.22-.01zm.23-.11c-.01-.015-.05 0-.08.03-.04.047-.04.053.03.027.05-.01.07-.04.06-.05z"/><path fill="none" stroke="red" stroke-width=".2" d="M23.874 11.878c0 .79-.607 1.43-1.356 1.43-.75 0-1.355-.64-1.355-1.43 0-.79.606-1.43 1.355-1.43.75 0 1.356.64 1.356 1.43z" stroke-linecap="round" stroke-linejoin="bevel"/><path fill="none" stroke="red" stroke-width=".2" d="M23.3 11.837c0 .455-.352.825-.786.825-.434 0-.785-.37-.785-.825 0-.456.35-.825.78-.825.43 0 .78.37.78.825z" stroke-linecap="round" stroke-linejoin="bevel"/></svg>