<?xml version="1.0" encoding="UTF-8" standalone="no"?>
<!-- Generator: Adobe Illustrator 16.0.0, SVG Export Plug-In . SVG Version: 6.00 Build 0)  -->

<svg
   xmlns:dc="http://purl.org/dc/elements/1.1/"
   xmlns:cc="http://creativecommons.org/ns#"
   xmlns:rdf="http://www.w3.org/1999/02/22-rdf-syntax-ns#"
   xmlns:svg="http://www.w3.org/2000/svg"
   xmlns="http://www.w3.org/2000/svg"
   xmlns:sodipodi="http://sodipodi.sourceforge.net/DTD/sodipodi-0.dtd"
   xmlns:inkscape="http://www.inkscape.org/namespaces/inkscape"
   version="1.1"
   id="Layer_1"
   x="0px"
   y="0px"
   width="21.295885"
   height="23.982922"
   viewBox="0 0 21.295885 23.982922"
   enable-background="new 0 0 900 900"
   xml:space="preserve"
   inkscape:version="0.91 r"
   sodipodi:docname="STSH.svg"><metadata
     id="metadata11"><rdf:RDF><cc:Work
         rdf:about=""><dc:format>image/svg+xml</dc:format><dc:type
           rdf:resource="http://purl.org/dc/dcmitype/StillImage" /><dc:title></dc:title></cc:Work></rdf:RDF></metadata><defs
     id="defs9" /><sodipodi:namedview
     pagecolor="#ffffff"
     bordercolor="#666666"
     borderopacity="1"
     objecttolerance="10"
     gridtolerance="10"
     guidetolerance="10"
     inkscape:pageopacity="0"
     inkscape:pageshadow="2"
     inkscape:window-width="1366"
     inkscape:window-height="747"
     id="namedview7"
     showgrid="false"
     fit-margin-top="0"
     fit-margin-left="0"
     fit-margin-right="0"
     fit-margin-bottom="0"
     inkscape:zoom="25.684944"
     inkscape:cx="10.647943"
     inkscape:cy="11.991461"
     inkscape:window-x="0"
     inkscape:window-y="21"
     inkscape:window-maximized="1"
     inkscape:current-layer="Layer_1" /><g
     id="g3"
     style="fill:#ffffff;fill-opacity:1;stroke:#000000;stroke-opacity:1;stroke-width:3.54368908;stroke-miterlimit:4;stroke-dasharray:none;stroke-linejoin:bevel;stroke-linecap:round"
     transform="matrix(0.02821918,0,0,0.02821918,-2.0582307,-0.70501997)"><path
       d="m 824.819,283.312 -0.118,-0.306 -0.715,-0.832 -0.231,0 -5.801,-6.163 -0.717,-0.914 0.153,-0.856 -0.704,-1.804 -0.714,-1.195 -0.095,-0.223 1.159,-1.254 0.938,-1.49 1.313,-0.256 0.785,-1.186 -0.035,-0.268 2.189,-2.566 0.27,-0.446 0.669,0.903 1.909,-0.856 0.963,-0.82 0.326,-1.042 -0.41,-1.208 0.315,-1.898 -0.537,-1.242 -1.863,-1.828 -0.199,-0.303 -0.035,-0.412 0.366,-2.097 -0.683,-1.839 -1.499,-0.714 -1.569,-1.068 -0.914,-1.183 -0.984,-0.375 -1.898,-1.383 -2.144,-0.666 -1.839,0.984 -0.54,0.421 -0.094,0.024 -1.478,-0.632 -1.349,-0.397 -1.885,0.116 -0.48,-0.211 -1.078,-1.066 -2.344,-1.477 -1.1,-0.34 -1.524,0.06 -0.469,0.106 -1.712,1.089 -0.69,0.011 -1.384,0.446 -0.68,0.783 -0.199,-0.081 0.469,-0.527 -0.27,-1.97 -0.256,-0.338 0.504,-0.364 1.229,-1.3 0.551,-1.313 -0.07,-0.961 2.004,-1.137 1.113,-2.039 -1.173,-2.296 -1.944,-1.945 -1.02,-1.888 -0.351,-0.573 -0.963,-0.879 0.2,-1.803 -0.092,-1.467 -1.664,-0.233 -4.792,1.477 -1.313,1.488 -0.354,0.587 -0.971,-1.748 0.655,-1.336 2.578,-0.797 1.523,-3.491 -0.354,-1.349 -0.865,-0.809 -1.479,-0.75 -2.014,1.313 -1.009,-0.797 -0.984,-1.783 -3.832,-4.089 -1.615,-0.116 -2.049,1.687 -0.788,0.492 -0.983,-0.023 -1.101,0.269 -1.232,1.208 -0.645,0.142 -1.346,0.831 -0.202,0.305 -0.971,0.317 -0.502,1.136 -1.421,0.445 -0.971,1.031 -0.868,0.07 0,1.921 -0.116,-0.011 -0.528,2.027 0.06,1.148 -0.035,0.258 -0.011,0.012 -0.739,-0.024 -1.478,-0.527 -1.229,-0.198 -0.774,-0.844 -2.767,-0.669 -1.825,-0.926 -1.793,-0.457 -0.855,-0.41 -0.634,0.693 -1.265,-0.55 -1.277,-0.352 -1.23,0.045 -0.048,-0.456 -2.621,-2.695 -1.373,-0.867 -1.698,-0.658 -1.805,0.177 -0.412,0.526 -1.289,2.637 -1.591,0.058 -0.658,0.094 -1.488,0.788 -0.502,1.042 -0.577,-0.047 -1.92,1.241 -1.782,4.267 -0.07,0.081 -1.219,-0.318 -1.734,0.436 -0.409,1.839 0.259,0.949 0.62,1.148 -1.499,0.221 -1.139,1.396 -0.361,0.117 -0.048,0.517 -0.609,0.21 -1.92,1.769 -1.033,-0.293 -1.184,1.089 -1.416,-0.186 -2.896,0.221 -1.955,0.563 -0.224,0.036 -1.348,-0.211 -0.796,0.105 -0.479,0.387 -1.489,0.399 -1.032,1.054 -0.092,0.563 0.046,0.937 -0.432,2.285 -0.014,1.032 0.081,0.785 -0.035,0.842 -0.245,0.832 -2.053,1.97 -0.689,1.007 -1.546,0.856 -0.833,1.499 -0.596,-0.691 -1.108,0.622 -2.004,1.569 -0.609,0.679 -0.669,1.196 -0.45,1.804 0.485,1.572 0.734,0.279 0.76,0.233 -0.07,0.974 -0.396,0.41 -0.914,0.247 -1.394,1.383 -1.138,0.397 -0.141,-0.233 -2.098,-0.446 -0.505,0.925 -1.404,-0.41 -0.453,-0.409 -2.05,-0.457 -0.404,1.429 -0.141,0.55 -0.979,-0.093 -0.669,0.07 -1.48,0.726 -1.407,1.758 -0.356,0.14 -1.143,-0.198 -1.025,0.046 -0.954,-0.54 -1.742,-0.479 -5.53,0.186 0.229,2.555 -0.836,1.768 0.098,1.572 1.178,2.823 2.684,2.825 1.683,0.422 1.289,1.769 1.615,-0.165 2.157,-0.808 0.375,-0.06 1.095,0.06 0.833,-0.305 2.589,3.526 -0.585,0.809 -0.286,1.042 0.021,0.516 -1.478,2.309 0.987,0 0.1,1.359 0.701,1.431 1.787,1.687 1.071,2.063 0.013,0.657 -0.498,0.151 -0.774,-0.597 -1.429,-0.622 -2.508,0.809 0.069,0.152 -1.084,0.222 -1.499,1.231 -0.461,0.258 -0.769,0.105 -1.407,-0.399 -0.713,0.024 -0.819,0.224 -1.254,-1.737 -2.479,-0.396 -0.957,0.176 -1.06,0.913 -0.51,1.77 -0.286,0.165 -0.787,-0.446 -1.575,-0.422 -1.812,0.06 -1.194,-0.141 -1.141,0.012 -1.362,0.726 -6.922,0.445 -3.23,-0.374 -2.888,-1.396 -2.813,-1.839 -1.953,-0.443 -0.882,0.338 -1.197,1.079 -0.749,-0.024 -0.955,0.071 -1.604,1.276 -0.334,2.005 -3.387,0.445 -1.289,0.399 -0.335,0.035 -1.046,-0.481 -1.338,0.106 -0.773,0.879 -1.774,-0.667 -1.119,-0.142 -0.334,-0.645 -1.22,-0.879 -1.763,-0.667 -1.359,-0.246 -1.384,0.188 -3.028,-1.851 -2.688,0.549 -0.792,0.786 -0.545,0.139 -1.346,-0.081 -0.321,-0.081 -0.809,-1.312 -1.912,-1.537 -1.049,-0.456 -0.885,0.047 -1.569,-1.935 -0.897,0.131 -0.222,-1.126 -0.31,-0.786 -0.645,-1.042 -2.554,-1.593 0.297,-0.939 1.612,-0.491 1.219,-1.208 0.092,-2.449 -1.476,-0.89 -2.623,-2.121 -0.335,-0.492 -0.475,-2.378 -0.447,-0.504 0.469,-1.793 0.335,-0.855 0.153,-6.609 -0.369,-1.382 -1.324,-1.534 -0.081,-0.117 0.046,-1.056 -0.24,-0.772 -1.073,-1.324 -2.144,-1.429 -2.554,-0.611 -1.229,-1.135 -1.712,-0.131 -2.01,2.157 -0.059,-0.023 -0.974,0.315 -1.785,1.454 -4.277,0.75 -0.813,0.317 -0.529,-0.083 -0.649,0.037 -0.963,0.339 -0.787,1.582 0.146,1.219 0.49,1.22 0.99,1.311 0.518,0.129 0.421,1.301 -0.234,0.997 -0.151,2.694 -1.02,2.86 -0.41,1.816 0.122,0.867 0.539,1.334 -0.151,1.149 0.3,1.488 0.577,0.904 -0.461,2.202 -0.211,0 0.086,0.597 0.318,2.156 -0.172,1.078 0.107,0.705 1.796,2.611 1.027,0.575 0.931,0.844 1.297,2.028 1.101,1.429 0.714,2.026 0.41,1.032 0.194,1.184 -0.135,1.125 -0.758,2.718 -0.205,1.991 0.213,1.877 -0.345,1.018 -0.063,0.071 -0.531,-0.294 -1.435,-1.921 -0.21,0.037 -0.324,-0.916 -2.265,0.657 -0.323,0.351 -1.055,-0.363 -1.712,0.75 -0.017,0.188 -0.27,-0.128 -1.179,0.457 -1.141,0.925 -0.148,0.07 -2.168,-1.089 -1.475,-0.363 -1.052,0.058 -1.211,0.339 -1.378,0.903 -0.464,0.878 -0.262,-0.434 -1.389,-1.323 -0.86,0.305 -1.383,0.303 -1.03,-1.275 -0.903,-2.087 -0.159,-0.655 -0.842,-1.712 -1.796,0.059 -1.356,1.617 -1.401,0.609 -1.569,1.009 -0.2,1.03 -0.175,0.212 -1.025,-0.374 -1.602,0.209 -0.14,0.294 -3.007,-1.477 -0.842,-0.645 -4.5,-2.179 -0.845,-0.306 -0.531,-0.104 -0.822,-0.693 -1.154,-0.234 -2.058,0.574 -0.245,0.105 -1.326,-0.329 -0.24,0.014 -1.963,-1.149 -1.647,-0.599 -1.235,0.446 -0.828,0.094 -1.81,1.629 -1.003,-0.574 -0.502,0.139 -0.893,-0.619 -0.539,-0.891 -0.216,-2.049 -0.504,-1.455 -0.798,-0.995 -2.875,-1.582 -0.909,-0.328 -2.712,1.228 -1.564,1.009 -1.569,-0.117 -1.197,1.511 -0.267,0.094 -1.939,-0.508 -0.264,-0.246 -0.602,-2.343 -2.208,-0.879 -0.979,0.105 -0.593,0.188 -1.275,-0.622 -0.48,-0.152 -0.194,0.024 -0.274,-0.14 -0.235,-0.576 -0.758,-1.019 -1.375,-0.843 -1.24,-0.399 -0.798,-0.854 -1.435,-0.304 -1.093,0.398 -2.159,-0.574 0.385,-1.524 -0.04,-0.504 0.194,0 -0.291,-1.184 0,-0.023 -0.473,-1.933 -0.156,0 -0.299,-0.808 -0.796,-1.349 -0.868,-1.019 -1.237,-0.902 -8.136,-1.618 -0.888,-1.042 -1.392,-1.089 -0.504,0.081 -0.513,-0.55 -0.979,-0.469 -0.467,-0.995 -1.836,-0.422 -1.402,0.667 -1.049,1.781 -0.078,0 -1.534,-0.411 -1.898,0.388 -2.667,1.066 0.118,0.188 -1.753,-0.88 -2.067,-0.771 -3.474,-0.493 -2.799,-0.035 -0.928,0.387 -0.82,0.598 -0.221,0.984 0.196,1.361 0.335,0.585 -0.081,0.188 -0.663,-0.903 -2.063,-1.652 -1.709,-0.725 -3.309,0.022 -1.389,-0.339 -1.433,-0.738 -0.709,-0.211 -3.079,-0.258 -1.184,-3.315 -0.545,-1.197 -1.084,-1.416 -1.67,-0.634 -3.392,0.984 -1.869,0.222 -0.447,-0.14 -1.445,-1.266 -2.349,-1.148 -3.676,-2.718 -1.405,-0.586 -1.518,-1.147 -1.465,-0.527 -1.833,-0.199 -1.523,0.775 -0.745,1.193 -2.432,-1.441 -1.235,-1.112 -0.663,-0.492 -2.341,-0.762 -0.464,-0.504 -3.492,-1.932 -1.237,-1.83 -1.416,-1.112 -1.349,-0.515 -1.184,0.28 -2.152,-2.203 -1.234,-2.401 -0.969,-1.115 -1.105,-0.644 -3.651,-0.771 -0.374,-0.786 -1.399,-0.751 -0.802,0.294 -0.528,-0.128 -0.833,-1.559 -0.865,-0.352 -1.511,-0.129 -1.572,-1.242 -0.485,-0.305 -1.057,-0.328 -0.9,-1.079 -0.845,-0.68 -1.389,-0.363 -1,-1.429 -2.292,-0.048 -1.271,0.809 -0.375,0.867 -1.178,-0.058 -0.51,0.153 -0.938,-1.382 -0.364,-0.363 -0.79,-0.458 -0.726,-0.657 -2.508,-1.018 -1.078,-1.173 -1.365,-0.831 -0.749,-0.224 -0.275,-1.194 0.027,-0.282 1.167,-0.974 0.321,-1.405 -0.355,-1.218 -0.041,-0.961 1.955,-0.504 0.914,-1.524 -0.051,-0.141 0.057,0.025 0.242,-4.126 -0.037,-0.702 -0.643,-1.63 -0.773,-0.561 -0.224,-0.622 -0.574,-0.867 0.31,-0.211 0.243,-0.692 0.816,-1.207 0.553,-1.266 -0.029,-0.198 0.574,-0.855 0.485,-1.383 -0.175,-1.056 -1.399,-2.669 -0.041,-0.212 1.47,-0.504 0.75,-0.774 1.305,-2.26 0.375,-0.961 0.153,-0.997 0.874,-0.247 2.079,-1.816 1.084,-2.026 1.278,-1.243 0.72,-1.382 0.27,0.059 1.454,-0.55 1.729,1.205 0.25,-3.011 -0.104,-0.925 -1.295,-1.77 -1.753,-0.974 -1.938,-0.515 -2.373,-0.96 -1.13,-1.429 -1.712,-1.336 -3.099,-1.583 -0.909,-0.303 -1.364,0.222 -1.003,-0.551 -1.246,-0.433 -2.912,-1.5 -2.332,-0.69 -0.769,-0.926 -0.315,-0.516 0.749,-2.332 -0.545,-0.668 -1.28,-0.948 -0.753,-0.914 -1.141,-0.797 -1.323,0 -0.675,0.433 -0.809,-0.997 -1.055,-0.808 -2.149,-0.879 -0.809,-0.469 -1.222,-1.405 -0.407,-0.387 -3.471,-1.161 -0.859,-0.07 -1.354,0.375 -1.095,0.094 -0.464,0.104 -1.006,0.586 -1.617,-1.5 -1.096,-0.772 -1.186,-0.247 -0.148,0.012 -1.208,-1.865 -2.304,-0.96 -1.089,-2.566 -0.903,-0.48 -0.698,-1.102 -0.562,-0.586 -0.094,-0.726 -0.785,-1.056 -0.919,-0.387 -0.464,-0.797 -2.249,-1.615 -1.2,-0.564 -2.727,0.552 -0.355,1.909 -1.343,-0.657 -0.632,2.602 0,0.012 -0.533,-0.059 -0.54,0.128 -0.239,-0.116 -0.089,-0.75 0.135,-1.383 -0.311,-1.863 -1.438,-1.03 1.232,-1.313 0.574,-0.844 0.135,-1.511 -3.087,-2.835 -0.534,0.035 -0.769,-1.711 -0.556,-0.503 0.3,-1.737 -0.111,-1.451 0.311,-1.571 -0.148,-1.207 -0.655,-0.949 -2.848,-1.911 -3.074,-3.198 -0.804,-1.137 -0.763,-0.809 -1.321,-0.738 -0.135,-0.762 -1.384,-3.152 0.265,-0.878 -0.294,-0.563 -1.658,-2.026 -0.219,-0.317 2.972,-0.106 1.308,-0.268 0.984,-0.515 1.208,2.471 0.672,0.986 4.781,3.69 2.068,0.703 1.879,-1.065 1.033,0.164 1.148,-0.164 0.801,-1.723 -0.167,-2.027 0.931,-0.294 1.674,0.587 1.454,-0.435 1.019,-1.616 1.923,-1.921 1.001,-1.664 0.464,-1.619 -0.043,-1.321 -0.607,-1.865 -1.782,-1.58 -0.69,-1.49 -0.925,-1.289 -2.041,-1.569 -0.361,-0.41 -0.159,-0.563 0.029,-0.504 -0.283,-1.617 0.528,-1.887 -0.695,-2.178 -1.607,-0.75 -2.499,-0.235 -2.802,-1.231 -1.56,-0.245 -0.186,-0.399 -1.647,-1.219 -1.43,-0.468 -1.998,-2.192 -3.093,-2.425 -0.645,-0.762 -0.779,-1.463 -1.179,-5.87 -0.749,-2.134 -1.009,-2.107 -2.085,-3.504 -0.253,-1.441 0.769,-0.657 2.378,-1.148 1.934,-2.496 0.089,-1.347 -0.224,-1.173 -0.386,-0.995 -1.502,-2.097 -1.219,-0.996 -2.729,-0.984 -0.75,-0.375 -1.575,-1.559 -3.217,-2.04 -1.634,-0.632 -6.259,-1.031 -0.92,-0.363 -0.954,-0.692 -0.556,-0.644 -3.241,-6.011 -1.834,-1.969 -1.289,-3.047 -0.533,-1.126 -3.644,-4.452 -1.343,-2.026 -0.326,-1.827 0.28,-1.559 0,-2.063 -1.2,-2.333 -2.891,-0.151 -1.03,0.62 -0.949,1.184 -2.119,-2.391 -17.441,12.832 -1.119,1.792 0.911,2.132 0.02,0.176 -0.984,0.984 -1.313,-0.374 -1.165,0.103 -1.229,0.388 -1.494,1.254 -0.049,1.64 0.464,1.466 -1.208,1.522 -1.534,0.354 -1.24,-0.763 -2.05,-0.433 -1.566,0.692 -2.813,1.898 -2.128,0.574 -0.355,0.011 -1.958,-0.739 -1.793,0.399 -0.669,0.75 -0.478,1.136 -2.286,1.875 -0.944,1.337 -0.04,0.047 -0.85,-0.095 -2.119,0.363 -7.578,-1.746 -1.984,-0.995 -0.922,-0.914 -1.435,-0.902 -1.54,-0.037 -1.519,0.375 -2.179,0.119 -9.139,-1.734 -7.324,-2.392 -1.874,-0.315 -1.776,0.162 -1.985,0.775 -1.863,1.582 -3.831,0.762 -2.304,1.816 0.254,1.513 0.485,1.089 0.024,0.093 -0.92,0.774 -0.518,1.511 0.205,0.972 -0.661,0.585 -0.493,1.361 0.1,1.125 0.556,1.324 1.063,1.068 1.243,0.666 1.855,0.434 0.738,-0.083 1.448,1.946 -0.723,0.436 -1.189,1.463 -0.016,1.805 0.625,1.278 1.079,1.194 1.154,0.785 1.75,0.445 1.747,-0.48 1.65,0.527 1.513,-0.128 0.733,-0.189 0.3,-0.011 0.351,0.387 -0.2,0.75 -0.766,0.762 -3.436,0.76 -0.825,0.998 -0.854,2.342 -0.107,1.079 0.193,1.477 0.329,0.925 0.686,1.102 2.073,1.548 1.653,0.76 1.289,0.878 0.485,0.998 0.013,1.816 -0.213,2.016 -0.191,0.643 -0.703,0.329 -1.149,0.902 -0.315,1.336 0.28,1.664 0.804,1.511 3.198,2.484 1.888,2.003 1.521,0.88 2.702,0.514 0.219,0.119 0.531,1.687 0.588,1.371 0.016,0.165 -0.609,1.475 1.473,1.924 0.836,0.573 1.488,0.339 1.399,-0.551 0.58,0.481 0.833,0.433 0.615,0.152 2.389,-0.305 0.179,-0.059 0.585,1.7 0.072,0.399 -0.331,1.768 1.731,3.353 1.17,1.183 1.845,0.763 1.289,-0.083 1.092,-0.315 0.372,-0.024 2.017,0.914 1.476,-0.14 1.254,-0.481 0.224,-0.023 2.473,1.454 2.139,0.562 3.422,2.226 0.604,0.609 -0.374,0.61 -0.332,1.217 -1.696,0.774 -0.804,0.856 -0.059,0 -0.586,0.351 -1.482,-0.527 -2.74,0.622 0.392,0.877 -0.375,0.622 -0.394,-0.047 -1.44,0.271 -0.019,0.035 -1.376,-0.457 -1.014,2.273 0.006,0.573 -2.079,-0.422 -0.68,2.228 -2.028,1.839 -0.509,0.681 -0.427,1.205 0.092,1.043 -1.073,2.485 2.866,3.443 1.402,2.919 1.055,1.312 0.011,0.036 -0.404,0.819 -0.755,3.69 -0.049,0.903 0.288,1.313 -0.15,1.147 0.092,0.808 0.369,1.148 1.24,1.641 1.208,0.634 -0.447,0.797 0.113,0.504 -0.151,0.304 -0.404,0.022 -1.329,0.481 -0.804,0.785 -0.259,0.422 -0.597,-0.07 -1.138,0.41 -0.515,0.422 -0.771,1.77 0.103,0.186 -0.404,0.2 -0.574,1.394 0.28,0.48 -1.157,1.958 -0.024,0.363 -0.274,0.259 -0.06,0.373 -0.715,0.436 -0.998,1.042 -0.723,1.862 0.297,1.055 -0.674,0.411 -1.359,2.753 0.229,0.224 -0.418,-0.047 -1.205,0.738 -1.476,2.916 2.589,1.291 1.108,1.522 0.478,1.009 -2.98,3.07 -0.512,0.352 -4.264,1.031 -4.816,2.508 -0.72,1.089 -1.283,12.116 -2.877,9.233 -1.3,2.448 -0.521,1.395 -0.424,1.933 -12.398,7.441 -0.637,0.504 -1.858,2.895 -0.563,1.604 -0.504,6.386 -0.191,1.196 -0.421,1.137 -3.306,3.527 -1.85,3.177 -0.324,0.913 -0.113,1.184 0.283,3.163 -6.55,2.203 -1.704,0.152 -2.414,-0.175 -2.432,0.245 -2.344,0.563 -2.104,0.809 -5.49,3.128 -1.594,0.364 -1.254,-0.152 -1,-0.656 -0.968,-1.147 -1.041,-1.795 -0.154,-1.219 -0.504,-1.24 -2.748,-2.625 -0.96,-0.645 -1.024,-0.492 -1.079,-0.328 -0.89,-0.118 -3.527,1.078 -2.017,2.368 -1.634,1.464 -2.122,2.755 -1.427,6.972 -2.058,2.67 -1.294,2.849 -2.247,2.706 -1.499,1.243 -1.723,2.167 -0.027,0 -0.475,0.599 -0.035,0.081 -1.941,2.438 0.938,0 -0.424,2.706 0.027,7.476 0.602,2.11 1.232,1.217 4.633,1.982 3.211,2.447 1.95,0.82 6.391,-0.269 1.262,0.48 0.475,0.54 0.407,3.245 0.237,1.021 -0.242,1.709 0.553,2.028 0.029,0.772 -1.148,3.106 -0.178,1.137 0.183,2.928 1.071,2.683 1.202,1.641 1.373,1.454 1.06,0.832 0.426,0.457 0.814,1.723 0.658,0.959 2.324,1.115 1.739,0.386 3.258,-0.093 2.955,-0.95 1.017,7.066 0.429,1.406 1.928,2.296 0.375,1.068 0.769,1.242 1.16,1.172 1.698,1.371 0.456,0.491 1.718,4.711 0.86,1.839 1.032,1.734 1.82,2.52 1.208,2.685 -1.154,0.632 -0.485,1.255 -0.218,1.627 0.34,1.617 0.404,0.352 0.129,0.855 0.534,1.898 0.596,0.329 -0.334,-0.024 -2.678,1.664 -1.095,1.605 0.184,0.563 -0.569,0.328 -0.078,0.024 -2.969,-0.259 -0.585,-0.292 -0.583,-1.709 0.642,-1.478 -1.227,-2.156 -2.209,-0.07 -2.917,0.773 -1.521,1.065 -1.499,0.106 -1.653,1.112 -2.144,0.599 -0.704,0.069 -1.364,0.646 -0.862,2.928 -0.421,0.599 -5.515,0.233 -1.194,-0.163 -0.79,-0.398 -2.177,-2.157 -1.265,-0.69 -8.459,-0.376 -2.033,0.843 -0.545,0.094 -1.677,-0.797 -1.055,-0.305 -0.876,0.177 -1.26,0.691 -0.504,-0.774 -0.383,-0.387 -1.276,-0.715 -1.637,0.375 -0.08,0.14 -0.51,-0.678 -3.312,-0.165 -0.9,2.755 0.971,8.565 -6.292,-0.024 -1.213,0.21 -0.844,-0.317 -1.955,0.645 0.011,0.364 -1.036,0.352 -0.779,1.03 -0.043,0.481 -0.744,0.526 -0.674,1.373 -0.17,0.609 -0.197,2.741 1.006,2.45 -0.72,0.233 -0.467,2.355 1.356,1.184 2.854,0.563 1.348,-0.093 0.925,0.151 0.839,-0.034 0.153,-0.129 0.017,1.007 0.669,1.84 -0.116,0.41 0.472,0.621 0.804,0.773 0.37,0.609 2.513,1.653 -0.45,1.382 1.084,1.746 0.92,0.2 0.989,1.559 7.629,5.682 4.605,2.003 2.858,1.957 1.893,1.115 1.664,0.538 2.413,0.246 0.734,0.329 4.373,1.336 0.655,-0.035 0.718,0.433 2.349,0.211 1.13,0.316 1.202,0.164 1.206,-0.877 0.763,-1.924 1.084,-0.877 0.825,-0.129 1.629,-0.598 1.303,-0.209 1.825,-0.775 1.292,-0.175 2.125,-0.82 0.135,0 0.728,-0.34 1.122,1.137 0.704,-0.305 -0.194,0.55 -0.69,0.926 0.141,1.382 -1.05,2.098 -0.563,1.536 -0.601,1.055 -0.381,1.217 -0.008,0.012 -1.955,-0.282 -1.359,0.131 -0.188,-0.471 -1.629,1.149 -1.663,1.758 -0.356,0.27 -0.68,0.045 -0.822,0.294 -0.141,0.188 -2.395,-2.051 -0.698,2.202 -0.274,1.045 -0.64,0.384 -0.467,-0.374 -0.242,0.42 -0.82,-1.709 -1.089,0 -0.475,0.105 -0.06,0 -1.68,0.223 0,1.371 0.17,1.347 -0.248,0.632 -2.131,0.106 -1.528,0.516 -0.24,0.621 -0.515,0.292 -0.858,0.165 -0.1,-0.047 0.213,-0.422 -0.137,-0.515 0.522,-1.019 -0.458,-1.559 -1.359,-0.961 -1.135,-0.2 -0.64,0.563 0.011,-0.211 -0.104,-0.667 -0.767,-1.102 -1.493,-0.258 -2.007,1.559 -0.606,0.55 -0.987,2.308 0.024,0.621 -0.45,1.572 0.151,1.042 1.294,2.32 0.499,0.96 1.857,1.83 1.101,1.416 0.378,0.716 1.69,1.499 1.502,1.886 4.059,3.62 1.389,0.797 1.413,1.793 0.55,0.457 0.844,0.435 2.678,3.036 1.898,1.17 3.778,3.854 1.138,0.785 1.389,2.156 2.128,2.402 1.24,1.112 3.074,3.832 2.926,2.345 3.497,3.175 0.85,0.551 1.095,0.961 2.039,0.937 1.178,1.174 3.077,1.828 4.233,1.814 0.928,0.691 1.049,0.399 0.672,-0.095 0.949,0.445 1.214,0.128 4.266,-0.28 1.095,-0.879 0.819,0.083 0.86,-0.681 0.698,0.093 0.173,-0.268 0.176,0.012 4.656,-2.707 1.529,-0.329 2.503,-0.913 1.064,-1.126 0.06,-0.539 1.723,-0.503 1.465,-1.254 0.874,-0.352 0.636,-0.422 0.358,0.082 0.903,-0.258 4.118,-2.965 0.779,-0.047 2.818,-1.359 2.003,-1.991 -0.148,-1.196 -0.313,-0.797 0.267,-1.394 -0.029,-0.141 0.58,-0.809 0.394,-0.949 1.089,-1.604 0.661,-1.465 0.534,-3.551 0.533,-0.938 0.055,-0.41 -0.101,-0.713 -1.513,-2.92 -0.89,-0.127 -0.288,0 -0.85,-1.664 -0.38,-0.198 -0.012,-0.026 0.726,-0.198 -1.119,-1.792 0.103,-0.998 0.559,-0.667 -1.229,-0.586 1.448,-0.069 0,-0.586 0.93,-0.76 0.949,0.443 0.089,-2.366 0.229,-0.657 -0.13,-3.573 -0.094,-0.494 1.054,0.41 0.165,-0.116 0.795,0.375 1.333,-0.2 -0.418,1.278 0.029,0.645 0.029,0.021 -0.315,0.916 0.194,1.348 -0.234,1.722 -0.02,0.913 1.483,2.486 0.739,0.771 -0.105,0.458 0.07,1.991 -0.375,1.592 -0.103,1.266 0.563,1.606 1.529,0.68 2.122,-0.645 1.416,0.234 1.548,-0.305 0.434,0.13 -0.15,0.409 -0.324,0.328 -1.035,0.386 -2.473,2.239 -1.02,2.424 -0.219,0.914 -0.539,0.575 0.245,0.681 -0.164,0.667 0.378,-0.068 0.398,0.513 0.86,2.509 2.033,2.215 -1.303,1.58 0.119,1.454 1.289,1.371 1.02,0.34 -0.046,1.313 2.049,-1.102 0.234,0.585 1.886,1.817 -0.421,0.515 1.089,1.265 -0.069,0.786 -0.119,0.351 1.052,0.692 -0.011,0.058 0.537,1.664 0.574,0.329 -0.767,0.632 0.813,1.173 0.193,1.275 -0.351,0.669 -0.104,0.68 0.386,1.958 0,0.409 -0.944,2.074 -0.286,0.914 -0.1,0.914 0,0.387 -0.85,0 -0.048,1.512 -0.556,1.71 -0.11,1.243 -0.06,0.152 0.105,1.019 0.129,0.491 -0.148,0.914 0.014,1.031 -0.41,2.133 0.205,1.841 -0.083,0.338 -0.779,0.481 -0.1,1.477 0.259,1.628 -0.3,1.102 0.17,0.893 0.844,1.019 0.055,1.03 0.455,2.109 0.283,-0.059 0.866,2.508 -0.13,0.608 0.439,1.441 -0.04,0.058 0.315,0.846 0.773,0.819 -0.104,0.28 0.806,3.259 0.822,1.267 -0.245,0.573 0.914,6.937 0.392,-0.492 0.245,1.488 -0.121,0.516 0.215,0.071 0.125,0.713 -0.502,0.984 -0.354,1.031 1.559,2.837 0.34,-0.352 1.13,0.971 1.073,-0.9 0.227,0.257 -0.819,0.61 -0.566,1.887 0.175,1.886 0.297,1.406 0.504,1.417 0.346,0.281 0.822,1.453 0.224,0.703 -0.213,0.528 -0.153,1.382 0.124,1.441 0.758,1.583 -0.024,0.162 0.11,0.74 1.111,1.322 -0.251,1.056 0.094,0.772 -0.45,1.852 1.483,0.387 0.531,2.039 0.078,0.246 -0.248,0.188 0.559,1.138 0.73,1.076 -0.054,0.481 0.593,1.956 1.6,2.673 0.479,1.406 0.868,1.335 0.119,0.597 0.32,0.717 -0.264,1.371 0.528,1.124 0.545,1.792 -0.1,1.148 0.334,0.88 1.225,1.476 0.069,0.116 -0.156,0.74 0.197,0.245 -0.259,0.388 0.558,1.991 0.944,0.795 0.485,0.797 -0.769,0.834 0.809,1.112 1.478,3.316 -0.237,0.729 0.683,1.042 -0.469,0.234 0.135,1.814 0.035,0.037 -0.159,0.34 0.93,1.254 -0.067,0.362 0.275,1.627 -0.229,0.353 0.505,1.735 0.515,1.077 0.199,0.292 -0.409,1.912 0.388,0 0.367,0.854 0.464,0.622 -0.165,0.819 0.165,0.493 -0.709,0.315 0.868,1.172 -0.194,0.668 0.064,0.973 0.612,1.406 0.771,2.017 0.555,0.926 0.022,1.64 0.668,0.315 1.349,3.715 0.739,0.891 0.409,2.249 0.346,-0.047 0.019,0.188 -0.488,0.608 0.311,0.834 0.479,0.889 0.729,0.751 0.146,0.538 0.966,1.487 2.275,2.016 1.26,2.053 0.191,0.551 0.048,1.101 0.297,1.229 0.963,0.729 0.596,1.313 0.764,1.3 0.288,0.315 -0.019,0.189 0.21,0.854 0.47,0.938 -0.065,0.877 1.208,1.338 0.191,0.044 0.542,1.62 -0.366,0.735 1.027,1.115 0.491,0.399 1.326,0.479 1.845,4.781 -0.265,0.479 -0.649,2.919 2.286,0.717 0.736,1.428 0.744,0.444 -0.019,0.435 0.545,1.84 1.343,0.809 0.426,0.691 0.294,0.867 -0.539,0.433 0.323,0.96 1.61,1.185 0.444,0.609 0.604,0.188 1.329,2.461 0.799,-1.102 0.034,0.152 -0.153,0.175 1.313,3.457 -0.105,0.786 1.214,1.112 0.79,0.129 0.326,0.586 0.229,0.913 0.239,0.517 1.022,3.679 0.504,0.739 -0.064,0.865 1.359,2.24 0.239,1.757 0.672,1.396 0.024,0.515 0.658,1.827 2.265,3.129 0.879,1.84 0.375,1.851 0.909,2.695 0.45,0.985 0.07,0 0.213,1.03 -0.011,0.153 0.32,1.675 0.046,0.692 0.65,1.826 -0.399,0.105 0.418,2.133 0.011,0.037 -0.116,0.387 1.58,3.818 0.254,1.396 1.165,3.901 0.159,0.315 -0.176,0.598 2.114,7.254 0.744,1.184 3.644,8.319 0.588,0.844 0.274,0.819 2.953,5.214 0.609,1.501 0.041,0.468 0.73,0.271 -0.046,0.27 0.628,1.969 1.105,2.436 0.289,1.207 0.245,0.598 0.739,0.903 0.426,-0.294 1.438,1.478 0.227,-0.153 1.003,1.968 1.917,2.521 0.612,-0.293 2.861,3.258 0.631,0.901 1.502,3.445 -0.095,0.587 0.855,1.241 0.129,0.669 0.72,1.324 0.435,0.186 0.925,0.271 4.8,10.333 1.562,4.945 0.645,2.836 0.739,1.757 -0.006,0 2.557,5.718 0.326,1.313 1.219,1.417 0.658,2.532 1.17,1.746 1.03,3.62 0.559,1.441 0.568,0.903 0.057,0.819 0.154,0.258 -0.052,0.305 1.306,3.784 0.439,0.784 -0.154,0.118 0.623,2.613 0.672,1.698 -0.701,1.571 1.1,-0.163 0.65,3.889 -0.116,0.797 0.879,4.77 1.716,5.319 5.094,11.693 0.272,0.411 -0.065,0.223 0.804,1.265 2.526,2.345 1.376,2.249 3.411,4.3 0.315,0.763 1.675,1.792 2.521,3.715 1.165,1.324 3.638,2.87 2.918,2.86 1.313,0.645 0.908,0.937 4.593,1.641 1.944,0.435 3.322,-0.471 -0.265,-1.687 0.793,-0.351 2.918,-0.575 1.245,-0.597 0.739,-1.23 4.854,-3.551 0.847,-0.411 0.963,-0.161 0.375,-0.647 0.639,-2.213 0.966,-1.219 0.609,-4.57 -0.064,-0.282 0.825,0 -0.871,-1.92 0.375,-1.009 0.671,-0.363 0.882,-1.267 -0.334,-1.393 -0.934,-0.06 -0.011,-1.652 0.693,-1.698 0.461,-0.691 3.287,-3.199 0.693,-0.538 0.854,-0.445 4.368,-0.703 1.567,-0.717 0.326,-0.632 0.974,-0.058 1.413,-0.916 0.916,-0.384 1.068,-0.599 0.685,-0.117 0.516,0.047 1.138,-0.211 0.569,-0.55 0.245,-0.025 0.539,0.047 2.044,0.786 0.629,-0.199 0.995,0.047 0.83,-0.492 0.493,0.177 0.216,-0.014 1.982,0.424 1.51,0.9 1.672,1.559 1.64,0.95 2.503,-1.829 -1.753,-2.016 -1.834,-1.452 -0.469,-0.585 0.28,-0.892 -0.655,-1.372 -1.834,-0.75 -1.934,1.196 -0.083,0.036 -3.039,-0.048 -0.944,-0.211 -0.599,-0.293 -1.949,-1.804 -0.658,-0.844 -0.361,-0.763 -0.024,-0.14 0.234,-1.184 0.046,-1.218 0.095,-0.482 0.755,-1.252 0.364,-1.454 1.119,-1.943 1.032,-1.127 0.41,-0.622 1.171,-2.811 1.294,-2.239 0.938,-1.111 2.402,-1.91 -1.912,-1.525 -0.374,-2.107 0.72,-0.55 0.067,-1.348 -0.038,-0.106 1.923,-1.452 0.019,-0.013 1.54,0.28 1.364,-0.258 0.37,0.389 6.498,1.463 3.522,-1.042 0.291,-0.774 0.24,-3.655 -0.499,-5.589 -0.278,-0.961 -0.342,-5.074 -0.626,-5.847 0.191,-1.84 -0.28,-4.992 -0.733,-2.964 -0.216,-2.437 -0.146,-0.632 -0.305,-0.329 0.064,-0.411 -0.364,-2.237 -0.85,-1.078 -0.388,-0.058 -0.505,-1.361 -0.213,-1.148 -0.008,-0.198 0.205,-1.382 -0.011,-1.068 0.291,-2.751 0.364,-0.457 0.329,-2.954 0.938,-3.233 -0.13,-1.137 0.591,-0.927 0.779,-2.097 1.857,-3.422 -0.199,-0.164 0.491,-0.62 0.814,-1.748 0.642,-0.443 1.89,-4.464 0.545,-1.98 0.081,-0.68 -0.011,-0.399 0.17,-1.265 0.545,-1.348 0.229,-1.688 0.399,-1.851 0.121,-2.393 -0.121,-3.572 0.194,-2.368 0.011,-0.844 0.72,-1.382 -0.353,-1.278 0.358,-0.831 0.159,0.059 -0.006,-0.516 0.046,-0.141 -0.046,-2.929 0.076,-1.137 -0.049,-1.172 -0.637,-2.284 -2.433,-5.392 -1.173,-2.916 0.488,-1.338 -0.029,-1.651 -0.604,-1.922 -2.289,-4.429 -1.359,-4.594 -0.159,-1.102 0.375,-1.7 -0.291,-0.267 0.41,-1.525 0.466,-0.819 -0.291,-4.254 0.164,-1.759 0,-0.422 0.122,-0.667 -0.146,-0.914 -0.464,-0.433 0.019,-0.317 -0.809,-2.144 -1.333,-1.267 -0.345,-1.559 -1.257,-4.567 -0.059,-0.658 -0.445,-1.24 -0.511,-3.239 0.469,-3.457 0,-2.848 -0.029,-0.188 0.568,-1.828 0.06,-0.351 0.931,-1.219 1.653,-3.269 -0.675,-0.341 0.825,-3.808 0.272,-0.609 1.68,-2.028 0.475,-0.375 0.85,-0.257 2.479,-1.583 0.016,0.023 0.984,-0.339 3.91,-0.738 0.461,0.703 0.712,6.89 2.929,-3.128 0.677,-2.72 1.192,1.02 1.259,0.855 0.45,0.023 0.949,-0.165 0.51,-0.609 0.399,-0.784 -0.1,-0.68 -0.534,-1.266 1.383,-1.219 1.055,-1.255 0.874,-0.175 0.32,-1.734 -0.15,-1.639 0.355,-0.973 0.229,-1.91 0.569,-1.957 0.124,-1.008 0.361,-0.563 0.404,-1.49 -0.17,-0.479 0.51,-0.375 0.216,-0.047 0.113,0.047 -0.47,1.887 4.112,-1.548 0.035,0 1.208,0.354 0.275,-0.06 1.693,0.315 0.72,0.329 0.47,-0.13 0.703,0.494 1.052,0.163 1.734,-0.363 2.667,-1.689 1.617,-0.303 1.349,-0.563 0.531,-0.07 1.068,-1.102 0.53,0.07 1.263,-0.75 0.671,-0.597 0.944,-0.541 0.482,-0.116 1.969,-2.005 3.2,-1.089 -1.28,-1.3 0.051,-0.552 -0.046,-0.175 0.435,-1.489 0.146,-1.089 -0.035,-1.487 0.259,-2.098 -0.086,0 -0.332,-3.037 -0.221,-0.854 -0.585,-1.065 -1.842,0.891 0.299,-0.785 0.159,-1.056 0.65,-0.772 0.679,-1.196 1.149,-0.655 0.952,-1.769 5.918,-4.488 0.777,-0.235 1.205,-0.796 0.793,-0.233 0.79,-0.47 0.801,0.093 1.483,-1.299 0.596,-0.176 0.979,-1.021 1.313,-0.948 0.68,-0.586 1.898,-0.786 0.844,-0.668 2.225,-1.066 -0.466,-1.159 1.493,-1.464 -0.086,-0.458 2.195,-2.871 0.329,-0.666 0.21,-1.326 0.755,-0.632 -0.081,-0.645 1.125,-1.102 0.93,-1.184 0.583,-1.406 4.188,-3.304 7.615,-4.056 1.588,-1.464 0.513,-2.344 -0.032,-0.022 1.658,-1.76 1.395,-1.908 1.459,-1.407 -0.246,-0.28 0.81,-1.382 1.03,-0.879 0.698,-0.916 0.04,-0.384 2.133,-3.259 1.77,-4.079 0.769,-0.408 2.713,-5.45 0.172,-0.798 -0.005,-0.034 1.688,-2.906 2.653,-2.917 1.982,-1.711 2.408,-3.011 1.259,-1.184 0.909,-0.436 0.96,-0.854 0.38,0.188 -0.016,-0.552 5.196,-3.058 0.879,-0.645 -0.064,-0.105 2.392,-1.453 0.556,-0.128 0.655,-0.317 0.556,0.035 0.412,-0.047 2.022,-1.03 3.864,-1.243 0.914,-0.14 0.095,-0.084 0.294,0.131 0.585,-0.058 5.25,-2.275 5.15,-3.397 -1.631,-0.597 1.753,-2.591 -0.035,-0.69 0.259,-1.652 1.48,-0.457 1.378,-0.682 2.318,-1.722 0.896,-0.855 -0.237,-0.269 0.655,-0.808 1.13,0.691 -0.334,-2.274 0.444,-1.862 -0.825,-1.254 -1.478,0.353 3.651,-3.821 1.044,-0.376 1.345,-1.09 0.998,-1.404 -1.064,-0.845 0.161,-0.714 -0.874,-1.816 -0.536,-0.494 0.105,-0.385 -0.804,-1.969 -3.743,-6.974 -0.464,-2.355 0.358,-2.002 0.82,-1.757 3.188,-4.418 0.839,-0.75 1.906,-1.183 0.277,0.01 0.739,-0.141 0.825,0.212 1.609,-0.352 3.312,-1.56 3.768,-1.17 0.124,-0.014 1.442,0.082 0.782,-0.268 1.523,-1.254 2.116,-1.289 0.796,-0.655 0.809,-0.974 1.823,-1.886 0.187,-0.585 0.305,0.267 -0.599,3.212 -0.07,0.949 0.049,0.667 0.836,1.733 2.885,0.786 0.854,-0.012 0.3,-0.189 0.885,1.737 0.366,-0.307 0.165,0.388 0.814,0.537 0.903,0.12 2.303,-1.032 0.104,-0.48 1.764,0.141 0.124,-0.095 0.566,1.559 1.693,0.938 3.843,-1.441 -0.375,-0.337 0.014,-0.951 1.529,1.43 1.955,0.233 0.369,-0.2 0.153,0.517 2.025,0.764 0.623,-0.282 0.259,0.035 1.646,-0.375 0.274,-1.945 -0.016,-0.07 0.221,0.128 1.669,-0.28 0.615,0.058 1.566,-0.877 0.197,-1.536 -0.28,-1.523 -0.814,-1.534 -0.799,-0.869 -1.06,-3.233 -0.194,-0.61 1.108,-0.772 -0.035,-1.711 -0.59,-2.508 -0.68,-1.348 0.9,-1.51 -0.704,-2.392 -1.305,-1.757 0.329,-0.27 -1.263,-1.84 -0.561,-1.663 0.156,-1.09 -0.272,-0.951 -0.703,-1.309 -0.574,-1.606 -0.416,-0.305 0.035,-0.646 -0.383,-1.312 -1.516,-3.245 0.351,-0.67 0.213,-1.804 -0.334,-1.755 -0.693,-0.634 -0.93,-0.433 -0.788,-1.431 -0.852,-1.053 0,-0.106 0.103,-0.867 -0.151,-1.454 0.974,-1.513 0.62,-0.619 0.38,-0.53 0.335,-1.309 -0.259,-1.068 -0.955,-0.785 -1.035,0.035 -2.384,-0.844 -0.704,-0.129 -1.254,0.305 -0.105,0.083 -0.908,-0.294 -0.081,-0.21 0.461,-1.08 0.909,-4.181 -0.105,-1.559 -2.015,-1.619 -0.763,0.728 -0.599,-0.363 -1.095,-1.454 -1.194,-1.056 -0.395,-0.105 -0.14,-0.585 -0.562,-0.42 0.092,-2.028 -0.057,-0.54 -0.224,-0.609 0.329,-0.996 -0.014,-0.258 1.038,-0.211 1.753,-2.038 0.396,-0.705 0,-0.948 -0.493,-1.7 0.323,-0.971 -0.286,-1.546 -0.809,-0.2 -0.504,-0.422 0.054,-0.504 -0.124,-0.75 0.954,-0.772 0.475,-2.263 -0.714,-1.885 -1.071,-1.501 -1.308,-0.88 -2.567,-0.632 -0.369,1.418 -2.338,-0.282 -2.454,-1.664 -7.545,-3.865 -0.715,-0.469 -0.323,-1.408 -1.381,-2.261 -0.429,-0.164 0.311,-0.622 -0.024,-0.491 0.453,-0.844 0.24,0.046 0.404,-1.359 0.76,-1.454 0.761,0.095 0.1,-0.012 1.408,0.351 0.439,0.036 0.943,-0.117 0.51,-0.491 1.346,-2.544 0.429,-1.3 -0.035,-0.609 0.24,-0.387 0.383,-1.664 -0.178,-2.414 -0.024,-0.154 1.272,0.364 0.62,-0.034 1.214,-0.634 2.257,0.725 1.99,0.247 0.92,-0.093 0.628,-0.623 1.084,0.389 4.533,0.351 -1.815,-2.367 0.046,-0.704 -0.069,-0.21 0.645,-0.574 0.429,-1.793 -1.284,-1.921 -1.718,0.152 -1,-0.703 -0.715,-0.047 -0.726,-1.254 0.151,-0.668 -0.311,-1.347 -1.599,-1.687 -4.22,-1.817 0.391,1.84 -0.332,0.387 -1.108,-0.585 -1.429,-0.142 -1.165,-1.007 -0.458,-0.716 -1.225,-0.586 -0.439,-1.803 -1.146,-1.16 -2.297,-1.499 -1.853,-1.84 -1.904,-1.056 -1.739,0.599 -0.299,0.116 -0.34,-0.445 -0.68,-1.583 0.28,-2.097 0.153,-0.504 0.678,-0.655 0.172,-1.429 -0.475,-1.219 -0.148,-0.152 0.043,-0.364 0.65,-0.561 1.99,-0.916 1.191,-0.855 0.404,-1.325 -0.288,-1.265 1.073,-0.901 0.075,-0.094 0.022,0.011 0.547,-0.058 2.705,0.445 -0.977,-3.434 -0.107,-0.209 1.213,0.949 1.265,1.685 -1.381,1.865 2.567,1.687 2.225,-0.937 0.931,1.372 1.453,0.69 1.788,-0.772 0.049,-0.257 0.331,0.292 1.842,0.703 1.546,-0.435 0.496,-0.245 0.542,1.641 0.299,0.55 0.69,0.774 2.189,1.031 0.24,0.151 0.311,0.668 1.695,1.125 0.586,0.573 1.604,0.939 1.454,0.223 0.286,-0.189 0.908,0.271 1.384,-0.153 1.715,1.348 1.623,-0.387 0.663,-1.265 -0.118,-1.313 0.863,-0.937 0.415,-1.536 0.264,0.397 0.37,1.161 1.116,1.536 -1.645,0.573 3.182,1.863 -0.58,1.664 0.07,1.079 1.189,3.433 0.79,1.383 0.404,0.997 0.153,2.026 0.346,2.168 -0.165,2.343 0.057,1.196 0.845,2.648 0.933,1.475 1.588,0.248 1.025,-0.483 0.32,-0.011 6.318,2.59 4.053,0.877 2.228,0.938 1.69,0.14 2.517,-0.597 2.243,0.21 1.035,-0.281 0.523,0.221 1.804,0.318 0.736,-0.142 0.144,-0.105 2.073,0.597 8.108,-1.523 1.478,0.058 0.955,-0.233 1,0.504 4.431,1.301 1.076,0.128 2.157,-0.446 0.666,0.504 2.063,0.235 1.214,-0.175 0.346,-0.445 0.706,0.093 0.617,-0.785 0.788,0.059 2.718,-0.352 1.693,0.27 1.205,-0.458 3.991,1.771 0.121,-0.035 0.723,0.632 1.23,0.622 1.617,0.282 0.315,0.351 1.22,0.68 0.784,1.194 0.69,0.259 0.118,0.07 -0.434,0.504 1.934,0.83 0,0.014 -0.399,0.151 -2.438,-1.383 -1.688,-0.573 -2.024,1.03 -0.235,1.723 0.857,1.946 0.116,0.597 -0.715,4.195 -0.069,1.348 0.046,0.832 -1.243,1.371 -0.046,1.359 0.434,1.827 0.011,0.364 -0.035,0 -4.061,-0.364 0.07,1.371 -1.117,0.375 0,1.688 0.473,1.522 -3.768,-0.678 -0.507,1.161 -2.537,-0.916 -0.313,2.531 0.049,1.653 -0.049,0.293 -0.755,0.093 -2.939,-0.561 -2.432,0.221 -0.553,2.157 0.124,0.926 -0.836,0.409 -0.774,0.703 -1.154,2.602 -0.17,1.089 0.715,1.816 -0.188,1.172 -1.359,0.504 -0.49,1.805 0.525,1.699 0.06,1.125 1.394,2.778 0.562,1.347 0.522,0.844 0.739,0.691 1.418,2.941 0.275,0.387 -0.07,0.315 1.944,6.257 0.521,1.277 1.349,1.711 3.468,0.926 -0.116,-2.579 0.585,1.548 0.394,0.657 0.176,0.386 0.989,1.525 1.049,0.538 1.23,1.617 1.178,-0.795 0.85,-0.69 0.024,0 1.615,-0.518 2.748,-3.384 0.409,-1.279 -1.604,-4.09 -0.455,-0.819 -0.2,-0.726 0.141,-0.856 0.458,-1.254 0.456,-0.855 1.125,-0.574 0.714,-0.552 1.289,-2.459 -0.175,-1.594 -0.516,-1.571 0.305,0.163 1.604,-0.469 0.715,-0.736 0.504,-0.87 1.969,2.58 0.386,-0.457 1.395,3.129 0.469,1.734 1.311,2.496 0.518,1.056 0.41,1.123 -0.315,1.042 -0.07,1.068 0.199,1.533 1.311,4.115 0.294,2.144 0.445,1.335 1.09,1.583 0.983,0.399 0.54,2.155 0.34,0.926 1.523,1.678 0.669,2.436 0.221,1.792 3.716,11.672 -1.009,1.158 1.219,2.824 0.667,2.027 1.442,-0.456 0.011,0.011 -1.324,0.902 0.645,1.63 1.653,-0.645 2.402,-1.677 0.364,-1.3 -0.188,-0.996 0.21,-0.151 1.853,1.664 0.432,0.48 0.563,1.828 1.804,1.617 1.523,-1.653 0.399,0.129 1.02,-0.21 0.539,-0.423 0.525,-1.311 -0.164,-0.949 -0.442,-0.868 1.591,-1.195 -0.431,-1.161 -0.014,-0.092 0.717,0.315 3.093,-1.066 -1.008,-1.466 0.434,-0.339 0.2,-1.147 -0.928,-4.594 -0.526,-1.266 -1.337,-1.488 -0.435,-0.96 -0.057,-0.351 0.07,-1.278 -0.07,-0.68 -1.359,-2.602 -0.188,-1.37 0.351,0.164 0.389,-1.979 0.809,-1.595 0.424,-0.96 -0.038,-0.914 -0.525,-1.429 -0.084,-0.128 1.197,-0.095 1.275,-0.574 0.822,-0.75 1.5,-3.902 -0.445,-3.831 -0.272,-1.068 -0.021,-0.315 0.305,-0.693 0.21,-1.102 -0.574,-2.53 -0.188,-6.584 -0.257,-1.336 -0.844,-1.408 -1.1,-1.054 -0.81,-2.776 -0.199,-1.396 -0.06,-0.198 1.278,0.212 1.111,-0.095 0.518,-0.351 0.515,0.305 1.408,-0.551 0.655,-0.926 0.291,-0.071 1.078,0.119 0.48,0.165 1.021,1.207 1.535,0.891 2.249,-0.306 2.321,0.704 1.626,0.703 1.678,1.711 1.933,0.094 1.149,-1.606 -0.234,-2.238 0.89,-1.77 0.21,-1.219 -0.021,-0.912 0.245,-0.388 0.035,-1.16 -0.083,-0.949 0.914,-4.383 0.014,-0.726 -0.06,-0.751 0.493,-0.574 0.326,-0.855 -0.011,-0.678 0.55,-1.149 -0.129,-1.079 0.645,-0.494 0.129,-1.99 1.265,-1.056 0.41,-1.488 0.119,-1.321 0.925,-0.506 0.69,-0.891 0.27,-2.988 0.704,-1.371 0.291,-0.808 0.132,-2.778 0.677,-1.793 -0.103,-1.594 -0.504,-1.674 -1.09,-1.641 -1.432,-0.657 -1.205,-0.247 -0.645,-0.233 -0.305,-0.362 -0.151,-0.622 0.585,-4.114 0.257,-0.655 0.385,-0.563 0.41,-0.352 1.012,-0.174 0.844,-0.282 0.655,-0.669 0.642,-1.382 0.424,-0.083 1.054,-0.891 0,-0.795 1.479,-3.422 0.561,-0.188 0.784,-0.703 0.176,-1.465 -1.381,-3.995 -0.035,-0.189 0.938,-0.597 1.86,-2.8 0.456,-1.347 -0.386,-1.523 -0.749,-0.693 -1.182,-0.513 -0.318,-1.033 0.211,-1.184 -0.445,-0.68 -0.458,-0.457 -0.643,-0.292 -0.657,-2.228 -0.011,-0.762 0.15,-1.228 -0.067,-0.622 -0.893,-1.909 0.729,-1.042 0.456,-1.301 -0.046,-1.021 0.679,-0.317 0.13,-0.186 1.205,0.14 3.541,-1.5 0.841,-0.551 0.963,-1.512 0.372,-1.359 0.188,-0.41 0.024,-0.011 1.44,0.105 1.349,-0.75 0.409,-1.453 0.505,-0.129 1.278,-0.54 0.83,-1.979 0.574,-1.03 1.243,-0.246 1.171,-0.61 0.983,-1.126 0.645,-1.416 0.47,-1.7 0.55,-1.197 0.949,-0.842 1.243,-0.645 6.305,-1.183 1.37,0.06 0.55,0.186 0.893,-0.093 1.58,-0.69 0.62,-0.775 0.354,0.153 1.395,-0.201 0.398,-0.303 0.232,-0.188 0.574,0.233 1.502,1.548 0.456,0.385 0.668,2.015 0.281,1.033 0.692,0 0.326,0.233 4.112,1.853 0.516,0.503 1.396,0.541 0.844,-0.128 1.006,0.398 1.664,-0.704 0.164,-0.82 0.165,-2.039 -0.011,-0.014 0.28,-0.021 -1.695,-1.798 z m -277.841,230.003 1.13,-0.188 0.879,-0.927 -0.528,1.467 -0.505,0.011 -0.749,0.833 -0.92,-0.188 0.693,-1.008 z m 3.213,-0.457 -0.801,-1.089 1.37,-1.722 0.148,-0.142 1.394,0.409 0.159,1.535 -1.776,0.716 -0.494,0.293 z"
       id="path5"
       style="fill:#ffffff;fill-opacity:1;stroke:#000000;stroke-opacity:1;stroke-width:3.54368908;stroke-miterlimit:4;stroke-dasharray:none;stroke-linejoin:bevel;stroke-linecap:round"
       inkscape:connector-curvature="0" /></g><path
     d="m 11.294757,18.920674 c 0,0.680365 -0.524666,1.231603 -1.172095,1.231603 -0.6474295,0 -1.1720953,-0.551238 -1.1720953,-1.230685 0,-0.67944 0.5246658,-1.230687 1.1720953,-1.230687 0.647429,0 1.172095,0.552165 1.172095,1.231604 z"
     id="path6967"
     inkscape:connector-curvature="0"
     style="fill:none;fill-opacity:1;stroke:#ff0000;stroke-width:0.2;stroke-linecap:round;stroke-linejoin:bevel;stroke-miterlimit:4;stroke-dasharray:none;stroke-opacity:1" /><path
     d="m 10.798391,18.884965 c 0,0.392834 -0.303962,0.710579 -0.6794,0.710579 -0.3744712,0 -0.6775643,-0.317745 -0.6775643,-0.710579 0,-0.391916 0.3030931,-0.710579 0.6775643,-0.710579 0.375438,0 0.6794,0.318663 0.6794,0.710579 z"
     id="path6969"
     inkscape:connector-curvature="0"
     style="fill:none;fill-opacity:1;stroke:#ff0000;stroke-width:0.2;stroke-linecap:round;stroke-linejoin:bevel;stroke-miterlimit:4;stroke-dasharray:none;stroke-opacity:1" /></svg>