<?xml version="1.0" encoding="UTF-8" standalone="no"?>
<!-- Created with Inkscape (http://www.inkscape.org/) -->

<svg
   xmlns:dc="http://purl.org/dc/elements/1.1/"
   xmlns:cc="http://creativecommons.org/ns#"
   xmlns:rdf="http://www.w3.org/1999/02/22-rdf-syntax-ns#"
   xmlns:svg="http://www.w3.org/2000/svg"
   xmlns="http://www.w3.org/2000/svg"
   xmlns:sodipodi="http://sodipodi.sourceforge.net/DTD/sodipodi-0.dtd"
   xmlns:inkscape="http://www.inkscape.org/namespaces/inkscape"
   version="1.0"
   width="23.98731"
   height="23.892544"
   id="svg2"
   inkscape:version="0.91 r"
   sodipodi:docname="TNGS.svg">
  <metadata
     id="metadata225">
    <rdf:RDF>
      <cc:Work
         rdf:about="">
        <dc:format>image/svg+xml</dc:format>
        <dc:type
           rdf:resource="http://purl.org/dc/dcmitype/StillImage" />
        <dc:title></dc:title>
      </cc:Work>
    </rdf:RDF>
  </metadata>
  <sodipodi:namedview
     pagecolor="#ffffff"
     bordercolor="#666666"
     borderopacity="1"
     objecttolerance="10"
     gridtolerance="10"
     guidetolerance="10"
     inkscape:pageopacity="0"
     inkscape:pageshadow="2"
     inkscape:window-width="1366"
     inkscape:window-height="747"
     id="namedview223"
     showgrid="false"
     fit-margin-top="0"
     fit-margin-left="1.06"
     fit-margin-right="1.06"
     fit-margin-bottom="0"
     inkscape:zoom="24.222595"
     inkscape:cx="7.3073547"
     inkscape:cy="9.4887235"
     inkscape:window-x="0"
     inkscape:window-y="21"
     inkscape:window-maximized="1"
     inkscape:current-layer="svg2" />
  <defs
     id="defs4" />
  <g
     transform="matrix(0.02981471,0,0,0.02981471,6.3361675,1.3696205)"
     style="display:inline;fill:#ffffff;fill-opacity:1;stroke:#000000;stroke-width:3.23960829;stroke-miterlimit:4;stroke-dasharray:none;stroke-opacity:1"
     id="layer2">
    <path
       d=""
       style="fill:#ffffff;fill-opacity:1;stroke:#000000;stroke-width:3.23960829;stroke-linejoin:bevel;stroke-miterlimit:4;stroke-dasharray:none;stroke-opacity:1"
       id="path3185"
       inkscape:connector-curvature="0" />
    <path
       d="m -99.493386,580.82821 3.463279,4.58887 0,6.58023 0.129873,-0.0433 3.939484,3.3767 0,2.20785 2.900498,1.73165 0,4.50226 -5.671124,3.46329 0,1.73163 6.580237,0 0,1.73165 -4.155941,3.3334 0,4.15594 -4.026063,4.50227 0,2.4243 -4.632147,3.11695 0,3.07367 -3.07366,2.51087 -3.59316,0 -1.81822,2.20784 0,11.6453 -1.73164,1.3853 0,3.67975 5.06505,4.50226 0,7.40277 -2.98708,5.41139 -2.07797,0 -2.07797,-2.29443 -2.20785,1.60177 1.86152,2.77063 2.07797,4.97846 10.25997,2.07797 2.207849,4.37239 3.809611,0 3.67974,-2.07797 0,-2.77062 -4.372397,-3.67974 0,-6.71011 -1.73164,0 0,-2.4243 4.718724,-6.10403 0,-4.24252 5.06505,0 3.939484,2.42428 0,1.90482 -1.861513,4.32911 -2.077971,0 -1.731641,-2.94379 -2.770626,0 0,3.98278 3.463282,0 0,4.67542 1.038985,1.73164 1.385313,0.34634 0,8.6582 -1.385313,0 0,2.25113 -5.194924,5.54125 2.07797,2.9438 1.515185,-2.25114 3.333411,0 8.658207,-5.54126 0,-2.4243 6.580237,0 0,-1.73162 -2.077969,-4.15596 -1.948097,0 0,-2.07798 2.294425,-3.46325 4.15594,0 0.129873,-0.0433 1.861513,3.24682 4.372394,1.73165 0.04329,-0.12988 c 1.385314,-5.07949 3.619135,-9.35087 6.66682,-12.81414 l 1.731641,-7.83567 -1.385313,0 0,-6.3638 11.775162,-27.57639 2.164552,0 0,-3.11694 -1.385314,0 0,-4.15595 2.207843,0 6.450365,-5.67111 0,-2.38101 3.766319,-2.25115 4.632141,-6.36378 -5.194925,0 0,-4.71871 3.33341,0 0,-1.73165 -4.372394,0 0,-1.86152 -3.463284,-2.4243 3.67974,-4.50226 -6.926567,0 0,-1.60178 -7.489349,0 -2.554171,-3.24681 1.731643,-2.29443 4.155939,0 4.848596,-4.2858 0,-7.96556 -4.15594,-5.19494 -2.640754,0 -2.900498,1.51519 -3.463282,4.84862 -2.077971,0 -0.129873,0.12987 c -3.324751,-2.63212 -7.365251,-4.32913 -12.12149,-5.02177 l -2.07797,-3.63645 -1.385312,-8.31187 1.385312,-4.15595 -6.407073,3.29014 -2.770626,-3.67976 -4.848597,0 -2.424297,2.9871 -5.541252,0 -2.770628,3.59313 0,2.9871 -3.116954,2.77062 0,2.4243 -1.73164,1.73164 -3.679731,0 -1.73165,-2.64076 -1.73164,0 -2.55417,2.77063 0,2.72733 -4.02606,1.81823 0,2.07797 -2.64076,0 0,-2.77063 -2.9005,-2.98709 -2.64075,0 -2.20784,4.37241 -3.11696,0 0,2.4243 3.59315,0 0,3.80961 -3.46328,0 -1.86152,-2.07798 -3.67973,0 -2.20785,-1.38532 -1.38531,-1.60175 0,2.64074 -3.33341,0 -4.97846,9.00454 3.24682,0 3.67975,-3.33341 0,-2.07797 3.46328,-2.07797 0,4.15594 -2.07798,2.42429 5.67113,3.80962 2.98708,0 0,3.8096 0.0433,0.0866 6.19063,2.20786 1.38531,1.51518 0,5.54124 1.86151,1.94812 0,2.55414 -2.9005,0 0,-2.20782 -5.19493,0 0,-7.61922 -1.94809,0 0,-2.29444 -3.46328,0 0,1.94811 -2.42431,1.86151 1.73165,2.07796 0,4.50228 1.73164,1.94809 2.64075,0 2.20785,4.15594 -3.80962,7.27289 2.77063,0 6.58024,-7.83567 6.23391,0 0,-1.38532 4.15594,0 0,3.80962 -3.80962,2.64075 0,1.51518 2.98709,1.9481 2.90049,0 0,-1.73163 2.42431,0 4.026056,-4.15597 0,-3.3334 -3.116956,-4.50225 -3.8096,0 -1.73164,1.38529 -2.29443,0 -1.38532,-1.73162 3.67975,-2.4243 1.51518,0 0,-2.20784 -2.55417,-4.8486 0,-3.46329 3.11696,-1.60177 1.86151,-2.55416 3.463281,3.07367"
       style="fill:#ffffff;fill-opacity:1;stroke:#000000;stroke-width:3.23960829;stroke-linecap:round;stroke-linejoin:bevel;stroke-miterlimit:4;stroke-dasharray:none;stroke-opacity:1"
       id="path4125"
       inkscape:connector-curvature="0" />
    <path
       d="m -108.75386,625.35501 0,8.45043 -1.24678,1.03898 -3.74035,-1.52386 0,-3.11693 3.60182,-4.84862 1.38531,0 m -17.59348,19.1866 -1.03898,1.38532 1.87017,2.77061 3.80961,0 -2.4243,-4.15593 -2.2165,0 m -1.73164,6.2339 -3.80961,6.09539 -3.46328,0.69265 0,-2.07798 4.50227,-4.71006 2.77062,0"
       style="fill:#ffffff;fill-opacity:1;stroke:#000000;stroke-width:3.23960829;stroke-linecap:round;stroke-linejoin:bevel;stroke-miterlimit:4;stroke-dasharray:none;stroke-opacity:1"
       id="path4127"
       inkscape:connector-curvature="0" />
    <path
       d="m -97.706686,613.46419 0,-3.46329 -2.770624,2.97842 -2.07797,0 -3.46328,2.70138 0,3.53255 1.93943,1.03896 4.294479,0 3.463279,-5.05639 -1.385314,-1.73163 m -9.835724,9.21233 0.48486,-11.0825 -5.19492,0 -5.33346,6.92657 0,3.11695 3.25549,2.21649 -3.80961,0 0,3.32474 2.07797,2.90919 5.88758,-7.41144 2.63209,0"
       style="fill:#ffffff;fill-opacity:1;stroke:#000000;stroke-width:3.23960829;stroke-linecap:round;stroke-linejoin:bevel;stroke-miterlimit:4;stroke-dasharray:none;stroke-opacity:1"
       id="path4137"
       inkscape:connector-curvature="0" />
    <path
       d="m -81.994461,709.73097 3.463283,-4.15592 0,-2.77063 3.324752,0 0,6.4417 -5.541253,10.38985 0,5.67978 -1.939439,1.59311 -3.255486,0.34633 0,-2.77062 -1.385313,-1.59311 0,-1.52384 5.333456,-5.40272 0,-6.23393 m -13.299006,14.89213 -3.463288,-3.25548 -3.463275,0 -5.40272,2.90914 0,3.80963 2.77062,3.67108 6.095375,0.13852 3.463288,-3.8096 0,-3.46329"
       style="fill:#ffffff;fill-opacity:1;stroke:#000000;stroke-width:3.23960829;stroke-linecap:round;stroke-linejoin:bevel;stroke-miterlimit:4;stroke-dasharray:none;stroke-opacity:1"
       id="path4143"
       inkscape:connector-curvature="0" />
    <path
       d="m -150.11793,571.70046 -3.11695,-0.34634 0,-2.2165 3.11695,0 0,2.56284 m -3.67107,1.59312 0,2.2165 -2.4243,-2.2165 2.4243,0"
       style="fill:#ffffff;fill-opacity:1;stroke:#000000;stroke-width:3.23960829;stroke-linecap:round;stroke-linejoin:bevel;stroke-miterlimit:4;stroke-dasharray:none;stroke-opacity:1"
       id="path4151"
       inkscape:connector-curvature="0" />
    <path
       d="m -155.86698,582.29812 0,3.80959 -2.77062,0 1.38531,2.77064 0,3.46328 1.38531,2.77063 1.93944,-3.32476 0,-4.64079 3.25549,0 0,-3.4633 -2.90916,2.07798 0,-3.67107 1.73164,0 0,-5.6798 -2.07797,3.80962 -1.93944,2.07798"
       style="fill:#ffffff;fill-opacity:1;stroke:#000000;stroke-width:3.23960829;stroke-linecap:round;stroke-linejoin:bevel;stroke-miterlimit:4;stroke-dasharray:none;stroke-opacity:1"
       id="path4153"
       inkscape:connector-curvature="0" />
    <path
       d="m -162.58574,590.05586 0,2.63209 -2.97843,-1.59311 0,2.6321 2.28576,2.42431 2.2165,-2.97844 0,-3.11695 -1.52383,0 m -9.6972,5.88758 -2.63209,-2.42431 0,4.71007 1.59311,2.07798 -2.4243,2.77062 3.94814,0 1.59312,2.07797 0,-3.46328 3.11695,0 0,1.73165 3.11695,0 0,-2.4243 -2.4243,-2.42431 0,-2.77061 -1.93943,-1.93945 -1.38531,2.07797 -2.56284,0"
       style="fill:#ffffff;fill-opacity:1;stroke:#000000;stroke-width:3.23960829;stroke-linecap:round;stroke-linejoin:bevel;stroke-miterlimit:4;stroke-dasharray:none;stroke-opacity:1"
       id="path4155"
       inkscape:connector-curvature="0" />
    <path
       d=""
       style="fill:#ffffff;fill-opacity:1;stroke:#000000;stroke-width:3.23960829;stroke-linejoin:bevel;stroke-miterlimit:4;stroke-dasharray:none;stroke-opacity:1"
       id="path4157"
       inkscape:connector-curvature="0" />
    <path
       d="m -122.94293,541.9751 -3.11696,2.07797 0,4.15594 2.77063,2.63211 3.11695,-2.77064 0,-3.11693 -2.77062,-2.97845"
       style="fill:#ffffff;fill-opacity:1;stroke:#000000;stroke-width:3.23960829;stroke-linecap:round;stroke-linejoin:bevel;stroke-miterlimit:4;stroke-dasharray:none;stroke-opacity:1"
       id="path4175"
       inkscape:connector-curvature="0" />
    <path
       d="m -133.44198,499.80022 -4.01741,1.93944 0,3.94814 0.55412,2.77062 -2.63209,0 0,5.54126 -0.6234,1.03898 4.77934,3.11696 0,-7.06511 2.4243,-2.77062 2.07796,0 0,-4.84859 1.73164,-1.93943 0,-1.73165 -4.29446,0"
       style="fill:#ffffff;fill-opacity:1;stroke:#000000;stroke-width:3.23960829;stroke-linecap:round;stroke-linejoin:bevel;stroke-miterlimit:4;stroke-dasharray:none;stroke-opacity:1"
       id="path4179"
       inkscape:connector-curvature="0" />
    <path
       d="m -144.87082,522.31156 0,5.54124 2.56283,1.38532 5.74906,-9.4894 -6.44171,-2.63208 -1.87018,5.19492"
       style="fill:#ffffff;fill-opacity:1;stroke:#000000;stroke-width:3.23960829;stroke-linecap:round;stroke-linejoin:bevel;stroke-miterlimit:4;stroke-dasharray:none;stroke-opacity:1"
       id="path4181"
       inkscape:connector-curvature="0" />
    <path
       d="m 55.748262,524.67975 -2.294433,2.07796 0,2.07798 -6.92656,5.19492 -4.155934,-1.9048 1.601761,4.50225 0,5.02177 -2.381005,2.12126 -0.4762,0 -2.597459,2.33772 -11.428841,1.38532 -5.411377,0 -6.580236,-9.35088 -7.0564362,4.84861 -1.9480969,5.7577 -2.2078423,0 0,6.71011 -22.1650116,15.93112 -4.026065,0 -3.463283,4.37237 5.065052,0 1.558475,-1.94808 6.926567,-4.28582 2.07797,2.20784 0,5.88758 4.8485952,0 -2.5974614,1.60177 2.4242964,2.42429 0,2.20786 -3.2901172,0 1.9048045,5.41136 -3.1169532,2.42431 5.0217598,7.27289 7.0997291,0 0.043291,0.0866 0,2.55417 -2.77062536,0 0,3.33341 4.37239496,1.73164 7.0564382,0 2.077974,3.11694 2.640746,0 0,-2.7706 -2.770618,-1.38532 0,-1.73165 2.55416,-1.94808 0,-7.2729 2.987089,0 5.671121,-6.58024 4.026074,-10.73619 13.160471,-8.44175 11.90503,1.73165 13.723254,14.0696 c 0.540561,-6.98211 2.280864,-11.82611 5.238219,-14.5458 l 0.303051,0 c 2.955343,-4.15594 7.570139,-8.15892 13.896412,-11.99162 l 3.939492,-1.73165 -3.463296,-2.07795 1.948103,-2.07798 0,-1.86152 -1.948103,-3.3334 -2.077962,0 0,-6.01747 2.640742,-2.77061 -1.948079,-2.42431 -5.368102,0 0,-0.12988 -7.272882,-3.2901 0,-2.59747 -1.385324,-1.08228 -3.463284,0 -0.69265,-3.24681 -2.987078,2.94377 -2.770635,0 -5.671122,-3.8096 z"
       style="fill:#ffffff;fill-opacity:1;stroke:#000000;stroke-width:3.23960829;stroke-linecap:round;stroke-linejoin:bevel;stroke-miterlimit:4;stroke-dasharray:none;stroke-opacity:1"
       id="path5985"
       inkscape:connector-curvature="0" />
    <path
       d="m 67.710375,521.92409 -0.346336,-2.28577 2.424297,0 2.077974,-2.07797 4.155946,0 0,6.09538 -4.710071,0 -1.523849,-1.73164 -2.077961,0"
       style="fill:#ffffff;fill-opacity:1;stroke:#000000;stroke-width:3.23960829;stroke-linecap:round;stroke-linejoin:bevel;stroke-miterlimit:4;stroke-dasharray:none;stroke-opacity:1"
       id="path5993"
       inkscape:connector-curvature="0" />
    <g
       transform="matrix(1.385313,0,0,1.385313,96.86605,526.7054)"
       style="display:inline;fill:#ffffff;fill-opacity:1;stroke:#000000;stroke-width:2.33853889;stroke-linejoin:bevel;stroke-miterlimit:4;stroke-dasharray:none;stroke-opacity:1"
       id="g6001">
      <path
         d="m 3.85,-3.3 1.5,-3.1 -1.5,-0.9 -7.15,7.15 0,1.75 -2,1.35 0,2.15 1.4,2.25 3.1,0 1.25,-1.5 1.75,0 1,-1.5 -2,-1.65 0,-3.6 2.65,-2.4"
         style="fill:#ffffff;fill-opacity:1;stroke:#000000;stroke-width:2.33853889;stroke-linecap:round;stroke-linejoin:bevel;stroke-miterlimit:4;stroke-dasharray:none;stroke-opacity:1"
         id="path6003"
         inkscape:connector-curvature="0" />
    </g>
    <g
       transform="matrix(1.385313,0,0,1.385313,28.58402,432.5576)"
       style="display:inline;fill:#ffffff;fill-opacity:1;stroke:#000000;stroke-width:2.33853889;stroke-linejoin:bevel;stroke-miterlimit:4;stroke-dasharray:none;stroke-opacity:1"
       id="g6005">
      <path
         d="m 7.15,-0.95 -2.4,1.5 -1.6,-0.35 -2.4,-1.5 0,-2.65 2.5,-3 3.9,3.15 0,2.85"
         style="fill:#ffffff;fill-opacity:1;stroke:#000000;stroke-width:2.33853889;stroke-linecap:round;stroke-linejoin:bevel;stroke-miterlimit:4;stroke-dasharray:none;stroke-opacity:1"
         id="path6007"
         inkscape:connector-curvature="0" />
      <path
         d="M -3,1.45 -3,5.8 -0.25,3.2 -3,1.45 m -1.1,-0.25 -1,0.35 0,2.3 1,0.95 0,-3.6 m -2,0.7 0,3.25 -1,-0.95 0,-2 1,-0.3 m 1,5.05 2.25,0 -1.5,-1.15 -0.75,0.75 0,0.4"
         style="fill:#ffffff;fill-opacity:1;stroke:#000000;stroke-width:2.33853889;stroke-linecap:round;stroke-linejoin:bevel;stroke-miterlimit:4;stroke-dasharray:none;stroke-opacity:1"
         id="path6009"
         inkscape:connector-curvature="0" />
    </g>
    <path
       d="m 105.3165,532.94833 11.5587,-6.96986 4.8486,-5.3248 0,-2.98707 -0.0866,0 0,-2.9005 -3.29014,-3.46328 -4.63213,0.30304 -7.96556,4.63214 0.0433,-0.30304 -13.290372,-9.09112 -3.246818,0 0,1.38532 -4.155935,0 0,-2.07799 -4.718714,0 -2.077984,2.07799 -3.766324,0 0.04331,0.0866 -7.48936,7.27289 -4.285806,0 -4.718732,5.67114 -4.632146,1.60176 -2.424282,0 0,-2.29443 -3.419993,0 0,-2.77062 -3.463288,2.59747 -5.19492,0 0,-0.17317 -6.104035,4.8486 -2.770632,0 0,-2.55418 -1.515187,0 -1.385315,2.20785 -5.541249,0 0,2.07797 -2.813917,0 0,-0.0433 -6.926564,0 -5.887584,5.41138 -6.58023726,0 -3.24682794,-4.37239 0,-1.86152 -3.6797376,-2.29441 -6.7101122,5.06505 -1.731639,6.10403 -0.216457,8.65821 -4.848593,5.54125 -8.31188,-6.06075 -2.424299,2.07797 -2.251133,0 0,-6.06074 -5.541253,0 -4.329104,2.25113 -2.727336,-2.59747 -0.08658,0.0866 0,2.94379 -2.770628,0 0,-2.25112 -2.207842,0 -2.294425,2.94378 -5.324797,0 -3.809611,-3.98278 -3.549865,0 -3.939485,3.63645 0,-6.40707 -1.861515,-2.94379 2.900501,-2.77063 0,-3.29012 -1.861515,0 0,-5.36808 4.285813,0 0,-3.46328 2.770625,1.3853 4.718724,0 0,-1.55847 2.900499,0 0,2.59745 4.026065,0 12.944022,-12.81413 3.982773,0 0,-0.0866 3.29012,0 14.718951,-13.85314 7.619223,-5.32479 2.0779688,0 1.5584777,-1.60177 0,-1.51519 3.2901181,-4.50226 4.15594079,-2.07797 5.41137921,-4.41569 0,-2.29442 -1.904806,-2.4243 5.1949293,0 3.8096041,-3.46328 6.06075,0 5.887577,-4.97847 2.424303,3.11695 6.407065,0 -2.77062,2.07798 -5.194932,0 -1.731631,1.51519 -5.887591,0 -2.597461,3.3334 3.11696,0 3.290118,-1.9481 3.463276,0 2.077972,1.38532 4.155947,0 -1.774929,-3.16025 2.294416,0 3.809619,2.94379 1.861502,0 2.294431,-3.98276 4.848591,0 4.285823,1.38531 10.389853,0 2.640749,-1.77496 3.463274,2.07799 1.731637,-1.38532 4.502282,0 5.541246,-4.15594 2.727336,0 0,-0.0433 4.285805,-1.9481 2.077986,1.38533 12.121478,0 2.900489,0 5.32481,-4.97849 3.11696,0 0,-1.25544 5.54124,0 1.60177,4.02607 -5.19493,6.36378 4.84861,4.50227 5.88758,-5.88758 2.07797,3.16023 1.73165,2.07797 3.2901,0 0,1.73165 4.84861,0 -1.90481,-2.90049 0,-1.38531 2.42429,0 1.73165,2.07796 2.25113,-2.29443 0,-3.24681 2.94379,0 0,1.51519 2.90049,0 0,-7.05646 2.81393,0 0,3.93949 3.11695,0 0,-6.71011 -4.67543,-3.4633 0,-8.18201 7.27289,-11.90502 4.4157,-2.03466 2.16454,-2.07798 0,-1.38532 2.90051,0 5.54124,-7.96555 5.75771,-6.92656 5.54126,-12.81415 0.0433,-0.0433 0,-3.11696 -2.29444,-2.77063 0,-4.84858 -1.25543,-0.69266 0,-4.71873 1.38532,0 0,-5.32479 6.23392,-3.80962 5.7577,0 6.58024,-4.84859 6.58023,0 2.07798,2.07796 0,2.42432 -4.02608,0 0,3.50656 -3.24682,3.54988 -3.20354,0 -4.06935,5.19491 -3.80963,-2.55417 -2.29441,5.67112 0,2.29443 4.02605,1.73164 3.59317,-2.77063 -0.0433,9.04783 -2.07797,1.38531 0,2.9005 5.71441,4.71873 5.36811,0 5.36808,-3.46328 0,-5.06505 7.96555,-3.11696 3.29011,0 0.0433,0.0866 10.34656,-4.50226 5.54126,-4.97845 6.58023,0 0,-2.07799 12.98733,-9.00453 7.09972,-12.81414 2.4243,-7.96556 6.75339,-6.45036 12.9873,-5.88757 4.84862,-8.78809 1.90481,-11.29896 2.94377,-7.27289 0,-0.12989 0,-3.59314 9.13441,-10.73619 1.38532,-7.14303 1.47189,-6.01744 0,-9.00454 3.93948,-3.46327 2.64075,-10.60631 0,-4.97846 -1.60176,-9.91365 -2.20783,-2.90052 -5.19492,0 0,2.07798 -2.64077,0 -2.20784,-1.94811 0,-4.762 5.71443,0 5.49794,-9.78377 0,-10.38985 -2.90049,-3.11695 0.12987,-0.0866 -0.0433,-4.80531 -3.85292,-3.67973 -0.0433,-2.55416 4.28581,-3.42 -0.12988,-2.9005 5.97417,-0.0433 5.02175,-3.42 3.03039,-10.04351 -3.54988,-5.41139 2.29444,-2.16454 -0.21646,-6.88328 5.06505,6.2772 2.85721,-0.0433 2.07798,-3.24681 3.24682,3.63644 c 0.54133,7.08393 1.95292,12.43027 3.63644,17.22983 l 2.51089,0.0433 2.64075,-2.64076 0,-1.86151 -1.64507,0.12987 0,-3.63646 2.68404,-2.94377 3.54987,3.24683 0.21646,2.16453 3.41999,-0.0866 2.20784,3.07365 4.3291,-7.96555 -0.21645,-11.16908 -2.77062,-2.77062 -3.80963,5.32479 -6.40707,1.73165 -5.88757,0 0,-5.67114 2.4243,-3.33341 0,-4.63214 2.77063,-3.67974 0,-5.32479 3.63644,3.59316 5.19492,2.29441 1.90482,3.46328 5.36808,0 3.46328,-3.33341 1.9048,0 0,5.88759 -1.25543,0 0,10.60631 -1.73165,2.16454 0.21646,8.31188 1.55849,5.15163 0.0433,5.19494 4.67544,9.69718 3.11694,0 3.20355,3.67974 0.0433,-0.0866 7.14302,9.13442 0,4.50225 2.77062,1.94811 0,2.20785 -1.3853,0 0,2.77061 2.55417,2.42431 2.42429,0 0,4.50226 2.29443,2.64076 0,8.09542 -2.07798,0 0,3.80962 3.24684,0 2.07795,2.64075 0,2.9005 -2.07795,2.42429 0,2.77063 -1.73165,0 -2.07798,5.54125 3.11697,0 -2.42431,1.73165 0,2.29442 1.60178,1.73165 -3.63644,4.06934 0,4.50228 -3.98279,2.07796 -2.77062,0 -1.55849,1.86152 0,4.71873 -4.32909,4.15594 0,4.50226 -2.77064,1.86151 0,1.94809 2.42431,0 0,3.59318 1.55847,1.60175 0,1.38533 -1.9048,0 0,4.97845 4.15592,6.23392 -2.42428,0 -2.42431,1.73163 0,-3.46328 -4.67542,-4.2858 -6.23391,0 0,2.9005 -4.37239,0 0,4.15594 -2.9005,3.11695 -2.94379,7.27289 0.0433,0.0433 0,7.61922 4.50227,13.72326 1.3853,6.3638 0,14.89209 -2.77063,6.7967 0,8.65821 -5.02175,0 0.065,4.67544 0.0216,2.81391 c -4.06358,5.40272 -6.68126,10.791 -7.83569,16.14755 l 0,7.61922 -1.8615,1.51519 0,7.96555 11.81845,20.47666 1.81822,0.90913 0,2.07794 -7.09973,0 -4.50228,2.98711 0,0.0433 -4.37239,3.93948 -3.59315,6.7967 0,4.63213 1.38531,0 0,4.3724 -1.03899,3.11695 -2.98706,2.77063 -0.17318,-0.0866 -5.93087,1.86153 -7.74908,5.19492 0,3.80962 -3.33343,3.11695 -3.46327,0 -3.11696,-5.54126 4.37239,0 -2.64074,-2.77061 1.38531,-2.77063 -1.73165,-1.3853 0,-3.46329 2.98708,-1.68836 0,-1.81822 -2.64074,0 0,-2.9871 4.71871,-3.59313 0,-1.60177 7.57593,-6.36378 0.77924,-0.60609 0,-1.51518 -5.19493,-4.50227 -3.11694,0 0,3.20353 -5.75771,0 0,3.80963 -4.97848,3.67973 0,4.63214 -0.17316,0.0433 0,4.84861 3.67974,0 0,1.60175 -3.33341,2.07798 0,4.84858 -1.51518,0 0,-3.11695 -2.07796,-4.8486 -2.9871,-2.29441 -6.36378,0 -9.22099,6.10404 0,3.11694 -1.94809,2.12128 0,5.67111 2.07795,2.07798 0,4.84859 -1.73162,0 -4.50228,9.56733 -3.98277,3.93947 -3.29013,0 -3.98276,-3.59315 0,-2.77063 1.55848,0 0,-14.89212 5.02175,0 0,-2.07797 0,-0.0433 -3.46326,-2.77061 -6.92658,0 -5.02176,3.93949 0,2.2944 -5.36809,3.9395 -4.63215,9.22099 0.0433,0 -2.29444,2.42429 0,5.19493 -9.00452,-3.33341 -14.54578,0 -3.24683,-2.55418 2.07797,-3.46328 -2.9871,0 -2.8572,5.58454 0,0.0433 -0.0433,0 -16.4506,5.41138 -4.50226,0 0,-1.9481 3.67973,-3.24682 4.97848,0 5.88758,-2.77064 0,-2.77061 -1.38531,-1.60178 -4.97848,0 0,1.38532 -6.58023,0 -4.50227,-3.24682 0,7.35947 -3.46329,-2.4243 0,-6.58023 -1.73164,0 0,-5.88758 1.60177,-1.38532 0,-1.73165 -5.06505,0 -0.0866,-0.0866 -2.9005,6.23392 -6.92658,9.69717 0,2.64077 1.51518,0 0,3.24683 9.35088,6.36378 3.98278,0 0,2.59747 2.55417,0 0,2.94379 -1.8615,2.25113 0,5.54124 -5.06505,0 0,-3.29011 -3.80963,0 -5.28152,1.9481 -11.16907,5.58454 0,1.81822 -2.9005,2.4243 2.07798,1.38532 0,4.15593 -5.88758,2.4243 -7.96555,16.62377 -6.45036,7.96555 -2.90052,0 0,-2.07798 -3.67974,0 -11.42882,-5.3248 0,-4.02607 -2.07798,0 0.21646,-1.51518 2.20784,0 0,-1.73165 -3.93949,-1.38531 -10.6063,-8.18199 0,-4.15596 1.73165,0 2.29442,-2.55418 -2.42429,-1.73161 0,-1.94811 3.59314,-4.50226 -2.07795,0 0,-2.77064 -2.55418,-2.12126 z m 82.42614,-145.71762 0,2.07797 2.42429,0 1.38531,-2.07797 -3.8096,0 z"
       style="display:inline;fill:#ffffff;fill-opacity:1;stroke:#000000;stroke-width:3.23960829;stroke-linecap:round;stroke-linejoin:bevel;stroke-miterlimit:4;stroke-dasharray:none;stroke-opacity:1"
       id="path6902"
       inkscape:connector-curvature="0" />
    <path
       d="m 248.30075,335.51524 0,4.01741 4.15596,0 1.38532,1.38531 -2.77063,5.6798 -4.15596,4.01739 -4.50226,2.90917 -3.67107,0 0,-2.07798 3.11694,-2.42431 1.93944,-3.8096 -1.73164,-2.4243 -2.28576,2.07798 0,-7.0651 7.13435,-8.86601 2.42431,-2.2165 2.07796,0 0,2.90916 -3.11696,5.88758"
       style="display:inline;fill:#ffffff;fill-opacity:1;stroke:#000000;stroke-width:3.23960829;stroke-linecap:round;stroke-linejoin:bevel;stroke-miterlimit:4;stroke-dasharray:none;stroke-opacity:1"
       id="path6948"
       inkscape:connector-curvature="0" />
    <g
       transform="matrix(1.385313,0,0,1.385313,385.7062,77.4)"
       style="display:inline;fill:#ffffff;fill-opacity:1;stroke:#000000;stroke-width:2.33853889;stroke-linejoin:bevel;stroke-miterlimit:4;stroke-dasharray:none;stroke-opacity:1"
       id="g6108">
      <path
         d="m -32.47709,30.681686 c 4.871734,-3.495681 13.112693,-19.028136 27.2305053,-8.951132 0.5498799,0.974119 1.6853278,1.69728 4.35605208,1.762466 3.33783262,4.092339 6.06640382,5.13837 8.81165492,6.267801 4.0365627,2.605116 8.9863777,3.960877 13.0229407,4.847611 4.337914,0.952934 4.648425,4.639335 8.684988,6.344002 1.940895,-0.532278 -0.976188,-3.458635 1.468387,-4.022727 1.354898,-0.655091 0.661649,-6.985195 -1.179446,-8.684976 1.378086,-3.880396 6.367733,-13.067887 9.25578,-16.434861 3.09579,-3.6091686 12.305176,-12.02893452 17.465629,-12.03747376 11.695176,-0.18990487 7.865049,3.30516886 11.797573,1.48510496 -4.883875,-6.2875362 8.605934,-7.4986281 1.11287,-3.6549363 1.22248,1.73116782 3.520661,0.5952821 5.026355,0.9103785 3.408975,-3.6962895 1.271123,-7.2342466 5.205604,-5.297877 0.852121,-0.7112421 -0.15148,-4.1860094 8.117776,-2.615164 -2.663199,-4.3671734 8.109673,-6.1397704 6.245395,-8.9386154 -5.669625,0.402125 -6.049202,5.141424 -9.562536,4.720782 -1.698329,-0.162131 -3.310018,1.556391 -5.592955,-9.683395 2.702509,0.231644 6.802919,-1.122677 -2.282356,-2.494838 -5.268086,-1.515543 -2.012146,-13.502265 0.638508,-15.506185 1.754124,-5.156247 2.838356,-9.815833 1.696268,-10.574647 -1.355064,1.17519 -5.756876,8.287667 -9.035269,11.097122 -3.222572,2.761619 -2.477681,5.633523 -4.94843,5.814362 -8.626317,1.414892 -12.856328,-1.300893 -14.245729,-5.835231 -4.501755,-0.285246 1.779086,0.692332 -1.331858,-0.16254 0.878787,1.515628 -2.893627,7.689945 -2.07437,-0.07549 -0.777706,-1.798905 -0.117378,0.149705 -3.746974,-0.496425 -1.545975,4.15075 -10.649815,-0.178834 -6.426881,-1.566966 -7.9128,-1.522268 -13.929931,-8.651944 -19.506533,-10.748222 -8.4510652,-8.303023 -15.217452,-19.221568 -25.0321465,-29.346931 -1.9858507,-2.644601 -4.2848295,-4.454195 -7.1818465,-4.669017 0.57063,3.476009 -4.561373,1.216707 -7.603965,10.206018 4.745269,12.428179 7.565274,18.77228 6.038626,23.420656 0.947165,5.077396 -1.542743,8.591625 -2.407646,9.614376 -2.041985,2.414655 1.890481,8.503017 0.212761,12.328519 4.494946,-2.687688 2.621476,6.432056 -3.027613,4.657432 -6.818301,4.176692 -4.189211,4.357903 -4.77403,6.137307 0.588588,1.588617 0.668879,4.193827 2.078975,4.139428 -3.046,1.554759 2.105101,4.201315 0.782196,10.1704261 -5.130663,6.53206502 -4.606734,7.11456218 -9.944806,5.0493412 0.887367,-4.1443483 -3.525145,-0.010938 -6.45455,-0.2044655 -1.020358,-0.9502418 -6.156691,-4.7027427 -8.071838,-6.0969485 -1.17002,0.1476913 0.796852,2.4994137 -3.640396,1.6600504 -3.194351,5.82106863 1.972064,5.80913426 5.196554,12.1740883 -1.984417,0.8798821 -4.469311,1.2786307 -5.788523,8.387228 -2.781885,0.24813 -1.559163,-3.351745 -4.179366,-1.836348 0.520603,5.719 -5.796252,4.049161 -8.828282,7.952102 3.193234,11.268266 -3.259328,9.168241 -0.605246,13.619576 1.469915,2.248425 3.4766,-0.512463 3.687242,4.155963 4.045411,1.534889 5.421536,3.714826 6.428138,6.51063 0.781569,2.73176 -0.618539,4.550744 -1.360048,6.480324 -3.018108,4.914859 -1.958284,9.247156 -0.807983,13.566528 5.671354,-1.761729 6.433469,2.28057 5.653022,0.32503 -0.772813,-7.39033 6.915975,0.99643 5.277413,-11.243444 2.745129,-0.0061 4.896297,-1.183492 4.616757,-5.420985 l 3.329254,2.999098 c 3.593181,-1.2255 5.918139,0.08545 8.006293,1.870001 1.323598,-1.431822 2.613742,-2.780006 4.528149,-5.68885 l -5.985568,-3.337428 c -1.220396,-3.098711 -4.77211,-4.86524 -8.041157,-6.793294 l -3.746738,0.950493 c -2.382843,-1.832767 -4.084746,-4.346474 -7.861337,-4.785493 0.364556,-2.420952 1.038375,-13.54571 7.261489,-11.63475 5.853585,-3.875167 5.189922,2.025539 7.705699,3.157085 1.42102,2.342312 2.645738,7.236537 4.337568,6.058321 z"
         style="opacity:1;fill:#ffffff;fill-opacity:1;stroke:#000000;stroke-width:2.33853889;stroke-linecap:round;stroke-linejoin:bevel;stroke-miterlimit:4;stroke-dasharray:none;stroke-opacity:1"
         id="path6110"
         inkscape:connector-curvature="0" />
      <g
         transform="translate(6.451983,6.273569)"
         style="fill:#ffffff;fill-opacity:1;stroke:#000000;stroke-width:2.33853889;stroke-linejoin:bevel;stroke-miterlimit:4;stroke-dasharray:none;stroke-opacity:1"
         id="g6112">
        <path
           d=""
           style="fill:#ffffff;fill-opacity:1;stroke:#000000;stroke-width:2.33853889;stroke-linejoin:bevel;stroke-miterlimit:4;stroke-dasharray:none;stroke-opacity:1"
           id="path6114"
           inkscape:connector-curvature="0" />
      </g>
    </g>
    <g
       transform="matrix(1.385313,0,0,1.385313,555.031,88.1126)"
       style="display:inline;fill:#ffffff;fill-opacity:1;stroke:#000000;stroke-width:2.33853889;stroke-linejoin:bevel;stroke-miterlimit:4;stroke-dasharray:none;stroke-opacity:1"
       id="g6116">
      <path
         d="m -26.835,-60.076115 c 1.003563,-3.185677 0.998631,-6.439384 4.072371,-8.146363 2.169543,0.1883 2.553474,1.567008 2.940564,2.94361 11.5187694,1.21166 5.090363,-3.223778 8.679137,-1.840574 -2.191534,8.027693 -2.272426,-0.705522 -6.764312,7.634427 -6.483902,-0.728488 -5.225616,5.34965 -9.023098,5.071249 -1.947369,2.741925 -0.07889,6.281266 -3.050685,5.145591 0.0305,6.568818 -2.359643,3.740124 -3.974341,5.391402 -3.047404,0.125556 -0.683903,6.975784 -1.612924,8.505958 -0.486477,-1.824359 -1.588727,-2.725059 -3.897224,-1.816387 l -1.185834,-3.8715 c 2.020171,-4.180939 3.995459,-3.818117 8.336284,-8.765679 -0.03151,-0.96635 0.782074,-4.175532 2.484279,-5.674879 0.446762,-2.219575 1.321395,-2.41897 2.995783,-4.576855 z"
         style="fill:#ffffff;fill-opacity:1;stroke:#000000;stroke-width:2.33853889;stroke-linecap:round;stroke-linejoin:bevel;stroke-miterlimit:4;stroke-dasharray:none;stroke-opacity:1"
         id="path6118"
         inkscape:connector-curvature="0" />
    </g>
    <path
       d="m 556.62392,-107.9327 c 1.13165,-0.33419 2.74605,-3.27073 4.5849,-3.27073 1.96983,0.48612 1.46991,3.08305 3.76966,4.18524 -2.03863,-0.49092 -4.81324,2.79227 -5.15127,3.47055 -2.45891,1.78955 -4.3865,6.612141 -7.40572,0.58231 -0.33469,-1.33885 -0.43272,-1.11536 -0.43272,-2.53762 0,-1.6152 3.25649,-1.74042 4.63515,-2.42975 z"
       transform="translate(-9.2035,133.8358)"
       style="display:inline;fill:#ffffff;fill-opacity:1;fill-rule:evenodd;stroke:#000000;stroke-width:3.23960829;stroke-linecap:butt;stroke-linejoin:miter;stroke-miterlimit:4;stroke-dasharray:none;stroke-opacity:1"
       id="path6120"
       inkscape:connector-curvature="0" />
    <path
       d="m 355.84285,-158.55376 c -1.19937,2.11496 -11.97951,0.71165 -5.15002,-6.22517 4.5067,-0.52196 5.88955,2.77688 5.15002,6.22517 z"
       transform="translate(-9.2035,133.8358)"
       style="display:inline;fill:#ffffff;fill-opacity:1;fill-rule:evenodd;stroke:#000000;stroke-width:3.23960829;stroke-linecap:butt;stroke-linejoin:miter;stroke-miterlimit:4;stroke-dasharray:none;stroke-opacity:1"
       id="path6122"
       inkscape:connector-curvature="0" />
    <path
       d="m 345.29367,-166.37931 c -1.19937,2.11496 -4.70495,-8.61877 -0.0895,-8.43917 1.97642,2.79904 1.46156,7.52116 0.0895,8.43917 z"
       transform="translate(-9.2035,133.8358)"
       style="display:inline;fill:#ffffff;fill-opacity:1;fill-rule:evenodd;stroke:#000000;stroke-width:3.23960829;stroke-linecap:butt;stroke-linejoin:miter;stroke-miterlimit:4;stroke-dasharray:none;stroke-opacity:1"
       id="path6124"
       inkscape:connector-curvature="0" />
    <path
       d="m 535.92482,-86.462863 c 1.13165,-0.33419 -2.6308,-4.061444 -0.79195,-4.061444 1.96983,0.48612 4.7909,-0.870517 4.71851,0.706101 -0.53047,0.654677 -0.41018,1.471712 0.22558,2.363552 -2.70107,2.152792 -3.21859,-0.753784 -3.92658,3.745163 -1.43207,0.490113 -2.99834,1.473823 -2.963,-0.0073 0.0385,-1.61474 1.35878,-2.056705 2.73744,-2.746035 z"
       transform="translate(-9.2035,133.8358)"
       style="display:inline;fill:#ffffff;fill-opacity:1;fill-rule:evenodd;stroke:#000000;stroke-width:3.23960829;stroke-linecap:butt;stroke-linejoin:miter;stroke-miterlimit:4;stroke-dasharray:none;stroke-opacity:1"
       id="path6126"
       inkscape:connector-curvature="0" />
    <path
       d="m 530.7401,-83.376302 c -2.14371,0.648256 -3.86812,-0.740175 -3.35835,-2.221335 3.88003,-0.993415 3.17457,1.571132 3.35835,2.221335 z"
       transform="translate(-9.2035,133.8358)"
       style="display:inline;fill:#ffffff;fill-opacity:1;fill-rule:evenodd;stroke:#000000;stroke-width:3.23960829;stroke-linecap:butt;stroke-linejoin:miter;stroke-miterlimit:4;stroke-dasharray:none;stroke-opacity:1"
       id="path6128"
       inkscape:connector-curvature="0" />
    <path
       d="m 544.88562,-94.783988 c -1.43207,0.252899 -3.39369,0.05054 -2.88392,-1.430622 1.58696,-1.942271 3.33271,0.22692 2.88392,1.430622 z"
       transform="translate(-9.2035,133.8358)"
       style="display:inline;fill:#ffffff;fill-opacity:1;fill-rule:evenodd;stroke:#000000;stroke-width:3.23960829;stroke-linecap:butt;stroke-linejoin:miter;stroke-miterlimit:4;stroke-dasharray:none;stroke-opacity:1"
       id="path6130"
       inkscape:connector-curvature="0" />
    <path
       d="m 290.17469,-7.9643652 c 1.96983,0.48612 3.48273,-2.6199628 5.78248,-1.5177723 1.08805,2.7791933 -3.14899,0.3343113 -1.68473,8.2789723 -2.45891,1.78954994 -1.47908,3.033787 -4.27465,1.36507594 -1.4245,-3.61176794 -0.18926,-5.55435794 0.1769,-8.12627594 z"
       transform="translate(-9.2035,133.8358)"
       style="display:inline;fill:#ffffff;fill-opacity:1;fill-rule:evenodd;stroke:#000000;stroke-width:3.23960829;stroke-linecap:butt;stroke-linejoin:miter;stroke-miterlimit:4;stroke-dasharray:none;stroke-opacity:1"
       id="path6132"
       inkscape:connector-curvature="0" />
  </g>
  <path
     d="m 5.2497519,22.564353 c 0,0.680365 -0.5246658,1.231603 -1.172095,1.231603 -0.6474292,0 -1.172095,-0.551238 -1.172095,-1.230685 0,-0.67944 0.5246658,-1.230687 1.172095,-1.230687 0.6474292,0 1.172095,0.552165 1.172095,1.231604 z"
     id="path6967"
     inkscape:connector-curvature="0"
     style="fill:none;fill-opacity:1;stroke:#ff0000;stroke-width:0.19317593;stroke-linecap:round;stroke-linejoin:bevel;stroke-miterlimit:4;stroke-dasharray:none;stroke-opacity:1" />
  <path
     d="m 4.7533863,22.528644 c 0,0.392834 -0.3039623,0.710579 -0.6793998,0.710579 -0.3744715,0 -0.6775646,-0.317745 -0.6775646,-0.710579 0,-0.391916 0.3030931,-0.710579 0.6775646,-0.710579 0.3754375,0 0.6793998,0.318663 0.6793998,0.710579 z"
     id="path6969"
     inkscape:connector-curvature="0"
     style="fill:none;fill-opacity:1;stroke:#ff0000;stroke-width:0.19317593;stroke-linecap:round;stroke-linejoin:bevel;stroke-miterlimit:4;stroke-dasharray:none;stroke-opacity:1" />
</svg>
