<svg xmlns="http://www.w3.org/2000/svg" version="1" viewBox="0 0 24.0667 24.0617"><g fill="none" stroke="#000" stroke-width=".1" stroke-linecap="round" stroke-linejoin="bevel"><path d="M16.1805 6.2028l-.0384-.056-.017-.0244-.007-.028.053.0245.027-.027.037-.037.054-.055.034.04h.018l.044-.044.041-.047.077-.035.056.042-.031.087v.049l-.037.037-.058.026-.063.024h-.063l-.047.047zm-.762.353l.042.042-.0104.0488h.039l.049.049-.014.056.063.0314.084.0034.035.035h.063l.074-.021v-.056l-.045-.0418.025-.0245.037.037.065-.117.061-.061.026.026.056-.056.018-.052-.063-.021-.042.042-.052-.038-.063-.038-.063-.045.021-.045.034-.033.026.089.04.041.068.012.042-.017h.035l.035-.035-.017-.073h-.056l.014-.063v-.046L16 6.199h-.112l-.0363.037-.058.04-.042-.042-.1014.031.007.063.0264.026.038.038.026.026-.0387.032-.0526-.0455-.028.028-.038-.0385-.0872.0173-.0383-.021-.018.0456.028.028-.053.028zm.6695.3932l.033-.0647V6.832l-.0243-.0246-.042.0035-.0314.028.0244.069zm.1065.1135l.021.021.0314-.0664.08-.017.07-.028.094-.056-.049-.09h-.067l-.095-.031-.044.04-.041.04-.04.04.022.055.038.039zm-.8335-.3372l.0227.082h.0454V6.762l-.017-.0385-.031-.0314-.056-.003zM13.6642 8.083l-.0647.0647v.0437h.0542l.0175.042.0454-.021.0525-.0525v-.084h-.066zm2.2785-2.4604l-.021.0385.0228.023.0262-.022zm-.1747 1.5588l-.021-.0315-.0664-.014-.021.017.0385.017.049.038zm-2.838.028l-.014.021.0316.021.014-.0246zm-.1013-.2412l.0385-.0105-.0105-.0454-.0385.0104-.0384-.0244-.035.021.049.0244zm-.1537-.1432l-.028-.07-.0314-.0524-.042.0175-.042-.073-.0314-.031-.0384.046-.0245.067V6.68l.0035-.0873-.0244-.049-.035.004-.049.0593.0036.0522-.021.035.014.0945-.042.042.0035.094-.021.0804-.0174.081.032.018.067-.052.039-.024.088-.045.07-.007.087-.066zm-.5522-.472l-.0315.0385-.028.0525-.0244-.0105.017-.0664v-.069l-.077.025s-.046.011-.056.014l-.063.021-.025.053-.014.046-.032.039.01.045-.059.046.028.025.042-.014.035.049.003.046.031.039.08.007.01.045.056-.035.028.046.077.028.073-.035.035-.049-.028-.056-.046-.063.035-.024.014-.059-.017-.067.007-.066-.084-.045zm-.0978 1.1115l-.0455.0104.042.031.042-.042-.0036-.042zm-.5488-.056l-.0174.028.0244.021.0315-.0455zm-.36.9575l-.042.021s.0176.0525.0176.0455c0-.007.0314-.014.0314-.014l-.007-.0524zm-.3005-.3144l-.0384.0314.021.042.0348-.007zm.0383.4684l-.0523-.0106-.007.0385h.0594l.032.031.004-.053zm-.276-2.062l.0245.014.0384.028.01-.035-.053-.028zm-.1782 2.5197l.035-.0384.014-.0454-.0315-.032-.0315.01-.0244.031.014.042zm-.2308.0525l-.0418.035.0384.028.0315-.028h.049l.046-.042-.042-.042-.042.0105zm-.0173-.4124l-.07-.014-.0314.028.021.0314.042-.028.0523.014zm-.2307.1258l-.0175.0454.028.0245.0314-.0385zm-.3564-.0874l.0594-.028.035.0036v-.035l-.056-.014.028-.0314-.0315-.0454-.0384.014-.014-.0036-.038.028.014.0315-.028.038.007.024zm-1.489.685l.0246-.0594-.035-.0594.0035-.0664-.0384-.0874-.056.028-.042.014.0106.0908.007.049.038.0104.014.0734zm-1.307-.3425l.049-.035.0594.0106.0314-.0734-.049-.063-.0034-.053-.063-.021-.0768.021-.0454.059-.035.045.0245.066.056.021zm-2.2402-.1852l-.014.021.0245.0314.031-.032zm3.1244-.6045l.0105-.0456.0804-.0244.063-.0664-.042-.0455.056-.034.0628.025.0175-.052v-.053h.0803l.0385.039.0402-.04.0087-.037.0874-.017-.029-.029-.076-.027v-.028l.088-.024.091-.024.046-.045h.059v-.042l.084-.003-.045-.045.074-.003.028.028-.003-.07.035-.035-.038-.045.025-.038.042.042h.052v-.053l.077.028.039-.042.039-.045h.049l.084-.038.06.021h.087l.058-.058.068.005.032.046h.074l.035.035.063-.017h.087l.058-.058.068-.036.091-.035h.083l.049.077v.084l-.073.067-.066.063-.088.007-.105.049-.095-.035-.045.046-.108-.004h-.14l-.052.056H8.91l-.08.046.025.056-.056.021-.066-.007h-.06l-.007.038-.063-.017v.063l-.063.045-.053.039v-.06l-.041.038.011.07H8.41l-.0297-.03v.085l-.0306-.03-.0393.039-.033.033H8.23l-.035.045-.0454.077H8.076l-.0593.049V8.3l-.0594.024-.021.07-.049.049v.087l-.0245.063.0314.091-.028.091.0384.0593.0175.063-.021.021-.059.0277V8.9l-.056-.0316h-.038L7.706 8.8l-.024.014-.073-.07-.056-.0593.021-.063.056-.0174.021-.035-.0385-.0314.0035-.084-.0247-.007-.025-.063-.053-.004-.042-.06.014-.077.056-.077.0666.007.021.024zm3.2834-2.207l-.0434-.0175-.029.0058-.0186.0188.029.029.0388-.013zm.6788-.078l-.0607.0028-.026.026.0202.0202.0217.0216.0447-.0418zm.306.0403l-.026-.0578-.0635-.0173-.0086.0578-.052.023-.078.052v.0723l.031.0318-.042.042-.028.054.037.052.014.052.066.058.06-.057h.041l.06-.034.072-.023-.02-.069v-.087l.043-.037-.036-.036zm-.26.4044l-.049-.0058.0087.063v.04l.0635.017.026.026.039-.039.0217-.057-.038-.029zm-.771 1.4788l-.0188.0188.0245.0216.0405-.012zm-.8434-2.406l-.0347-.0144-.029.009.023.032v.029h.04zm-.0723.3697l.0506-.0505.037-.0376-.013-.056-.047.006-.02.032-.075.015-.05.026.037.018-.018.041.031.009zm-.1733-.2108l-.0375.0202-.016.016.0304.0302.054-.0202v-.0462zm-.1155.2426l.0607-.0144.039-.039.029-.029.0157-.0476h-.044l-.065-.0014-.042-.0477-.032.031-.023.046v.057l.049.008zm-.1545.088v.0362h.039l.0144-.0462-.0346-.0087zm-.1603-.088l.0693-.0144.026.026.0607-.0145.0173-.04.0433.015-.023-.052-.039-.039-.0564.042-.021-.02h-.063v.044l-.035.035zm.4188-.5603l-.0173.0346.0303.0303.029-.0288zm-.0607.182v.0404l.0434-.02-.026-.055-.0202-.066h-.0463v.052zm-.2918.049h-.0403l-.0087.0087.0332.0332zm.0348.0665l-.0274.0274.0274.0303.0318-.003zm.026-.1272v.0376h.0404l-.0087-.0433zm.0562.094v.033h.0333l-.026-.026zm.0333.0765l.0145.0144.026-.026zm.0405-.153v.0403l.0346.003v-.0434zm-.052-.081l.0202.0376.0188-.018-.0188-.019zm-.3438.1965l-.0288.0462-.0217.0216.0376.0376.042.0014v-.0693zm.0665 0l.0144.0404h.028v-.0347zm-.0765-.218l-.0564-.0333-.029.0202-.0287.028v.031l-.034.033-.06-.042-.049.026v.034l-.061-.044-.046.017.014.069.043-.015v.046l.046.012.042-.042.059-.025.049.014h.072l.052-.052-.049-.049zm-.3308.0013l.075-.026.026.026.0492-.0202.0202.021v-.044l-.0332-.033H8.998l-.026-.01h-.0634l-.0376-.038-.026.052.0332.034zm.1372.218H9.004l.0085.036.052.003zm-.016.1027l.0204.02.049.0117L9.05 5.69l-.0114-.026zm.237-.3987v.0376h.029L9.307 5.3z"/><path d="M19.398 4.6415l.0307-.1117.1175-.1136.131-.131.0596-.0596.1156-.05.0827-.0483.078-.077.079-.079.096-.0384.07-.101.131-.039.07-.073.085-.039.054-.031.062.061.089-.027.079.06.052-.052.093-.05v-.046l-.093.019-.108-.008-.069-.019.023-.069.074-.05-.062-.016V3.42l.043.004.008-.0694.039-.054.054-.0537.092-.035H21l.069-.097s.0654-.019.0885-.043c.023-.023 0 .065 0 .065l.05.042.039.038-.0423.088s.058 0 .081-.023 0 .046 0 .046v.081l-.0882.057.07.012.042-.043.091.034v-.04l.0713.071.05.077.0423-.012.042-.054v.05l.027.061h-.081v.03l.066.02-.035.1-.088.008-.081.088-.042.092-.081.027-.058-.023h-.073l-.066.096.0284.058v.098l-.0634.063-.05-.039-.05.038h-.0738l-.0424-.034-.0383-.023-.005.036.029.029-.034.015-.023.023.067.012v.052l.052.052.085-.023h.058l.004.073.035-.035.06.06.064.063.031.112.016.089-.062.1h-.058l-.081.035-.027.061.066-.027h.043l-.062.073.038.038.05-.019v-.07l.046-.034.083-.002.048-.048.024-.039.058.003.047-.008.085-.004v.054h.069l.019-.037h.067l.04-.041.05-.008.042.034.062-.046.029.067.056.056V5l-.077.031-.05.1078h-.081l-.023.0344.091.06-.029.029.065.1.027.123v.139l.023.1075.039.092.019.124.039.1195.073.065v.112l.038.154.065.073.043.0425-.065.058-.069-.035-.096.0306-.05.1157-.081.115.042.042-.031.108v.058l.065.1v.062l-.073-.0342-.054-.054-.046.004.042.1117v.074l.072.0327-.071.071h-.047v.1l-.042.042.058.096.046.046.054.054.073.073.015.108.011.0847.106.056.063.063h.108l-.029-.066V8l.037-.0365.027-.058.1.1.02.089.1.07.099.022.039-.039h.064l.075.075-.031.0734-.077.023.023.093.081.134.071.017.056.056.131-.016.077.062.027.07-.046.031-.066.042-.039.085.027.154.077.119.067.025.033.033.112.027V9.3l-.085.0115v.0692l-.031.069.039.1384.065.027.1.101.073.069.015.123.039.162.019.104v.077l-.042-.058H23.4l-.071-.037-.055-.055h-.077l-.069-.069-.135-.061-.127-.054-.146-.077-.0423-.058-.07-.046-.077-.015-.166-.05-.108-.058-.104-.069-.05-.092-.112-.111-.077-.081v-.081l-.054-.054-.0113-.089-.0655-.092-.072-.015v-.033l.032-.033.027-.058-.037-.064.034-.035.029-.029-.038-.115-.02-.123-.046-.142-.073-.096-.031-.127-.035-.12-.039-.096-.046-.142-.046-.039-.004-.077.026-.092v-.12l-.046-.046-.05-.096h-.05l-.048-.017-.045-.044-.054-.069-.081-.05v-.089l.074-.069-.025-.025-.06.06-.085.046v.081l-.023.061.046.042.067.068.064.064h.077l-.008.05-.035-.003-.037.052.048.049v.123l.039.093.007.146-.027.089-.031-.077-.07-.034v.095l-.058-.058-.039-.038-.031-.066-.108-.1.031.085-.031.092h-.104v.062l-.035.127-.042.05.003.17.069.046-.011.108.069.108v.116l.021.152.063.064v.069l.054.054.05-.008.044-.04.033-.032h.058l-.004.073-.061.019v.104l-.115.019.027.135-.012.058-.073.031v.081l-.027.073s-.091.021-.074.004-.035-.035-.035-.035v-.05l.016-.05.064-.021-.029-.029-.069.027-.073.012v.035l-.108.05-.054.066-.062.016-.05.05-.019.058.019.073.043.042-.051.054-.081-.031.026.083-.06.06-.054.051h-.046l-.046.042.031.05.024.024-.065.043h-.089l-.086.086-.056.056-.062.104-.066.066-.066.131-.012.127.061.123-.058.058-.019.123.035.088.054.054-.046.077v.242l-.023.096v.131l.038.042v.197l-.035.131v.107l-.058.097v.097l-.031.085.035.078h.059l.045-.046h.064l.05-.05.056-.056.038.039.046.023v.05l.037.067.046.046.041-.04v-.062l-.054-.023v-.058l.042-.046v.038l.046.035.024-.007.023.023v.119l.077-.031v-.039l.042-.058.027-.023.042.031.009-.064-.037-.036-.035-.066-.042-.077.069-.038.043-.042.084-.019h.1l.083.009.037.037s.088-.016.107-.016c.02 0 .073-.023.073-.023l.048.048-.036.037-.027.027-.023.042h.135l.015.05.058.057.071-.009.037.037.038.073.012.146.05.154.079.113.098.098.039.039.019.065.077.077.054.093.019.054.071.11.06.06v.162l-.023.139.043.139-.004.142.042.112.031.123.023.112.023.15v.147l-.023.077v.335l-.023.139.023.142-.008.185v.089l-.077.127-.05.108-.058.108h-.05l-.096.038-.081.046-.056-.023v-.052l-.028-.029-.029.065v.071l-.033-.033-.05-.05v.039l-.016.096.015.065-.022.075-.033.033v.1l-.073-.004-.031-.031.027-.088.046-.092v-.077l-.04-.091-.082-.083-.043-.042-.035-.089-.073-.073-.069-.023-.002-.075.048-.048.0423-.042v-.077l.054-.054.062-.031.064.021.056-.056.034-.069-.0615-.096.031-.081-.039-.085-.007-.089-.054-.073.015-.062-.0424-.073-.02-.085-.077-.081.057-.058v-.084l-.048-.048-.055-.056-.016-.05h-.066l-.092.05-.023.077-.062.1-.07.089.0303.097-.081.066-.081.047-.069.023-.02.069h-.073l-.073-.042-.054-.019v-.088l-.062-.054-.05-.05-.083-.021-.0447.044-.088-.023-.073-.019-.111.015h-.104l-.042.042-.115.042-.116-.023-.048-.094-.056-.056s-.065-.039-.065-.054c0-.016-.073-.073-.073-.073l-.093-.016-.039-.092-.0886-.069-.0616-.061-.085-.023-.031-.081-.077-.035-.047-.046-.154-.016h-.081l-.093.05-.115-.019-.088.031h-.096l-.131.096-.062.062-.122.072-.06.06-.042.127-.03.077.043.054.059-.049.048.048.054.054.031.123-.031.066-.023.166v.104l-.042.108.058.111.034.0343v.108l-.081.023-.052.122-.075.075-.127.0464-.1426-.011-.104-.019-.077.046-.108.062-.081-.043-.073-.027-.097.042-.081.081-.058.058-.0323.114-.068.0677-.089.062-.124.057-.094.094-.049.048h-.123l-.112.035h-.158l-.116.015-.104-.034-.031-.058-.054-.054h-.146l-.135-.019-.054-.034-.177.025h-.11l-.091.09-.1.023-.097.027-.138-.012-.095-.041-.06-.06-.056-.117-.071-.071-.1-.038h-.096l-.11.029-.075-.075h-.15l-.089-.065-.044.045-.06.059-.048.098-.052.052-.015.1.048.058v.09l.067.067v.092l-.091.06-.0866.087h-.185l-.104-.027-.108.019-.077-.023-.111-.039-.061-.061-.073-.073-.089-.027-.104.0425-.065-.065-.083-.036-.067.068h-.08l-.027.081h-.1l-.127.081-.077.077h-.077l-.016.081-.09.021-.063.064-.115-.004-.096.054-.05.05-.112-.019-.035-.057-.042-.077-.022-.079-.059.059-.1.038-.092-.031-.104-.027v-.092l-.081-.05-.031-.069-.066-.042-.015-.092-.054-.05-.072-.032-.047-.047h-.098l-.048.048-.096.015-.038-.039-.084.016-.046-.0466-.042-.043v-.058l-.042-.05-.062.019-.042.089-.084.016-.05-.1-.027-.088-.019-.1-.065-.116v-.1l-.061-.058v-.127l-.046-.154-.0658-.0657-.042-.043-.044-.094-.048-.048-.065-.0263v-.069h.054l.046-.0614-.019-.054h-.07l-.0576.058-.081.004-.06.002-.063.064-.108.031-.093.05-.042-.061-.081.038h-.07l.023-.104.093-.042v-.054H8.3l-.069-.042-.042.042-.077-.0236.025-.09-.056-.056-.077.046-.085-.023-.021-.067.048-.048v-.073l.019-.054-.0304-.096-.057-.027H7.81l-.035-.069H7.68l-.077-.046-.085-.008-.046.066H7.38l-.0846.023-.0695-.039-.085.016h-.104l-.1-.052h-.04l-.044.044-.077.016-.073-.038h-.067l-.088-.027-.131.004-.096-.019-.069.02-.062-.054-.088-.046H6.02l-.027.085.027.058-.054.054.042.027.043.042.052.052-.048.048H6l-.0654-.065-.1.004-.0656.027.027.097-.027.07-.0655.019-.077-.02-.0308.081.025.056.054.054.0365.037.0154.065.054.054-.054.073-.05.05h-.0848l-.0866.006-.0443-.044-.031-.063h-.04l-.042.041h-.067l-.075-.075-.015-.043L5.134 15v-.1l-.049-.048h-.088l-.073.027-.027-.058-.073-.057-.066-.035-.089.043-.081.012-.066-.019-.046-.088-.066-.058-.047.077h-.05v-.061l.046-.046-.031-.066-.039-.1-.016-.104-.058-.069-.092-.035-.027-.065-.05-.05-.093.015H3.9v-.073l-.027-.077-.094-.017-.0484.048-.088.031-.077-.042h-.08l-.0383.058H3.28l-.0193.042-.05.05-.008.073-.094-.017-.055-.056v-.077l.025-.075-.0404-.04h-.065l-.027.062-.05.036h-.075l-.0596.059-.05.05v.069l-.0656.027-.069-.004-.05.05-.061.042.025.075.056.056-.023.1-.05.05.05.031.073.069.046.046-.02.1.021.131v.106l-.04.04-.038-.042-.058-.008.008.07.033.068.049.048-.038.039-.066.008H2.36s-.046.006-.0827.006-.029-.029-.029-.029l-.0577-.015-.027-.027-.069-.011v.054l-.054.023-.0655.077h-.073l-.08.023-.047-.013-.039.039v.063l.04.041.023.073-.019.073-.017.067-.044.045v.027l-.038.034-.084.139v.106l.023.131-.015.1.008.123-.092.043-.062-.027-.088.031-.084-.019-.011-.073-.042-.127-.008-.093-.061-.042v-.05l-.031-.081-.054-.069.035-.058.023-.065-.057-.061-.019-.069-.066-.008-.014-.04-.048-.048-.085-.012-.054-.054-.015-.123-.054-.05.016-.077-.065-.054-.034-.089-.058-.027-.084-.058-.027-.092-.058-.089-.02-.077-.042-.008-.03-.039-.044-.06-.05.008-.031-.093.012-.177-.015-.132-.031-.065-.038-.058.008-.116-.046-.042-.031-.061.023-.069-.019-.077.043-.043.047-.008.061.077.058.02.027-.058.065-.027.088-.004h.046l.057.02.011-.096-.031-.057.015-.05.046.008.042.031.046.042.034-.035.054.023.088.012.065.027.015-.069-.046-.035-.065-.015-.042-.043-.046-.015.057-.061.085-.039.073.031.065-.027.062.065.092.1.085-.085.058-.035-.016-.085.054-.054.054.008-.004-.061.143-.019.027-.066.031-.039-.066-.031v-.081l-.061-.069-.023-.088-.057-.035-.061-.069.023-.081-.023-.119-.073-.054-.085-.065-.027-.088-.058-.046-.019-.054.05-.058.039-.085v-.081l-.042-.077-.043-.068.039-.031.023-.058h.046l.035-.031.026-.104.008-.062-.03-.077-.043-.042-.058-.008-.042-.046-.035-.05-.052.044-.04-.041-.034-.057.035-.061.073-.073.05-.057.019-.07.058-.004.042.046.023.058.077.027.073-.023.019-.077.023-.085-.057-.058.039-.027-.004-.065.023-.092.043-.1.031-.085.077-.023.027-.058.073-.061v-.131l-.065-.062-.073-.019.023-.057.02-.062-.054-.054-.035-.077.012-.054.073-.073.042-.077-.02-.069.061-.015.093-.058v-.08l.039-.046.096-.004.042-.05.004-.058.081-.031.065-.088.088.004.077-.046.104.023.015-.058.035-.035.066.031.054.058.084.027.031.069.03.077.046-.046-.008-.112-.069-.062v-.14l.062-.015.02-.019-.085-.0347-.05-.058.863-.004.162-.058v-.1l.027-.254h.108l.092-.073v-.1l.069-.027V8.21l.061-.004.135-.108.065.0308.143-.266.01-.0714.118-.1175h.197l.062-.108v-.208l.123-.062.162-.081.111.042h.065l.054.054.066-.046-.016.081.066-.008.092.004v.062l.02.069-.042-.027-.044-.044-.04.041.019.073v.074l.066.035.05.05v.081l.056.027v.09l.063.064.031.108v.112l-.02.097.023.054.002.118.068.068-.004.085-.015.139-.067.118-.102.102h-.11l-.119.023-.104-.038-.113-.063-.071-.071V8.68l-.073-.073-.035-.081-.027-.077-.05-.0845-.027-.1426-.054-.023.018-.087.044-.044-.054-.054-.025.067-.037.036.015.085.002.098-.042.042.056.056-.016.084-.054.119-.094.029-.075.075-.029.136-.071.071.023.081.034.1-.056.098.079.079.085.085.097-.07.019-.096-.05-.05.008-.085V8.99l.065-.0696h.065l.023.1732.021.1137.067.067.042.088.109.033.033-.033-.027-.066.065-.054.004-.135.119.019.111-.042.093.05.104-.0326h.071l.044.045.066.1-.054.054v.085l.049-.0597.067-.0667.093-.0193.077-.112v-.096l.032-.065.1-.05v-.061l.096-.057v-.096L6.08 8.61h.0656l.021.048.086.087.066.1003v.134l-.023.069-.035.035-.058-.0576-.081-.0195L6 9.047v.1002l.0308.0924v.077l.0886.023.0847.0386.097-.0462v-.0693l.1-.023.097.046-.015-.0615.15.027.081-.0155.147.0193h.085l.043.077h.039v-.0693l.123-.0385h.066l.027.1H7.17l-.023.0694-.058.0193.0882.08h.0616l.1157-.05.1098.021.1195.119.04-.041h.081l.102-.033.04.04-.0116.054-.0615.042v.065l.074.061.006-.071.0326-.033.077.019v-.061l.0736-.012.015-.093-.011-.112.069-.035.059-.018.071.071.03-.031.079.098.09.09.073.073.048.098.09.09.062.096.065.088v.077l.054.085.077-.047v-.081l.088-.08-.062-.019-.043-.1.016-.108-.073-.05-.041-.083.037-.037.077-.039v-.06l.015-.09.034-.047v-.057l-.05-.016.027-.077.042-.054.077-.027.082-.041.029-.029.065-.066.05-.112.038-.092.042-.092.073-.038.046.066h.092l.046.047H9.7l.034.131-.038.039-.018.141-.1093.11-.031.101.065.058-.023.131-.019.104-.077.115-.027.166-.042.146-.0305.073.029.102.0673.067-.0118.061-.085.065-.015.143-.0844.023-.1.1-.058.085-.0537.03-.0968-.019-.058.038-.064-.041-.0405-.04-.058-.019v.073l.058.089.058.027.077.053.066-.004.046.065h.0695s.029-.052.0133-.067c-.015-.016.041-.041.041-.041h.05l.023-.023.097-.027.077-.043V10.7l.035-.0347.06-.0596.048-.0484.023-.092-.019-.081-.008-.0732.052-.052.052-.052h.081l.089-.011.025.075.036.037.046.12-.061.062.004.093v.058l.077.077.089.02v-.054l-.087-.025-.033-.033v-.046l-.007-.069.062-.019.023-.05-.023-.073.027-.061-.039-.077-.05-.046-.031-.031-.094-.033-.054-.054-.044.044-.058.027-.031-.042h-.07l-.012-.073.047-.046-.012-.123.054-.084.034-.1.077-.077-.027-.085-.023-.073.01-.079-.056-.056.062-.061.096-.096h.081l.046-.073.031-.081-.027-.066.027-.058h.062l-.019.08v.112l-.015.1-.069.07v.166l.081.061.046.039.06-.036.059.059.065.062V9.53l-.025-.0594-.044-.044-.069-.034v-.033l-.055-.059-.027-.085.081-.054.039.039.062.0617.046-.042-.015-.05-.006-.045.044-.044.077.015.064-.0094.052.052.1.054-.027.077.025.025.067.067h.104l.015-.061-.043-.058.004-.054-.073-.027-.054-.089-.031-.031.023-.093.035-.077-.031-.031-.019-.096.077-.07h.181l.092.035v-.023h.15l.1-.043h.073l.038-.039-.038-.058-.046-.016-.039-.038.044-.044c.029-.029.029.029.029.029l.046-.012-.031-.035.021-.048-.033-.033.039-.054.054-.042-.054-.004-.004-.058.108.004.042-.089.106-.04.04-.041.144-.021.036-.037.104-.031.023-.027-.069-.023.039-.038.1-.023.085-.012.02-.043.069-.012-.037.069v.056l.048-.048.119.004.012-.062.077-.015.077.015-.034-.046-.046-.035-.023-.042h.085l.088-.027h.027l-.007-.066-.031-.023v-.09l.019-.062.058-.143.069-.05.061-.066.077.046.058-.008.017.079-.059.06-.05.066.122.007.024-.024h.075l.056.056-.05.05s-.004.05.019.05.085.027.085.027l.019-.065-.034-.035.085-.046h.077l.079-.056.044.044.06-.029.044.044.039.077.047.038.027-.031.04.041.052.052-.008.081-.077-.015.031.031.077.043.048.082-.044.045v.077l-.038.054-.037.075-.044.045-.077.092v.038l-.023.108-.058.058-.023.12-.092.024-.029.087-.063.063-.016.1-.019.07.069-.031-.015-.077.069-.043s.062-.019.097-.019.046-.069.046-.069l.066-.054.062-.023.037-.072-.029-.029-.046-.004.003-.031-.004-.061.058-.004h.046l.066.015.077.031.016-.046.048-.068.04.041v.077l.046.065h.054l-.054-.05.037-.036.071-.071.097-.05.146-.027.115-.035.029.044-.027.027.064.064h.119l.004-.031.011-.043.046.073.081-.031.081-.069s.085-.016.104-.016c.019 0 0-.069 0-.069l-.011-.077-.058-.089.015-.089.011-.046.046.047.048-.037.041.04.063.043.015-.046.031-.008.03.035.031-.023s-.004-.072.025-.072.037-.036.037-.036l.085.066.027-.027.092.031-.031.094h.044l.044.044v.073L15.51 8l.039.039v.085l-.05.016-.031.031.054.054s.042-.019.042-.039.035.034.035.034v.062l.079-.002.075.075.058.039.081.015.035-.035.089.046.008-.073-.038-.128-.023-.058V8.11l-.05-.05v-.07l.094.011.054.054.085-.023h.096l-.02-.1002.054-.1.1-.023.073-.004.084.0234v-.058l-.09-.0402.032-.033.043-.046.073.004.058-.058-.027-.015-.057-.058-.066-.034v-.083l-.027-.023-.039.1-.046-.031v-.081l.084-.077-.011-.054-.081-.05.051-.05h.073l.108-.054.031-.089.1425-.054.112-.05s.015.0153.015.0384c0 .023-.073.05-.073.05l-.027.104.065-.031.058-.058.073.023-.019.15.065-.0618v-.073l-.023-.123.015-.054.035-.096.081-.0387.116-.05.07.05s-.033.044-.058.069.027.042.027.042h.085l.054-.062.073.077c.012.011-.011-.089-.011-.089l.104-.058.073.038.081-.004.073-.073.077-.096v-.111l.0967-.143.081-.081.073-.089.127-.02.106-.006.052.052.108.108.096-.043.069-.056h.075l-.0367-.037V6.09l.073-.073V5.89l.035-.0655h.0572l.05-.05V5.7l.096-.0695.023-.0925-.038-.038.015-.046-.054-.077.043-.077.04-.0406.074.073-.056.056.058.0578h.0887l.0616-.023.085-.0387.077-.0192.0198-.0616-.023-.0618-.042-.008-.131-.058-.096.015-.023-.054h-.077v-.042l.019-.074.069-.035.008-.08.062-.034h.054l-.023-.065.023-.07.066-.096z"/><path d="M19.9385 12.051l-.0333.0365v.0967l.0566-.0234.03.03.0333-.0333.014-.0667-.036-.0533zm.9263-.3433l-.0267.0067-.02-.0567v-.05l.087.0233.044.02.024.0533.047.0467.084.0167.02.0533.093.06h.05l.04.0566.034.09.052.0516.098.1016.064.0167.087.0333.084.0733.114.064.073.064.097.05.083.05.053.044.093.037-.013.044-.033.034-.063.02h-.05l.013.07-.013.05v.04l.057.087s.053.06.043.07c-.01.01.003.103.003.103l.043.044.067.067.057.037h.087l.05.05h.057l.03.063.073.004.045-.045.078.045.047.06s.017.04 0 .04-.106-.043-.106-.043l-.038.039h-.085l-.026.068.017.067.054.053.04.087-.054.044-.043-.053-.056-.056-.1-.093v-.064l-.066-.066-.063-.063-.043-.056-.053-.103-.066-.063-.07-.04-.066-.02-.057-.12-.123-.17-.1-.1-.083-.084-.073-.1-.047-.077-.126-.057-.1-.043-.06-.007-.08-.11v-.05l-.086-.086-.046-.087-.093-.03.024-.067v-.05l.077.023.013-.067-.045-.045v-.025l-.044-.044-.064-.023zm2.8622 1.8858v-.0533l.02-.0433v-.06l-.0667.01.0133.07.0067.066zm.1832-.1065v.03l.0433.0232v-.05zm-.125-.435l-.0182.065.0066.1.04.0167.0133-.0533-.02-.1066.036-.0367-.007-.076-.057-.016-.017.087zm.0884-.2748l-.0167.0166.013.0567.026-.04zm.04-.2032l.0166-.0867-.0233-.0533.013-.0567.045-.045.011.0617-.01.0633.013.0733-.024.0533zm-1.7793-4.765l-.0133-.0598-.0234-.0467.0234-.0766v-.094l-.0634-.027-.04.023v.073l-.0066.066.04.026.0266.033.0034.06zm1.1327.0868l.0235.05h.16l.05-.05-.0634-.02-.063.0267-.06-.0234zm.2834 2.6122l-.0066.06-.0034.0767.035.035.0383-.0217v-.08l.035-.035-.0283-.0683-.0467-.0466.0034-.06-.033-.033-.02.06-.031.032.037.037zm.1366.3466v.05l.0333.0166.0234-.03zm.3166 1.1096l-.0134-.0567v-.08l-.0333.0033v.1332zm-.4498-4.2284l.0233.0233.032-.031.032-.031-.043.01zm-4.397-4.0494l-.0267.028-.058.0306-.048.0478.005.0822-.02.0204.01.0662.039.056.04.0918.061.0127.042-.041.031-.056-.034-.037.051-.073-.009-.08v-.096l-.05-.039zM.548 9.354l-.0268.0563-.1285.0648-.1944-.231-.1126-.258.06.014.0513-.014.0196-.038.0465.008L.307 9l.002.059.036.011.008.0467.055.01.012-.044-.03-.03.026-.0257.017.0163.0525.044v.066l-.008.057.0307.05.0306.021z"/></g><path fill="none" stroke="red" stroke-width=".2" d="M20.2706 14.1132c0 .7044-.5432 1.275-1.2135 1.275-.67 0-1.213-.5706-1.213-1.274 0-.7035.543-1.2742 1.214-1.2742s1.214.5717 1.214 1.275z" stroke-linecap="round" stroke-linejoin="bevel"/><path fill="none" stroke="red" stroke-width=".2" d="M19.7568 14.0763c0 .4067-.3148.7356-.7035.7356-.3877 0-.7015-.329-.7015-.736 0-.406.3138-.736.7015-.736.3887 0 .7034.33.7034.735z" stroke-linecap="round" stroke-linejoin="bevel"/><path fill="#fff" d="M.3235 9.312l-.0808-.0958-.0353-.081-.037-.085C.1694 9.048.1777 9.044.189 9.041c.012-.003.0277-.011.0374-.0187.021-.017.028-.0132.028.0153 0 .017.0023.0222.0186.0435.01.014.0198.025.0215.026.0016.001.003.004.003.007 0 .004.0098.016.0218.029.0207.022.0232.023.0494.028.026.005.0283.005.0424-.003l.016-.008c.001 0 .002.017.002.037 0 .036.001.037.015.062.009.014.022.032.031.041.012.013.016.02.018.034.003.029-.005.04-.046.06-.019.009-.036.017-.038.017-.002 0-.039-.043-.084-.096zm7.5-.488c-.0085-.005-.023-.0105-.0324-.012-.014-.002-.018-.005-.029-.0206-.015-.0223-.014-.022-.042-.0278-.021-.0045-.024-.007-.066-.0488-.024-.0246-.043-.046-.041-.0483.002-.0024.01-.0063.018-.0088.02-.006.041-.0234.053-.0448.01-.018.01-.018.005-.051-.004-.027-.007-.035-.014-.041-.008-.007-.009-.011-.009-.038 0-.03 0-.031-.017-.055-.009-.014-.021-.034-.027-.046-.007-.017-.014-.025-.032-.038-.014-.011-.026-.016-.034-.016-.008 0-.014-.003-.02-.011-.012-.016-.006-.047.015-.077.009-.013.018-.023.021-.023.003 0 .012.005.022.012.033.025.037.025.076.005.023-.012.036-.021.039-.027.003-.007.011-.011.032-.017.026-.007.03-.01.067-.047l.04-.039v-.053l.011.004c.009.003.016.001.044-.012l.033-.016L7.945 8c.005-.015.009-.03.009-.0335 0-.0114.009-.011.021.001.013.012.014.012.05.012h.037l.021-.022c.012-.012.024-.028.027-.0346.005-.012.008-.013.033-.017l.028-.005.013-.043.013-.043-.012-.013c-.007-.007-.012-.014-.011-.015.001-.001.018-.006.037-.011.041-.011.053-.017.074-.039.014-.015.018-.016.036-.016.019 0 .021-.001.041-.022.021-.021.022-.022.043-.022h.022l.007-.019c.004-.011.009-.02.012-.02.003 0 .0225-.008.044-.018l.038-.017.001-.025c.001-.021.0024-.027.0103-.034.0063-.006.0094-.013.0094-.022V7.51h.0207c.019 0 .022-.001.039-.018.018-.0176.0197-.018.031-.014.007.003.016.003.024.001.007-.002.0197-.005.0283-.0074.0123-.003.0212-.0105.046-.0385l.03-.035.022-.002c.014-.002.034-.008.0552-.018l.033-.015.021.008c.015.005.036.008.069.009.059.002.078-.004.11-.037.011-.012.024-.021.028-.021.003 0 .014.008.023.017.024.025.044.034.075.034.023 0 .027.001.038.011.008.007.021.013.036.016.021.004.026.004.052-.003.021-.006.041-.009.07-.009.05 0 .063-.005.096-.038.039-.04.143-.09.189-.09h.022l.012.02c.01.017.012.024.012.044v.024l-.056.054-.055.051-.039.004c-.036.003-.043.005-.086.025l-.047.022-.038-.014-.037-.014-.026.006c-.02.005-.03.009-.041.02l-.015.014-.115-.001c-.114-.001-.114-.001-.136.008-.014.006-.027.015-.037.027l-.015.018h-.044c-.051 0-.061.003-.114.032l-.037.021-.012.033-.011.033-.055-.001-.055-.002-.017.014c-.014.011-.02.014-.029.012-.009-.002-.016.001-.043.022l-.032.024v.019c0 .018-.001.019-.022.034-.012.008-.024.015-.026.015-.002 0-.014-.005-.027-.011l-.023-.01-.022.022c-.016.016-.024.028-.03.046l-.009.025-.029.012c-.025.011-.029.014-.03.023-.001.008-.004.011-.01.011s-.019.01-.036.027c-.021.022-.03.028-.039.028-.006 0-.021.005-.033.011-.024.013-.041.031-.071.082l-.018.03-.029.002c-.037.003-.043.006-.078.035-.035.028-.047.048-.047.077 0 .019-.001.02-.013.024-.007.002-.02.012-.029.021-.013.014-.019.023-.025.046-.007.025-.012.033-.029.051-.028.029-.033.042-.033.09 0 .034-.002.043-.012.069-.007.018-.012.037-.012.048 0 .009.005.032.012.051.006.018.011.037.011.041s-.005.022-.01.039c-.008.026-.01.035-.008.055.002.013.006.028.01.033.011.015.017.028.013.028-.001 0-.01-.005-.018-.01zm-1.092.1043c-.014-.0057-.0276-.0118-.0303-.0136-.0094-.0062-.0044-.0186.0205-.051.024-.031.0264-.033.0483-.039.0254-.0072.0358-.0055.0358.0056 0 .013.013.0402.028.0596.0155.019.0162.028.002.024-.0127-.004-.0464.005-.06.015-.0148.011-.0124.011-.0443-.002zm1.2712.2837c-.0056-.007-.009-.0192-.011-.037-.0023-.0228-.0017-.0272.0042-.0315.006-.0045.007-.0034.014.0094.006.012.007.018.004.042l-.004.027-.009-.011zM11.76 6.3017c-.0043-.005-.0108-.0186-.0142-.0305-.0034-.012-.0115-.0292-.018-.0382-.0112-.0154-.0116-.017-.0064-.027.003-.006.0137-.0186.0235-.0282l.017-.0174v-.0356c0-.033-.001-.0363-.01-.0448-.018-.0164-.014-.027.018-.0477.015-.01.038-.0227.05-.028.012-.0056.026-.015.031-.0218.01-.0142.014-.0148.017-.003.001.0047.021.0274.043.0502l.04.0416-.011.0207c-.01.02-.011.022-.009.0737.001.029.003.0566.004.061.002.007 0 .0088-.013.013-.009.0025-.028.0116-.043.02-.018.0108-.032.0156-.042.0157-.019 0-.043.011-.056.0248-.012.0125-.016.0128-.027.0015zm.3446.4503c-.0102-.0044-.0184-.0118-.0233-.021-.007-.0132-.0097-.0145-.0424-.0222-.02-.0045-.038-.007-.041-.006-.004.0015-.011-.002-.018-.009-.011-.0097-.017-.0117-.042-.014-.016-.0016-.032-.0046-.034-.007-.003-.002-.005-.0096-.005-.0166 0-.0193-.01-.0423-.028-.0673-.016-.022-.021-.027-.028-.03-.002-.001-.001-.008.002-.017.003-.009.005-.02.003-.026-.002-.007.002-.016.009-.027.006-.01.014-.028.018-.041.013-.047.016-.05.055-.062.039-.012.067-.019.067-.016 0 .001-.003.013-.006.026l-.007.024.014.03c.02.041.028.044.074.028l.032-.011.011-.023c.012-.026.013-.028.022-.024.005.002.006.008.006.03 0 .015.003.039.007.053.009.029.006.048-.009.06-.008.006-.011.014-.016.043l-.006.035.021.028c.029.04.035.052.029.061-.005.007-.04.024-.05.023-.004 0-.013-.004-.022-.007zm.2208.2454c0-.003.0035-.0176.0078-.0326.0058-.0203.0078-.039.0078-.0725v-.045l.013-.013c.0085-.008.0156-.0205.02-.0348.006-.0205.006-.025.0007-.0588-.0057-.035-.0056-.0372.0017-.0507l.0076-.0142v.026c0 .0296-.006.0257.0556.0365.021.0037.0405.0057.0435.0045.003-.001.009-.0113.013-.0225l.007-.0203.013.0222c.013.0227.013.023.048.0348l.035.012.011.0264.011.0263-.014.025c-.011.0192-.02.03-.046.0494-.031.024-.033.025-.061.028-.016.002-.034.005-.04.007-.013.005-.099.05-.119.063-.009.006-.012.007-.012.003zM9.696 5.7684c-.0235-.0194-.021-.0275.0045-.0145.0105.005.023.009.0277.009h.0087l-.01.01c-.005.005-.01.009-.012.009s-.011-.007-.02-.015zm6.5392 1.1772c-.014-.0155-.0137-.0165.0233-.054.0342-.0348.0395-.0375.058-.0302.0113.0044.0377.0103.059.013.021.0028.0397.0093.0414.0144.003.0114-.057.0428-.115.06-.053.0158-.05.016-.067-.0032zm-.5204-.1916c-.0067-.0067-.037-.016-.0674-.0204-.055-.008-.0552-.0083-.0603-.0357-.003-.018-.018-.042-.043-.069-.021-.023-.038-.046-.038-.053 0-.007-.007-.018-.015-.026-.018-.017-.02-.032-.004-.038.006-.003.014-.015.017-.028.004-.02.01-.025.033-.029.017-.003.034-.002.043.004.008.005.028.009.044.009s.037.005.045.011c.04.03.111.001.116-.047l.002-.026.077.05.077.05-.036.038c-.019.021-.041.051-.049.066-.011.024-.016.028-.041.028-.038 0-.054.019-.054.062 0 .02.005.039.013.048.012.013.011.014-.014.014-.015 0-.033-.006-.039-.012zm.2298-.4057c-.0095-.0068-.0212-.0265-.0258-.0438-.0047-.0173-.0105-.0365-.0128-.0427-.0034-.009.0042-.0112.036-.0112.0358 0 .04.0016.036.0143-.003.009.004.025.0192.044.013.016.021.032.0174.036-.0135.013-.0528.015-.07.003zm.2764-.189c-.003-.003.011-.022.031-.0426.031-.0314.039-.036.052-.029.03.016.0634.001.1145-.052.063-.0654.0727-.0658.0554-.0028-.013.045-.016.049-.052.067-.021.01-.061.022-.089.025-.031.003-.059.012-.073.022-.024.017-.033.019-.041.011zm-.492.1632c-.0172-.018-.0195-.024-.0105-.0274.0144-.005.0386.021.035.038-.002.011-.0068.009-.0245-.01zm3.3935-2.2855c-.0047-.0145-.0194-.0432-.0326-.064-.019-.03-.023-.0426-.019-.0617.003-.0132.006-.0407.007-.061.002-.043.011-.056.052-.077.05-.0253.052-.0232.055.0534.002.061.001.0716-.016.0982-.015.023-.018.038-.016.074.003.065-.016.087-.032.038zm2.9735 9.0746c-.0118-.007-.0343-.017-.05-.0224l-.0286-.0098-.024-.051c-.0192-.0404-.037-.0687-.0845-.1348-.057-.0782-.067-.0902-.157-.1814-.101-.1015-.137-.1458-.187-.2268-.014-.0216-.029-.0432-.034-.048-.01-.0088-.064-.0343-.181-.0848-.045-.0192-.074-.0297-.089-.0315l-.023-.002-.029-.04c-.026-.035-.029-.042-.029-.057 0-.029-.01-.045-.056-.092-.037-.037-.047-.051-.063-.082-.022-.042-.039-.059-.07-.068-.018-.005-.021-.007-.019-.014.001-.005.004-.007.009-.005.005.002.018-.004.04-.017l.032-.019.006-.033c.006-.03.006-.035 0-.053-.007-.024-.007-.023-.003-.023.002 0 .004.006.006.012.004.021.025.041.073.072.047.03.064.038.087.038.016.001.027.018.048.076l.017.047.086.087.086.087.033.009c.018.005.051.015.072.023.035.013.042.018.08.051.031.027.055.044.097.068.039.022.067.041.092.063.025.022.049.038.082.055.069.036.134.076.163.1.015.012.038.027.053.033.016.007.024.012.021.014-.031.011-.044.014-.063.014h-.022l-.025.03-.025.03.005.029c.004.026.004.032-.001.054-.007.029-.008.06-.002.081.004.016.054.095.078.124l.014.018.003.052c.001.029.001.052-.001.052s-.013-.006-.025-.013zm.3936.491c-.0257-.0245-.0264-.0256-.0264-.0446 0-.036-.0077-.0476-.08-.1212-.037-.0376-.075-.079-.0848-.0918-.0175-.0233-.0362-.056-.0335-.0588 0-.0008.011.0056.024.014.029.02.054.0272.091.0272.029 0 .03 0 .045.016.018.0185.043.031.064.031.013 0 .015.001.022.0185.006.014.013.021.029.032.012.007.022.015.022.016 0 .001-.008.008-.017.014-.014.009-.018.016-.028.041-.017.045-.019.061-.009.097.004.017.007.031.006.032-.001 0-.013-.01-.028-.024zm-2.5254-1.485c-.0048-.001-.0087-.003-.0087-.0043.0003-.007.0114-.0163.019-.0163.007 0 .0085.002.0075.0104-.0013.0112-.004.0128-.0178.0102z"/><path fill="#fff" d="M10.9406 16.8142c-.035-.1-.118-.1276-.1846-.061-.0434.0433-.1957.0096-.197-.0437-.0004-.0212-.0426-.0795-.0936-.1296-.051-.051-.093-.11-.093-.133 0-.051-.2274-.199-.3055-.199-.032 0-.071.012-.087.028-.042.039-.233.004-.233-.043 0-.021-.027-.063-.06-.093-.047-.042-.074-.047-.122-.021-.035.018-.068.05-.075.071-.007.02-.046-.067-.087-.195s-.085-.254-.098-.28c-.013-.026-.032-.098-.042-.16-.01-.062-.066-.175-.125-.25-.08-.103-.105-.165-.101-.247.005-.093-.006-.111-.069-.12-.041-.006-.089.005-.108.023-.019.018-.065.034-.104.034-.039 0-.12.029-.181.065-.116.068-.126.063-.149-.079-.006-.035-.052-.074-.11-.094-.055-.019-.12-.061-.144-.094-.028-.038-.067-.054-.107-.043-.058.015-.062.005-.048-.1.019-.14-.033-.251-.118-.251-.034 0-.062-.011-.062-.024 0-.028-.224-.102-.31-.102-.034 0-.07.014-.081.031-.027.043-.37.039-.467-.005-.06-.027-.089-.027-.123.001-.032.027-.081.028-.181.005-.075-.017-.2-.032-.277-.033-.077-.001-.168-.022-.201-.048-.077-.058-.187-.059-.234-.003-.02.023-.038.093-.04.154-.004.1-.014.112-.101.121-.079.007-.098.024-.107.095-.007.061-.028.086-.071.086-.035 0-.076.033-.096.077-.031.066-.023.095.05.201.047.068.076.139.065.157-.031.049-.129.04-.175-.016-.024-.029-.072-.044-.113-.036-.084.016-.16-.057-.194-.185-.019-.072-.045-.093-.131-.105-.059-.009-.146-.042-.192-.073-.061-.042-.112-.052-.181-.037-.084.018-.111.006-.202-.091-.058-.061-.115-.157-.127-.214-.025-.117-.234-.336-.321-.336-.032 0-.075-.035-.094-.078-.027-.058-.06-.078-.128-.078-.051 0-.101.012-.11.028-.01.015-.072.021-.139.012-.072-.01-.13-.002-.142.018-.012.019-.052.035-.088.035-.037 0-.101.032-.144.07l-.077.07.018-.073c.012-.048-.002-.093-.042-.133-.076-.076-.11-.075-.177.003-.03.034-.07.062-.091.062-.021 0-.073.042-.116.094-.044.051-.099.093-.123.093-.024 0-.076.035-.116.078-.064.068-.069.088-.037.158.02.044.028.115.017.158-.014.054-.001.099.043.146.072.079.119.339.056.315-.071-.027-.124.074-.085.161.033.073.03.077-.059.077-.052 0-.138-.022-.19-.049-.091-.048-.099-.046-.173.023-.043.04-.136.088-.208.106l-.131.033.007.165c.006.14-.008.187-.089.304-.078.114-.094.166-.088.286.015.278.007.303-.094.307-.076.002-.098-.014-.125-.091-.018-.052-.033-.12-.033-.152s-.013-.058-.028-.058c-.04 0-.08-.154-.07-.269.006-.074-.016-.122-.093-.198-.056-.056-.134-.114-.174-.129-.04-.015-.073-.053-.073-.086 0-.032-.01-.068-.022-.079-.012-.012-.025-.041-.028-.064-.01-.066-.11-.206-.173-.239-.031-.017-.081-.083-.11-.147-.029-.064-.094-.161-.144-.214-.075-.081-.093-.129-.1-.275-.004-.094-.024-.19-.044-.21-.02-.02-.037-.072-.037-.117 0-.045-.016-.097-.035-.116-.052-.052-.009-.096.077-.08.041.008.085-.001.096-.02.012-.019.078-.034.147-.034.102 0 .129-.013.143-.066.015-.059.034-.065.161-.051.079.008.161.009.183.001.066-.025.045-.153-.032-.19-.07-.034-.07-.034.011-.036.045-.001.106.026.138.06.031.035.08.063.109.063.055 0 .188-.124.188-.175 0-.044.118-.138.173-.138.026 0 .063-.034.082-.077.029-.064.021-.105-.049-.248-.046-.094-.1-.177-.12-.184-.02-.007-.04-.067-.044-.133-.006-.093-.03-.139-.103-.196-.053-.041-.095-.093-.095-.116 0-.023-.016-.047-.036-.054-.026-.008-.026-.031.003-.085.023-.043.032-.125.022-.2-.012-.092-.004-.136.031-.161.026-.019.055-.099.064-.176.015-.135.01-.146-.11-.24-.069-.055-.142-.099-.162-.099-.02 0-.004-.04.036-.089.061-.074.078-.081.106-.043.039.053.19.061.238.012.018-.018.039-.108.046-.199.02-.257.033-.295.15-.422.084-.092.109-.146.109-.237 0-.076-.017-.125-.047-.136-.026-.01-.047-.045-.047-.078s-.017-.087-.038-.12c-.031-.049-.028-.071.016-.119.029-.033.053-.082.053-.109s.028-.059.062-.07c.035-.011.071-.054.082-.096.01-.042.042-.076.07-.076s.09-.048.136-.107c.064-.08.119-.112.219-.129.074-.012.149-.034.167-.048.035-.029.201.105.201.162 0 .017.032.027.071.022.055-.008.073-.034.081-.114.005-.057-.009-.126-.031-.153-.033-.039-.033-.052-.003-.063.022-.007.039-.033.039-.057 0-.035.068-.045.336-.047.395-.003.551-.046.563-.157.026-.231.04-.264.132-.305.057-.025.094-.064.094-.101 0-.033.014-.06.031-.06s.039-.033.049-.074c.01-.04.056-.091.102-.113.046-.021.102-.047.124-.058.023-.011.086-.104.141-.207.064-.12.122-.191.162-.197.159-.024.195-.042.229-.117.02-.044.037-.12.037-.167 0-.068.024-.098.106-.137.185-.088.394.009.394.184 0 .066.018.113.047.124.026.01.07.069.097.131.027.062.065.142.084.176.019.035.037.157.04.273.003.116.023.232.045.258.053.064.018.228-.068.319-.078.083-.285.098-.379.027-.092-.07-.306-.518-.314-.657-.009-.153-.037-.204-.112-.204-.077 0-.122.134-.114.343.006.163.001.177-.112.279-.065.058-.119.129-.12.156-.001.027-.02.075-.044.106-.03.039-.035.084-.017.147.015.049.018.12.009.156-.02.076.127.249.211.249.061 0 .156-.095.156-.157 0-.023.036.006.08.065.044.059.107.118.141.13.068.025.153.003.159-.041.002-.015.008-.038.012-.051.005-.013.019-.055.031-.094.024-.072.042-.077.285-.078.167-.001.192.017.176.127-.017.117.074.163.139.069.024-.035.063-.063.085-.063.022 0 .065-.027.096-.061.064-.071.11-.057.11.034 0 .041.036.077.108.107.142.059.19.057.258-.012.044-.044.111-.058.306-.064l.25-.007.133.127c.137.131.19.148.288.096.043-.023.077-.014.14.035.06.047.109.06.175.047.085-.017.092-.011.092.074 0 .074.017.097.081.113.045.011.091.008.102-.008.011-.015.058-.052.105-.082.054-.034.092-.092.105-.16.016-.084.032-.103.079-.09.106.028.488.503.545.678.046.144.164.133.247-.023.051-.098.055-.13.025-.18-.021-.033-.038-.094-.038-.135 0-.041-.021-.092-.047-.114-.039-.032-.04-.045-.007-.074.06-.051.123-.26.101-.331-.015-.048.003-.07.084-.104.122-.051.17-.104.257-.286l.065-.136.109.037c.1.034.109.047.101.145-.005.06-.038.139-.074.177-.055.058-.062.093-.044.21.015.106.006.174-.04.275-.087.195-.151.549-.111.613.04.064-.02.179-.183.352-.119.127-.254.163-.328.089-.05-.049-.166-.003-.166.066 0 .076.175.25.252.25.033 0 .06.014.06.031 0 .048.181.037.209-.012.014-.024.078-.066.142-.093.065-.027.129-.08.145-.12.015-.04.057-.099.093-.132.048-.043.066-.096.066-.196 0-.148.059-.204.153-.144.039.025.048.071.04.195-.013.185.048.283.173.283.103 0 .13-.09.048-.157-.047-.038-.056-.063-.032-.087.045-.045.059-.255.021-.325-.017-.032-.089-.094-.16-.139-.101-.064-.141-.074-.183-.048-.03.018-.06.026-.068.018-.032-.031.035-.274.1-.362.041-.055.061-.114.049-.145-.045-.117-.045-.25 0-.287.038-.032.046-.026.046.039 0 .103.112.243.195.243.036 0 .089.021.118.047.058.052.155.031.155-.033 0-.023-.036-.085-.081-.138-.061-.073-.069-.096-.032-.096.055 0 .122-.105.088-.14-.012-.012.013-.0178.056-.0118.046.006.093.043.116.091.062.128.153.195.239.173.042-.011.084-.041.094-.067.022-.057-.039-.204-.105-.255-.031-.024-.048-.091-.048-.196l-.001-.16.157.005c.215.006.445-.033.486-.082.019-.023.031-.074.027-.114-.022-.252.063-.368.356-.482.107-.042.217-.106.244-.142.041-.055.061-.06.115-.031.062.033.104.029.241-.027.035-.014.088-.034.118-.043.03-.01.055-.045.055-.078 0-.034.028-.067.063-.076.054-.014.06-.035.044-.152-.015-.11-.006-.152.049-.222.08-.102.144-.116.093-.021-.051.0944-.014.1535.094.1535.072 0 .095.014.095.059 0 .038.03.067.081.08.063.015.098.002.155-.059.091-.098.232-.107.288-.017.021.034.06.062.087.062.038 0 .041.013.016.06-.026.048-.02.07.029.104.052.037.058.06.033.144-.016.055-.065.143-.109.195-.044.053-.08.114-.08.137 0 .061-.096.226-.191.331-.098.1077-.146.306-.084.346.058.037.099.0185.135-.0607.017-.038.055-.068.084-.068.029 0 .072-.026.094-.057.022-.032.072-.075.111-.095.042-.022.07-.067.07-.11 0-.061.016-.072.093-.07.051.002.1.021.108.042.027.071.137.042.179-.047.055-.116.247-.168.332-.091.081.073.276.066.45-.018.134-.065.147-.081.148-.182 0-.061-.015-.127-.035-.147-.027-.026.001-.033.111-.026.103.007.152-.003.164-.033.018-.046.135-.061.135-.017 0 .014.033.065.074.113.041.047.068.111.06.141-.01.036.018.078.079.122.051.037.103.066.115.066.012 0 .057.028.101.062.107.085.34.088.366.004.01-.032.004-.096-.013-.142-.048-.126-.042-.138.077-.1605.105-.02.149-.054.158-.123l.009-.072c.003-.027.04-.039.106-.033.126.011.189-.025.171-.097-.008-.03.011-.0695.044-.09.077-.048.074-.146-.007-.203-.04-.028-.072-.093-.082-.17-.015-.107-.008-.128.048-.145.035-.0117.073-.048.083-.082.025-.077.053-.077.102.003.031.05.052.057.098.032.047-.025.061-.019.074.031.009.034.038.062.065.062.071 0 .119-.111.098-.227-.012-.067-.003-.123.028-.164.047-.062.047-.062.096.006.039.055.079.069.205.068.13-.001.156-.011.156-.059s.017-.055.104-.041c.092.015.116.003.203-.1027.054-.066.099-.151.099-.19 0-.096.221-.322.314-.322.04 0 .113.038.161.084l.088.084.14-.068c.095-.047.14-.088.14-.13 0-.033.014-.069.031-.08.017-.011.031-.053.031-.094s.02-.086.044-.1c.068-.038.205-.254.205-.323 0-.0464.021-.061.09-.061.049 0 .141-.021.203-.047.094-.039.113-.063.113-.14 0-.071-.022-.104-.092-.14-.051-.026-.119-.048-.151-.048-.033 0-.068-.008-.078-.019-.025-.025.041-.141.11-.1935.03-.023.048-.054.039-.0685-.026-.043.108-.285.232-.4163.062-.066.169-.149.238-.1844.069-.035.203-.132.299-.216.096-.083.185-.151.198-.151.013 0 .059-.027.101-.06.076-.06.211-.068.329-.019.066.027.245-.099.245-.174 0-.063-.064-.093-.15-.0704-.053.014-.059.004-.046-.072.018-.1.092-.198.149-.198.021 0 .056-.021.078-.048.061-.073.103-.007.101.156l-.002.142h.117c.108 0 .22.071.22.139 0 .014-.045.076-.099.138-.076.086-.119.11-.186.103-.102-.011-.202.111-.171.208.022.071-.067.106-.202.079-.069-.014-.088-.004-.103.054-.032.123.054.237.194.26.2183.035.305.259.128.332-.1.042-.111.075-.063.201.037.097.14.107.1953.018.021-.034.052-.063.068-.063.016 0 .055-.024.088-.053.048-.043.07-.046.119-.016.077.048.12.047.219-.005.051-.027.105-.033.15-.016.064.024.066.031.021.075-.027.027-.049.061-.049.075 0 .014-.028.033-.063.042-.059.015-.094.147-.039.147.036 0 .089.152.125.36.049.282.1.462.146.515.022.026.05.121.061.211.017.135.013.164-.026.164-.066 0-.186.241-.194.388-.004.077-.026.133-.058.151-.04.023-.047.056-.032.144.012.07.001.166-.028.249l-.048.134.124.135c.076.083.124.165.124.214 0 .053.035.1054.107.1604.135.103.26.108.298.012.021-.05.029-.056.031-.018.0026.071.1497.182.2426.182.06 0 .072.012.057.059-.048.15.162.378.349.378h.074l-.067.091c-.092.124-.06.293.078.424.08.075.096.111.08.173-.031.119.021.266.108.305.042.019.097.067.121.107.052.083.096.337.059.337-.039 0-.638-.315-.72-.378-.04-.031-.149-.078-.242-.105-.134-.039-.206-.087-.342-.228-.095-.098-.172-.194-.172-.212 0-.018-.0316-.096-.07-.172-.051-.102-.07-.198-.072-.36-.002-.169-.021-.261-.083-.391-.044-.093-.103-.242-.131-.331-.0275-.088-.0665-.201-.086-.25-.02-.048-.033-.136-.029-.194.008-.124-.085-.316-.154-.316-.064 0-.229-.177-.189-.203.052-.032.038-.141-.018-.141-.027 0-.09.029-.14.064-.1193.085-.125.236-.0126.342.043.041.078.097.078.125 0 .028.012.064.027.08s.036.087.046.157c.016.107.011.128-.033.128-.029 0-.086-.04-.128-.089-.059-.071-.084-.082-.118-.0536-.024.0192-.043.06-.043.091s-.028.062-.063.071c-.042.011-.063.043-.063.0954 0 .043-.014.088-.031.098-.04.025-.04.2876 0 .313.018.01.032.052.032.093s.014.083.031.093c.017.011.031.0746.031.142 0 .114.106.374.152.374.012 0 .016.053.01.119-.01.111-.018.119-.117.122-.066.001-.15.037-.224.094-.065.05-.142.1-.172.111-.029.011-.062.059-.073.107-.034.154-.105.281-.185.334-.043.028-.078.069-.078.09s-.031.052-.07.069-.137.12-.219.229c-.137.181-.149.212-.15.375 0 .097-.001.219-.003.27-.002.051.003.298.011.547.012.438.006.514-.068.808-.062.248.015.324.225.223.071-.034.131-.059.134-.054.003.004.022.039.042.078.03.057.062.069.169.067.107-.003.15-.023.235-.112.097-.103.1-.113.054-.183-.061-.094-.061-.098.017-.14.087-.046.334.024.359.102.009.031.044.056.076.056s.068.015.079.033c.011.018.054.046.096.062s.075.053.075.084c0 .128.072.298.181.425.063.074.151.195.194.268.043.073.111.174.151.224.059.074.069.114.053.209-.021.125.009.355.092.711.033.142.044.276.031.381-.011.0895-.019.3286-.018.5316.001.341-.005.381-.083.531-.087.168-.17.2188-.295.179-.035-.011-.098-.002-.14.021-.088.047-.161.016-.216-.0933-.019-.0372-.066-.101-.104-.142-.047-.05-.058-.0802-.034-.0952.02-.012.049-.057.065-.099.016-.043.043-.069.06-.058.042.025.145-.033.169-.096.024-.063-.04-.452-.083-.506-.017-.021-.023-.039-.013-.039s-.005-.053-.032-.117c-.028-.065-.048-.16-.046-.211.003-.062-.0263-.129-.0864-.199-.073-.086-.105-.102-.17-.086-.091.023-.314.344-.287.414.011.028-.022.062-.092.096-.06.028-.108.063-.108.076 0 .014-.02.017-.044.008-.0362-.014-.033-.043.0217-.163.137-.305.104-.85-.072-1.196-.172-.337-.565-.619-.96-.688-.679-.119-1.416.435-1.498 1.128-.018.151-.031.172-.169.271-.226.162-.297.452-.117.473.046.005.09.026.097.047.008.02-.006.154-.031.297-.04.236-.039.268.007.338.0435.067.045.084.0075.115-.024.02-.067.075-.097.122-.049.079-.069.086-.248.086-.119 0-.221.0174-.259.0444-.042.029-.079.035-.109.016-.083-.052-.183-.029-.294.068-.061.054-.119.131-.129.172-.01.041-.07.105-.132.142-.062.037-.15.101-.194.142-.066.06-.128.077-.337.0935-.235.018-.261.014-.302-.043-.08-.114-.719-.154-.832-.052-.031.028-.119.058-.195.066-.148.017-.136.024-.33-.209-.078-.094-.109-.109-.232-.11-.078-.001-.152-.012-.165-.024-.013-.013-.055-.024-.095-.024-.039 0-.106-.016-.15-.036-.094-.043-.144-.01-.26.172-.062.0995-.073.146-.057.249.011.07.036.146.055.169.027.033.018.06-.043.1204-.076.075-.084.077-.321.047-.199-.025-.259-.046-.333-.116-.061-.059-.122-.086-.192-.086-.056 0-.128-.017-.159-.039-.046-.031-.08-.03-.179.009-.068.027-.123.06-.123.075s-.023.027-.052.027-.098.036-.154.079c-.056.043-.117.078-.134.078-.018 0-.044.021-.058.047-.015.026-.103.077-.197.112-.277.105-.269.105-.306 0z"/><path fill="#fff" d="M19.2456 14.5348c-.1007-.104-.489-.442-.5076-.442-.0076 0-.0667-.0483-.1313-.1074l-.1174-.1075.0792-.136c.198-.338.6714-.375.9215-.071.19.23.1977.551.019.788-.1186.157-.17.171-.2634.075z"/><path fill="#fff" d="M19.7917 14.54c-.0225-.0076-.0136-.0714.0267-.1902.1858-.5476-.198-1.1105-.7587-1.1127-.342-.001-.6587.213-.7522.509-.0448.142-.1063.191-.2385.191-.0972 0-.1027-.005-.085-.086.0762-.347.3763-.701.6943-.821.199-.074.5352-.082.7218-.016.54.191.85.785.722 1.383-.032.15-.032.15-.164.153-.072.002-.147-.002-.166-.009z"/></svg>