<?xml version="1.0" encoding="UTF-8" standalone="no"?>
<svg
   xmlns:dc="http://purl.org/dc/elements/1.1/"
   xmlns:cc="http://creativecommons.org/ns#"
   xmlns:rdf="http://www.w3.org/1999/02/22-rdf-syntax-ns#"
   xmlns:svg="http://www.w3.org/2000/svg"
   xmlns="http://www.w3.org/2000/svg"
   xmlns:sodipodi="http://sodipodi.sourceforge.net/DTD/sodipodi-0.dtd"
   xmlns:inkscape="http://www.inkscape.org/namespaces/inkscape"
   width="23.984489"
   height="21.993822"
   id="svg10364"
   version="1.1"
   inkscape:version="0.91 r"
   sodipodi:docname="XSLC.svg">
  <metadata
     id="metadata10376">
    <rdf:RDF>
      <cc:Work
         rdf:about="">
        <dc:format>image/svg+xml</dc:format>
        <dc:type
           rdf:resource="http://purl.org/dc/dcmitype/StillImage" />
        <dc:title></dc:title>
      </cc:Work>
    </rdf:RDF>
  </metadata>
  <defs
     id="defs10374" />
  <sodipodi:namedview
     pagecolor="#ffffff"
     bordercolor="#666666"
     borderopacity="1"
     objecttolerance="10"
     gridtolerance="10"
     guidetolerance="10"
     inkscape:pageopacity="0"
     inkscape:pageshadow="2"
     inkscape:window-width="1366"
     inkscape:window-height="747"
     id="namedview10372"
     showgrid="false"
     fit-margin-top="0.9"
     fit-margin-left="0"
     fit-margin-right="0"
     fit-margin-bottom="0.9"
     inkscape:zoom="32.005397"
     inkscape:cx="15.179238"
     inkscape:cy="7.7210211"
     inkscape:window-x="0"
     inkscape:window-y="21"
     inkscape:window-maximized="1"
     inkscape:current-layer="svg10364" />
  <path
     d="m 19.177282,0.95913455 -0.176016,0.0782298 -0.271848,0.066495 -0.28065,0.1564596 -0.141792,0.042049 -0.130057,0.2366452 -0.06552,0.051827 -0.0098,0.123212 0.07236,-0.00978 0.14277,0.011734 0.02152,0.092898 0.04498,0.073341 -0.0098,0.1897073 -0.136903,0.1642827 -0.100723,0.3637685 -0.044,0.191663 -0.06845,0.2024195 0.07628,0.1202784 -0.06454,0.1339688 -0.145703,0.034225 -0.15646,0.1857958 -0.124189,0.088986 -0.205354,-0.00978 -0.214154,-0.085075 -0.168194,0.5339183 0.02347,0.084097 -0.05086,0.070407 -0.02151,0.2239325 -0.09387,0.082141 0.07334,0.1564596 0.109523,0.07823 0.08117,-0.088008 0.298251,-0.062584 0.159393,0.074318 0.09974,-0.1857956 0.253268,-0.044982 0.149615,0.090942 0.107567,0.013691 0.06845,0.1036551 0.22491,0.1329905 0.121256,0.2366451 -0.08019,0.092898 -0.138857,0.033247 -0.179929,-0.044004 -0.07236,0.038138 -0.111477,-0.019555 -0.215132,0.1701498 -0.103651,-0.020536 -0.03619,0.106588 -0.176017,0.022491 -0.128101,0.1300571 -0.06845,0.162327 0.002,0.104632 -0.198507,0.209265 -0.373549,0.051828 -0.06942,0.1320127 -0.278693,0.2718487 -0.384304,-0.017605 -0.08801,-0.072363 -0.225888,-0.00684 -0.146681,0.4009277 0.25718,0.3099857 -0.08507,0.068451 -0.07334,0.080185 -0.183839,0.1016984 -0.265982,0.3569236 -0.356923,0.1877515 -0.481114,0.042046 -0.154504,0.039114 -0.19753,-0.026401 -0.0753,0.065517 -0.217088,0.056717 -0.338343,0.1750394 -0.349101,0.2219772 -0.112455,-0.035202 -0.07823,-0.1075661 -0.157439,0.042047 L 12.24809,8.1699652 11.918547,8.0888017 11.781645,7.9235413 11.096157,7.8130415 10.724565,7.8766036 10.316792,7.8022852 9.9706249,7.7739267 9.626414,7.6888519 9.4357285,7.4346051 9.303716,6.9935848 l -0.07823,-0.051828 0,-0.1036541 L 9.0426238,6.7901874 8.7199258,6.5594094 8.5272848,6.378503 7.8554868,6.2807159 7.6784918,6.1858624 7.5445232,6.1594609 7.4799832,6.0861208 7.4975874,5.9120592 7.6481794,5.7037722 7.6159096,5.5434011 7.6794706,5.4622378 7.6912044,5.3341366 7.5523468,5.0671771 7.5142072,4.8452 7.3890396,4.6594044 7.3205885,4.6740698 7.1875978,4.5352117 l -0.070407,0.022491 -0.1007205,0 -0.05085,-0.069429 L 6.8844573,4.3093233 6.7103959,4.1919783 6.7133559,4.1245053 6.6321929,3.9876031 6.6732649,3.9250191 6.6673949,3.8233204 6.553962,3.8507014 6.436617,3.8008304 6.2958034,3.8243004 6.2781994,3.9367558 6.2224604,4.0687686 6.0405759,4.1489546 5.8665145,4.1196186 5.7266788,4.440361 5.7462338,4.6936298 5.7080938,4.8246648 5.5487006,4.8549768 5.3980742,4.9283188 5.3384242,4.8588898 5.2318414,4.8021724 5.0890715,4.7933727 4.7614843,4.6075768 4.7125907,4.730789 4.4485652,5.1806101 4.319486,5.449525 4.4241179,5.5531801 4.3527329,5.6949715 4.2657009,5.6353205 4.1248874,5.6372605 4.0271004,5.511115 3.7591633,5.560008 l -0.3579016,0 -0.088008,0.072363 0.1955742,0.1173449 -0.048893,0.080186 -0.063562,0.2483793 0.067473,0.325632 -0.028358,0.1007206 0.014668,0.1105 -0.1388581,0.039113 -0.00685,0.099744 -0.1398356,0.054761 -0.00978,0.1193005 L 3.10203,7.1744789 2.9944642,7.1402508 2.9044996,7.1959895 2.6854564,7.2321708 2.3383115,7.3348474 2.1456706,7.5010859 1.8855565,7.4737076 1.6577122,7.3876552 1.4758279,7.5890965 1.3457709,7.6868835 1.2382049,7.6477702 1.1091257,7.6595039 1.0553427,7.4737081 0.91452908,7.5255353 0.75024644,7.4658855 0.74046768,7.5245578 0.52044637,7.59692 0.38354422,7.5744289 0.28575694,7.6585258 0.25739875,7.8501891 0.13907616,7.8726801 0.09311615,7.9753572 0.13907616,8.1279049 0.0667136,8.1650649 0.09996127,8.388998 0.22610685,8.325436 l 0.24837963,0.1593932 -0.0606281,0.1564593 0.0195573,0.1105 -0.0195573,0.2581585 0.001958,0.1271234 -0.27869372,0.00296 -0.004889,0.079208 0.14570298,0.096809 0.17308351,0.042051 0.0430264,0.1329902 0.12516766,0.049872 0.0352032,0.2131762 -0.0459598,0.1369024 0.0713848,0.1603708 0.11147748,0.02249 0.15548173,0.176017 0.34910058,0.165261 0.022491,-9.84e-4 0,9.84e-4 0.019557,-0.002 0.041071,0 0.017601,0.03325 -0.029336,0.04889 -0.01369,0.044 0.02738,0.103654 0.00293,0.03911 -0.00391,0.05378 0.016624,0.03911 0.00587,0.06356 -0.00587,0.0352 0.025425,0.05574 0.048894,0.02151 0.082141,0.03618 0.036182,0.044 0.016624,0.0352 0.046938,0.02738 0.017601,0.03227 -0.00978,0.05867 -0.030314,0.0264 -0.097787,0.01564 -0.00978,0.05183 0.00293,0.04987 0.00587,0.05476 -0.00783,0.04107 -0.024446,0.09094 0.016624,0.06845 -9.812e-4,0.0088 0.00587,0.0068 9.812e-4,0.0068 0.012712,0.01272 0,-0.002 0.1202783,0.143747 0,0.0068 -0.042048,-0.01956 -0.012712,0.03716 -0.019557,0.02347 -0.00684,0.02249 0.011734,0.01956 0.019557,0.0098 0.014668,0.04694 -0.012712,0.03129 -0.016624,0.0098 0.011734,0.02445 0,0.02151 -0.015646,0.03716 0.00587,0.02152 -0.020535,0.0264 -0.00587,0.03423 0.029336,-0.004 0.025425,-0.01369 -0.00196,0.01369 -0.2249108,0.044 -0.040092,-0.127124 -0.1251677,-0.02445 -0.023469,0.149614 0.072363,0.191663 -0.00587,0.01858 -0.00978,-0.02346 -0.048894,-0.06161 -0.024447,-0.06552 -0.031291,0.0098 0.00196,0.04204 0.019557,-0.0059 0.029336,0.05086 0.034225,0.05573 0.00978,0.04792 0.00391,-0.0048 -0.00978,0.02737 0.00684,0.09779 -0.029336,0.09486 -0.00196,0.06161 0.045959,0.04498 -0.00978,0.004 0.022491,0.04597 9.812e-4,0.04303 0.01369,0.02836 0.072363,0.02934 0.03227,0 0.020535,0.002 0.092898,0.09094 0.1574374,0.04108 0.080186,0.123212 -0.020535,-0.02346 -0.00489,0.0352 -0.00196,0.02347 0.025425,0.0098 0.021513,0.02933 0.019557,-0.01369 0.011734,0.01761 0.1721055,0.161349 0.1251677,0.138858 0.052805,0.108543 0.2542468,-0.172104 0.029337,0.09094 0.1134332,0.0792 0.2268664,0.159393 0.099743,0.142768 0.1838401,0.145704 0.044982,0.198507 0.1193006,0.111478 0.1007205,-0.131037 0.089964,0.05183 -0.026401,0.223933 0.3050962,0.195575 0.1339686,-0.01272 -0.012712,0.0792 0.025424,0.114412 0.1378802,0.02933 0.1613489,0.107566 0.042048,0.12419 0.071385,-0.07334 0.076274,0.08508 0.065518,0.02934 0.1163669,-0.0704 0.2483796,0.205352 0.1408133,-0.02151 0.075296,0.05378 0.4596002,-0.102675 0.1095214,0.06062 0.00296,0.08801 -0.070407,0.152548 0.027378,0.08801 0.044005,-0.0048 0.1447246,-0.154504 0.1760176,-0.146681 0.2464237,-0.113432 0.1427692,0.04889 0.1505929,0.150593 0.2835825,0.03618 0.1799288,0.127123 -0.043025,0.0929 0.024447,0.06845 0.046936,0.04987 0.1114777,0.0059 0.037161,0.03912 -0.00487,0.04792 -0.044983,0.0577 9.837e-4,0.05183 0.029339,0.02249 0.014668,0.05574 -0.00487,0.02053 0.094853,0.0029 0.094854,-0.0176 0.07334,-0.02347 0.066495,0.05084 0.084097,0.0029 0.084097,0.01858 0.084097,-0.01075 0.041072,0.0068 0.023467,-0.0068 0.1036541,-0.01956 0.057695,-0.01369 0.019555,-0.08214 0.074318,-0.0704 0.067473,-0.03911 0.070407,-0.07628 0.097787,-0.01858 0.1681943,-0.03423 0.07334,-0.04597 0.060628,-0.01564 0.051828,-0.03031 0.050849,-0.01956 0.031289,-0.08606 0.2806498,-0.08606 0.014668,0.03422 0.040092,0.0264 0.068451,-9.84e-4 0.043025,-0.0176 0.031289,0.05183 0.035202,0.0059 0.00978,-0.01173 0.088008,0.06943 0.095832,0.08019 0.068451,0.0264 0.034228,0.03912 0.00296,0.03227 0.1681933,-0.108544 0.013694,-0.04596 -0.015644,-0.06161 0.015644,-0.04889 -0.015644,0 0.085075,-0.09779 0.089964,-0.03129 0.06454,0.07823 0.097788,0.04303 0.050849,0.176994 0.1046321,0.231755 0.04889,-0.06161 0.111478,0.06943 -0.01955,0.189705 0.01955,0.08214 -0.01075,0.376479 -0.07334,0.154505 0.02445,0.120278 -0.07823,0.03423 -0.08312,0.114412 -0.075296,0.004 -0.040092,0.112455 -0.1525485,0.06063 -0.042046,0.141792 0.014668,0.05867 -0.080185,0.0264 -0.037161,0.06258 0.015645,0.122236 0.041072,0.04595 0.019555,0.104627 -0.066495,0.107566 0.014668,0.06161 0.1290794,-0.044 0.072363,-0.07431 0.2268671,-0.01467 0.05867,0.03619 0.126146,-0.01272 -0.08801,0.124191 0.06454,0.09779 0.04205,0.266958 0.08703,0.07628 0.194596,0.0029 0.02053,0.06845 -0.09094,0.136903 0.01955,0.106587 -0.07725,0.100724 -0.02445,0.1017 0.08801,0.03911 0.04889,-0.0098 0.255225,0.05965 -0.01564,0.125168 0.07236,0.07529 0.07139,0.144725 0.06259,-0.06356 0.115391,0.04792 0.121255,-0.100724 0.131034,-0.04596 0.114412,0.293362 0.117345,-0.02053 0.111477,0.0264 0.0225,-0.254247 -0.11441,-0.309985 0.07432,-0.141793 0.06454,0.02934 0.172106,-0.0098 0.09387,-0.0704 0.07334,-0.107566 0.160371,0.08019 0.0577,0.07236 0.04889,0.004 0.170151,-0.180907 0.08117,0.115391 0.06356,-0.112457 0.156459,0.154505 0.04204,-0.102675 0.07823,-0.07823 0.06552,0.06161 0.08214,-0.03911 0.173083,-0.06747 0.0059,-0.102676 0.234689,-0.159392 0.127124,0.122234 0.183839,0.09876 0.117345,-0.03911 0.07823,0.07628 0.09779,-0.04009 0.140814,0.05183 0.0029,0.07628 -0.08996,0.07139 -0.0079,0.08214 0.03911,0.03911 0.04498,0.173084 0.147659,0.03716 0.0792,0.09192 0.181884,0.07431 0.166238,-0.04596 0.08801,0.05867 0.08214,-0.03227 0.01369,0.01075 0.04889,0 0.02543,-0.05476 0.06845,-0.01956 0,-0.117343 0.06845,-0.01761 0.01761,0.07432 0.06259,0.08019 0.03618,-0.03716 0.06845,0.03716 0.06845,0.01858 0.02543,0.09779 0.04204,-0.02933 0.148637,-0.03227 -0.02445,-0.104637 0.0313,-0.0059 0.07432,0.0929 0.141792,0.01173 -0.02934,0.05574 -0.06845,0.10561 -0.0264,0.198509 0.06845,0.0176 0.01272,0.14277 0.105609,0.05573 -0.03129,0.02445 0.01956,0.06258 0.184818,-0.0059 0.08703,-0.08703 0.0059,-0.03716 -0.08703,-0.08703 -0.01858,-0.08606 -0.06845,-0.02445 -0.02347,-0.08117 0.05476,-0.05573 0.08801,-0.06161 0.06062,-0.0068 0.08801,-0.117343 0.09779,-0.0068 0.04303,-0.05476 0.136903,-0.0068 0.04303,-0.03716 0.08117,0 0.08019,-0.05573 0,-0.05476 0.07431,-0.02542 0.05573,-0.0313 0.178951,0 0.01956,-0.05573 0.09192,0.02445 0.105611,-0.07432 0.09876,0 -0.0098,-0.144725 0.02445,-0.05183 0.08214,0.107566 0.08703,-0.112455 -0.03129,-0.07823 0.06845,0.0665 0.03716,-0.0068 0.02347,-0.04597 -0.0059,-0.044 -0.0352,-0.08997 -0.0088,-0.08606 -0.02053,-0.03325 0.01858,-0.04889 0.04889,0.04889 0.05476,-0.0048 0.02445,0.05867 0.05867,0.05378 0.06747,-0.0039 -0.02543,0.08801 0.06161,-0.0059 0.04205,0.0098 0.06845,0.01369 -0.01369,-0.04498 0.04987,-0.03129 -0.07823,-0.06552 0.08312,-0.03325 0.07139,0.03325 0.0068,-0.0929 0.08606,-0.04303 0.01272,0.0929 0.08019,-0.0059 0.03716,-0.06258 0.08703,-0.08019 0.07431,-0.0059 0.03031,0.01858 0.0068,0.05575 0.06845,0 0.01858,-0.105611 0.02445,-0.0313 0.09876,0.05574 0.0929,-0.06845 0.05575,-0.01173 0.07431,-0.05574 0.117345,-0.01858 0.01272,-0.130056 0.09876,-0.04303 -0.03619,-0.06161 -0.04987,-0.01956 0.14277,-0.01272 0.09192,-0.04204 -0.04889,-0.044 0.04303,-0.06259 0.08703,0.0068 0.01858,-0.08703 0.06845,0.01272 -0.02543,-0.111477 0.0929,0.02445 0,-0.104637 0.06845,0 0.04889,-0.08018 0.04889,-0.04987 -0.02933,-0.06258 -0.05672,-0.04889 0.09876,-0.01858 0.044,-0.06161 0.07431,-0.03814 0.104637,0 0.03129,-0.04303 0.02543,-0.05573 -0.04987,-0.03031 -0.01956,-0.04987 0.131035,-0.0059 0.02445,-0.044 -0.03618,-0.06845 0.04889,-0.04303 0.04889,-0.04303 0.05672,-0.01956 -0.05573,-0.06747 0.01173,-0.06845 0.044,-0.04889 0.06845,0.04303 0.05476,0.01272 0.01272,-0.04303 -0.05574,-0.08019 0.05574,-0.08801 -0.03129,-0.05476 0.01272,-0.05573 -0.03716,-0.06259 0.03031,-0.09779 0.044,-0.05672 -0.02543,-0.04303 -0.0929,-0.08019 0.01956,-0.06845 0.08018,0.01272 0.02445,0.02934 0.01956,-0.09779 0.0792,-0.05573 0.03814,-0.03129 0.0059,-0.08606 0.04889,-0.04987 -0.04303,-0.03129 0.06258,0 0.06845,-0.0929 -0.0068,-0.0929 0.0068,-0.05573 0.04303,-0.123212 0.03716,-0.08703 0.04303,-0.03129 0.01173,-0.148637 0.07431,-0.03031 0.01956,0.12419 0.06747,-0.09387 0.08117,-0.05476 -0.04987,-0.106589 -0.044,-0.07431 0.06845,-0.06161 0,-0.08703 0.06845,-0.09192 -0.02445,-0.07432 0.04303,-0.03716 -0.02445,-0.09387 -0.01272,-0.148637 -0.044,0.10561 -0.06845,0.0068 0.08801,-0.117345 0.104627,-0.08117 0.08703,-0.04303 -0.01272,-0.06258 -0.136904,-0.05573 -0.05476,0.01956 -0.03716,0.08605 -0.06161,0.02445 -0.08117,-0.05574 -0.1105,-0.08606 -0.09387,0.01173 -0.117345,0.105611 -0.06161,0.02445 -0.112455,-0.01761 -0.09779,-0.02542 -0.01956,-0.03129 0.08117,-0.04303 0.130058,-0.01272 0.07432,-0.02445 0.0059,-0.07431 0.154504,-0.124189 0.111478,-0.08018 0.08019,-0.09876 0.01956,-0.09876 -0.08801,-0.07432 -0.129079,-0.04987 -0.09974,-0.05573 -0.04889,-0.05574 -0.09975,-0.01956 -0.117345,-0.0176 -0.01173,-0.06845 -0.0929,-0.01858 -0.09975,0.04987 -0.03619,0.01272 0.04205,-0.06845 0.08117,-0.03716 0.117344,0.01173 0.04303,0.06259 0.06845,0.02445 0.117345,0 0.08801,0.01272 0.08606,0.04889 0.111478,0.01956 0.05573,-0.01272 0.01956,-0.03716 -0.06845,-0.0929 -0.131035,-0.117346 -0.117344,-0.03129 -0.04303,-0.12419 -0.112456,-0.04303 -0.123211,-0.03129 -0.044,-0.03031 0.01956,-0.08117 -0.0313,-0.08019 -0.148637,-0.217088 -0.0929,-0.154504 -0.117345,-0.222955 -0.06161,-0.06161 -0.162327,-0.04987 -0.141791,-0.04303 -0.05575,-0.06259 -0.136902,-0.02445 -0.01173,-0.111476 0.06259,-0.06161 0.01173,-0.10561 0.03716,-0.05574 0.04889,-0.123212 0.08117,-0.02543 0.01858,-0.06161 0.03716,-0.09974 0.06259,-0.05476 -0.06845,-0.07432 0.03716,-0.03813 0.06161,0.03227 0.08019,0.01173 0.06845,-0.06845 -0.0059,-0.148637 0.03618,-0.06845 0.05672,-0.01173 0.111476,-0.0929 0.08019,-0.05574 0.10561,-0.08019 0.06161,-0.08019 0.06845,0.01173 0.03031,-0.03031 0.06845,0.06063 0.08019,-0.06063 -0.03031,-0.081163 0.02445,-0.061606 -0.0059,-0.1114772 -0.08117,-0.031289 -0.06845,0.037161 -0.08019,-0.037161 -0.12419,0.048895 -0.09779,0.049872 -0.05672,-0.024448 -0.04303,-0.048894 -0.05574,0.011733 -0.104627,-0.068451 -0.08117,-0.037161 -0.09876,0.037161 -0.105611,0.080185 -0.01858,0.099744 -0.111478,0.098765 -0.01858,0.105611 -0.08019,0.08703 -0.173083,-0.01955 -0.130057,-0.04889 -0.01956,-0.2346895 -0.08018,-0.088008 -0.117345,-0.030313 -0.07431,-0.055739 -0.06845,0.025427 -0.08018,0.048894 -0.07431,-0.062584 -0.09876,-0.080186 -0.06845,-0.1290791 -0.01272,-0.1613489 0.04303,-0.1056101 0.09974,-0.068451 0.05573,-0.011734 0.08703,0.043025 0.06161,-0.031289 0.03716,-0.043025 0.08703,0 0.03618,-0.025428 0.03129,0.013694 0.01858,-0.1241903 0.03031,-0.1124554 0.06845,-0.1104991 0.06259,-0.037161 0,-0.055739 0.130057,-0.080185 0.148637,-0.1124556 0.07432,-0.048894 0.0059,-0.1241901 0.0929,-0.1300569 0.03716,-0.037161 0.01272,-0.080185 0.08019,-0.048895 0.123211,-0.00684 0.08801,-0.049871 0.07431,0.019555 0.123212,0.123212 0.06845,0.048895 -0.04303,0.099743 -0.044,0.097787 -0.03031,0.093876 -0.09974,0.074318 -0.04303,0.048895 -0.0059,0.1251683 -0.05672,0.029339 0.08703,0.05085 0.04889,0.044004 0.08801,-0.025428 -0.03814,0.1056105 -0.01272,0.060628 -0.06845,0.03814 -0.02347,0.048894 -0.05672,0.00684 -0.02445,0.092898 0.03716,0.043025 0.09975,-0.080185 0.08605,-0.099744 0.09876,-0.068451 0.05672,-0.061606 0.04303,-0.097787 0.185795,-0.1681943 0.12908,-0.1065882 0.06259,-0.00587 0.02737,-0.060628 0.113433,-0.019555 0.05086,-0.051827 0.132991,-0.011733 0.08508,-0.051828 0.03325,-0.1593932 0.227844,-0.2855383 0.265004,-0.2249109 0.176016,-0.2953172 0.01173,-0.1926408 0.137881,-0.095831 0.166238,0.1163668 0.357901,-0.047915 0.0098,-0.094853 -0.130057,-0.1447246 0.02152,-0.080185 0.187752,-0.047915 0.176017,-0.1173451 0.0264,-0.1593929 0.13299,-0.035202 0.01173,-0.3226978 0.115388,-0.019555 0.08117,0.1251677 0.115389,0.020536 -0.04889,-0.055739 0.044,-0.075296 0.1193,-0.085076 0.05867,-0.2953174 -0.06356,-0.067473 -0.03911,-0.2777158 -0.233713,-0.4028833 0.127124,-0.060628 0.125168,-0.2591364 0.09681,0.036181 0.37648,-0.030313 -0.01956,-0.2317559 0.07041,-0.085075 0.01956,-0.3070519 0.04498,-0.1036541 -0.04498,-0.1447252 0.01272,-0.097787 -0.01467,-0.2522912 -0.02152,-0.088008 0.03423,-0.083119 0.06552,-0.053783 0.03325,-0.1437474 -0.113433,-0.1261455 -0.002,-0.1613491 -0.117346,-0.049871 -0.188729,0.1388577 -0.09779,0.1349465 -0.09681,0.017601 -0.102676,0.079208 -0.08019,0.1926409 -0.243489,0.1104996 -0.170151,0.013691 -0.114485,0.059443 -0.20538,-0.16626 0.02934,-0.1251734 -0.13786,-0.1418282 -0.03227,-0.1525482 -0.129078,0.044983 -0.350079,-0.2102426 -0.111478,0.053783 -0.205354,-0.093876 -0.131034,0.084097 -0.166238,0.00978 -0.150592,-0.1486362 -0.02542,-0.162327 -0.08801,-0.037159 -0.03227,-0.1760172 -0.222955,-0.2298 -0.0098,-0.1065882 -0.224912,-0.2816272 -0.04205,-0.1505923 -0.101699,-0.1417916 -0.116367,-0.090942 -0.05476,-0.097787 -0.323677,-0.1613494 -0.136902,0.061606 -0.44591,-0.13983578 z m 2.180656,15.38486945 -0.02934,0.04792 0.01272,0.05281 -0.105611,0.03911 -0.07431,0.06062 -0.0352,0.07823 -0.01272,0.09779 -0.05672,0.06063 -0.03911,0.144726 -0.044,0.127122 -0.06552,0.152548 -0.0352,0.127124 -0.01272,0.136903 0.0079,0.127123 0.0352,0.05573 0.05281,0.07921 0.04792,0.139835 0.06161,0.08312 0.07432,0.03031 0.07041,0.01761 0.05672,0.07431 0.0352,0.09192 0,0.05378 0.02152,0.01272 0.05672,-0.01761 0.01369,-0.117345 -0.0264,-0.1105 0.03129,-0.143747 0.08703,-0.140814 0.04889,-0.166238 0.02543,-0.157437 0.01761,-0.451777 0.01761,-0.134947 0.02152,-0.0352 0,-0.09192 -0.03129,-0.0352 -0.02543,-0.0704 0.04303,-0.06943 0.01858,-0.03911 -0.03129,-0.0352 -0.08801,-0.0225 -0.03912,0 -0.044,-0.05183 -0.06062,0 z m -4.938256,3.537943 -0.117345,0.05183 -0.10561,0.03031 -0.162326,0.02249 -0.02152,0.03911 -0.07921,0.0176 -0.127124,-0.02152 -0.03031,0.004 -0.044,0.02249 0,0.04303 -0.03423,0.01761 -0.09779,-0.004 -0.05183,0.0352 0,0.05183 0.06161,0.0048 -0.0352,0.05672 -0.06552,0.01761 -0.188729,0.131035 -0.03031,0.06552 0.01761,0.06161 -0.0225,0.0577 0.0225,0.117345 0.03031,0.07432 0.01761,0.10561 0.131035,0.05672 0.10561,0.04792 0.148636,-0.0088 0.05281,0.04889 0.109521,-0.0176 0,-0.08801 0.08703,-0.02151 0.07823,-0.0048 0.0048,-0.04792 0.08801,-0.109521 0.05281,0 0.05672,-0.0264 0.01761,-0.113433 0.0225,-0.153527 0.06454,-0.139836 0.0665,-0.09192 0.06062,-0.05281 -0.01272,-0.08312 -0.0352,-0.09681 0,-0.08801 -0.0352,-0.01173 z"
     id="path10366"
     style="fill:#ffffff;stroke:#000000;stroke-width:0.1;stroke-miterlimit:4;stroke-dasharray:none"
     inkscape:connector-curvature="0" />
  <path
     d="m 13.046505,16.056367 c 0,0.805569 -0.619132,1.458598 -1.382827,1.458598 -0.763696,0 -1.381831,-0.653029 -1.381831,-1.458598 0,-0.804573 0.618135,-1.457602 1.381831,-1.457602 0.763695,0 1.382827,0.653029 1.382827,1.458598 z"
     id="path5410"
     inkscape:connector-curvature="0"
     style="fill:none;stroke:#ff0000;stroke-width:0.2;stroke-linecap:round;stroke-linejoin:bevel;stroke-miterlimit:4;stroke-dasharray:none" />
  <path
     d="m 12.461271,16.014493 c 0,0.464598 -0.358916,0.841461 -0.801581,0.841461 -0.442665,0 -0.800584,-0.376863 -0.800584,-0.841461 0,-0.464597 0.358917,-0.841461 0.800584,-0.841461 0.442665,0 0.801581,0.376864 0.801581,0.841461 z"
     id="path5412"
     inkscape:connector-curvature="0"
     style="fill:none;stroke:#ff0000;stroke-width:0.1799285;stroke-linecap:round;stroke-linejoin:bevel;stroke-miterlimit:4;stroke-dasharray:none" />
</svg>
